<svg xmlns="http://www.w3.org/2000/svg" viewBox="0 0 1000 120"><rect width="1000" height="120" fill="white"/><path d="M0,0 M355.9,47.7 L355.9,48.0 L355.8,48.8 L355.7,50.0 L355.6,51.8 L355.4,53.9 L355.2,56.3 L355.0,58.8 L354.8,61.3 L354.8,63.4 L354.9,65.1 L355.1,66.1 L355.2,66.6 M348.7,47.2 L348.9,47.2 L349.5,47.3 L350.6,47.3 L352.3,47.3 L354.4,47.2 L356.8,47.0 L359.2,46.7 L361.4,46.4 L363.2,45.9 L364.8,45.5 L365.8,45.2 L366.3,45.0 M367.3,46.1 L367.1,46.7 L366.9,47.8 L366.6,49.4 L366.4,51.3 L366.1,53.5 L365.8,55.8 L365.6,58.1 L365.4,60.1 L365.3,61.8 L365.3,62.9 L365.5,63.3 L365.7,63.1 L366.1,62.3 L366.7,61.0 L367.5,59.4 L368.4,57.7 L369.5,56.2 L370.7,54.9 L372.1,54.1 L373.4,53.7 L374.6,53.8 L375.5,54.5 L376.2,55.7 L376.6,57.3 L376.7,59.1 L376.7,61.0 L376.6,62.8 L376.7,64.1 L376.9,64.9 L377.2,65.2 L377.4,65.2 M380.8,61.2 L381.2,61.2 L381.9,61.0 L382.9,60.6 L384.1,59.8 L385.4,58.7 L386.6,57.5 L387.6,56.2 L388.3,55.1 L388.5,54.0 L388.4,53.3 L387.7,52.8 L386.7,52.8 L385.4,53.3 L384.0,54.3 L382.7,55.7 L381.8,57.4 L381.3,59.2 L381.6,61.0 L382.5,62.6 L384.1,63.7 L386.3,64.5 L388.6,64.7 L390.5,64.7 L391.7,64.7 M410.2,56.4 L410.1,56.2 L410.0,56.0 L409.6,55.7 L409.0,55.4 L408.0,55.2 L406.9,55.3 L405.6,55.8 L404.3,56.6 L403.2,57.8 L402.4,59.3 L402.1,60.8 L402.2,62.3 L402.9,63.4 L403.9,64.1 L405.1,64.2 L406.5,63.8 L407.8,62.9 L409.0,61.6 L410.0,60.1 L410.8,58.5 L411.3,57.1 L411.5,55.9 L411.6,55.2 L411.6,54.9 L411.4,55.1 L411.2,55.8 L410.9,57.2 L410.6,59.2 L410.3,61.6 L410.1,64.4 L410.0,67.3 L410.1,70.1 L410.3,72.7 L410.6,74.7 L411.0,76.1 L411.3,76.8 M415.7,55.4 L415.7,56.0 L415.6,57.1 L415.6,58.6 L415.7,60.4 L415.9,62.1 L416.3,63.6 L416.7,64.6 L417.2,65.0 L417.9,64.8 L418.7,64.0 L419.6,62.7 L420.6,61.0 L421.5,59.1 L422.3,57.4 L423.0,55.8 L423.5,54.7 L423.9,53.9 L424.0,53.6 L424.1,53.9 L424.0,54.7 L424.0,56.0 L423.9,57.7 L423.9,59.5 L424.0,61.3 L424.3,62.8 L424.8,63.8 L425.3,64.3 L425.7,64.4 M430.9,54.3 L430.9,54.6 L430.9,55.2 L430.8,56.3 L430.7,57.8 L430.6,59.5 L430.5,61.2 L430.4,62.4 L430.3,63.2 M431.5,49.3 L431.5,49.1 L431.5,48.9 L431.5,48.7 L431.6,48.7 L431.7,48.8 L431.8,49.1 L432.0,49.4 L432.1,49.6 M441.0,54.4 L440.8,54.2 L440.4,54.0 L439.6,53.9 L438.6,54.1 L437.5,54.8 L436.3,55.8 L435.3,57.1 L434.7,58.6 L434.6,60.2 L435.1,61.5 L436.1,62.6 L437.7,63.1 L439.5,63.1 L441.5,62.5 L443.1,61.6 L444.1,60.9 M447.6,46.1 L447.6,46.4 L447.6,47.1 L447.5,48.4 L447.5,50.0 L447.4,52.0 L447.4,54.3 L447.3,56.5 L447.2,58.6 L447.2,60.3 L447.3,61.5 L447.4,62.2 L447.6,62.5 L447.7,62.4 L447.9,61.8 L448.4,60.9 L449.1,59.5 L450.0,58.0 L451.2,56.5 L452.6,55.1 L454.0,53.9 L455.3,53.0 L456.4,52.4 L457.2,51.9 L457.5,51.7 M449.5,55.6 L449.6,55.8 L450.1,56.1 L451.0,56.6 L452.2,57.3 L453.7,58.2 L455.1,59.1 L456.3,60.1 L457.2,61.0 L457.7,61.7 L457.9,62.3 L458.0,62.6 L457.9,62.7 M471.4,47.4 L471.3,47.9 L471.2,48.8 L471.1,50.1 L470.9,51.9 L470.6,53.9 L470.4,56.2 L470.2,58.5 L470.1,60.6 L470.0,62.2 L470.0,63.4 L470.0,63.9 L470.0,63.7 L470.1,63.0 L470.2,61.8 L470.6,60.2 L471.1,58.5 L471.9,56.9 L473.0,55.4 L474.2,54.1 L475.6,53.2 L477.0,52.8 L478.3,53.0 L479.4,53.6 L480.2,54.7 L480.8,56.2 L480.9,57.8 L480.6,59.3 L479.9,60.7 L478.9,61.7 L477.5,62.2 L476.0,62.3 L474.5,61.9 L473.2,61.2 L472.2,60.3 L471.6,59.4 L471.3,58.9 M484.0,54.3 L484.0,54.5 L484.0,55.1 L484.1,55.9 L484.1,57.1 L484.1,58.6 L484.1,60.1 L484.0,61.4 L484.0,62.5 L484.0,63.0 L484.0,63.1 L484.0,62.5 L484.2,61.5 L484.5,60.0 L484.9,58.4 L485.5,56.8 L486.2,55.3 L487.2,54.1 L488.3,53.1 L489.6,52.5 L491.0,52.3 L492.5,52.5 L493.9,53.0 L494.9,53.5 L495.5,53.9 M500.8,55.2 L500.6,54.9 L500.0,54.5 L499.1,54.3 L497.9,54.3 L496.6,54.7 L495.2,55.6 L494.1,56.8 L493.4,58.3 L493.1,59.9 L493.3,61.4 L494.1,62.5 L495.3,63.2 L496.8,63.4 L498.5,62.9 L500.0,61.9 L501.4,60.6 L502.4,59.0 L502.9,57.4 L502.9,56.0 L502.6,54.8 L502.0,54.0 L501.4,53.5 L501.0,53.3 L500.7,53.2 M508.4,53.3 L508.4,53.5 L508.2,54.0 L508.0,54.9 L507.7,56.1 L507.4,57.7 L507.2,59.4 L507.3,60.9 L507.6,62.2 L508.3,62.8 L509.3,62.9 L510.5,62.2 L511.8,61.1 L512.9,59.7 L513.9,58.2 L514.5,57.0 L514.9,56.1 L515.0,55.6 L514.9,55.7 L514.7,56.2 L514.6,57.2 L514.6,58.6 L514.7,60.2 L515.1,61.7 L515.8,62.9 L516.7,63.7 L517.8,63.8 L519.0,63.4 L520.1,62.4 L521.0,60.9 L521.7,59.1 L522.1,57.3 L522.2,55.7 L522.0,54.4 L521.7,53.5 L521.4,53.1 L521.2,52.9 M527.1,54.2 L527.1,54.3 L527.1,54.8 L527.0,55.7 L526.9,56.8 L526.8,58.2 L526.7,59.6 L526.6,61.0 L526.5,62.1 L526.6,62.9 L526.7,63.1 L526.9,62.9 L527.2,62.2 L527.5,61.0 L527.9,59.4 L528.5,57.7 L529.2,56.0 L530.0,54.4 L531.0,53.2 L532.1,52.3 L533.2,51.8 L534.2,51.9 L535.0,52.6 L535.6,53.7 L536.0,55.3 L536.2,57.1 L536.2,59.0 L536.2,60.8 L536.3,62.2 L536.6,63.1 L537.1,63.5 L537.6,63.4 L538.1,63.2 M561.1,48.9 L561.0,48.5 L560.8,47.8 L560.4,47.0 L559.8,46.4 L559.0,46.1 L558.1,46.2 L557.1,46.7 L556.0,47.7 L555.0,49.3 L554.1,51.4 L553.4,53.8 L553.0,56.3 L552.9,58.9 L552.9,61.3 L553.1,63.4 L553.4,65.1 L553.7,66.2 L554.0,66.6 L554.2,66.6 L554.3,66.5 M549.8,56.0 L550.1,56.0 L550.8,56.0 L551.9,56.0 L553.6,56.0 L555.6,56.1 L557.8,56.1 L559.5,56.2 L560.6,56.2 M569.6,54.9 L569.3,54.7 L568.9,54.3 L568.2,53.9 L567.3,53.8 L566.2,54.1 L564.9,54.8 L563.7,55.9 L562.7,57.2 L562.0,58.8 L562.0,60.3 L562.5,61.6 L563.5,62.5 L564.9,63.0 L566.5,63.0 L568.1,62.5 L569.7,61.5 L571.0,60.2 L571.9,58.6 L572.4,56.9 L572.5,55.4 L572.1,54.1 L571.3,53.1 L570.6,52.5 L570.1,52.1 M579.0,53.5 L579.0,53.5 L578.8,53.5 L578.6,53.8 L578.3,54.4 L578.0,55.3 L577.8,56.4 L577.6,57.7 L577.5,59.2 L577.6,60.6 L577.8,61.9 L578.0,62.7 L578.1,63.2 M577.6,56.8 L577.7,56.8 L577.9,56.9 L578.4,57.1 L579.1,57.3 L580.0,57.5 L581.0,57.6 L581.8,57.7 L582.3,57.8 M592.0,57.2 L592.0,57.2 L592.0,57.2 L591.9,57.3 L591.9,57.6 L591.9,58.1 L591.8,58.8 L591.8,59.7 L591.7,61.0 L591.6,62.4 L591.5,64.0 L591.3,65.7 L591.0,67.4 L590.6,69.0 L590.1,70.5 L589.3,71.9 L588.5,72.9 L587.5,73.6 L586.5,74.0 L585.5,74.1 L584.5,73.8 L583.6,73.2 L583.0,72.3 L582.5,71.4 L582.3,70.8 M595.2,49.3 L595.1,49.3 L595.2,49.3 L595.2,49.5 L595.3,49.6 M600.1,53.6 L599.9,53.5 L599.6,53.5 L599.1,53.6 L598.6,54.0 L598.0,54.6 L597.6,55.5 L597.4,56.6 L597.4,57.9 L597.6,59.1 L598.2,60.1 L599.0,60.9 L599.9,61.3 L601.0,61.3 L602.1,60.8 L603.3,59.9 L604.3,58.7 L605.1,57.2 L605.7,55.7 L606.0,54.2 L606.2,53.1 L606.2,52.2 L606.2,51.9 L606.1,51.9 L606.0,52.5 L605.9,53.5 L605.9,54.8 L605.9,56.4 L606.2,58.1 L606.6,59.6 L607.2,60.7 L607.8,61.5 L608.2,61.8 M611.1,51.6 L611.2,51.7 L611.2,52.0 L611.3,52.6 L611.4,53.7 L611.4,55.0 L611.4,56.5 L611.3,58.1 L611.2,59.4 L611.2,60.4 L611.2,61.1 L611.3,61.4 L611.3,61.3 L611.5,60.6 L611.8,59.5 L612.3,58.0 L612.9,56.3 L613.8,54.7 L614.7,53.2 L615.8,52.0 L616.8,51.3 L617.7,50.9 L618.6,51.1 L619.2,51.8 L619.7,52.9 L619.9,54.3 L619.9,55.8 L619.8,57.3 L619.7,58.6 L619.5,59.4 L619.5,59.8 L619.6,59.7 L619.8,59.1 L620.3,58.0 L621.0,56.5 L622.0,54.9 L623.1,53.3 L624.3,52.0 L625.5,51.0 L626.4,50.4 L627.1,50.2 L627.6,50.6 L627.9,51.3 L628.0,52.5 L628.0,53.9 L627.9,55.5 L627.8,57.1 L627.6,58.2 L627.6,58.9 M632.8,52.1 L632.9,52.4 L632.9,53.2 L632.8,54.3 L632.7,55.8 L632.5,57.6 L632.2,59.6 L632.1,61.8 L631.9,63.9 L631.8,65.7 L631.8,67.3 L631.7,68.3 L631.7,68.8 L631.7,68.8 L631.7,68.1 L631.8,66.9 L631.9,65.3 L632.0,63.3 L632.2,61.3 L632.5,59.1 L632.8,57.1 L633.4,55.2 L634.1,53.6 L635.1,52.4 L636.2,51.5 L637.5,51.1 L638.8,51.0 L640.1,51.5 L641.2,52.3 L642.0,53.3 L642.5,54.5 L642.6,55.8 L642.2,56.9 L641.4,57.9 L640.2,58.6 L638.7,59.1 L637.1,59.3 L635.5,59.3 L634.2,59.1 L633.4,58.9 L632.9,58.7 M650.3,50.9 L650.3,50.6 L650.0,50.2 L649.5,49.8 L648.7,49.6 L647.6,49.7 L646.3,50.1 L645.1,50.7 L644.3,51.4 L643.9,52.4 L644.2,53.4 L645.0,54.5 L646.3,55.6 L647.8,56.7 L649.3,57.8 L650.5,58.8 L651.2,59.7 L651.3,60.3 L650.7,60.7 L649.6,60.8 L648.0,60.8 L646.2,60.5 L644.3,60.0 L642.8,59.6 L641.9,59.3 " stroke="black" stroke-width="1.5" fill="none" stroke-linecap="round"/></svg>