<svg xmlns="http://www.w3.org/2000/svg" viewBox="0 0 1000 120"><path d="M340.1,57.9 L340.2,57.6 L340.2,57.1 L340.1,56.4 L339.7,55.7 L339.0,55.1 L338.2,54.6 L337.3,54.5 L336.6,54.6 L336.1,55.0 L336.1,55.6 L336.5,56.4 L337.2,57.5 L338.2,58.8 L339.2,60.1 L340.2,61.5 L341.0,62.8 L341.5,63.9 L341.6,64.7 L341.2,65.4 L340.3,65.8 L339.1,65.9 L337.6,65.8 L335.8,65.4 L334.1,64.8 L332.6,64.1 L331.5,63.4 L330.8,62.8 L330.4,62.4 M319.4,58.9 L319.6,58.2 L320.0,57.1 L320.6,55.9 L321.6,55.0 L322.8,54.4 L324.3,54.1 L326.0,54.2 L327.7,54.6 L329.3,55.5 L330.5,56.6 L331.3,57.9 L331.7,59.4 L331.5,60.8 L330.8,62.1 L329.7,63.3 L328.3,64.1 L326.6,64.7 L325.0,64.9 L323.6,65.0 L322.8,64.9 L322.6,64.7 L323.0,64.4 L323.6,64.0 L324.1,63.7 M270.0,60.0 L270.1,59.9 L270.2,59.9 L270.4,59.9 L270.6,60.2 L271.0,60.9 L271.2,62.2 L271.4,63.9 L271.5,66.0 L271.5,68.2 L271.4,70.3 L271.3,72.4 L271.1,74.3 L270.8,75.8 L270.3,77.1 L269.6,77.9 L268.9,78.3 L268.1,78.4 L267.4,77.9 L266.8,77.0 L266.3,75.7 L266.2,74.1 L266.4,72.3 L267.0,70.5 L267.9,68.7 L269.2,67.0 L270.7,65.5 L272.2,64.0 L273.8,62.6 L275.3,61.3 L276.7,60.2 L277.9,59.2 L278.8,58.5 L279.4,58.0 L279.7,57.7 L279.8,57.6 L279.7,57.8 L279.5,58.4 L279.2,59.4 L278.8,60.8 L278.5,62.2 L278.3,63.7 L278.3,64.9 L278.6,65.8 L279.1,66.3 L279.8,66.5 L280.7,66.2 L281.7,65.4 L282.8,64.3 L283.8,62.9 L284.8,61.5 L285.6,60.3 L286.2,59.4 L286.5,58.9 L286.6,58.7 L286.6,58.9 L286.4,59.5 L286.2,60.6 L286.0,61.9 L285.9,63.3 L285.9,64.6 L286.1,65.5 L286.6,66.2 L287.2,66.4 L288.2,66.3 L289.3,65.6 L290.6,64.6 L291.9,63.2 L293.2,61.7 L294.2,60.3 L295.0,59.1 L295.6,58.3 L295.9,57.8 L296.1,57.8 L296.1,58.3 L295.9,59.2 L295.6,60.4 L295.3,61.9 L294.9,63.3 L294.7,64.5 L294.6,65.4 L294.6,65.8 L294.8,65.9 L295.3,65.5 L295.9,64.7 L296.8,63.4 L297.9,61.9 L299.1,60.5 L300.2,59.2 L301.2,58.3 L302.1,57.8 L302.8,57.7 L303.4,58.0 L303.8,58.7 L304.0,59.7 L304.0,61.1 L303.8,62.4 L303.6,63.7 L303.3,64.6 L303.2,65.2 L303.2,65.4 L303.5,65.1 L303.9,64.4 L304.6,63.2 L305.5,61.7 L306.5,60.2 L307.6,59.0 L308.6,58.1 L309.6,57.6 L310.4,57.6 L311.1,58.0 L311.6,58.9 L312.1,60.1 L312.4,61.4 L312.6,62.9 L312.7,64.1 L312.9,65.1 L313.1,65.8 L313.3,66.1 L313.7,65.9 L314.2,65.3 L314.8,64.2 L315.5,63.0 L316.3,61.6 L317.0,60.4 L317.7,59.5 L318.3,58.9 L318.8,58.7 L319.2,58.8 L319.5,59.4 L319.8,60.4 L319.9,61.9 L319.9,63.9 L319.8,66.2 L319.5,68.7 L319.2,71.3 L318.9,73.9 L318.6,76.2 L318.4,78.2 L318.3,79.7 L318.2,80.6 L318.2,80.8 L318.2,80.5 L318.2,79.8 L318.2,79.3 M252.9,55.8 L252.9,56.3 L252.8,57.3 L252.9,58.8 L253.1,60.5 L253.5,62.4 L253.9,64.1 L254.4,65.7 L255.0,67.0 L255.6,68.0 L256.4,68.6 L257.0,68.9 L257.4,69.0 M225.7,62.1 L225.8,62.0 L226.1,61.9 L226.8,61.8 L228.0,61.6 L229.5,61.3 L231.4,60.9 L233.4,60.4 L235.6,59.8 L237.7,59.2 L239.8,58.6 L241.7,58.0 L243.3,57.5 L244.4,57.2 L245.1,56.9 L245.3,56.8 L245.1,56.9 L244.5,57.2 L243.5,57.8 L242.1,58.8 L240.7,60.1 L239.3,61.6 L238.4,63.1 L237.9,64.5 L238.0,65.7 L238.7,66.5 L239.8,66.8 L241.1,66.8 L242.6,66.3 L244.1,65.3 L245.3,64.1 L246.2,62.7 L246.7,61.3 L246.7,59.9 L246.5,58.8 L246.1,58.0 L245.8,57.6 L245.6,57.5 L245.5,57.6 L245.6,57.9 L246.0,58.3 L246.6,58.7 L247.5,59.0 L248.7,59.1 L250.2,59.0 L251.8,58.7 L253.4,58.2 L254.9,57.6 L256.2,57.0 L257.3,56.6 L258.2,56.3 L258.9,56.2 L259.4,56.1 L259.6,56.1 L259.7,56.1 L259.7,56.1 L259.7,56.1 M240.5,53.9 L240.6,53.3 L240.6,52.4 L240.5,51.2 L240.1,50.2 L239.6,49.2 L238.7,48.5 L237.7,48.0 L236.6,47.7 L235.5,47.9 L234.4,48.5 L233.5,49.7 L232.6,51.4 L231.9,53.6 L231.3,56.1 L231.0,58.9 L230.8,61.8 L230.7,64.9 L230.8,68.1 L230.9,71.2 L231.0,73.9 L231.2,76.1 L231.4,77.7 L231.5,78.6 L231.6,78.9 M171.4,58.2 L171.5,58.5 L171.6,59.1 L171.7,60.0 L171.9,61.3 L171.9,62.7 L171.8,64.1 L171.6,65.5 L171.3,66.7 L171.1,67.7 L170.9,68.4 L170.9,68.8 L170.9,68.7 L170.8,68.2 L170.8,67.3 L170.9,66.0 L171.0,64.5 L171.4,62.9 L172.0,61.4 L172.9,60.0 L174.0,58.8 L175.5,57.8 L177.0,57.1 L178.5,56.6 L180.0,56.5 L181.3,56.5 L182.5,56.6 L183.4,56.9 L184.0,57.2 L184.2,57.7 L183.9,58.5 L183.2,59.5 L182.3,60.7 L181.2,62.1 L180.2,63.6 L179.4,65.1 L179.0,66.4 L178.9,67.4 L179.3,68.0 L180.1,68.2 L181.1,68.0 L182.3,67.2 L183.5,66.0 L184.5,64.5 L185.2,62.8 L185.5,61.0 L185.5,59.4 L185.2,58.2 L184.7,57.3 L184.3,56.7 L183.9,56.5 L183.8,56.5 L183.9,56.8 L184.3,57.2 L185.1,57.7 L186.1,58.2 L187.5,58.4 L189.1,58.4 L190.6,58.2 L192.1,57.9 L193.3,57.5 L194.2,57.2 L194.7,57.1 L194.9,57.2 L194.8,57.6 L194.5,58.6 L194.0,60.0 L193.4,61.8 L192.8,63.7 L192.4,65.4 L192.3,66.8 L192.4,67.9 L192.7,68.4 L193.2,68.5 L193.9,68.0 L194.6,67.1 L195.5,65.8 L196.3,64.4 L197.1,63.2 L197.6,62.2 L198.0,61.6 L198.2,61.4 L198.3,61.6 L198.4,62.2 L198.7,63.2 L199.1,64.4 L199.6,65.6 L200.1,66.7 L200.8,67.4 L201.5,67.8 L202.3,67.7 L203.2,67.2 L204.0,66.2 L204.6,64.9 L205.1,63.4 L205.3,61.8 L205.3,60.4 L205.3,59.2 L205.2,58.3 L205.2,57.7 L205.2,57.2 L205.4,57.0 L205.6,57.0 L205.9,57.0 L206.1,57.1 L206.3,57.2 L206.4,57.2 L206.4,57.2 L206.5,57.1 L206.5,56.9 L206.5,56.7 L206.5,56.6 L206.6,56.5 L206.8,56.5 L207.0,56.7 L207.4,57.2 L207.8,57.9 L208.2,58.9 L208.5,60.1 L208.8,61.4 L208.9,62.7 L208.8,63.8 L208.8,64.7 L208.7,65.4 L208.6,65.8 L208.6,66.0 L208.6,65.9 L208.7,65.4 L208.9,64.5 L209.2,63.2 L209.8,61.7 L210.5,60.1 L211.5,58.8 L212.6,57.7 L213.8,57.0 L214.9,56.7 L216.1,56.9 L217.0,57.5 L217.7,58.5 L218.2,59.8 L218.5,61.2 L218.6,62.8 L218.6,64.3 L218.5,65.4 L218.5,66.1 M158.2,50.9 L158.3,50.8 L158.4,50.7 L158.5,50.9 L158.6,51.4 L158.7,52.5 L158.8,54.0 L158.8,55.8 L158.8,57.8 L158.8,59.8 L158.8,61.6 L158.9,63.2 L159.0,64.4 L159.1,65.1 L159.1,65.5 L159.1,65.6 L159.0,65.3 L158.9,64.7 L158.9,63.8 L159.3,62.7 L159.9,61.4 L161.0,60.2 L162.3,59.2 L163.9,58.6 L165.6,58.5 L167.3,58.9 L168.7,59.6 L169.9,60.7 L170.6,62.0 L171.0,63.3 L170.8,64.7 L170.2,65.9 L169.1,67.1 L167.6,68.0 L165.8,68.6 L163.9,68.8 L161.9,68.8 L160.1,68.4 L158.6,67.8 L157.5,67.2 L157.0,66.8 M120.0,59.3 L119.9,59.2 L119.6,59.0 L119.2,58.8 L118.5,58.8 L117.6,59.1 L116.5,59.7 L115.4,60.7 L114.5,62.0 L113.8,63.4 L113.4,64.9 L113.5,66.3 L114.1,67.6 L115.2,68.5 L116.7,69.0 L118.5,69.0 L120.4,68.6 L122.3,67.6 L124.0,66.3 L125.5,64.5 L126.7,62.5 L127.6,60.2 L128.3,57.9 L128.7,55.7 L128.9,53.8 L128.9,52.3 L128.9,51.2 L128.9,50.6 L128.8,50.2 L128.8,50.2 L128.8,50.5 L128.8,51.3 L128.7,52.6 L128.6,54.4 L128.6,56.5 L128.6,58.7 L128.7,61.0 L128.8,63.2 L128.9,65.1 L129.0,66.8 L129.0,67.9 L129.0,68.7 L129.0,69.0 L128.9,68.9 L128.9,68.4 L129.0,67.6 L129.2,66.5 L129.7,65.2 L130.5,63.7 L131.5,62.3 L132.7,61.1 L133.9,60.2 L135.0,59.5 L135.8,59.1 L136.4,58.9 L136.5,58.9 L136.4,59.1 L135.8,59.4 L134.9,59.9 L133.5,60.4 L132.0,61.0 L130.4,61.5 L129.0,62.1 L128.0,62.7 L127.4,63.3 L127.2,63.9 L127.5,64.5 L128.2,65.2 L129.3,65.9 L130.6,66.5 L132.2,66.9 L133.9,67.2 L135.6,67.4 L137.3,67.3 L138.9,67.2 L140.0,67.0 L140.6,66.9 M107.6,50.4 L107.6,50.3 L107.7,50.3 L108.0,50.4 L108.2,50.5 M108.3,57.0 L108.4,57.1 L108.6,57.4 L108.8,58.1 L108.9,59.1 L109.1,60.5 L109.1,62.1 L109.1,63.7 L109.2,65.2 L109.3,66.5 L109.4,67.4 L109.6,67.9 L109.7,68.2 M98.5,60.5 L98.5,60.6 L98.6,60.8 L98.8,61.4 L99.0,62.4 L99.3,63.6 L99.7,65.0 L100.1,66.3 L100.4,67.4 L100.8,68.2 L101.1,68.7 L101.5,68.9 L102.0,68.6 L102.4,67.9 L102.9,66.7 L103.5,65.1 L104.0,63.4 L104.5,61.8 L105.0,60.6 L105.3,59.8 L105.5,59.4 L105.6,59.3 L105.7,59.5 L105.8,60.1 L105.9,61.2 L105.9,62.6 L106.0,64.2 L106.1,65.8 L106.2,67.3 L106.4,68.5 L106.7,69.4 L106.9,70.0 L107.0,70.3 M95.8,63.2 L95.8,62.8 L95.9,62.1 L95.8,61.2 L95.5,60.4 L94.8,59.6 L93.8,59.0 L92.5,58.7 L90.9,58.8 L89.2,59.5 L87.5,60.7 L86.1,62.3 L84.9,64.2 L84.2,66.2 L84.0,68.0 L84.4,69.5 L85.2,70.6 L86.3,71.2 L87.7,71.3 L89.1,70.9 L90.7,70.0 L92.1,68.6 L93.5,67.0 L94.6,65.2 L95.5,63.5 L96.1,62.1 L96.4,61.1 L96.5,60.5 L96.6,60.3 L96.6,60.5 L96.5,61.2 L96.3,62.4 L96.0,64.1 L95.6,66.3 L95.2,68.7 L94.9,71.3 L94.6,73.8 L94.5,76.3 L94.4,78.6 L94.4,80.7 L94.4,82.4 L94.5,83.7 L94.7,84.5 L94.8,85.0 L94.9,85.1 M20.2,47.9 L20.1,47.8 L20.0,47.8 L20.2,47.8 L21.0,48.0 L22.3,48.1 L24.1,48.2 L26.2,48.1 L28.6,47.7 L31.1,47.2 L33.6,46.6 L35.9,45.9 L37.9,45.4 L39.5,45.1 L40.7,45.2 L41.6,45.9 L42.1,47.1 L42.5,48.8 L42.6,51.1 L42.6,53.7 L42.5,56.3 L42.4,58.9 L42.4,61.1 L42.4,62.8 L42.5,64.0 L42.6,64.7 L42.8,64.9 L43.0,64.8 L43.3,64.1 L43.9,63.0 L44.7,61.5 L45.8,59.9 L46.9,58.5 L48.1,57.4 L49.3,56.8 L50.4,56.7 L51.4,57.1 L52.3,58.0 L53.0,59.4 L53.5,61.1 L53.9,62.9 L54.2,64.7 L54.4,66.2 L54.7,67.3 L55.0,68.1 L55.5,68.5 L56.1,68.4 L56.9,68.0 L58.0,67.0 L59.3,65.7 L60.6,64.0 L61.8,62.2 L62.8,60.5 L63.4,59.2 L63.5,58.2 L63.3,57.7 L62.6,57.7 L61.7,58.2 L60.7,59.3 L59.7,60.7 L59.0,62.5 L58.7,64.3 L59.1,65.9 L60.0,67.2 L61.5,68.2 L63.4,68.8 L65.6,69.1 L67.5,69.1 L68.7,69.1 M27.6,50.5 L27.7,50.4 L27.8,50.4 L27.9,50.6 L28.1,51.3 L28.2,52.7 L28.3,54.8 L28.2,57.3 L28.1,60.0 L27.9,62.6 L27.8,64.8 L27.8,66.7 L27.9,68.1 L27.9,68.9 L27.9,69.1 L27.8,68.9 L27.7,68.6 " stroke="black" stroke-width="1.52" fill="none" stroke-linecap="round"/></svg>