<svg xmlns="http://www.w3.org/2000/svg" viewBox="0 0 1000 120"><rect width="1000" height="120" fill="white"/><path d="M0,0 M322.3,71.2 L323.4,72.2 L324.7,73.3 M341.6,46.6 L341.7,47.1 L341.7,48.2 L341.7,50.0 L341.7,52.3 L341.6,55.0 L341.5,58.1 L341.4,61.4 L341.3,64.7 L341.3,67.9 L341.3,70.7 L341.2,72.9 L341.2,74.3 L341.2,74.8 L341.2,74.3 L341.2,73.4 L341.2,72.6 M333.6,45.2 L334.0,45.1 L334.9,45.0 L336.5,45.0 L338.7,45.1 L341.2,45.2 L343.9,45.4 L346.5,45.6 L348.9,45.7 L350.9,45.8 L352.4,45.9 L353.4,45.9 L353.9,45.8 M353.9,47.1 L354.0,47.4 L354.1,48.2 L354.1,49.4 L354.1,51.1 L353.8,53.2 L353.5,55.5 L353.0,58.2 L352.6,60.9 L352.2,63.6 L352.0,65.9 L351.9,67.7 L352.0,68.9 L352.2,69.4 L352.7,69.3 L353.4,68.5 L354.3,67.1 L355.4,65.5 L356.5,63.8 L357.7,62.4 L358.6,61.3 L359.4,60.8 L360.0,60.8 L360.4,61.3 L360.6,62.4 L360.6,64.0 L360.7,65.8 L361.0,67.7 L361.4,69.4 L362.2,70.8 L363.2,71.5 L364.6,71.7 L366.1,71.2 L367.7,70.1 L369.3,68.4 L370.7,66.4 L371.8,64.5 L372.4,62.7 L372.7,61.3 L372.5,60.4 L372.0,60.0 L371.2,60.3 L370.3,61.1 L369.3,62.5 L368.7,64.4 L368.6,66.5 L369.2,68.6 L370.1,70.3 L370.8,71.3 M398.8,65.6 L398.7,65.2 L398.4,64.5 L397.9,63.8 L397.1,63.2 L396.1,63.0 L394.8,63.2 L393.4,63.9 L391.9,65.2 L390.6,66.8 L389.7,68.5 L389.4,70.2 L389.5,71.7 L390.2,72.7 L391.2,73.2 L392.5,73.0 L393.9,72.2 L395.3,70.9 L396.8,69.2 L398.0,67.4 L399.0,65.7 L399.8,64.2 L400.2,63.2 L400.4,62.7 L400.3,62.7 L400.1,63.3 L399.6,64.5 L399.0,66.5 L398.2,69.0 L397.4,72.1 L396.8,75.4 L396.3,78.7 L395.9,81.9 L395.7,84.7 L395.7,86.9 L395.8,88.3 L395.8,88.9 M402.1,63.8 L402.1,63.8 L402.1,64.0 L402.0,64.6 L401.8,65.7 L401.6,67.2 L401.4,68.8 L401.3,70.5 L401.4,71.9 L401.7,72.9 L402.2,73.3 L403.1,73.2 L404.3,72.5 L405.7,71.2 L407.1,69.6 L408.4,67.8 L409.5,66.2 L410.3,64.9 L410.8,64.0 L410.9,63.6 L410.9,63.7 L410.6,64.3 L410.1,65.4 L409.7,66.8 L409.4,68.4 L409.3,69.9 L409.5,71.2 L410.1,72.0 L410.9,72.4 L411.9,72.3 L413.1,71.7 L414.4,70.6 L415.6,69.2 L416.8,67.8 L417.7,66.6 L418.3,65.6 L418.6,65.0 L418.7,64.9 L418.7,65.2 L418.5,66.0 L418.2,67.3 L417.9,68.9 L417.8,70.5 L418.0,72.0 L418.4,73.1 L419.2,73.8 L420.2,74.0 L421.1,73.8 L421.7,73.6 M419.9,57.4 L420.0,57.3 L420.2,57.3 L420.4,57.4 M427.5,64.2 L427.4,64.2 L427.1,64.2 L426.6,64.3 L425.9,64.7 L425.0,65.4 L424.1,66.5 L423.3,67.8 L422.7,69.2 L422.5,70.7 L422.8,72.0 L423.6,73.0 L424.7,73.6 L426.3,73.7 L428.1,73.2 L430.1,72.1 L432.1,70.3 L434.1,68.1 L435.9,65.5 L437.4,62.7 L438.7,60.0 L439.6,57.5 L440.3,55.5 L440.7,54.0 L440.8,53.1 L440.7,52.9 L440.4,53.4 L439.8,54.5 L439.1,56.3 L438.4,58.6 L437.6,61.2 L436.9,63.9 L436.3,66.4 L435.9,68.6 L435.7,70.2 L435.6,71.2 L435.8,71.5 L436.2,71.0 L436.9,70.0 L437.9,68.4 L439.1,66.7 L440.5,64.9 L442.0,63.3 L443.3,62.1 L444.5,61.4 L445.4,61.1 L445.9,61.3 L445.9,62.0 L445.5,62.9 L444.7,64.1 L443.7,65.3 L442.6,66.5 L441.6,67.6 L440.9,68.5 L440.5,69.1 L440.5,69.5 L440.7,69.8 L441.2,70.0 L442.0,70.1 L442.9,70.1 L443.9,70.1 L444.9,70.0 L445.9,70.0 L446.6,70.0 L447.1,70.1 M462.3,68.5 L462.8,68.3 L463.6,67.7 L464.8,66.7 L466.2,65.2 L467.7,63.5 L469.1,61.4 L470.3,59.2 L471.4,56.9 L472.1,54.7 L472.7,52.7 L472.9,51.0 L473.0,49.7 L472.7,49.0 L472.2,48.9 L471.4,49.6 L470.4,51.0 L469.2,53.1 L468.0,55.8 L467.0,58.9 L466.4,62.0 L466.2,64.9 L466.4,67.3 L467.0,69.2 L468.0,70.4 L469.2,70.9 L470.4,70.7 L471.7,70.0 L472.8,68.8 L473.7,67.2 L474.2,65.6 L474.5,64.0 L474.4,62.7 L474.2,61.8 L474.0,61.2 L473.8,60.9 L473.7,61.0 L473.8,61.4 L474.2,62.0 L474.8,62.7 L475.7,63.2 L476.9,63.6 L478.2,63.7 L479.6,63.5 L480.9,63.1 L482.1,62.6 L483.0,62.2 L483.6,61.9 L484.0,61.7 L484.0,61.9 L483.9,62.3 L483.5,63.1 L483.1,64.2 L482.5,65.6 L481.9,66.9 L481.4,68.1 L481.0,69.0 L480.8,69.4 L480.8,69.4 L481.0,68.9 L481.3,68.0 L481.9,66.7 L482.7,65.3 L483.6,64.0 L484.7,62.8 L486.0,61.9 L487.4,61.2 L488.9,60.8 L490.4,60.8 L492.0,60.9 L493.3,61.1 L494.4,61.4 L495.2,61.6 L495.8,61.6 L496.0,61.6 L495.9,61.4 L495.6,61.2 L495.0,61.1 L494.1,61.2 L493.0,61.7 L491.9,62.4 L490.8,63.5 L489.8,64.8 L489.2,66.2 L489.0,67.5 L489.3,68.7 L489.8,69.6 L490.7,70.0 L491.7,69.9 L492.9,69.4 L494.1,68.3 L495.1,66.9 L495.9,65.2 L496.3,63.6 L496.5,62.1 L496.4,60.9 L496.3,60.0 L496.1,59.5 L496.0,59.3 L496.1,59.3 L496.5,59.5 L497.2,59.8 L498.2,60.1 L499.5,60.2 L501.0,60.2 L502.6,60.0 L504.0,59.8 L505.2,59.6 L505.9,59.5 L506.2,59.5 L506.1,59.7 L505.6,60.2 L504.8,61.1 L503.9,62.3 L502.9,63.7 L502.0,65.3 L501.3,66.8 L500.9,68.0 L500.8,68.9 L501.0,69.4 L501.5,69.5 L502.3,69.0 L503.4,68.1 L504.7,66.9 L505.9,65.6 L507.0,64.3 L507.9,63.3 L508.4,62.6 L508.6,62.3 L508.6,62.4 L508.5,63.0 L508.3,64.0 L508.2,65.2 L508.3,66.5 L508.5,67.7 L508.9,68.6 L509.6,69.2 L510.4,69.2 L511.4,68.8 L512.4,67.9 L513.5,66.6 L514.4,65.0 L515.2,63.4 L515.7,61.9 L516.1,60.5 L516.3,59.4 L516.4,58.8 L516.4,58.5 L516.4,58.5 L516.5,58.8 L516.7,59.5 L516.9,60.3 L517.2,61.2 L517.6,62.2 L518.0,63.1 L518.4,63.9 L518.8,64.7 L519.1,65.4 L519.3,65.9 L519.5,66.3 L519.6,66.5 L519.7,66.6 L519.8,66.5 L519.9,66.3 L520.1,65.8 L520.5,65.1 L521.1,64.1 L522.0,63.1 L523.0,62.2 L524.0,61.5 L525.0,60.9 L525.9,60.6 L526.7,60.5 L527.5,60.7 L528.1,61.0 L528.7,61.6 L529.0,62.3 L529.3,63.1 L529.4,64.0 L529.5,64.9 L529.6,65.8 L529.6,66.6 L529.8,67.3 L530.0,67.9 L530.2,68.3 L530.4,68.6 L530.6,68.8 L530.7,68.9 L530.8,68.9 L530.9,68.9 L531.1,68.8 L531.1,68.8 M548.0,69.9 L548.1,69.9 L548.3,69.9 L548.8,69.6 L549.4,68.9 L550.4,67.8 L551.5,66.2 L552.6,64.2 L553.9,62.0 L555.1,59.4 L556.2,56.8 L557.2,54.2 L558.0,51.7 L558.7,49.5 L559.1,47.7 L559.3,46.3 L559.3,45.5 L559.2,45.1 L558.9,45.3 L558.4,46.0 L557.6,47.5 L556.6,49.5 L555.6,52.2 L554.4,55.3 L553.3,58.8 L552.2,62.4 L551.2,66.2 L550.4,69.8 L549.7,73.3 L549.2,76.4 L548.9,79.0 L548.7,80.9 L548.7,81.9 L548.9,82.0 L549.3,81.1 L549.7,80.0 L550.0,79.0 M548.3,63.5 L548.4,63.5 L548.9,63.7 L549.8,63.8 L551.2,64.0 L552.9,64.0 L554.8,63.8 L556.8,63.5 L558.9,62.9 L560.9,62.1 L562.6,61.4 L564.0,60.7 L564.9,60.2 L565.1,60.0 L564.8,60.2 L564.1,60.9 L562.9,61.9 L561.6,63.2 L560.4,64.7 L559.5,66.3 L559.1,67.6 L559.2,68.5 L559.8,69.0 L560.8,68.9 L562.0,68.4 L563.3,67.3 L564.5,65.8 L565.4,64.1 L565.9,62.3 L565.9,60.8 L565.4,59.5 L564.8,58.7 L564.1,58.2 L563.6,58.1 L563.4,58.2 L563.5,58.6 L564.1,59.0 L565.2,59.4 L566.7,59.7 L568.6,59.6 L570.8,59.3 L573.0,58.7 L574.9,58.0 L576.5,57.3 L577.6,56.7 L578.2,56.4 L578.4,56.4 L578.2,56.8 L577.8,57.7 L577.2,59.0 L576.4,60.7 L575.5,62.7 L574.4,64.8 L573.3,66.8 L572.2,68.6 L571.1,70.0 L570.2,70.8 L569.5,71.2 L569.1,71.3 L569.0,71.2 M573.1,67.7 L573.3,67.7 L573.7,67.7 L574.2,67.7 L574.9,67.5 L575.8,67.2 L576.8,66.7 L578.0,66.0 L579.2,65.3 L580.5,64.4 L581.6,63.5 L582.7,62.6 L583.5,61.6 L584.1,60.7 L584.6,60.0 L584.8,59.4 L585.0,58.9 L585.0,58.7 L585.0,58.6 L585.0,58.5 L585.0,58.6 L585.0,58.6 L585.0,58.6 L585.0,58.7 L585.1,58.7 L585.1,58.7 L585.1,58.7 L585.2,58.7 L585.2,58.7 L585.2,58.7 L585.3,58.7 L585.3,58.7 L585.3,58.7 L585.4,58.7 L585.4,58.7 L585.4,58.7 L585.4,58.7 L585.4,58.7 L585.4,58.7 L585.4,58.7 L585.4,58.7 L585.3,58.6 L585.3,58.6 L585.3,58.6 L585.3,58.6 L585.2,58.5 L585.2,58.5 L585.2,58.5 L585.2,58.5 L585.2,58.5 L585.2,58.5 L585.2,58.5 M605.0,57.2 L605.0,57.1 L605.1,57.0 L605.1,57.0 L605.0,57.2 L604.8,57.9 L604.5,59.1 L604.2,60.8 L603.7,62.8 L603.3,65.2 L602.7,67.8 L602.1,70.6 L601.4,73.5 L600.5,76.3 L599.4,78.9 L598.2,81.2 L597.0,82.9 L595.8,84.1 L594.6,84.7 L593.7,84.7 L593.0,84.2 L592.6,83.2 L592.6,81.9 L593.0,80.3 L593.9,78.5 L595.2,76.6 L596.9,74.7 L599.0,72.7 L601.3,70.8 L603.7,68.8 L606.2,66.8 L608.7,64.9 L611.0,63.0 L613.1,61.4 L614.7,60.0 L615.9,58.9 L616.5,58.2 L616.8,58.0 L616.6,58.2 L616.2,58.9 L615.6,60.0 L614.9,61.6 L614.3,63.3 L613.8,65.0 L613.7,66.5 L614.0,67.5 L614.4,68.1 L615.1,68.2 L615.9,67.9 L616.9,67.0 L618.0,65.8 L619.1,64.3 L620.2,62.7 L621.1,61.3 L621.7,60.2 L622.2,59.4 L622.4,59.0 L622.4,59.0 L622.3,59.3 L622.0,60.1 L621.7,61.3 L621.5,62.7 L621.3,64.3 L621.4,65.7 L621.7,67.0 L622.2,67.8 L623.0,68.3 L624.0,68.3 L625.2,67.9 L626.6,67.0 L628.0,65.8 L629.4,64.3 L630.6,62.8 L631.6,61.5 L632.3,60.4 L632.7,59.6 L632.9,59.3 L632.9,59.3 L632.7,59.8 L632.4,60.7 L632.0,61.9 L631.6,63.3 L631.3,64.7 L631.0,65.9 L630.9,66.7 L630.8,67.2 L630.9,67.3 L631.2,66.9 L631.7,66.0 L632.5,64.8 L633.6,63.4 L634.9,61.9 L636.3,60.5 L637.6,59.5 L638.8,58.9 L639.7,58.8 L640.5,59.1 L640.9,59.9 L641.0,61.0 L640.8,62.4 L640.4,63.8 L639.9,65.0 L639.5,65.9 L639.3,66.4 L639.2,66.6 L639.3,66.3 L639.7,65.6 L640.5,64.4 L641.5,63.1 L642.8,61.6 L644.1,60.4 L645.5,59.4 L646.7,58.7 L647.7,58.4 L648.4,58.5 L648.8,59.0 L648.9,59.9 L648.7,61.0 L648.4,62.3 L648.1,63.6 L648.0,64.8 L648.1,65.7 L648.6,66.1 L649.4,66.0 L650.6,65.4 L652.0,64.4 L653.6,63.1 L655.0,61.7 L656.3,60.4 L657.2,59.4 L657.8,58.7 L658.1,58.5 L658.1,58.6 L657.9,59.2 L657.6,60.3 L657.1,62.0 L656.4,64.2 L655.7,66.7 L654.9,69.5 L654.1,72.3 L653.3,75.0 L652.7,77.3 L652.2,79.1 L651.8,80.4 L651.6,81.0 L651.5,81.0 L651.6,80.4 L651.8,79.1 L652.3,77.2 L653.0,74.8 L653.8,72.3 L654.9,69.7 L656.1,67.2 L657.3,65.0 L658.7,63.1 L660.1,61.7 L661.6,60.8 L663.1,60.5 L664.5,60.7 L665.7,61.3 L666.6,62.2 L667.1,63.3 L667.0,64.5 L666.5,65.6 L665.5,66.6 L664.2,67.4 L662.6,67.9 L661.1,68.2 L659.7,68.3 L658.6,68.1 L658.0,67.7 L657.7,67.3 L657.6,66.9 M676.6,55.9 L676.4,55.8 L675.9,55.9 L675.3,56.1 L674.6,56.6 L673.9,57.3 L673.3,58.2 L673.0,59.2 L673.1,60.4 L673.5,61.6 L674.3,62.8 L675.3,64.0 L676.2,65.2 L677.1,66.2 L677.6,67.1 L677.7,67.8 L677.3,68.4 L676.5,68.7 L675.2,68.9 L673.7,69.0 L671.9,68.8 L669.9,68.3 L667.9,67.6 L666.3,66.9 L665.3,66.4 " stroke="black" stroke-width="1.5" fill="none" stroke-linecap="round"/></svg>