<svg xmlns="http://www.w3.org/2000/svg" viewBox="0 0 1000 120"><path d="M336.0,54.3 L335.8,54.0 L335.3,53.5 L334.6,53.1 L333.7,52.9 L332.6,52.8 L331.6,53.1 L330.7,53.6 L330.1,54.2 L330.1,55.1 L330.6,56.0 L331.7,57.0 L333.1,58.0 L334.7,59.0 L336.2,59.9 L337.4,60.7 L338.1,61.4 L338.2,61.9 L337.6,62.3 L336.5,62.5 L334.8,62.6 L332.8,62.5 L330.8,62.3 L329.1,62.2 L328.1,62.0 M318.1,54.5 L318.1,54.6 L318.2,54.9 L318.2,55.6 L318.2,56.8 L318.0,58.4 L317.8,60.4 L317.5,62.8 L317.1,65.2 L316.8,67.5 L316.5,69.5 L316.3,71.0 L316.2,71.7 L316.2,71.8 L316.2,71.2 L316.4,69.9 L316.5,68.0 L316.8,65.8 L317.1,63.5 L317.6,61.0 L318.4,58.8 L319.3,56.8 L320.4,55.1 L321.7,54.0 L323.0,53.3 L324.2,53.2 L325.5,53.6 L326.5,54.5 L327.3,55.8 L327.7,57.3 L327.7,58.8 L327.2,60.1 L326.3,61.2 L325.0,61.9 L323.6,62.3 L322.0,62.4 L320.7,62.2 L319.7,61.8 L319.2,61.3 L319.0,60.7 L319.1,60.3 M297.9,53.9 L297.9,54.2 L298.0,54.8 L298.0,55.8 L298.1,57.1 L298.1,58.5 L298.1,59.8 L298.1,61.0 L298.2,61.8 L298.3,62.2 L298.5,62.2 L298.9,61.6 L299.3,60.5 L299.9,59.1 L300.6,57.5 L301.4,56.0 L302.2,54.6 L302.9,53.6 L303.6,53.0 L304.1,52.8 L304.4,53.0 L304.6,53.8 L304.7,55.0 L304.7,56.5 L304.6,58.1 L304.5,59.6 L304.3,60.9 L304.3,61.7 L304.3,62.0 L304.5,61.8 L305.0,61.0 L305.7,59.7 L306.6,58.2 L307.6,56.5 L308.7,55.0 L309.8,53.8 L310.7,53.0 L311.4,52.7 L311.9,52.8 L312.2,53.3 L312.4,54.4 L312.5,55.7 L312.6,57.3 L312.7,58.6 L312.8,59.4 M283.7,53.6 L283.7,53.7 L283.7,54.0 L283.8,54.5 L283.8,55.5 L283.8,56.7 L283.8,58.1 L283.8,59.6 L284.0,61.0 L284.2,62.2 L284.5,63.0 L285.1,63.3 L285.8,63.2 L286.7,62.5 L287.7,61.5 L288.8,60.1 L289.9,58.5 L290.8,57.0 L291.5,55.6 L291.9,54.6 L292.2,54.1 L292.2,53.9 L292.1,54.3 L291.9,55.1 L291.6,56.5 L291.3,58.1 L291.0,59.8 L291.0,61.4 L291.3,62.6 L292.0,63.3 L293.1,63.5 L294.0,63.3 L294.7,63.1 M275.8,57.9 L275.9,58.1 L276.0,58.6 L276.1,59.3 L276.2,60.4 L276.3,61.8 L276.4,63.5 L276.4,65.5 L276.4,67.5 L276.3,69.6 L276.3,71.6 L276.2,73.4 L276.0,74.9 L275.7,76.0 L275.3,76.8 L274.6,77.2 L273.8,77.2 L272.9,76.7 L272.0,75.8 L271.3,75.0 L270.9,74.3 M253.3,59.0 L253.3,59.0 L253.4,59.0 L253.6,59.1 L253.9,59.3 L254.3,59.6 L254.8,59.8 L255.0,60.0 M252.6,55.4 L252.6,55.7 L252.5,56.3 L252.4,57.2 L252.3,58.3 L252.3,59.7 L252.3,61.2 L252.5,62.6 L252.7,63.7 L253.1,64.4 L253.5,64.6 L253.8,64.5 L254.0,64.3 M241.8,57.2 L241.4,57.0 L240.7,56.7 L239.7,56.6 L238.5,56.8 L237.3,57.4 L236.2,58.3 L235.4,59.5 L235.0,60.7 L235.2,61.9 L235.9,62.9 L237.2,63.4 L238.8,63.5 L240.5,63.1 L242.2,62.4 L243.6,61.3 L244.5,60.0 L245.1,58.7 L245.1,57.4 L244.7,56.3 L244.0,55.5 L243.1,55.0 L242.3,54.8 L241.8,54.8 M242.6,58.6 M225.1,59.2 L225.1,59.2 L225.4,59.3 L226.1,59.3 L227.3,59.4 L229.1,59.4 L231.3,59.4 L233.1,59.4 L234.3,59.3 M235.8,51.4 L235.6,51.0 L235.3,50.4 L234.8,49.6 L234.2,49.1 L233.4,48.7 L232.6,48.7 L231.7,48.9 L230.9,49.5 L230.0,50.5 L229.3,51.9 L228.8,53.8 L228.4,55.9 L228.1,58.2 L228.1,60.6 L228.2,62.9 L228.5,64.9 L229.0,66.3 L229.5,67.3 L229.9,67.7 L230.2,67.8 M203.8,54.4 L203.7,54.6 L203.7,55.2 L203.6,56.1 L203.4,57.3 L203.2,58.8 L203.0,60.2 L202.8,61.5 L202.7,62.5 L202.7,63.2 L202.9,63.4 L203.1,63.1 L203.4,62.4 L204.0,61.2 L204.6,59.8 L205.4,58.3 L206.3,56.9 L207.3,55.7 L208.5,54.8 L209.6,54.3 L210.7,54.3 L211.7,54.8 L212.4,55.6 L212.9,56.9 L213.1,58.5 L213.2,60.1 L213.1,61.8 L213.1,63.2 L213.2,64.4 L213.4,65.2 L213.7,65.6 L214.1,65.7 L214.3,65.7 M185.4,55.8 L185.4,55.7 L185.2,55.7 L185.0,56.0 L184.8,56.7 L184.5,57.9 L184.4,59.3 L184.4,60.7 L184.7,62.0 L185.2,62.9 L186.0,63.4 L187.0,63.3 L188.1,62.6 L189.2,61.5 L190.2,60.1 L191.0,58.6 L191.5,57.2 L191.8,56.2 L191.9,55.5 L191.9,55.3 L191.8,55.5 L191.7,56.2 L191.7,57.4 L191.8,58.9 L192.1,60.5 L192.6,61.9 L193.5,63.0 L194.6,63.6 L195.8,63.6 L197.0,63.1 L198.1,62.1 L199.1,60.8 L199.7,59.3 L199.9,57.7 L199.7,56.3 L199.4,55.3 L199.2,54.7 M177.6,56.0 L177.3,55.7 L176.8,55.3 L176.1,55.0 L175.1,54.9 L174.0,55.2 L172.7,55.9 L171.5,57.0 L170.6,58.4 L170.1,59.9 L170.2,61.2 L170.9,62.2 L172.1,62.9 L173.7,63.0 L175.5,62.5 L177.3,61.6 L178.8,60.3 L179.9,58.9 L180.4,57.5 L180.4,56.3 L180.1,55.3 L179.5,54.7 L178.8,54.6 L178.3,54.7 L178.0,54.8 M159.7,55.4 L159.7,55.5 L159.7,55.7 L159.7,56.2 L159.6,57.1 L159.6,58.3 L159.5,59.8 L159.3,61.1 L159.2,62.3 L159.1,63.0 L159.1,63.3 L159.2,63.1 L159.3,62.4 L159.5,61.2 L159.8,59.8 L160.3,58.1 L161.1,56.5 L162.0,55.2 L163.2,54.1 L164.5,53.3 L166.0,53.0 L167.6,53.2 L169.2,53.8 L170.5,54.5 L171.2,55.0 M145.3,48.5 L145.3,49.0 L145.3,49.8 L145.3,51.0 L145.3,52.5 L145.2,54.2 L145.0,56.1 L144.8,57.9 L144.7,59.5 L144.7,60.9 L144.7,61.9 L144.8,62.4 L145.0,62.3 L145.2,61.8 L145.7,60.9 L146.3,59.6 L147.1,58.3 L148.2,57.0 L149.4,55.8 L150.8,55.1 L152.2,54.7 L153.6,54.7 L154.8,55.2 L155.8,56.0 L156.5,57.2 L156.9,58.5 L156.8,59.8 L156.2,60.9 L155.1,61.8 L153.7,62.4 L152.0,62.7 L150.4,62.7 L148.9,62.4 L147.8,61.8 L147.1,61.2 L146.7,60.5 L146.7,60.1 M127.9,54.9 L127.3,55.1 L126.4,55.4 L125.2,55.9 L124.1,56.7 L123.2,57.6 L122.7,58.7 L122.7,59.7 L123.5,60.7 L124.9,61.5 L127.0,62.2 L128.8,62.6 L130.1,62.7 M123.2,47.8 L123.1,48.3 L122.9,49.4 L122.8,50.9 L122.7,52.8 L122.6,54.9 L122.5,57.0 L122.4,59.1 L122.4,60.9 L122.5,62.3 L122.8,63.0 L123.0,63.3 L123.2,63.3 M116.2,55.3 L115.8,55.1 L115.0,54.8 L113.9,54.6 L112.5,55.0 L111.0,55.7 L109.5,56.9 L108.4,58.4 L107.8,60.0 L107.9,61.5 L108.8,62.7 L110.3,63.5 L112.4,63.8 L114.8,63.4 L117.3,62.4 L119.1,61.3 L120.3,60.4 M106.1,50.0 L106.0,49.9 L106.0,49.9 L106.0,49.9 L106.1,50.0 M104.9,55.0 L104.9,55.1 L104.8,55.6 L104.7,56.4 L104.5,57.6 L104.4,59.1 L104.3,60.7 L104.3,62.2 L104.4,63.4 L104.7,64.2 L105.1,64.3 L105.4,64.1 L105.7,63.8 M90.4,55.0 L90.1,55.3 L89.9,55.9 L89.6,57.0 L89.4,58.4 L89.4,60.0 L89.6,61.6 L89.9,62.8 L90.5,63.6 L91.3,63.8 L92.3,63.4 L93.4,62.4 L94.5,60.9 L95.7,59.1 L96.7,57.4 L97.6,55.9 L98.1,54.8 L98.4,54.1 L98.5,53.8 L98.5,54.1 L98.3,54.9 L98.2,56.1 L98.1,57.7 L98.0,59.4 L98.1,61.1 L98.4,62.4 L99.0,63.2 L99.5,63.6 L99.9,63.6 M81.4,55.9 L81.1,55.7 L80.7,55.3 L80.1,54.9 L79.3,54.8 L78.4,55.1 L77.4,55.8 L76.4,56.8 L75.6,58.2 L75.1,59.8 L75.0,61.3 L75.4,62.6 L76.3,63.4 L77.5,63.7 L78.9,63.5 L80.3,62.7 L81.7,61.6 L82.8,60.2 L83.5,58.8 L84.0,57.6 L84.2,56.7 L84.3,56.2 L84.2,56.0 L84.1,56.3 L83.9,57.1 L83.6,58.4 L83.3,60.3 L83.0,62.6 L82.8,65.2 L82.7,67.8 L82.7,70.3 L82.9,72.5 L83.3,74.0 L83.8,74.8 L84.4,74.9 L84.9,74.5 L85.3,74.0 M53.2,59.7 L53.4,59.7 L53.9,59.5 L54.7,59.0 L55.6,58.3 L56.7,57.2 L57.7,56.0 L58.6,54.6 L59.2,53.3 L59.5,52.1 L59.4,51.3 L59.1,50.9 L58.5,50.9 L57.6,51.6 L56.5,52.8 L55.5,54.6 L54.8,56.7 L54.5,58.9 L54.6,60.9 L55.3,62.6 L56.7,63.7 L58.7,64.1 L61.3,63.7 L63.7,63.1 L65.4,62.4 M40.1,45.2 L39.9,45.8 L39.7,47.1 L39.6,48.8 L39.5,50.8 L39.5,52.9 L39.5,55.1 L39.6,57.0 L39.7,58.8 L39.9,60.2 L40.1,61.1 L40.3,61.4 L40.5,61.2 L40.8,60.3 L41.2,58.9 L41.9,57.2 L42.7,55.4 L43.6,53.7 L44.6,52.3 L45.5,51.3 L46.4,50.8 L47.3,50.9 L48.0,51.5 L48.5,52.6 L48.7,54.2 L48.8,56.2 L48.8,58.3 L48.8,60.2 L49.0,61.9 L49.3,63.1 L49.8,63.6 L50.3,63.8 L50.6,63.7 M21.3,45.3 L21.8,45.4 L22.9,45.6 L24.5,45.7 L26.6,45.9 L28.9,45.9 L31.4,45.9 L33.4,45.9 L34.7,45.8 M29.1,48.9 L29.1,49.3 L29.1,50.3 L29.0,51.7 L28.9,53.5 L28.8,55.6 L28.6,57.7 L28.5,60.0 L28.5,62.1 L28.6,63.9 L28.9,65.3 L29.2,66.1 L29.4,66.4 " stroke="black" stroke-width="1.46" fill="none" stroke-linecap="round"/></svg>