<svg xmlns="http://www.w3.org/2000/svg" viewBox="0 0 1000 120"><path d="M367.1,68.0 L367.1,68.0 L367.3,68.1 L367.7,68.0 L368.5,67.7 L369.6,67.1 L371.1,66.1 L372.8,64.9 L374.5,63.7 L376.1,62.5 L377.4,61.7 L378.3,61.1 L378.8,60.8 L378.9,61.0 L378.7,61.6 L378.1,62.7 L377.1,64.3 L375.8,66.3 L374.4,68.5 L372.8,70.9 L371.3,73.1 L369.7,75.2 L368.3,76.9 L366.8,78.2 L365.6,79.0 L364.5,79.4 L363.7,79.4 L363.2,78.9 L363.1,78.0 L363.5,76.8 L364.4,75.3 L365.8,73.7 L367.7,72.0 L370.0,70.3 L372.6,68.8 L375.4,67.3 L378.3,66.0 L381.2,64.9 L383.9,64.0 L386.2,63.4 L388.1,63.0 L389.5,62.8 L390.4,62.8 L390.6,63.1 L390.3,63.7 L389.7,64.6 L388.7,65.7 L387.7,67.0 L386.8,68.2 L386.1,69.2 L385.8,70.0 L385.8,70.4 L386.3,70.5 L387.1,70.2 L388.4,69.6 L389.9,68.7 L391.6,67.6 L393.4,66.3 L395.1,65.1 L396.6,64.1 L397.6,63.3 L398.2,62.7 L398.4,62.4 L398.5,62.4 L398.3,62.7 L397.9,63.3 L397.3,64.3 L396.5,65.5 L395.7,66.8 L395.1,68.1 L394.8,69.2 L394.8,70.1 L395.2,70.5 L396.0,70.6 L397.2,70.3 L398.7,69.6 L400.4,68.6 L402.3,67.4 L404.2,66.1 L406.0,64.8 L407.7,63.6 L409.0,62.7 L409.9,62.2 L410.5,61.9 L410.7,62.0 L410.6,62.5 L410.2,63.3 L409.5,64.5 L408.6,65.9 L407.7,67.3 L406.8,68.7 L406.1,69.7 L405.7,70.4 L405.5,70.6 L405.6,70.5 L406.1,69.9 L406.9,69.0 L408.1,67.7 L409.8,66.2 L411.7,64.8 L413.8,63.5 L416.0,62.5 L418.0,61.8 L419.8,61.5 L421.2,61.5 L422.2,61.8 L422.8,62.5 L423.0,63.3 L422.9,64.3 L422.5,65.4 L421.8,66.4 L421.1,67.4 L420.4,68.1 L419.8,68.7 L419.6,68.9 L419.6,68.9 L420.0,68.4 L420.7,67.6 L421.9,66.6 L423.4,65.4 L425.2,64.2 L427.2,63.1 L429.1,62.3 L431.0,61.7 L432.6,61.5 L434.0,61.5 L435.0,61.7 L435.6,62.2 L435.9,62.8 L435.8,63.7 L435.4,64.6 L434.8,65.7 L434.0,66.7 L433.2,67.8 L432.5,68.7 L432.0,69.5 L431.6,70.1 L431.5,70.4 L431.8,70.4 L432.4,70.1 L433.4,69.6 L434.8,68.7 L436.5,67.7 L438.4,66.5 L440.4,65.3 L442.5,64.2 L444.4,63.3 L446.0,62.6 L447.2,62.3 L448.1,62.3 L448.5,62.7 L448.4,63.6 L448.0,64.9 L447.1,66.6 L446.0,68.7 L444.7,70.9 L443.2,73.3 L441.6,75.5 L440.1,77.5 L438.8,79.0 L437.8,79.9 L437.2,80.3 L436.9,80.0 L437.1,79.2 L437.7,77.9 L438.7,76.2 L440.2,74.2 L442.1,72.0 L444.4,69.8 L447.0,67.8 L449.8,66.0 L452.7,64.5 L455.5,63.4 L458.2,62.7 L460.5,62.5 L462.3,62.6 L463.6,63.1 L464.4,63.8 L464.5,64.8 L464.0,65.8 L462.9,66.9 L461.2,68.0 L459.2,68.8 L457.1,69.5 L455.1,69.8 L453.5,69.9 L452.3,69.8 L451.6,69.5 L451.3,69.1 L451.3,68.9 L451.5,68.7 L452.1,68.5 L453.0,68.3 L454.4,68.1 L456.1,67.8 L458.2,67.5 L460.4,67.1 L462.8,66.5 L465.2,65.7 L467.6,64.7 L469.8,63.6 L471.8,62.5 L473.6,61.3 L475.0,60.3 L476.0,59.5 L476.7,59.0 L477.0,58.7 L477.1,58.6 L477.0,58.9 L476.8,59.4 L476.5,60.2 L476.2,61.4 L476.0,62.7 L475.8,64.0 L475.6,65.4 L475.3,66.8 L474.9,68.2 L474.3,69.4 L473.4,70.4 L472.3,71.2 L471.1,71.7 L469.7,71.7 L468.3,71.4 L467.1,71.0 L466.4,70.7 M295.8,66.5 L296.3,65.9 L297.3,65.0 L298.7,63.6 L300.3,61.9 L302.1,60.0 L303.9,58.0 L305.6,55.7 L307.2,53.4 L308.5,51.2 L309.7,49.2 L310.5,47.4 L311.1,46.1 L311.4,45.2 L311.5,44.7 L311.3,44.6 L311.0,45.0 L310.5,45.9 L309.8,47.3 L308.8,49.3 L307.6,51.8 L306.1,54.7 L304.5,58.0 L302.7,61.4 L300.8,65.0 L298.9,68.6 L297.2,71.9 L295.7,74.9 L294.7,77.4 L294.1,79.1 L293.8,80.2 L293.8,80.7 L293.9,80.8 L294.0,80.5 L294.4,79.7 L295.0,78.4 L295.7,76.7 L296.7,74.6 L297.9,72.3 L299.1,69.9 L300.4,67.4 L301.9,65.1 L303.4,63.1 L305.1,61.4 L306.7,60.1 L308.5,59.3 L310.2,59.0 L311.9,59.0 L313.4,59.2 L314.7,59.6 L315.8,60.0 L316.6,60.3 L317.1,60.5 L317.2,60.5 L317.1,60.4 L316.8,60.1 L316.2,59.8 L315.5,59.5 L314.4,59.4 L313.2,59.5 L311.9,60.0 L310.5,60.9 L309.3,62.1 L308.3,63.7 L307.6,65.2 L307.3,66.6 L307.5,67.7 L308.2,68.4 L309.3,68.6 L310.5,68.3 L312.0,67.6 L313.5,66.5 L314.9,65.1 L316.2,63.6 L317.2,62.1 L317.8,60.8 L318.3,59.7 L318.5,59.0 L318.5,58.6 L318.5,58.5 L318.6,58.6 L318.8,59.0 L319.4,59.4 L320.3,59.8 L321.6,60.0 L323.2,60.0 L325.2,59.6 L327.3,58.9 L329.4,58.1 L331.4,57.1 L333.1,56.2 L334.3,55.5 L335.1,54.9 L335.5,54.6 L335.7,54.5 L335.6,54.6 L335.4,55.1 L335.0,55.9 L334.2,57.1 L333.0,58.6 L331.5,60.4 L329.6,62.3 L327.4,64.3 L325.2,66.2 L323.1,67.8 L321.3,69.1 L319.9,69.8 L318.9,70.2 L318.5,70.2 L318.5,70.0 L318.9,69.7 L319.8,69.1 L321.2,68.5 L322.9,67.7 L324.9,67.0 L327.1,66.4 L329.3,65.7 L331.5,65.1 L333.4,64.4 L335.0,63.8 L336.3,63.1 L337.2,62.5 L337.7,61.9 L337.9,61.4 L337.9,60.8 L337.6,60.4 L337.1,60.1 L336.5,59.9 L335.6,60.1 L334.5,60.6 L333.3,61.4 L332.2,62.6 L331.2,64.0 L330.5,65.4 L330.2,66.7 L330.4,67.9 L331.3,68.9 L332.7,69.6 L334.7,69.8 L337.1,69.6 L339.8,69.0 L342.5,68.2 L345.0,67.2 L346.9,66.4 L348.1,65.9 M174.5,67.2 L175.1,66.6 L176.2,65.5 L177.7,63.8 L179.5,62.0 L181.4,59.9 L183.2,57.7 L184.9,55.6 L186.3,53.6 L187.5,51.9 L188.2,50.6 L188.6,49.6 L188.6,49.2 L188.2,49.2 L187.4,49.7 L186.3,50.9 L184.8,52.7 L183.3,55.1 L181.8,57.9 L180.4,60.9 L179.5,63.7 L178.9,66.3 L178.8,68.4 L179.1,69.8 L179.9,70.7 L181.1,70.8 L182.5,70.2 L183.9,69.0 L185.4,67.4 L186.6,65.6 L187.6,63.8 L188.2,62.2 L188.4,60.9 L188.4,59.9 L188.3,59.4 L188.2,59.2 L188.2,59.3 L188.6,59.3 L189.3,59.4 L190.4,59.4 L191.8,59.2 L193.4,58.8 L195.0,58.4 L196.5,57.9 L197.8,57.5 L198.8,57.2 L199.4,57.1 L199.6,57.3 L199.5,57.9 L199.1,58.9 L198.3,60.3 L197.3,62.1 L196.1,64.1 L194.9,66.1 L193.9,67.9 L193.3,69.2 L192.9,70.0 L192.8,70.3 L193.0,70.1 L193.4,69.3 L194.1,68.1 L195.0,66.6 L196.1,64.9 L197.3,63.3 L198.5,61.8 L199.8,60.6 L201.1,59.6 L202.4,58.9 L203.7,58.5 L205.0,58.4 L206.4,58.5 L207.8,58.6 L209.2,58.8 L210.7,58.9 L212.0,59.0 L213.0,59.0 L213.8,59.0 L214.2,58.9 L214.3,58.9 L214.1,58.8 L213.6,58.9 L212.8,59.2 L211.7,59.8 L210.3,60.7 L208.8,61.8 L207.3,63.3 L206.0,64.8 L205.1,66.3 L204.7,67.6 L204.8,68.6 L205.5,69.1 L206.6,69.1 L208.1,68.5 L209.9,67.5 L211.7,66.2 L213.5,64.6 L215.1,63.0 L216.3,61.5 L217.1,60.2 L217.6,59.1 L217.9,58.3 L217.9,57.9 L217.9,57.7 L217.9,57.8 L218.0,58.1 L218.3,58.4 L218.8,58.8 L219.5,59.1 L220.6,59.1 L221.8,58.8 L223.2,58.4 L224.6,57.7 L225.9,57.1 L227.0,56.6 L227.7,56.2 L228.1,56.1 L228.1,56.2 L227.7,56.6 L227.0,57.5 L225.9,58.8 L224.6,60.4 L223.2,62.3 L221.8,64.1 L220.7,65.8 L219.9,67.0 L219.5,67.9 L219.4,68.4 L219.8,68.3 L220.4,67.9 L221.5,67.0 L222.9,65.7 L224.6,64.3 L226.4,62.8 L228.1,61.5 L229.5,60.4 L230.4,59.7 L231.0,59.3 L231.2,59.2 L231.1,59.6 L230.7,60.3 L230.1,61.5 L229.5,62.9 L228.9,64.5 L228.5,66.0 L228.5,67.3 L229.0,68.2 L229.8,68.6 L231.1,68.6 L232.7,68.1 L234.4,67.1 L236.1,65.7 L237.6,64.0 L238.8,62.3 L239.5,60.6 L239.9,59.1 L239.8,58.0 L239.6,57.2 L239.3,56.8 L239.0,56.7 L238.8,56.9 L238.7,57.4 L238.9,57.9 L239.5,58.5 L240.4,58.8 L241.8,58.8 L243.4,58.5 L245.3,58.0 L247.2,57.4 L248.9,56.8 L250.2,56.4 L251.1,56.2 L251.5,56.3 L251.5,56.8 L251.0,57.7 L250.2,59.0 L249.2,60.5 L248.1,62.2 L247.0,63.8 L246.1,65.1 L245.6,66.1 L245.2,66.6 L245.2,66.7 L245.5,66.3 L246.0,65.4 L247.0,64.1 L248.4,62.5 L250.0,60.9 L251.9,59.4 L253.9,58.1 L255.8,57.1 L257.7,56.5 L259.3,56.3 L260.7,56.5 L261.7,57.1 L262.2,58.1 L262.3,59.4 L262.0,61.0 L261.5,62.7 L260.9,64.4 L260.5,66.0 L260.4,67.4 L260.7,68.5 L261.4,69.1 L262.7,69.3 L264.4,69.1 L266.5,68.5 L268.8,67.6 L271.2,66.4 L273.4,65.1 L275.5,63.8 L277.2,62.6 L278.7,61.5 L279.8,60.5 L280.6,59.8 L281.1,59.4 L281.3,59.1 L281.4,59.1 M154.3,55.3 L154.2,55.1 L154.1,54.9 L154.1,54.7 M88.8,69.2 L88.9,68.8 L89.2,68.3 L89.4,67.5 L89.6,66.7 L89.5,65.7 L89.3,64.7 L88.8,63.7 L88.1,62.8 L87.2,62.1 L85.9,61.9 L84.3,62.1 L82.5,62.8 L80.6,64.1 L78.8,65.9 L77.3,67.9 L76.2,69.9 L75.7,71.8 L75.8,73.3 L76.4,74.4 L77.4,75.0 L78.7,74.9 L80.4,74.3 L82.3,73.2 L84.3,71.7 L86.2,69.9 L87.9,68.1 L89.2,66.5 L90.2,65.1 L90.9,64.1 L91.2,63.6 L91.3,63.4 L91.2,63.7 L90.9,64.6 L90.4,66.0 L89.7,68.1 L88.9,70.7 L87.9,73.8 L86.9,77.2 L85.8,80.7 L84.8,84.0 L83.9,87.1 L83.3,89.5 L82.9,91.3 L82.8,92.2 L83.0,92.3 L83.6,91.5 L84.5,90.0 L85.7,87.8 L87.1,85.1 L88.7,82.1 L90.4,78.9 L92.2,75.8 L93.9,72.8 L95.7,70.2 L97.2,68.0 L98.6,66.3 L99.6,65.2 L100.4,64.7 L100.9,64.7 L101.0,65.3 L100.9,66.3 L100.5,67.8 L100.1,69.6 L99.6,71.4 L99.2,72.9 L99.1,74.0 L99.2,74.6 L99.5,74.8 L100.2,74.4 L101.2,73.6 L102.4,72.3 L103.9,70.8 L105.4,69.2 L106.8,67.7 L108.0,66.4 L108.9,65.5 L109.5,65.0 L109.8,64.7 L109.9,64.8 L109.7,65.1 L109.3,65.9 L108.7,67.2 L108.0,68.7 L107.3,70.2 L106.9,71.6 L106.8,72.8 L107.1,73.6 L107.7,73.9 L108.7,73.9 L109.9,73.4 L111.4,72.5 L113.1,71.3 L114.9,69.8 L116.6,68.3 L118.2,66.9 L119.5,65.7 L120.5,64.8 L121.0,64.3 L121.3,64.2 L121.2,64.4 L120.8,65.0 L120.2,66.1 L119.5,67.5 L118.8,69.0 L118.2,70.5 L117.9,71.8 L118.0,72.6 L118.4,73.1 L119.2,73.1 L120.3,72.6 L121.7,71.7 L123.5,70.4 L125.4,68.9 L127.3,67.3 L129.2,65.8 L131.0,64.6 L132.6,63.6 L134.1,62.9 L135.3,62.4 L136.2,62.3 L136.8,62.3 L137.1,62.4 L137.2,62.6 L137.2,62.7 L137.0,62.8 L136.6,63.0 L135.9,63.2 L135.0,63.5 L133.8,64.1 L132.5,64.9 L131.0,66.0 L129.5,67.3 L128.3,68.7 L127.6,70.0 L127.4,71.2 L127.8,72.1 L128.9,72.5 L130.5,72.5 L132.6,71.9 L134.9,70.8 L137.5,69.1 L140.2,66.9 L142.8,64.4 L145.4,61.6 L147.8,58.7 L149.9,56.0 L151.6,53.6 L152.9,51.5 L153.7,50.1 L154.1,49.2 L154.1,48.9 L153.7,49.3 L152.9,50.4 L151.8,52.3 L150.5,54.8 L148.9,57.8 L147.3,61.1 L145.7,64.4 L144.3,67.4 L143.1,69.9 L142.2,71.7 L141.7,72.7 L141.6,73.0 L141.8,72.7 L142.3,71.8 L143.2,70.3 L144.5,68.5 L146.0,66.6 L147.7,64.8 L149.5,63.3 L151.2,62.1 L152.8,61.2 L154.2,60.8 L155.3,60.7 L156.1,60.8 L156.4,61.0 L156.4,61.2 L156.0,61.4 L155.2,61.8 L154.2,62.1 L152.8,62.6 L151.1,63.1 L149.5,63.7 L148.0,64.5 L146.7,65.3 L145.8,66.2 L145.4,67.1 L145.4,68.1 L145.9,69.0 L146.8,69.9 L148.1,70.6 L149.7,71.1 L151.5,71.3 L153.4,71.1 L155.3,70.6 L157.0,69.7 L158.4,68.4 L159.2,67.1 L159.7,66.2 M44.7,53.1 L44.7,53.2 L44.7,53.4 L44.5,54.1 L44.1,55.2 L43.4,56.8 L42.6,58.7 L41.5,61.0 L40.4,63.5 L39.4,66.0 L38.5,68.5 L37.8,70.7 L37.4,72.4 L37.1,73.5 L37.0,74.0 L37.2,73.9 L37.7,73.3 L38.5,72.1 L39.6,70.6 L41.0,68.9 L42.5,67.4 L43.9,66.2 L45.1,65.5 L46.1,65.2 L46.9,65.4 L47.3,66.2 L47.6,67.3 L47.7,68.7 L47.7,70.2 L47.9,71.6 L48.1,72.8 L48.7,73.5 L49.6,73.8 L50.8,73.5 L52.3,72.7 L54.1,71.4 L56.0,69.8 L57.8,68.1 L59.3,66.3 L60.5,64.7 L61.2,63.5 L61.5,62.5 L61.4,62.0 L60.9,61.9 L60.2,62.2 L59.2,63.0 L57.9,64.4 L56.7,66.1 L55.6,68.0 L54.9,70.0 L54.6,71.8 L55.0,73.4 L56.2,74.6 L58.2,75.2 L60.8,75.2 L63.2,74.8 L64.9,74.5 M19.0,55.4 L19.1,55.3 L19.6,55.3 L20.7,55.2 L22.4,55.0 L24.6,54.8 L27.2,54.4 L29.8,53.9 L32.4,53.4 L34.9,52.9 L37.2,52.5 L38.9,52.2 L39.9,52.0 M27.4,54.7 L27.4,54.6 L27.4,54.5 L27.5,54.4 L27.5,54.4 L27.5,54.5 L27.6,54.9 L27.5,55.7 L27.3,57.1 L27.0,59.1 L26.4,61.6 L25.8,64.4 L25.1,67.4 L24.4,70.3 L23.7,73.1 L23.1,75.5 L22.6,77.2 L22.3,78.2 L22.2,78.4 L22.2,78.1 L22.3,77.6 " stroke="black" stroke-width="1.45" fill="none" stroke-linecap="round"/></svg>