<svg xmlns="http://www.w3.org/2000/svg" viewBox="0 0 1000 120"><path d="M450.7,60.9 L450.7,60.5 L450.5,59.9 L450.2,59.3 L449.7,58.8 L448.9,58.3 L447.9,58.1 L446.7,58.0 L445.5,58.0 L444.3,58.1 L443.1,58.4 L442.1,58.8 L441.4,59.4 L440.9,60.0 L440.8,60.7 L441.2,61.6 L442.1,62.4 L443.3,63.3 L444.9,64.3 L446.7,65.3 L448.4,66.3 L450.1,67.3 L451.5,68.3 L452.5,69.3 L453.2,70.2 L453.5,71.0 L453.5,71.7 L453.0,72.3 L452.1,72.7 L450.9,73.1 L449.2,73.3 L447.2,73.3 L445.0,73.1 L442.6,72.7 L440.2,72.2 L437.8,71.4 L435.5,70.5 L433.3,69.5 L431.4,68.5 L429.7,67.5 L428.2,66.6 L426.8,65.6 L425.6,64.7 L424.7,64.0 L424.1,63.6 M373.1,62.2 L373.0,62.1 L373.0,62.1 L372.9,62.3 L372.8,62.9 L372.7,63.6 L372.5,64.7 L372.5,65.9 L372.6,67.2 L372.8,68.5 L373.2,69.8 L373.8,70.8 L374.6,71.5 L375.5,71.9 L376.5,71.9 L377.7,71.4 L379.0,70.6 L380.3,69.5 L381.5,68.0 L382.6,66.5 L383.6,64.9 L384.4,63.4 L385.0,62.2 L385.4,61.3 L385.7,60.8 L385.7,60.7 L385.7,60.9 L385.5,61.5 L385.4,62.5 L385.2,63.8 L385.0,65.3 L384.9,66.7 L385.0,68.0 L385.2,69.1 L385.6,70.0 L386.1,70.5 L386.8,70.7 L387.6,70.6 L388.6,70.2 L389.5,69.5 L390.5,68.5 L391.5,67.5 L392.4,66.4 L393.3,65.4 L394.0,64.5 L394.7,63.8 L395.2,63.3 L395.5,63.0 L395.7,63.0 L395.7,63.3 L395.7,63.8 L395.6,64.7 L395.4,65.9 L395.3,67.2 L395.2,68.6 L395.2,69.7 L395.2,70.6 L395.2,71.2 L395.2,71.4 L395.2,71.3 L395.2,70.9 L395.3,70.0 L395.5,68.9 L395.9,67.5 L396.5,66.0 L397.2,64.5 L398.1,63.1 L399.1,61.8 L400.2,60.9 L401.3,60.3 L402.4,60.0 L403.3,60.1 L404.0,60.5 L404.6,61.2 L405.0,62.2 L405.2,63.4 L405.2,64.7 L405.1,66.0 L404.9,67.2 L404.8,68.1 L404.6,68.8 L404.6,69.1 L404.6,69.1 L404.8,68.7 L405.1,68.0 L405.7,67.0 L406.6,65.8 L407.6,64.5 L408.7,63.3 L409.8,62.2 L410.9,61.3 L412.0,60.8 L413.0,60.6 L413.7,60.7 L414.3,61.2 L414.7,62.0 L414.9,63.1 L415.0,64.4 L414.9,65.7 L414.9,67.0 L414.9,68.1 L415.1,68.9 L415.3,69.4 L415.7,69.6 L416.3,69.5 L416.9,69.0 L417.8,68.1 L418.7,67.1 L419.7,65.9 L420.8,64.6 L421.8,63.4 L422.6,62.5 L423.3,61.7 L423.8,61.4 L424.0,61.4 L424.1,61.8 L424.0,62.7 L423.8,64.0 L423.5,65.8 L423.1,67.9 L422.6,70.2 L422.1,72.6 L421.5,74.9 L421.0,77.0 L420.5,78.8 L420.1,80.1 L419.9,80.9 L419.7,81.2 L419.7,81.0 L419.7,80.4 L419.8,79.2 L419.9,77.6 L420.1,75.8 L420.5,73.7 L421.0,71.6 L421.6,69.5 L422.4,67.4 L423.3,65.4 L424.5,63.6 L425.8,62.0 L427.3,60.8 L428.9,59.9 L430.6,59.4 L432.3,59.3 L433.9,59.6 L435.3,60.2 L436.5,61.1 L437.3,62.1 L437.8,63.3 L438.0,64.5 L437.9,65.6 L437.4,66.6 L436.7,67.4 L435.8,68.0 L434.7,68.4 L433.5,68.6 L432.2,68.6 L430.9,68.5 L429.5,68.3 L428.4,68.1 L427.5,67.9 L426.8,67.7 L426.5,67.6 L426.4,67.6 L426.4,67.6 L426.6,67.6 L427.0,67.7 L427.3,67.8 L427.7,67.8 M368.4,52.7 L368.3,52.8 L368.3,53.1 L368.3,53.6 L368.3,54.4 L368.3,55.3 L368.3,56.3 L368.3,57.3 L368.4,58.2 L368.6,59.2 L368.8,60.0 L369.1,60.5 L369.3,60.8 M365.6,65.0 L365.5,64.9 L365.5,64.8 L365.5,64.8 L365.5,64.8 L365.5,64.9 L365.6,65.3 L365.8,65.9 L366.0,67.0 L366.2,68.3 L366.4,70.0 L366.5,72.0 L366.5,74.3 L366.3,76.7 L366.0,79.2 L365.4,81.7 L364.7,84.0 L363.6,86.0 L362.4,87.7 L361.1,89.0 L359.8,89.9 L358.4,90.5 L357.2,90.6 L356.1,90.4 L355.2,89.7 L354.5,88.7 L354.2,87.3 L354.1,85.8 L354.5,84.0 L355.1,82.1 L356.0,80.1 L356.9,78.6 L357.5,77.6 M337.1,66.1 L337.0,66.1 L337.0,66.1 L337.0,66.2 L337.1,66.2 L337.2,66.3 L337.5,66.3 L337.8,66.2 L338.4,66.0 L339.1,65.6 L340.0,65.1 L341.1,64.4 L342.3,63.6 L343.5,62.7 L344.7,61.9 L345.8,61.1 L346.8,60.3 L347.7,59.7 L348.3,59.2 L348.8,58.9 L349.1,58.7 L349.2,58.6 L349.2,58.7 L349.2,58.7 L349.1,58.7 M338.6,61.5 L338.6,61.5 L338.6,61.7 L338.6,62.0 L338.7,62.5 L338.8,63.4 L338.9,64.6 L339.1,66.0 L339.4,67.5 L339.7,69.1 L340.2,70.6 L340.7,71.9 L341.4,73.0 L342.0,73.7 L342.5,74.2 L342.9,74.4 L343.0,74.5 L343.0,74.4 L342.9,74.0 L342.7,73.5 L342.6,73.2 M327.7,64.2 L327.5,63.9 L327.3,63.6 L326.7,63.2 L326.0,63.0 L324.9,63.2 L323.5,63.7 L322.1,64.5 L320.6,65.7 L319.2,67.1 L318.1,68.7 L317.4,70.4 L317.2,71.9 L317.6,73.2 L318.5,74.2 L319.8,74.7 L321.4,74.8 L323.2,74.4 L325.1,73.5 L326.8,72.4 L328.3,70.9 L329.4,69.4 L330.1,67.9 L330.5,66.4 L330.4,65.1 L330.0,64.1 L329.2,63.2 L328.3,62.7 L327.3,62.3 L326.4,62.3 L325.6,62.4 L325.0,62.7 L324.8,62.9 M300.9,65.0 L301.2,65.2 L301.9,65.3 L303.1,65.5 L304.9,65.6 L307.0,65.5 L309.4,65.4 L311.8,65.3 L314.1,65.2 L316.3,65.1 L318.1,65.0 L319.4,65.0 L320.1,64.9 M304.9,70.7 L304.9,70.6 L305.1,70.2 L305.6,69.6 L306.3,68.6 L307.3,67.3 L308.4,65.6 L309.5,63.6 L310.5,61.4 L311.4,59.0 L312.1,56.6 L312.7,54.2 L313.2,51.9 L313.4,49.8 L313.4,48.0 L313.3,46.6 L313.1,45.7 L312.8,45.2 L312.3,45.3 L311.7,45.9 L310.9,47.2 L310.0,49.0 L309.1,51.4 L308.1,54.2 L307.2,57.3 L306.4,60.6 L305.7,63.9 L305.1,67.2 L304.7,70.4 L304.5,73.2 L304.3,75.6 L304.3,77.4 L304.4,78.7 L304.6,79.3 L304.7,79.4 L304.7,79.1 L304.8,78.8 M269.7,64.3 L269.7,64.5 L269.6,64.9 L269.5,65.5 L269.4,66.4 L269.2,67.4 L269.0,68.6 L268.7,69.9 L268.6,71.1 L268.5,72.0 L268.4,72.6 L268.4,72.9 L268.5,72.8 L268.5,72.4 L268.5,71.6 L268.6,70.5 L268.8,69.0 L269.1,67.4 L269.6,65.8 L270.2,64.3 L271.1,62.9 L272.2,61.7 L273.4,60.7 L274.7,60.1 L276.0,59.9 L277.3,60.0 L278.4,60.4 L279.5,61.2 L280.4,62.2 L281.1,63.4 L281.6,64.8 L281.8,66.2 L281.9,67.6 L281.8,68.9 L281.7,70.1 L281.6,71.1 L281.6,71.9 L281.6,72.4 L281.7,72.7 L281.7,72.8 L281.8,72.8 M243.5,58.4 L243.4,58.5 L243.3,58.9 L243.2,59.6 L243.2,60.6 L243.1,61.9 L243.1,63.5 L243.2,65.2 L243.3,67.0 L243.7,68.8 L244.2,70.3 L244.8,71.5 L245.6,72.3 L246.5,72.5 L247.5,72.2 L248.7,71.3 L249.9,70.0 L251.0,68.4 L252.2,66.7 L253.1,65.1 L254.0,63.7 L254.5,62.6 L254.9,61.9 L254.9,61.6 L254.9,61.8 L254.6,62.4 L254.4,63.5 L254.2,64.9 L254.1,66.6 L254.2,68.3 L254.5,69.9 L255.1,71.1 L256.0,71.9 L257.1,72.3 L258.3,72.1 L259.6,71.4 L260.9,70.2 L262.1,68.8 L263.2,67.1 L264.0,65.2 L264.6,63.4 L265.0,61.7 L265.1,60.2 L265.1,59.0 L264.9,58.1 L264.7,57.6 L264.6,57.3 L264.5,57.1 L264.4,57.1 M213.0,60.4 L212.9,61.0 L212.8,62.0 L212.7,63.2 L212.5,64.6 L212.4,66.1 L212.3,67.5 L212.2,68.9 L212.2,70.0 L212.2,71.0 L212.2,71.6 L212.2,72.0 L212.2,72.1 L212.2,71.9 L212.2,71.4 L212.1,70.6 L212.1,69.4 L212.1,68.1 L212.3,66.6 L212.5,65.0 L213.0,63.3 L213.6,61.8 L214.3,60.4 L215.2,59.2 L216.3,58.3 L217.6,57.7 L219.0,57.4 L220.5,57.2 L222.0,57.3 L223.5,57.5 L224.9,57.8 L226.3,58.1 L227.5,58.3 L228.6,58.6 L229.4,58.7 L230.0,58.8 L230.3,58.9 L230.4,58.9 L230.4,58.9 L230.4,59.0 L230.4,59.0 L230.4,59.0 L230.4,59.1 L230.2,59.3 L230.0,59.5 L229.7,60.0 L229.3,60.6 L228.8,61.3 L228.3,62.2 L227.7,63.3 L227.2,64.6 L226.7,65.9 L226.4,67.3 L226.3,68.7 L226.5,69.9 L227.1,71.0 L228.0,71.7 L229.1,72.2 L230.6,72.3 L232.3,72.1 L234.1,71.6 L235.8,70.8 L237.5,69.6 L238.9,68.2 L240.0,66.5 L240.8,64.8 L241.1,63.0 L241.0,61.2 L240.5,59.6 L239.5,58.2 L238.1,57.0 L236.3,56.1 L234.4,55.5 L232.3,55.2 L230.3,55.1 L228.6,55.3 L227.5,55.7 L226.9,56.3 L227.0,56.9 L227.4,57.4 L227.8,57.7 M196.2,48.1 L196.2,48.1 L196.3,48.2 L196.3,48.5 L196.3,49.1 L196.3,50.1 L196.4,51.5 L196.4,53.3 L196.5,55.5 L196.6,57.9 L196.7,60.4 L196.8,62.9 L196.9,65.2 L197.0,67.3 L197.0,68.9 L197.1,70.1 L197.2,70.7 L197.2,70.8 L197.2,70.5 L197.2,69.8 L197.2,68.7 L197.2,67.2 L197.4,65.4 L197.8,63.6 L198.3,61.8 L199.0,60.2 L199.9,58.7 L201.0,57.4 L202.1,56.5 L203.4,56.0 L204.7,55.8 L206.0,56.1 L207.3,56.8 L208.4,57.8 L209.4,59.0 L210.2,60.5 L210.8,62.1 L211.3,63.7 L211.5,65.3 L211.6,66.8 L211.4,68.1 L211.0,69.3 L210.3,70.2 L209.4,70.9 L208.2,71.4 L206.8,71.6 L205.3,71.6 L203.7,71.4 L202.2,71.0 L200.7,70.4 L199.5,69.8 L198.3,69.0 L197.4,68.3 L196.7,67.5 L196.3,66.7 L196.1,66.1 L196.0,65.7 M142.6,64.7 L142.4,64.6 L141.9,64.3 L141.3,64.1 L140.5,64.1 L139.7,64.2 L138.9,64.6 L138.0,65.3 L137.1,66.2 L136.4,67.3 L135.8,68.7 L135.4,70.1 L135.3,71.5 L135.6,72.9 L136.2,74.1 L137.3,75.1 L138.7,75.8 L140.4,76.1 L142.3,76.0 L144.3,75.6 L146.4,74.9 L148.4,73.9 L150.2,72.7 L151.8,71.3 L153.2,69.7 L154.3,68.0 L155.3,66.2 L156.1,64.2 L156.7,62.2 L157.1,60.2 L157.4,58.1 L157.5,56.2 L157.5,54.4 L157.4,52.8 L157.1,51.5 L156.8,50.4 L156.6,49.7 L156.4,49.3 L156.2,49.2 L156.1,49.4 L155.9,49.8 L155.8,50.7 L155.7,51.9 L155.6,53.4 L155.6,55.2 L155.5,57.1 L155.5,59.3 L155.5,61.5 L155.5,63.7 L155.5,65.8 L155.5,67.8 L155.4,69.4 L155.4,70.6 L155.5,71.5 L155.5,71.9 L155.6,71.9 L155.7,71.6 L156.0,70.9 L156.4,69.9 L157.1,68.6 L158.0,67.2 L159.2,65.7 L160.6,64.2 L162.1,62.8 L163.6,61.7 L165.1,60.8 L166.5,60.3 L167.6,60.0 L168.4,60.0 L168.8,60.1 L168.9,60.4 L168.4,61.0 L167.3,61.7 L165.8,62.6 L163.8,63.5 L161.6,64.6 L159.4,65.7 L157.6,66.8 L156.3,67.8 L155.6,68.6 L155.5,69.4 L156.0,70.0 L157.1,70.6 L158.7,71.0 L160.6,71.4 L162.8,71.7 L165.0,71.9 L167.2,72.1 L169.2,72.3 L170.9,72.4 L172.2,72.5 L173.1,72.5 L173.6,72.5 L173.7,72.5 L173.8,72.5 L173.8,72.5 L173.8,72.5 L173.8,72.5 L173.8,72.5 L173.8,72.5 L173.8,72.5 L173.8,72.5 L173.8,72.5 L173.9,72.5 L173.9,72.5 L173.9,72.5 L174.0,72.5 L174.0,72.5 L174.1,72.5 L174.1,72.5 L174.2,72.6 L174.2,72.6 L174.2,72.6 L174.2,72.5 L174.2,72.5 L174.2,72.5 L174.2,72.4 L174.2,72.4 L174.2,72.4 L174.2,72.4 L174.2,72.4 M129.7,54.6 L129.7,54.6 L129.7,54.5 L129.7,54.5 L129.9,54.5 M129.2,63.5 L129.3,63.6 L129.3,63.7 L129.4,64.1 L129.4,64.8 L129.4,65.7 L129.2,66.9 L129.1,68.4 L128.9,69.9 L128.8,71.4 L128.8,72.8 L128.8,74.0 L128.9,74.9 L129.0,75.5 L129.0,75.6 L129.1,75.5 L129.1,75.3 M111.1,63.3 L111.0,63.5 L110.9,63.9 L110.7,64.6 L110.6,65.6 L110.6,66.8 L110.5,68.2 L110.5,69.8 L110.7,71.3 L111.0,72.6 L111.5,73.7 L112.2,74.4 L112.9,74.8 L113.7,74.7 L114.5,74.1 L115.4,73.1 L116.4,71.7 L117.4,70.1 L118.4,68.4 L119.4,66.7 L120.3,65.1 L121.2,63.7 L121.8,62.6 L122.3,61.9 L122.5,61.6 L122.6,61.7 L122.6,62.1 L122.4,63.0 L122.2,64.3 L121.9,65.9 L121.7,67.6 L121.5,69.4 L121.5,71.0 L121.6,72.5 L121.7,73.7 L122.0,74.5 L122.2,75.1 L122.5,75.4 L122.7,75.3 L122.9,75.2 L123.1,75.0 M106.8,66.0 L106.5,65.7 L106.1,65.2 L105.5,64.6 L104.8,64.1 L103.8,63.7 L102.7,63.5 L101.4,63.5 L100.1,63.7 L98.9,64.3 L97.7,65.0 L96.6,66.0 L95.7,67.1 L95.1,68.4 L94.8,69.8 L94.9,71.1 L95.2,72.3 L95.7,73.3 L96.5,73.9 L97.5,74.2 L98.7,74.2 L100.0,73.8 L101.2,73.0 L102.4,72.0 L103.5,70.7 L104.5,69.4 L105.3,67.9 L105.9,66.6 L106.4,65.4 L106.6,64.5 L106.8,63.8 L106.9,63.3 L106.9,63.1 L106.9,63.2 L106.8,63.7 L106.7,64.5 L106.5,65.8 L106.3,67.5 L106.2,69.6 L106.1,71.8 L106.0,74.2 L105.9,76.7 L105.9,79.1 L106.0,81.5 L106.1,83.8 L106.2,85.8 L106.3,87.5 L106.4,88.7 L106.5,89.4 L106.5,89.7 L106.5,89.7 L106.6,89.4 L106.6,89.2 M64.2,70.6 L64.4,70.6 L65.0,70.5 L65.9,70.3 L67.0,69.9 L68.2,69.4 L69.4,68.8 L70.6,68.1 L71.6,67.4 L72.4,66.7 L72.9,66.0 L73.0,65.3 L72.8,64.7 L72.3,64.2 L71.5,63.9 L70.5,63.7 L69.2,63.8 L67.8,64.2 L66.3,64.8 L64.8,65.5 L63.5,66.5 L62.3,67.7 L61.3,68.9 L60.7,70.2 L60.4,71.5 L60.6,72.7 L61.3,73.9 L62.3,74.9 L63.6,75.8 L65.2,76.5 L66.9,77.0 L68.7,77.3 L70.5,77.4 L72.3,77.4 L73.9,77.2 L75.3,76.9 L76.5,76.5 L77.4,76.1 L78.1,75.6 L78.5,75.3 L78.6,75.0 M46.0,51.3 L46.1,51.6 L46.1,52.3 L46.1,53.3 L46.2,54.7 L46.1,56.4 L45.9,58.4 L45.7,60.6 L45.3,62.9 L45.0,65.4 L44.5,67.8 L44.1,70.1 L43.8,72.2 L43.5,73.9 L43.2,75.2 L43.1,76.1 L43.0,76.6 L43.0,76.7 L43.0,76.4 L43.0,75.8 L43.1,74.7 L43.4,73.3 L43.8,71.7 L44.5,70.0 L45.3,68.2 L46.3,66.6 L47.4,65.1 L48.7,63.8 L50.0,62.9 L51.3,62.3 L52.6,62.2 L53.8,62.4 L54.8,63.0 L55.7,64.1 L56.4,65.5 L56.9,67.2 L57.2,69.1 L57.4,71.0 L57.6,72.8 L57.7,74.4 L57.7,75.8 L57.8,76.8 L57.8,77.5 L57.8,77.9 L57.8,78.0 M21.4,49.1 L21.4,49.1 L21.5,49.1 L21.9,49.2 L22.8,49.3 L24.2,49.4 L25.9,49.5 L28.0,49.4 L30.2,49.2 L32.5,49.1 L34.8,49.0 L36.9,48.9 L38.8,48.8 L40.4,48.8 L41.6,48.8 L42.4,48.8 L42.9,48.9 L43.1,48.9 L43.1,49.0 L43.0,49.0 L42.8,49.1 M32.8,51.9 L32.8,51.9 L32.7,51.9 L32.7,52.3 L32.6,53.0 L32.5,54.3 L32.3,56.1 L32.0,58.3 L31.7,60.7 L31.4,63.2 L31.1,65.8 L30.8,68.4 L30.6,70.8 L30.4,73.0 L30.3,74.7 L30.2,76.0 L30.2,76.9 L30.2,77.1 L30.2,76.9 L30.2,76.4 L30.2,75.9 " stroke="black" stroke-width="1.56" fill="none" stroke-linecap="round"/></svg>