<svg xmlns="http://www.w3.org/2000/svg" viewBox="0 0 1000 120"><rect width="1000" height="120" fill="white"/><path d="M0,0 M348.3,53.1 L348.3,53.1 L348.3,53.0 L348.2,53.1 L348.3,53.4 L348.3,54.1 L348.3,55.5 L348.3,57.4 L348.4,59.9 L348.5,62.6 L348.6,65.3 L348.7,67.9 L348.8,70.2 L348.9,72.0 L348.9,73.4 L348.9,74.1 L348.9,74.4 M341.6,53.8 L341.4,53.3 L341.2,52.6 L341.1,51.9 L341.5,51.5 L342.3,51.2 L343.6,51.0 L345.2,50.7 L347.1,50.4 L349.3,50.0 L351.5,49.5 L353.8,49.0 L356.1,48.3 L358.0,47.7 L359.7,47.1 L360.9,46.7 L361.7,46.4 L362.2,46.4 L362.3,46.8 L362.2,47.8 L361.9,49.3 L361.5,51.4 L361.0,53.9 L360.6,56.7 L360.2,59.5 L360.0,62.1 L360.0,64.5 L360.0,66.5 L360.0,68.0 L360.1,69.1 L360.2,69.6 L360.2,69.7 L360.3,69.4 L360.5,68.6 L360.8,67.3 L361.3,65.7 L362.1,64.0 L363.2,62.5 L364.4,61.2 L365.6,60.3 L366.9,59.8 L368.0,59.7 L369.0,60.1 L369.8,61.0 L370.5,62.3 L370.9,64.0 L371.2,65.8 L371.4,67.6 L371.6,69.1 L371.8,70.3 L372.1,71.1 L372.5,71.5 L373.1,71.5 L373.7,70.9 L374.6,69.8 L375.6,68.2 L376.6,66.3 L377.6,64.5 L378.4,62.9 L379.0,61.6 L379.2,60.8 L379.2,60.2 L378.8,60.0 L378.2,60.2 L377.2,60.8 L376.1,61.9 L375.0,63.4 L374.1,65.1 L373.7,66.8 L373.9,68.4 L374.8,69.7 L376.2,70.7 L378.2,71.3 L380.5,71.4 L383.0,71.1 L385.1,70.8 L386.4,70.5 M408.1,65.2 L408.2,64.8 L408.1,64.1 L407.9,63.3 L407.3,62.4 L406.3,61.7 L404.9,61.3 L403.3,61.3 L401.6,61.7 L400.0,62.6 L398.6,63.9 L397.6,65.6 L397.1,67.4 L397.1,69.1 L397.4,70.5 L398.1,71.6 L399.1,72.1 L400.2,72.2 L401.4,71.7 L402.7,70.7 L403.8,69.2 L404.7,67.6 L405.3,66.0 L405.7,64.7 L405.9,63.9 L406.0,63.5 L406.0,63.4 L406.0,63.7 L406.0,64.4 L405.9,65.8 L405.8,67.9 L405.8,70.5 L405.7,73.3 L405.8,76.2 L405.9,79.1 L406.0,81.9 L406.2,84.5 L406.5,86.6 L406.7,88.3 L407.0,89.3 L407.3,89.8 L407.6,89.7 L407.9,88.9 L408.2,87.3 L408.6,85.0 L408.8,82.1 L409.1,78.9 L409.3,75.6 L409.4,72.4 L409.7,69.5 L410.0,67.1 L410.3,65.1 L410.5,63.8 L410.7,62.9 L410.9,62.6 L410.9,62.7 L411.0,63.4 L411.0,64.6 L411.1,66.2 L411.2,68.0 L411.5,69.7 L411.9,71.1 L412.4,72.0 L413.1,72.4 L413.8,72.2 L414.6,71.4 L415.5,70.2 L416.4,68.6 L417.2,66.8 L417.8,65.1 L418.2,63.7 L418.5,62.7 L418.7,62.1 L418.8,61.9 L418.7,62.2 L418.6,62.9 L418.4,64.0 L418.3,65.5 L418.3,66.9 L418.4,68.1 L418.7,69.1 L419.0,69.7 L419.4,69.9 L419.8,69.8 L420.3,69.3 L420.8,68.4 L421.2,67.2 L421.7,65.7 L422.1,64.2 L422.4,62.9 L422.6,62.0 L422.8,61.5 L422.9,61.2 L422.9,61.3 L422.9,61.5 L422.8,62.1 L422.7,63.0 L422.5,64.2 L422.2,65.6 L422.0,67.0 L421.9,68.2 L421.9,69.2 L422.0,69.9 L422.1,70.4 L422.2,70.6 M420.7,53.9 L420.7,53.9 L420.8,53.9 L420.8,53.9 L420.9,53.9 M431.7,61.3 L431.5,61.2 L431.2,61.0 L430.6,60.9 L429.9,61.0 L429.1,61.4 L428.2,62.1 L427.4,63.2 L426.7,64.5 L426.3,65.9 L426.3,67.2 L426.8,68.4 L427.8,69.3 L429.2,69.8 L430.8,69.8 L432.7,69.3 L434.6,68.2 L436.5,66.7 L438.1,64.6 L439.5,62.3 L440.5,59.8 L441.2,57.3 L441.6,55.0 L441.8,53.1 L441.8,51.7 L441.7,50.6 L441.6,50.0 L441.5,49.8 L441.4,50.1 L441.3,50.9 L441.1,52.2 L440.9,54.1 L440.6,56.3 L440.4,58.7 L440.2,61.2 L440.2,63.5 L440.1,65.6 L440.1,67.3 L440.2,68.6 L440.2,69.4 L440.2,69.8 L440.1,69.7 L440.2,69.1 L440.3,68.2 L440.7,66.9 L441.3,65.4 L442.2,63.9 L443.3,62.4 L444.5,61.3 L445.6,60.5 L446.6,60.1 L447.5,60.1 L448.2,60.4 L448.7,61.0 L448.8,61.8 L448.5,62.6 L447.8,63.5 L446.6,64.3 L445.3,64.9 L443.9,65.4 L442.7,65.7 L441.9,65.8 L441.4,65.8 L441.3,65.7 L441.4,65.7 L441.8,65.8 L442.5,66.1 L443.5,66.6 L444.8,67.1 L446.1,67.8 L447.4,68.4 L448.5,68.8 L449.5,69.2 L450.1,69.5 L450.6,69.7 L450.8,69.7 L450.9,69.8 M472.4,66.4 L472.6,66.0 L473.1,65.2 L473.8,63.9 L474.7,62.1 L475.7,60.0 L476.7,57.7 L477.5,55.3 L478.3,53.1 L478.8,51.1 L479.0,49.6 L479.1,48.5 L478.9,47.9 L478.6,47.8 L478.1,48.3 L477.4,49.5 L476.5,51.5 L475.7,54.3 L474.9,57.4 L474.3,60.8 L474.1,64.0 L474.3,66.8 L474.8,69.1 L475.7,70.6 L476.7,71.5 L477.9,71.7 L479.0,71.2 L480.0,70.1 L480.9,68.6 L481.4,66.9 L481.6,65.2 L481.4,63.7 L480.9,62.5 L480.4,61.6 L479.9,61.0 L479.7,60.7 L479.6,60.5 M486.3,61.9 L486.2,61.9 L486.2,61.8 L486.1,61.9 L486.0,62.2 L485.9,63.0 L485.7,64.1 L485.5,65.6 L485.2,67.1 L485.0,68.6 L484.9,69.8 L484.9,70.6 L484.9,71.1 L484.9,71.1 L484.8,70.7 L484.7,69.8 L484.6,68.4 L484.6,66.7 L484.9,64.9 L485.5,63.3 L486.3,62.0 L487.4,60.9 L488.7,60.0 L490.1,59.4 L491.7,59.0 L493.3,58.8 L494.8,58.8 L496.1,58.9 L497.1,59.1 L497.8,59.3 L498.2,59.5 L498.3,59.5 L498.0,59.5 L497.4,59.6 L496.4,60.0 L495.0,60.7 L493.5,61.9 L492.0,63.3 L490.9,65.0 L490.2,66.7 L490.0,68.2 L490.3,69.3 L491.1,70.0 L492.3,70.2 L493.8,69.9 L495.4,69.1 L496.9,67.8 L498.2,66.3 L499.1,64.6 L499.7,63.1 L499.8,61.8 L499.7,60.9 L499.5,60.4 L499.3,60.2 L499.2,60.4 L499.3,60.8 L499.6,61.7 L500.1,62.8 L500.8,64.1 L501.7,65.2 L502.7,66.2 L503.7,66.9 L504.7,67.2 L505.5,67.1 L506.3,66.6 L506.9,65.7 L507.3,64.5 L507.7,63.2 L507.8,62.0 L507.8,61.2 L507.8,60.7 L507.7,60.6 L507.6,60.9 L507.6,61.6 L507.6,62.8 L507.7,64.3 L508.0,65.8 L508.5,67.2 L509.1,68.3 L509.9,68.9 L510.6,69.1 L511.4,68.8 L512.1,67.9 L512.7,66.7 L513.2,65.1 L513.5,63.5 L513.7,62.0 L513.7,60.9 L513.8,60.2 L513.8,59.9 L514.0,60.0 L514.3,60.6 L514.6,61.6 L514.9,63.0 L515.2,64.6 L515.6,66.3 L516.1,67.6 L516.7,68.6 L517.3,69.2 L517.9,69.2 L518.4,68.8 L518.9,67.8 L519.4,66.4 L519.7,64.8 L520.0,63.0 L520.3,61.4 L520.5,60.0 L520.8,58.9 L521.1,58.1 L521.4,57.7 L521.7,57.7 L522.0,58.0 L522.2,58.7 L522.5,59.8 L522.8,61.1 L523.0,62.4 L523.2,63.6 L523.4,64.6 L523.5,65.3 L523.6,65.6 L523.7,65.7 L523.8,65.4 L524.0,64.9 L524.2,64.0 L524.7,62.7 L525.4,61.3 L526.3,60.0 L527.4,58.8 L528.6,58.0 L529.8,57.6 L531.0,57.6 L532.1,58.1 L533.0,59.1 L533.8,60.4 L534.4,61.9 L534.8,63.6 L535.1,65.4 L535.3,67.0 L535.6,68.5 L535.7,69.6 L535.9,70.3 M552.4,64.3 L552.9,63.7 L553.8,62.7 L554.9,61.3 L556.0,59.5 L557.1,57.6 L558.0,55.5 L558.8,53.4 L559.4,51.3 L559.7,49.4 L559.9,47.7 L559.8,46.4 L559.6,45.5 L559.2,45.0 L558.7,45.0 L558.1,45.5 L557.4,46.6 L556.7,48.3 L555.9,50.6 L555.2,53.3 L554.5,56.5 L554.0,60.0 L553.6,63.8 L553.4,67.6 L553.3,71.3 L553.3,74.7 L553.5,77.5 L553.6,79.4 L553.8,80.4 M550.5,65.3 L550.7,65.1 L551.2,64.8 L552.1,64.5 L553.5,64.2 L555.2,63.9 L557.1,63.4 L559.3,62.9 L561.4,62.2 L563.4,61.5 L565.1,60.8 L566.4,60.3 L567.3,59.9 L567.8,59.6 L567.8,59.6 L567.4,59.7 L566.6,60.2 L565.5,61.1 L564.2,62.4 L563.0,64.0 L562.1,65.7 L561.7,67.3 L561.8,68.6 L562.4,69.5 L563.5,69.9 L564.8,69.8 L566.4,69.2 L567.9,68.1 L569.1,66.6 L569.9,64.9 L570.2,63.2 L570.1,61.7 L569.5,60.5 L568.9,59.8 L568.2,59.4 L567.7,59.3 L567.4,59.3 M576.7,57.3 L576.7,57.3 L576.8,57.4 L577.0,57.7 L577.2,58.5 L577.4,59.6 L577.8,61.0 L578.2,62.7 L578.7,64.4 L579.3,66.2 L580.0,67.8 L580.8,69.1 L581.5,70.0 L582.1,70.4 L582.5,70.4 L582.6,70.1 L582.7,69.8 M579.1,64.9 L579.0,64.8 L578.8,64.7 L578.5,64.6 L578.2,64.5 L577.9,64.5 L577.4,64.4 L576.9,64.5 L576.4,64.5 L575.9,64.6 L575.3,64.7 L574.8,64.9 L574.2,65.0 L573.8,65.2 L573.5,65.4 L573.3,65.5 M597.4,59.7 L597.5,59.8 L597.6,60.2 L597.7,61.0 L597.9,62.1 L598.1,63.7 L598.2,65.6 L598.3,67.7 L598.3,70.0 L598.3,72.3 L598.3,74.7 L598.2,76.9 L598.0,78.9 L597.6,80.7 L597.0,82.1 L596.2,83.1 L595.3,83.7 L594.2,83.8 L593.0,83.3 L591.8,82.5 L590.8,81.2 L590.0,79.6 L589.4,77.8 L589.2,75.8 L589.4,73.8 L590.0,71.8 L591.1,70.0 L592.6,68.3 L594.3,66.8 L596.3,65.5 L598.3,64.3 L600.1,63.3 L601.8,62.3 L603.3,61.3 L604.4,60.4 L605.3,59.6 L605.8,58.8 L606.1,58.2 L606.2,57.8 L606.1,57.6 L606.0,57.7 L605.8,58.2 L605.5,59.0 L605.2,60.2 L604.9,61.6 L604.8,63.0 L604.9,64.3 L605.3,65.3 L605.9,65.9 L606.7,66.0 L607.6,65.8 L608.6,65.0 L609.7,63.9 L610.7,62.6 L611.6,61.1 L612.2,59.9 L612.6,59.0 L612.8,58.4 L612.8,58.3 L612.7,58.5 L612.6,59.2 L612.4,60.3 L612.3,61.6 L612.4,63.0 L612.6,64.3 L613.1,65.3 L613.9,65.9 L614.8,66.0 L615.8,65.7 L616.9,65.0 L618.0,63.8 L618.9,62.4 L619.8,60.9 L620.5,59.5 L621.0,58.4 L621.3,57.7 L621.4,57.4 L621.4,57.5 L621.4,58.1 L621.2,59.1 L621.0,60.5 L620.8,62.1 L620.6,63.6 L620.6,64.9 L620.6,65.9 L620.6,66.5 L620.7,66.7 L620.8,66.5 L621.0,65.8 L621.3,64.7 L621.9,63.2 L622.5,61.6 L623.4,60.2 L624.2,59.0 L625.1,58.2 L626.0,57.8 L626.7,57.8 L627.5,58.2 L628.1,58.9 L628.4,60.0 L628.6,61.2 L628.5,62.5 L628.2,63.7 L628.0,64.6 L627.8,65.2 L627.8,65.4 L627.8,65.3 L628.0,64.7 L628.5,63.7 L629.1,62.4 L629.9,61.0 L630.9,59.8 L631.9,58.8 L632.8,58.2 L633.5,58.0 L634.2,58.2 L634.8,58.8 L635.3,59.7 L635.8,61.0 L636.2,62.4 L636.6,63.8 L637.1,64.8 L637.5,65.5 L637.9,65.9 L638.2,66.0 M640.8,58.6 L640.8,58.7 L640.8,59.1 L640.9,60.0 L640.9,61.3 L641.0,63.1 L641.0,65.3 L641.0,67.9 L640.9,70.7 L640.7,73.6 L640.4,76.2 L640.1,78.5 L639.9,80.1 L639.8,81.1 L639.7,81.5 L639.5,81.2 L639.4,80.2 L639.2,78.7 L639.1,76.6 L639.0,74.2 L639.0,71.6 L639.3,69.0 L639.7,66.5 L640.4,64.2 L641.3,62.1 L642.4,60.4 L643.6,59.2 L645.0,58.6 L646.3,58.4 L647.6,58.8 L648.6,59.6 L649.3,60.7 L649.5,61.9 L649.2,63.2 L648.3,64.4 L647.1,65.3 L645.5,66.0 L644.0,66.4 L642.6,66.5 L641.6,66.5 L641.1,66.3 M655.8,57.6 L655.8,57.4 L655.8,56.9 L655.5,56.4 L654.9,56.0 L654.0,55.7 L653.0,55.7 L651.9,55.8 L651.1,56.2 L650.7,56.7 L650.7,57.4 L651.2,58.2 L652.2,59.2 L653.5,60.3 L655.0,61.4 L656.5,62.5 L657.7,63.6 L658.5,64.5 L658.9,65.2 L658.6,65.8 L657.7,66.1 L656.4,66.2 L654.7,66.2 L653.2,66.0 L652.3,65.9 " stroke="black" stroke-width="1.5" fill="none" stroke-linecap="round"/></svg>