<svg xmlns="http://www.w3.org/2000/svg" viewBox="0 0 1000 120"><path d="M370.5,63.9 L370.4,63.7 L370.1,63.3 L369.4,62.8 L368.4,62.2 L367.2,61.6 L365.9,61.2 L364.6,61.0 L363.6,61.0 L363.0,61.2 L362.8,61.6 L363.2,62.4 L364.0,63.4 L365.1,64.7 L366.5,66.1 L367.8,67.6 L369.0,69.1 L369.8,70.4 L370.1,71.4 L369.9,72.2 L369.1,72.7 L367.9,72.9 L366.3,72.8 L364.5,72.3 L362.6,71.6 L360.9,70.8 L359.5,69.9 L358.5,69.1 L357.9,68.6 M359.3,56.4 L359.4,56.3 L359.6,56.3 L359.8,56.3 L360.0,56.5 M350.0,59.6 L350.1,59.8 L350.3,60.4 L350.4,61.5 L350.3,63.1 L350.1,65.3 L349.7,68.0 L349.1,71.1 L348.4,74.4 L347.8,77.7 L347.2,80.8 L346.7,83.4 L346.5,85.3 L346.3,86.5 L346.2,86.9 L346.3,86.5 L346.5,85.3 L346.9,83.2 L347.6,80.5 L348.5,77.4 L349.5,74.1 L350.6,70.9 L351.8,68.0 L353.1,65.5 L354.5,63.5 L356.0,62.2 L357.5,61.6 L359.0,61.7 L360.3,62.3 L361.3,63.5 L361.9,65.0 L362.1,66.6 L361.7,68.2 L360.9,69.6 L359.6,70.7 L358.1,71.5 L356.5,71.9 L354.9,71.8 L353.6,71.5 L352.7,71.0 L352.3,70.6 M301.9,64.2 L301.9,64.2 L301.9,64.3 L302.0,64.5 L302.1,65.1 L302.1,66.0 L302.2,67.3 L302.1,69.0 L302.0,71.0 L301.9,73.2 L301.7,75.6 L301.3,78.2 L300.9,80.7 L300.2,83.2 L299.4,85.4 L298.5,87.3 L297.5,88.8 L296.6,89.8 L295.8,90.3 L295.1,90.4 L294.6,89.9 L294.4,88.9 L294.5,87.5 L295.1,85.7 L296.0,83.6 L297.3,81.4 L298.9,79.2 L300.7,77.0 L302.7,74.9 L304.8,72.9 L306.9,71.1 L308.9,69.3 L310.7,67.8 L312.3,66.3 L313.4,65.2 L314.2,64.2 L314.6,63.6 L314.7,63.4 L314.6,63.5 L314.2,63.9 L313.7,64.8 L313.2,65.9 L312.7,67.3 L312.5,68.7 L312.4,69.9 L312.6,71.0 L313.0,71.7 L313.6,72.1 L314.5,72.1 L315.6,71.6 L316.8,70.6 L318.1,69.3 L319.3,67.9 L320.4,66.5 L321.1,65.3 L321.6,64.3 L321.9,63.8 L321.9,63.7 L321.8,64.0 L321.6,64.8 L321.3,66.1 L321.0,67.6 L320.9,69.2 L321.1,70.6 L321.5,71.7 L322.1,72.3 L323.0,72.6 L324.1,72.2 L325.3,71.4 L326.7,70.1 L328.1,68.5 L329.5,66.9 L330.6,65.4 L331.6,64.2 L332.3,63.5 L332.7,63.1 L332.8,63.3 L332.7,63.9 L332.5,65.0 L332.0,66.5 L331.6,68.1 L331.2,69.7 L330.9,70.9 L330.8,71.7 L330.9,72.1 L331.2,71.9 L331.7,71.2 L332.5,70.0 L333.6,68.6 L334.9,67.0 L336.2,65.6 L337.4,64.5 L338.4,63.8 L339.2,63.5 L339.8,63.8 L340.1,64.5 L340.2,65.6 L340.1,67.1 L339.9,68.5 L339.5,69.8 L339.2,70.8 L339.1,71.3 L339.1,71.4 L339.3,71.0 L339.8,70.1 L340.6,68.8 L341.7,67.3 L343.0,65.9 L344.3,64.6 L345.5,63.7 L346.6,63.2 L347.6,63.1 L348.4,63.6 L349.0,64.4 L349.3,65.6 L349.5,67.1 L349.5,68.6 L349.5,70.0 L349.4,71.3 L349.4,72.1 L349.4,72.5 M279.6,61.8 L279.6,61.8 L279.8,62.1 L280.3,62.6 L280.9,63.3 L281.8,64.3 L282.7,65.5 L283.7,66.7 L284.7,68.0 L285.5,69.3 L286.4,70.5 L287.1,71.6 L287.7,72.6 L288.2,73.4 L288.5,73.7 L288.8,73.8 L288.9,73.8 M255.3,68.1 L255.7,68.0 L256.7,67.7 L258.2,67.3 L260.1,66.8 L262.4,66.3 L264.8,65.8 L267.0,65.2 L268.8,64.7 L270.1,64.2 L270.9,63.9 L271.0,63.7 L270.7,63.7 L270.0,64.0 L269.0,64.7 L267.8,65.9 L266.7,67.4 L266.0,68.9 L265.8,70.4 L266.2,71.7 L267.0,72.6 L268.3,73.0 L269.8,73.0 L271.5,72.5 L273.0,71.6 L274.3,70.3 L275.2,68.8 L275.6,67.2 L275.4,65.7 L274.7,64.4 L273.6,63.3 L272.5,62.7 L271.5,62.4 L270.9,62.3 L270.6,62.4 L270.8,62.5 L271.5,62.7 L272.6,62.9 L274.3,62.9 L276.3,62.9 L278.4,62.8 L280.6,62.5 L282.6,62.3 L284.3,62.0 L285.7,61.8 L286.7,61.5 L287.2,61.4 L287.4,61.3 L287.4,61.2 L287.4,61.2 M259.4,63.8 L260.3,63.2 L261.8,62.0 L263.5,60.4 L265.2,58.5 L266.6,56.3 L267.8,54.0 L268.6,51.7 L269.2,49.5 L269.3,47.7 L269.1,46.2 L268.6,45.2 L267.9,44.9 L266.8,45.3 L265.6,46.4 L264.3,48.3 L263.0,50.9 L261.8,54.1 L260.7,57.6 L259.8,61.5 L259.1,65.5 L258.5,69.5 L258.2,73.4 L258.0,77.0 L258.0,79.9 L258.1,82.2 L258.3,83.7 L258.5,84.4 L258.6,84.6 M171.1,66.7 L171.1,66.7 L171.1,66.7 L171.1,66.6 L171.2,66.5 L171.5,66.1 L172.1,65.4 L172.9,64.3 L173.9,62.8 L175.0,60.9 L176.1,58.8 L177.0,56.6 L177.7,54.5 L178.2,52.6 L178.3,51.1 L178.1,50.0 L177.6,49.4 L176.8,49.5 L175.7,50.2 L174.5,51.6 L173.1,53.7 L171.9,56.4 L170.9,59.5 L170.2,62.8 L170.0,66.0 L170.3,68.9 L170.9,71.4 L171.9,73.2 L173.1,74.4 L174.4,75.0 L175.6,75.1 L176.6,74.6 L177.5,73.6 L178.1,72.2 L178.4,70.6 L178.4,68.9 L178.2,67.4 L177.9,66.1 L177.7,65.1 L177.5,64.4 L177.5,64.0 L177.7,64.0 L178.2,64.2 L179.1,64.6 L180.2,65.0 L181.5,65.3 L183.0,65.4 L184.3,65.3 L185.6,65.0 L186.7,64.4 L187.5,63.7 L188.1,63.0 L188.4,62.5 L188.5,62.2 L188.5,62.2 L188.5,62.5 L188.4,63.3 L188.3,64.5 L188.2,66.0 L188.0,67.8 L187.8,69.5 L187.6,70.9 L187.5,72.0 L187.5,72.7 L187.5,73.0 L187.6,72.7 L187.7,72.0 L188.1,70.7 L188.6,69.2 L189.3,67.5 L190.1,65.9 L191.0,64.5 L192.1,63.4 L193.2,62.6 L194.3,62.2 L195.5,62.0 L196.7,62.2 L197.9,62.5 L199.0,63.0 L199.8,63.4 L200.5,63.7 L200.8,63.9 L200.9,64.0 L200.7,64.0 L200.1,64.0 L199.2,64.3 L198.1,64.8 L196.8,65.6 L195.6,66.8 L194.6,68.2 L193.9,69.6 L193.8,71.0 L194.1,72.1 L194.9,72.9 L196.1,73.2 L197.4,73.1 L198.7,72.5 L200.0,71.4 L200.9,69.9 L201.6,68.2 L201.9,66.5 L201.8,65.0 L201.5,63.8 L201.2,63.0 L201.0,62.6 L200.9,62.4 L201.2,62.6 L201.8,62.9 L202.7,63.3 L203.9,63.7 L205.3,63.9 L206.7,63.9 L208.0,63.7 L209.0,63.4 L209.6,63.0 L210.0,62.6 L210.1,62.4 L209.9,62.4 L209.6,62.8 L209.1,63.6 L208.6,64.8 L208.1,66.4 L207.8,68.1 L207.7,69.8 L207.8,71.2 L208.2,72.3 L208.8,72.8 L209.6,72.7 L210.7,72.1 L211.8,71.1 L213.0,69.7 L214.2,68.2 L215.1,66.8 L215.7,65.6 L216.1,64.9 L216.3,64.5 L216.3,64.5 L216.2,65.0 L216.1,65.9 L215.9,67.2 L215.9,68.7 L216.0,70.2 L216.4,71.5 L217.0,72.5 L217.8,73.1 L218.7,73.3 L219.6,72.9 L220.5,72.1 L221.2,70.9 L221.8,69.5 L222.1,67.9 L222.3,66.5 L222.3,65.3 L222.3,64.4 L222.3,63.8 L222.4,63.5 L222.7,63.4 L223.2,63.5 L223.9,63.8 L224.8,64.1 L225.9,64.3 L227.0,64.4 L228.1,64.5 L229.2,64.4 L230.1,64.3 L230.7,64.2 L231.2,64.0 L231.4,63.9 L231.5,63.9 L231.5,63.9 L231.4,64.1 L231.3,64.4 L231.0,65.0 L230.6,65.9 L230.2,66.9 L229.7,68.1 L229.3,69.2 L228.9,70.2 L228.6,70.9 L228.5,71.3 L228.4,71.4 L228.5,71.1 L228.8,70.5 L229.1,69.4 L229.7,68.0 L230.5,66.6 L231.4,65.1 L232.4,63.9 L233.5,62.9 L234.6,62.3 L235.7,62.1 L236.7,62.3 L237.6,62.8 L238.2,63.8 L238.7,65.1 L238.9,66.6 L239.1,68.2 L239.3,69.8 L239.6,71.2 L239.9,72.4 L240.5,73.3 L241.3,73.7 L242.3,73.6 L243.3,73.3 L244.0,72.9 M128.1,67.0 L127.5,66.9 L126.7,66.8 L125.6,66.8 L124.4,67.2 L123.2,68.0 L122.2,69.0 L121.4,70.3 L121.0,71.7 L121.1,73.1 L121.6,74.4 L122.6,75.5 L123.9,76.2 L125.6,76.5 L127.5,76.1 L129.5,75.2 L131.5,73.5 L133.4,71.3 L135.2,68.6 L136.7,65.7 L138.0,62.8 L139.0,60.0 L139.6,57.7 L140.0,55.8 L140.2,54.6 L140.3,53.9 L140.1,54.0 L139.9,54.7 L139.4,56.1 L138.8,58.2 L138.1,60.9 L137.4,63.9 L136.8,67.0 L136.4,70.1 L136.1,72.8 L135.9,75.0 L135.8,76.5 L135.8,77.4 L135.8,77.6 L135.9,77.1 L136.1,76.1 L136.4,74.5 L136.9,72.4 L137.7,70.2 L138.7,68.0 L139.9,66.0 L141.2,64.5 L142.5,63.4 L143.7,62.9 L144.8,62.8 L145.5,63.3 L145.9,64.0 L145.7,65.0 L145.1,66.0 L144.0,67.0 L142.7,67.9 L141.4,68.5 L140.2,68.8 L139.4,69.0 L138.9,69.0 L138.7,68.9 L138.8,68.8 L139.0,68.8 L139.3,68.9 L139.6,69.3 L140.0,69.9 L140.5,70.8 L141.2,71.7 L141.9,72.6 L142.8,73.5 L143.8,74.2 L145.0,74.8 L146.4,75.1 L147.9,75.1 L149.3,74.8 L150.4,74.4 L151.0,74.0 M116.3,60.3 L116.2,60.2 L116.2,60.2 L116.3,60.2 L116.4,60.2 M99.1,68.0 L99.0,68.0 L99.1,68.2 L99.1,68.6 L99.1,69.3 L99.3,70.4 L99.4,71.6 L99.6,73.0 L99.9,74.2 L100.2,75.3 L100.5,76.1 L100.9,76.7 L101.4,76.8 L101.9,76.5 L102.6,75.7 L103.4,74.4 L104.2,72.9 L105.1,71.2 L105.8,69.6 L106.3,68.4 L106.7,67.5 L106.9,67.1 L106.9,67.1 L106.7,67.5 L106.5,68.5 L106.2,69.8 L106.0,71.4 L105.9,73.1 L106.1,74.7 L106.6,75.9 L107.3,76.8 L108.1,77.2 L109.1,77.2 L110.3,76.6 L111.4,75.7 L112.6,74.3 L113.7,72.8 L114.7,71.3 L115.3,69.9 L115.7,68.8 L116.0,68.1 L116.1,67.8 L116.0,67.8 L115.9,68.3 L115.7,69.2 L115.4,70.4 L115.3,71.8 L115.4,73.2 L115.6,74.5 L116.1,75.4 L116.8,76.0 L117.4,76.3 L117.9,76.3 M95.5,69.4 L95.6,69.1 L95.7,68.5 L95.6,67.7 L95.2,67.0 L94.4,66.4 L93.4,66.2 L92.0,66.4 L90.6,67.0 L89.2,68.1 L88.1,69.6 L87.3,71.3 L87.0,73.1 L87.2,74.7 L87.7,75.9 L88.6,76.7 L89.8,77.0 L91.1,76.7 L92.5,75.7 L93.9,74.4 L95.0,72.7 L96.0,70.9 L96.6,69.2 L96.9,67.8 L97.1,66.7 L97.1,66.1 L97.0,65.8 L96.9,66.1 L96.8,66.9 L96.7,68.2 L96.6,70.1 L96.5,72.5 L96.5,75.2 L96.5,78.1 L96.6,81.1 L96.7,83.9 L96.9,86.5 L97.0,88.4 L97.1,89.8 L97.2,90.5 L97.3,90.7 M34.5,54.1 L34.9,53.9 L35.9,53.7 L37.4,53.3 L39.4,52.8 L41.8,52.4 L44.4,52.0 L46.9,51.5 L49.1,51.1 L50.8,50.7 L52.0,50.4 L52.7,50.2 L52.9,50.1 L52.8,50.3 L52.4,50.7 L51.9,51.7 L51.2,53.2 L50.5,55.3 L49.9,57.8 L49.4,60.7 L49.0,63.7 L48.7,66.7 L48.5,69.4 L48.4,71.6 L48.5,73.2 L48.6,74.1 L48.8,74.3 L49.1,74.0 L49.6,73.0 L50.3,71.6 L51.2,69.8 L52.3,67.9 L53.4,66.3 L54.4,65.1 L55.2,64.5 L55.8,64.5 L56.1,65.2 L56.4,66.4 L56.5,68.1 L56.7,70.0 L57.0,71.9 L57.6,73.6 L58.4,74.9 L59.5,75.8 L60.8,76.0 L62.4,75.5 L64.0,74.4 L65.6,72.8 L67.0,70.9 L67.9,69.0 L68.4,67.4 L68.3,66.2 L67.8,65.5 L66.9,65.4 L65.9,65.9 L64.8,67.1 L64.0,68.7 L63.5,70.7 L63.6,72.7 L64.3,74.5 L65.8,76.0 L68.1,77.1 L70.9,77.6 L73.5,77.6 L75.2,77.5 M42.0,55.0 L42.0,54.9 L42.0,54.9 L42.0,54.9 L42.1,55.3 L42.2,56.0 L42.3,57.3 L42.3,59.1 L42.3,61.4 L42.3,63.9 L42.2,66.6 L42.1,69.3 L42.1,71.8 L42.1,74.0 L42.1,75.6 L42.2,76.7 L42.2,77.2 L42.2,77.2 L42.2,76.9 L42.2,76.5 L42.2,76.2 M20.0,74.6 L21.0,75.4 L22.3,76.4 " stroke="black" stroke-width="1.48" fill="none" stroke-linecap="round"/></svg>