<svg xmlns="http://www.w3.org/2000/svg" viewBox="0 0 1000 120"><path d="M373.0,55.7 L372.8,55.5 L372.4,55.1 L371.8,54.7 L370.9,54.5 L369.8,54.4 L368.7,54.4 L367.8,54.7 L367.2,55.1 L367.1,55.6 L367.5,56.3 L368.4,57.2 L369.6,58.1 L371.0,59.0 L372.4,59.9 L373.7,60.7 L374.6,61.4 L375.1,62.0 L375.1,62.3 L374.7,62.5 L373.8,62.5 L372.3,62.3 L370.4,62.1 L368.7,61.9 L367.6,61.8 M353.1,55.7 L353.1,55.8 L353.2,56.1 L353.3,56.6 L353.2,57.4 L353.0,58.5 L352.6,59.8 L352.2,61.4 L351.6,63.2 L350.9,65.1 L350.2,67.0 L349.6,68.9 L349.0,70.5 L348.6,71.8 L348.3,72.6 L348.2,73.0 L348.2,72.9 L348.2,72.4 L348.4,71.4 L348.7,70.0 L349.1,68.3 L349.6,66.5 L350.2,64.6 L350.9,62.7 L351.7,61.0 L352.7,59.4 L353.8,58.0 L355.1,56.9 L356.4,56.1 L357.9,55.6 L359.4,55.5 L360.8,55.7 L362.1,56.2 L363.1,57.0 L363.7,57.9 L363.8,58.8 L363.6,59.8 L362.8,60.7 L361.7,61.4 L360.2,62.0 L358.6,62.3 L356.9,62.4 L355.4,62.4 L354.4,62.2 L353.8,62.1 M331.4,54.8 L331.4,55.0 L331.3,55.4 L331.1,56.2 L330.8,57.3 L330.4,58.6 L329.9,60.1 L329.4,61.5 L329.1,62.7 L328.9,63.7 L328.8,64.3 L328.9,64.5 L329.0,64.2 L329.3,63.5 L329.6,62.4 L330.1,61.0 L330.8,59.5 L331.5,57.9 L332.5,56.4 L333.5,55.2 L334.6,54.4 L335.7,53.9 L336.6,53.8 L337.4,54.1 L338.0,54.8 L338.3,55.7 L338.5,56.9 L338.4,58.1 L338.1,59.3 L337.7,60.4 L337.3,61.3 L337.0,61.9 L336.8,62.2 L336.8,62.2 L337.0,61.8 L337.4,61.0 L338.1,59.9 L339.0,58.6 L340.1,57.3 L341.4,56.1 L342.7,55.2 L344.0,54.5 L345.2,54.1 L346.2,54.1 L347.0,54.5 L347.4,55.1 L347.7,56.1 L347.7,57.2 L347.5,58.5 L347.2,59.7 L346.9,60.9 L346.7,61.8 L346.6,62.3 M315.8,56.0 L315.6,56.7 L315.4,57.8 L315.1,59.3 L315.0,60.8 L315.0,62.3 L315.2,63.5 L315.5,64.5 L316.1,65.1 L316.9,65.2 L318.0,64.9 L319.3,64.0 L320.6,62.8 L321.9,61.3 L323.1,59.7 L324.1,58.2 L324.8,56.9 L325.2,55.9 L325.5,55.3 L325.5,55.0 L325.5,55.2 L325.3,55.9 L325.1,57.0 L324.7,58.4 L324.5,59.9 L324.3,61.4 L324.4,62.6 L324.5,63.5 L324.7,63.9 M312.0,48.4 L312.0,48.3 L312.1,48.3 L312.1,48.4 L312.2,48.6 M309.0,58.5 L309.0,58.5 L309.1,58.7 L309.2,59.0 L309.3,59.7 L309.3,60.7 L309.2,62.1 L308.9,63.8 L308.4,65.7 L307.6,67.9 L306.8,70.1 L305.8,72.2 L304.7,74.0 L303.7,75.5 L302.7,76.6 L301.8,77.2 L301.2,77.3 L300.8,76.8 L300.6,75.9 L300.6,74.9 L300.7,74.2 M289.0,58.2 L289.1,58.3 L289.1,58.5 L289.2,58.8 L289.3,59.3 L289.4,59.9 L289.4,60.6 L289.4,61.2 L289.4,61.5 M290.9,56.6 L290.9,56.6 L291.0,56.8 L291.0,57.0 L291.0,57.5 L290.8,58.3 L290.6,59.2 L290.3,60.3 L290.0,61.5 L289.8,62.8 L289.6,63.9 L289.5,64.7 L289.5,65.2 M280.8,57.7 L280.4,57.7 L279.6,57.9 L278.6,58.3 L277.4,58.9 L276.1,59.8 L275.0,61.0 L274.2,62.2 L273.8,63.4 L273.9,64.4 L274.4,65.1 L275.4,65.5 L276.8,65.4 L278.4,65.0 L280.1,64.2 L281.8,63.1 L283.3,61.8 L284.3,60.4 L284.9,59.1 L284.9,58.0 L284.5,57.1 L283.8,56.5 L282.9,56.2 L282.1,56.1 L281.6,56.2 M261.0,58.6 L261.3,58.6 L262.1,58.7 L263.3,58.9 L265.1,59.1 L267.2,59.3 L269.5,59.4 L271.3,59.5 L272.4,59.5 M273.1,54.3 L273.2,53.8 L273.3,52.9 L273.4,51.8 L273.5,50.7 L273.3,49.5 L273.0,48.4 L272.6,47.3 L272.0,46.4 L271.3,45.8 L270.6,45.4 L269.8,45.5 L269.0,45.9 L268.1,46.8 L267.2,48.1 L266.4,49.9 L265.6,51.9 L265.0,54.2 L264.4,56.7 L264.0,59.1 L263.7,61.6 L263.4,63.9 L263.3,65.9 L263.2,67.6 L263.3,68.9 L263.3,69.6 L263.4,69.8 L263.4,69.7 L263.4,69.5 M231.2,54.6 L231.2,54.6 L231.2,54.8 L231.1,55.3 L231.0,56.1 L230.6,57.3 L230.1,58.7 L229.4,60.2 L228.8,61.7 L228.4,63.0 L228.1,63.9 L228.0,64.5 L228.1,64.6 L228.3,64.3 L228.6,63.5 L229.1,62.3 L229.8,60.9 L230.5,59.4 L231.4,57.9 L232.5,56.6 L233.7,55.5 L235.0,54.8 L236.3,54.4 L237.5,54.4 L238.5,54.8 L239.5,55.5 L240.2,56.6 L240.7,57.9 L241.1,59.3 L241.3,60.6 L241.4,61.9 L241.5,63.0 L241.6,63.9 L241.8,64.5 L242.1,64.8 L242.4,64.9 L242.7,64.8 M210.8,55.6 L210.7,55.7 L210.5,56.1 L210.3,56.9 L209.9,58.0 L209.5,59.5 L209.0,61.1 L208.7,62.7 L208.6,64.1 L208.7,65.2 L209.2,65.8 L210.0,65.9 L211.1,65.4 L212.3,64.4 L213.5,63.1 L214.7,61.6 L215.8,60.1 L216.6,58.9 L217.1,57.9 L217.4,57.4 L217.4,57.2 L217.4,57.5 L217.3,58.2 L217.1,59.4 L217.0,60.8 L217.0,62.3 L217.2,63.7 L217.6,64.8 L218.2,65.5 L219.1,65.8 L220.1,65.5 L221.2,64.9 L222.4,63.8 L223.5,62.3 L224.5,60.8 L225.3,59.2 L225.7,57.7 L225.9,56.5 L225.8,55.6 L225.7,55.0 L225.5,54.7 M201.9,57.1 L201.9,56.8 L201.9,56.5 L201.7,56.1 L201.2,55.8 L200.4,55.7 L199.3,56.0 L198.0,56.6 L196.7,57.6 L195.5,58.8 L194.6,60.3 L194.1,61.7 L194.1,63.1 L194.5,64.3 L195.5,65.2 L196.8,65.6 L198.4,65.5 L200.2,65.0 L201.9,64.0 L203.4,62.7 L204.6,61.3 L205.2,59.8 L205.3,58.5 L205.1,57.3 L204.4,56.4 L203.7,55.8 L202.8,55.5 L202.2,55.5 L201.8,55.6 M183.2,57.9 L183.2,58.4 L183.0,59.2 L182.8,60.4 L182.5,61.6 L182.2,62.8 L182.0,63.8 L181.7,64.6 L181.6,65.1 L181.5,65.2 L181.5,65.0 L181.6,64.3 L181.8,63.2 L182.1,61.9 L182.6,60.3 L183.2,58.8 L184.0,57.3 L185.0,56.1 L186.2,55.1 L187.5,54.4 L188.9,53.9 L190.5,53.9 L192.1,54.1 L193.6,54.5 L195.0,55.0 L196.3,55.5 L197.3,55.9 L198.0,56.2 L198.4,56.4 M169.1,49.0 L169.1,49.0 L169.1,49.1 L169.1,49.5 L169.0,50.1 L168.8,51.1 L168.6,52.3 L168.2,53.8 L167.8,55.5 L167.3,57.3 L166.9,59.0 L166.5,60.5 L166.2,61.7 L165.9,62.6 L165.8,63.1 L165.7,63.2 L165.8,62.8 L166.1,62.0 L166.6,60.9 L167.5,59.7 L168.5,58.3 L169.9,57.1 L171.4,56.0 L173.1,55.2 L174.8,54.7 L176.5,54.7 L178.1,55.1 L179.4,55.9 L180.4,56.9 L181.0,58.2 L181.2,59.6 L180.9,60.9 L180.3,62.1 L179.4,63.1 L178.2,63.8 L176.7,64.1 L175.1,64.1 L173.3,63.9 L171.6,63.4 L170.0,62.9 L168.6,62.2 L167.6,61.5 L167.0,60.9 L166.8,60.3 L166.7,60.0 M131.0,58.6 L130.7,58.4 L130.1,58.2 L129.3,58.1 L128.2,58.2 L126.9,58.7 L125.5,59.5 L124.1,60.5 L123.0,61.7 L122.4,63.0 L122.2,64.3 L122.6,65.5 L123.6,66.4 L125.1,67.0 L127.0,67.1 L129.2,66.7 L131.4,66.0 L133.6,65.0 L135.6,63.7 L137.3,62.2 L138.6,60.6 L139.7,58.9 L140.6,57.1 L141.2,55.3 L141.6,53.7 L141.8,52.2 L141.8,50.9 L141.8,49.9 L141.7,49.3 L141.5,48.9 L141.3,48.8 L141.0,49.1 L140.6,49.9 L140.1,51.0 L139.5,52.5 L139.1,54.1 L138.7,55.9 L138.4,57.8 L138.2,59.6 L138.1,61.4 L138.0,63.0 L138.0,64.3 L138.0,65.4 L138.1,66.0 L138.2,66.4 L138.3,66.4 L138.5,66.0 L138.9,65.3 L139.4,64.2 L140.1,62.8 L141.0,61.3 L142.1,59.8 L143.4,58.4 L144.7,57.2 L145.9,56.3 L147.0,55.8 L147.7,55.6 L148.1,55.6 L148.1,55.8 L147.8,56.3 L147.1,56.8 L146.1,57.4 L144.8,58.0 L143.5,58.6 L142.1,59.2 L140.9,59.8 L139.9,60.4 L139.2,61.0 L138.7,61.6 L138.6,62.2 L138.9,62.9 L139.5,63.7 L140.4,64.4 L141.6,65.0 L143.2,65.5 L144.9,65.8 L146.7,66.0 L148.6,66.0 L150.3,65.9 L151.6,65.6 L152.4,65.5 M120.2,52.0 L120.2,51.7 L120.3,51.5 L120.5,51.4 L120.7,51.5 M119.1,58.4 L119.2,58.4 L119.2,58.5 L119.2,58.9 L119.0,59.7 L118.7,60.8 L118.2,62.3 L117.7,63.8 L117.3,65.2 L117.1,66.4 L117.1,67.1 L117.2,67.4 L117.3,67.4 M101.5,59.2 L101.5,59.5 L101.5,60.0 L101.6,60.8 L101.6,61.9 L101.7,63.1 L101.7,64.5 L101.8,65.9 L102.1,67.1 L102.6,68.0 L103.2,68.6 L104.1,68.8 L105.1,68.5 L106.2,67.7 L107.3,66.6 L108.5,65.1 L109.6,63.5 L110.5,61.8 L111.3,60.3 L111.9,59.0 L112.3,58.1 L112.6,57.5 L112.6,57.3 L112.6,57.6 L112.5,58.3 L112.3,59.4 L112.0,60.8 L111.8,62.5 L111.7,64.1 L111.7,65.5 L111.8,66.7 L112.0,67.4 L112.1,67.7 M96.9,59.2 L96.9,58.9 L96.7,58.4 L96.4,57.8 L95.8,57.4 L95.0,57.1 L93.9,57.0 L92.5,57.2 L91.0,57.8 L89.5,58.6 L88.0,59.6 L86.8,60.9 L86.0,62.3 L85.5,63.7 L85.4,65.1 L85.8,66.2 L86.5,66.9 L87.6,67.3 L89.1,67.1 L90.7,66.5 L92.5,65.5 L94.2,64.2 L95.7,62.8 L96.8,61.3 L97.6,60.0 L98.1,59.0 L98.3,58.2 L98.3,57.7 L98.2,57.5 L98.0,57.8 L97.7,58.4 L97.4,59.4 L97.1,60.8 L96.7,62.5 L96.3,64.3 L96.0,66.3 L95.6,68.3 L95.3,70.3 L95.1,72.3 L94.9,74.1 L94.8,75.6 L94.8,76.8 L94.9,77.6 L95.0,78.0 L95.1,78.2 M58.6,63.2 L58.8,63.3 L59.4,63.3 L60.4,63.2 L61.7,62.8 L63.1,62.3 L64.6,61.5 L66.0,60.6 L67.2,59.5 L68.0,58.4 L68.5,57.4 L68.6,56.5 L68.3,55.8 L67.6,55.3 L66.5,55.2 L65.2,55.4 L63.6,56.1 L62.0,57.1 L60.5,58.5 L59.2,60.0 L58.3,61.6 L58.1,63.1 L58.4,64.4 L59.5,65.5 L61.1,66.3 L63.4,66.7 L65.9,66.8 L68.1,66.8 L69.5,66.6 M46.5,47.0 L46.5,47.3 L46.6,48.1 L46.5,49.3 L46.3,51.0 L46.0,53.0 L45.5,55.2 L44.9,57.5 L44.3,59.7 L43.7,61.6 L43.4,63.2 L43.2,64.2 L43.2,64.7 L43.3,64.6 L43.6,64.1 L44.1,63.0 L44.9,61.6 L45.9,60.0 L47.2,58.4 L48.5,57.0 L49.9,55.9 L51.2,55.2 L52.4,54.9 L53.4,55.2 L54.2,55.8 L54.7,56.9 L54.9,58.4 L54.8,60.1 L54.7,61.9 L54.4,63.5 L54.2,65.0 L54.0,66.1 L54.1,66.8 L54.3,67.1 L54.7,67.0 L55.1,66.7 L55.4,66.5 M21.8,45.7 L22.0,45.7 L22.6,45.7 L23.8,45.8 L25.5,45.8 L27.7,45.8 L30.3,45.8 L33.0,45.6 L35.8,45.4 L38.4,45.2 L40.7,45.1 L42.4,45.0 L43.4,45.0 M31.4,49.3 L31.4,49.6 L31.4,50.3 L31.3,51.4 L31.3,52.9 L31.1,54.6 L30.8,56.7 L30.5,58.9 L30.1,61.2 L29.8,63.3 L29.5,65.3 L29.4,66.9 L29.4,68.0 L29.4,68.5 L29.4,68.5 L29.5,68.2 L29.5,67.9 " stroke="black" stroke-width="1.40" fill="none" stroke-linecap="round"/></svg>