<svg xmlns="http://www.w3.org/2000/svg" viewBox="0 0 1000 120"><path d="M340.8,54.2 L341.1,54.1 L341.5,53.9 L341.8,53.6 L341.8,53.4 L341.5,53.3 L340.8,53.3 L340.0,53.6 L339.0,54.1 L338.0,54.8 L337.3,55.7 L336.9,56.6 L336.9,57.7 L337.2,58.8 L337.7,59.9 L338.4,61.1 L339.0,62.1 L339.6,63.1 L339.9,64.0 L339.9,64.7 L339.6,65.2 L338.8,65.6 L337.7,65.6 L336.3,65.4 L334.7,65.0 L333.3,64.3 L332.0,63.5 L331.2,62.9 L330.7,62.5 M283.9,56.1 L283.8,56.2 L283.6,56.5 L283.4,57.1 L283.0,57.9 L282.7,59.2 L282.4,60.7 L282.2,62.3 L282.0,63.9 L282.1,65.2 L282.4,66.2 L282.9,66.8 L283.6,66.9 L284.5,66.6 L285.5,65.8 L286.7,64.6 L287.8,63.1 L288.9,61.3 L289.8,59.5 L290.6,57.8 L291.2,56.5 L291.6,55.5 L291.8,54.9 L291.8,54.6 L291.7,54.9 L291.5,55.6 L291.1,56.8 L290.8,58.4 L290.5,60.3 L290.3,62.1 L290.3,63.8 L290.5,65.1 L290.9,66.1 L291.6,66.6 L292.5,66.6 L293.5,66.1 L294.6,65.0 L295.6,63.6 L296.7,61.9 L297.6,60.2 L298.4,58.6 L299.1,57.2 L299.5,56.1 L299.8,55.4 L299.9,55.1 L299.8,55.3 L299.6,56.0 L299.2,57.3 L298.7,58.9 L298.2,60.8 L297.7,62.6 L297.3,64.2 L297.0,65.3 L296.8,66.0 L296.8,66.2 L296.8,65.9 L297.1,65.1 L297.6,63.9 L298.4,62.3 L299.3,60.4 L300.4,58.6 L301.6,57.1 L302.8,56.0 L303.8,55.2 L304.6,55.0 L305.3,55.1 L305.7,55.7 L305.9,56.7 L305.8,58.1 L305.6,59.7 L305.2,61.4 L304.7,62.9 L304.1,64.1 L303.6,65.0 L303.3,65.5 L303.2,65.5 L303.2,65.2 L303.5,64.3 L304.0,63.0 L304.8,61.3 L305.7,59.6 L306.8,57.9 L308.0,56.4 L309.2,55.3 L310.3,54.6 L311.2,54.2 L312.0,54.1 L312.6,54.4 L312.9,55.2 L313.1,56.3 L313.1,57.7 L312.9,59.4 L312.7,61.0 L312.6,62.5 L312.5,63.8 L312.6,64.8 L313.0,65.4 L313.7,65.6 L314.6,65.3 L315.8,64.6 L317.0,63.4 L318.2,61.9 L319.3,60.2 L320.3,58.5 L321.1,57.0 L321.7,55.8 L322.0,55.0 L322.2,54.6 L322.3,54.6 L322.2,55.2 L322.0,56.3 L321.6,58.1 L321.2,60.5 L320.6,63.2 L320.1,66.1 L319.5,68.9 L319.0,71.4 L318.5,73.4 L318.1,74.9 L317.9,75.7 L317.8,75.9 L317.8,75.4 L318.1,74.3 L318.5,72.6 L319.0,70.4 L319.7,67.9 L320.5,65.2 L321.5,62.6 L322.7,60.3 L324.0,58.4 L325.5,57.0 L326.9,56.1 L328.4,55.7 L329.6,55.9 L330.7,56.5 L331.4,57.5 L331.8,58.8 L331.8,60.1 L331.3,61.4 L330.4,62.4 L329.1,63.2 L327.5,63.8 L325.8,64.0 L324.2,64.0 L322.9,63.8 L322.0,63.4 L321.7,62.9 L321.7,62.4 L321.9,62.1 M279.9,48.0 L279.9,48.0 L280.0,48.0 L280.1,48.0 L280.1,48.1 M277.7,55.3 L277.7,55.3 L277.8,55.5 L277.8,55.8 L277.7,56.5 L277.6,57.7 L277.4,59.4 L277.3,61.6 L277.1,64.2 L276.8,67.1 L276.4,70.1 L276.0,73.1 L275.4,75.8 L274.8,78.1 L274.1,79.7 L273.3,80.7 L272.5,80.9 L271.7,80.2 L271.0,78.9 L270.6,77.5 L270.3,76.5 M247.9,56.9 L248.0,56.9 L248.2,57.0 L248.5,57.3 L249.0,57.9 L249.8,58.9 L250.7,60.1 L251.7,61.6 L252.8,63.1 L253.8,64.4 L254.7,65.5 L255.3,66.2 L255.7,66.5 M230.8,60.2 L231.0,59.9 L231.3,59.5 L231.6,59.1 L232.1,58.8 L232.9,58.6 L233.9,58.6 L235.2,58.5 L236.8,58.5 L238.4,58.4 L240.1,58.2 L241.7,58.0 L243.1,57.7 L244.3,57.4 L245.1,57.2 L245.6,57.0 L245.8,56.8 L245.6,56.8 L245.0,56.8 L244.2,57.1 L243.2,57.8 L242.0,58.7 L241.0,60.0 L240.1,61.4 L239.5,63.0 L239.2,64.6 L239.3,66.1 L239.7,67.2 L240.4,67.9 L241.2,68.1 L242.2,67.8 L243.2,67.1 L244.2,65.9 L245.0,64.5 L245.6,62.7 L245.8,60.9 L245.8,59.2 L245.6,57.7 L245.4,56.6 L245.2,55.9 L245.1,55.5 L245.3,55.3 L245.8,55.4 L246.7,55.4 L247.9,55.5 L249.3,55.5 L250.9,55.4 L252.5,55.1 L254.0,54.8 L255.3,54.4 L256.4,54.0 L257.2,53.7 L257.7,53.5 L258.0,53.4 L257.9,53.6 L257.6,53.9 L256.9,54.6 L256.1,55.5 L255.0,56.7 L253.7,58.0 L252.4,59.5 L251.0,61.0 L249.7,62.4 L248.6,63.6 L247.7,64.4 L247.0,64.8 L246.6,64.9 L246.4,64.9 M240.4,49.7 L240.3,49.2 L240.0,48.3 L239.6,47.3 L239.1,46.3 L238.5,45.5 L237.8,45.1 L237.0,45.1 L236.2,45.6 L235.4,46.7 L234.6,48.3 L233.8,50.5 L233.1,53.2 L232.5,56.2 L231.9,59.4 L231.5,62.7 L231.2,65.9 L231.0,68.8 L230.8,71.1 L230.7,73.0 L230.6,74.1 L230.5,74.5 L230.5,74.3 L230.5,73.8 L230.6,73.3 M162.8,56.5 L162.8,56.5 L162.8,56.7 L162.8,57.1 L162.6,58.0 L162.4,59.3 L162.0,61.1 L161.6,63.1 L161.2,64.9 L160.8,66.4 L160.6,67.2 L160.5,67.6 L160.5,67.5 L160.5,67.0 L160.7,66.0 L161.0,64.6 L161.4,63.0 L161.9,61.2 L162.6,59.6 L163.5,58.3 L164.6,57.3 L166.0,56.5 L167.5,56.0 L169.2,55.7 L170.8,55.5 L172.4,55.5 L173.8,55.4 L175.0,55.4 L175.9,55.3 L176.4,55.2 L176.7,55.1 L176.7,55.0 L176.4,55.0 L175.9,55.1 L175.2,55.6 L174.2,56.4 L173.2,57.6 L172.2,59.1 L171.4,60.8 L170.9,62.6 L170.8,64.3 L171.0,65.8 L171.5,66.9 L172.3,67.5 L173.2,67.5 L174.2,67.1 L175.2,66.1 L176.1,64.7 L177.0,63.1 L177.6,61.3 L178.0,59.6 L178.2,57.9 L178.3,56.6 L178.2,55.6 L178.2,55.0 L178.3,54.7 L178.6,54.7 L179.1,54.8 L179.8,54.9 L180.8,55.1 L182.0,55.2 L183.1,55.2 L184.0,55.2 L184.8,55.0 L185.2,54.7 L185.4,54.5 L185.4,54.3 L185.1,54.3 L184.5,54.7 L183.8,55.5 L182.9,56.8 L182.1,58.6 L181.4,60.5 L180.9,62.6 L180.7,64.4 L180.6,65.9 L180.6,67.0 L180.9,67.5 L181.3,67.6 L181.9,67.2 L182.7,66.3 L183.6,65.0 L184.6,63.5 L185.6,61.9 L186.4,60.5 L187.1,59.4 L187.6,58.5 L187.9,58.1 L188.1,58.0 L188.2,58.3 L188.3,58.9 L188.4,60.0 L188.6,61.4 L188.9,62.9 L189.3,64.4 L189.9,65.6 L190.6,66.5 L191.4,67.0 L192.3,67.1 L193.3,66.7 L194.4,65.9 L195.3,64.6 L196.1,63.1 L196.7,61.3 L196.9,59.5 L197.0,57.8 L196.8,56.3 L196.6,55.2 L196.4,54.4 L196.1,54.0 L195.9,53.8 L195.8,53.8 L195.7,53.9 L195.7,54.1 L195.9,54.4 L196.3,54.7 L197.0,54.8 L198.0,54.8 L199.1,54.6 L200.3,54.3 L201.5,54.0 L202.6,53.8 L203.4,53.6 L204.0,53.5 L204.4,53.5 L204.5,53.8 L204.5,54.2 L204.3,55.0 L204.0,56.1 L203.4,57.5 L202.8,59.1 L202.2,60.8 L201.6,62.2 L201.2,63.4 L200.9,64.2 L200.7,64.7 L200.7,64.8 L200.8,64.5 L201.0,63.9 L201.5,62.8 L202.1,61.4 L202.9,59.7 L203.9,58.1 L205.1,56.6 L206.4,55.3 L207.8,54.4 L209.1,53.9 L210.3,53.8 L211.4,54.0 L212.3,54.6 L213.0,55.6 L213.5,56.9 L213.8,58.4 L213.9,60.0 L213.9,61.7 L213.8,63.3 L213.8,64.7 L213.8,65.8 L214.0,66.7 L214.1,67.2 L214.2,67.5 M151.9,50.7 L151.9,50.4 L152.0,50.0 L152.0,49.5 L152.0,49.3 L151.9,49.2 L151.8,49.5 L151.5,50.2 L151.2,51.4 L150.9,53.0 L150.5,55.0 L150.1,57.3 L149.7,59.7 L149.4,62.2 L149.1,64.5 L148.9,66.4 L148.7,67.7 L148.5,68.5 L148.5,68.7 L148.5,68.3 L148.7,67.5 L149.2,66.2 L149.8,64.4 L150.7,62.5 L151.8,60.5 L153.1,58.8 L154.5,57.5 L155.9,56.6 L157.3,56.2 L158.5,56.4 L159.5,57.2 L160.1,58.5 L160.4,60.3 L160.2,62.2 L159.7,64.1 L158.7,65.6 L157.5,66.6 L156.0,67.2 L154.5,67.3 L153.0,66.9 L151.7,66.1 L150.8,65.1 L150.2,63.9 L150.1,62.9 L150.1,62.3 M117.8,56.8 L117.6,56.7 L117.3,56.4 L116.7,56.2 L116.0,56.2 L115.2,56.5 L114.3,57.1 L113.4,58.1 L112.6,59.5 L112.0,61.0 L111.6,62.6 L111.5,64.3 L111.8,65.8 L112.4,67.1 L113.4,68.1 L114.8,68.8 L116.4,69.0 L118.1,68.7 L119.8,67.9 L121.5,66.6 L123.1,64.9 L124.5,62.8 L125.7,60.6 L126.6,58.3 L127.3,56.1 L127.7,54.2 L127.9,52.5 L127.9,51.3 L127.7,50.5 L127.5,50.2 L127.1,50.4 L126.6,51.2 L126.0,52.5 L125.4,54.3 L124.8,56.4 L124.4,58.8 L124.0,61.2 L123.7,63.5 L123.5,65.4 L123.3,66.8 L123.2,67.6 L123.2,67.9 L123.3,67.7 L123.5,67.0 L123.9,65.8 L124.4,64.4 L125.2,62.7 L126.2,61.1 L127.3,59.8 L128.5,58.7 L129.6,58.1 L130.6,57.7 L131.3,57.6 L131.7,57.6 L131.8,57.8 L131.5,58.0 L130.9,58.4 L129.9,58.8 L128.8,59.3 L127.6,59.8 L126.6,60.3 L125.8,60.7 L125.3,61.2 L125.1,61.6 L125.2,62.1 L125.6,62.7 L126.4,63.3 L127.4,64.1 L128.5,64.8 L129.7,65.5 L130.9,66.1 L132.0,66.6 L133.0,67.0 L133.9,67.1 L134.8,67.1 L135.4,67.1 L135.8,67.0 M109.4,50.2 L109.4,50.2 L109.4,50.2 L109.4,50.2 L109.5,50.2 L109.5,50.3 L109.6,50.3 L109.6,50.4 L109.7,50.4 M89.7,57.2 L89.5,57.9 L89.3,59.2 L89.0,61.0 L88.8,62.9 L88.6,64.8 L88.7,66.4 L88.8,67.6 L89.1,68.4 L89.6,68.6 L90.2,68.3 L91.0,67.5 L92.0,66.3 L93.0,64.8 L94.0,63.1 L95.0,61.2 L95.8,59.4 L96.5,57.8 L97.0,56.6 L97.4,55.9 L97.5,55.5 L97.5,55.6 L97.4,56.2 L97.1,57.4 L96.7,59.0 L96.4,61.0 L96.1,63.2 L96.0,65.2 L96.1,66.9 L96.5,68.2 L97.2,68.9 L98.2,69.0 L99.3,68.4 L100.5,67.4 L101.8,65.9 L103.0,64.1 L104.1,62.1 L104.9,60.2 L105.7,58.6 L106.2,57.3 L106.5,56.5 L106.7,56.1 L106.6,56.2 L106.4,56.8 L106.1,57.9 L105.7,59.6 L105.3,61.6 L105.0,63.8 L105.0,65.8 L105.1,67.4 L105.5,68.5 L106.0,69.1 L106.3,69.3 M82.5,59.4 L82.6,59.1 L82.6,58.6 L82.5,58.0 L82.1,57.3 L81.3,56.7 L80.2,56.3 L79.0,56.3 L77.6,56.6 L76.2,57.4 L74.9,58.6 L73.7,60.2 L72.9,62.0 L72.5,63.8 L72.6,65.6 L73.1,67.0 L73.9,68.0 L75.1,68.5 L76.4,68.4 L77.8,67.7 L79.2,66.6 L80.4,65.1 L81.5,63.5 L82.3,61.8 L82.9,60.3 L83.3,59.0 L83.6,58.2 L83.7,57.6 L83.7,57.4 L83.6,57.6 L83.4,58.2 L83.1,59.2 L82.8,60.9 L82.6,63.2 L82.4,66.0 L82.2,68.9 L82.1,72.0 L82.0,74.9 L81.9,77.5 L81.9,79.8 L81.9,81.4 L82.0,82.3 L82.2,82.6 L82.5,82.4 L82.7,82.0 M39.7,49.2 L39.6,49.5 L39.5,50.2 L39.2,51.4 L38.9,53.2 L38.5,55.5 L38.1,58.0 L37.8,60.7 L37.4,63.2 L37.1,65.3 L36.8,66.9 L36.5,68.0 L36.4,68.4 L36.3,68.3 L36.4,67.6 L36.7,66.5 L37.2,64.9 L37.9,63.0 L38.8,60.9 L39.8,59.0 L40.9,57.4 L42.1,56.2 L43.2,55.6 L44.2,55.5 L45.1,55.9 L45.7,56.9 L46.2,58.4 L46.5,60.2 L46.6,62.1 L46.7,64.0 L46.8,65.6 L47.0,66.9 L47.5,67.8 L48.2,68.4 L49.2,68.6 L50.5,68.3 L51.9,67.7 L53.5,66.7 L54.9,65.3 L56.2,63.6 L57.3,61.8 L58.0,60.0 L58.3,58.3 L58.3,56.9 L58.1,55.9 L57.5,55.3 L56.7,55.2 L55.7,55.6 L54.8,56.6 L53.9,58.0 L53.2,59.8 L52.9,61.9 L52.8,63.9 L53.2,65.6 L53.9,67.1 L54.9,68.2 L56.3,68.8 L57.9,69.0 L59.7,68.6 L61.1,68.1 L62.1,67.7 M34.7,46.2 L34.6,46.2 L34.2,46.3 L33.5,46.4 L32.4,46.5 L31.0,46.7 L29.4,47.0 L27.7,47.3 L26.0,47.5 L24.4,47.7 L23.1,47.7 L22.3,47.7 L21.8,47.7 M30.2,48.7 L30.1,48.9 L30.0,49.6 L29.7,50.6 L29.3,52.3 L29.0,54.5 L28.6,57.1 L28.2,60.0 L27.8,63.0 L27.3,65.7 L27.0,68.0 L26.7,69.4 L26.5,70.2 " stroke="black" stroke-width="1.49" fill="none" stroke-linecap="round"/></svg>