<svg xmlns="http://www.w3.org/2000/svg" viewBox="0 0 1000 120"><path d="M407.7,54.2 L407.7,53.9 L407.5,53.4 L406.9,52.9 L405.9,52.4 L404.5,52.1 L403.1,52.1 L401.7,52.3 L400.7,52.7 L400.1,53.3 L400.2,53.9 L401.0,54.7 L402.5,55.6 L404.5,56.5 L406.8,57.4 L409.0,58.3 L410.8,59.1 L412.0,59.8 L412.4,60.3 L412.1,60.8 L411.1,61.1 L409.4,61.3 L407.3,61.3 L405.0,61.3 L402.7,61.1 L400.5,60.9 L398.7,60.7 L397.5,60.6 L396.8,60.5 M385.3,53.9 L385.4,54.0 L385.4,54.4 L385.4,55.2 L385.3,56.3 L385.1,57.9 L384.8,59.8 L384.5,61.9 L384.0,64.1 L383.5,66.1 L383.0,67.9 L382.6,69.3 L382.3,70.2 L382.2,70.5 L382.1,70.3 L382.1,69.5 L382.2,68.2 L382.4,66.5 L382.8,64.6 L383.3,62.4 L384.0,60.3 L384.9,58.4 L385.9,56.6 L387.2,55.1 L388.6,54.0 L390.2,53.3 L391.9,53.1 L393.7,53.3 L395.2,54.0 L396.5,54.9 L397.4,56.0 L397.8,57.1 L397.7,58.1 L397.0,58.9 L395.9,59.5 L394.3,59.9 L392.6,59.9 L390.9,59.8 L389.3,59.5 L388.1,59.0 L387.4,58.5 L387.2,58.0 L387.7,57.5 L388.4,57.1 L388.9,56.9 M360.2,54.2 L360.2,53.8 L360.1,53.4 L360.1,53.0 L360.1,53.0 L360.2,53.4 L360.2,54.2 L360.3,55.3 L360.3,56.7 L360.3,58.1 L360.2,59.5 L360.2,60.6 L360.2,61.3 L360.4,61.6 L360.7,61.4 L361.1,60.7 L361.8,59.5 L362.7,58.1 L363.6,56.5 L364.7,55.0 L365.7,53.7 L366.6,52.6 L367.5,52.0 L368.1,51.7 L368.7,51.9 L369.1,52.6 L369.4,53.6 L369.6,54.9 L369.6,56.5 L369.6,58.0 L369.5,59.4 L369.5,60.4 L369.6,61.0 L369.9,61.2 L370.3,60.8 L371.0,59.9 L371.8,58.7 L372.9,57.4 L374.0,56.0 L375.1,54.8 L376.1,53.9 L377.1,53.2 L377.8,52.9 L378.4,52.9 L378.8,53.3 L379.0,54.0 L379.1,55.0 L379.1,56.0 L379.1,57.1 L379.3,58.1 L379.6,58.9 L380.0,59.5 L380.3,59.7 M344.5,54.7 L344.5,54.3 L344.4,53.8 L344.4,53.3 L344.3,53.1 L344.1,53.3 L343.9,53.9 L343.5,55.0 L343.3,56.4 L343.3,57.9 L343.5,59.3 L344.0,60.5 L344.8,61.4 L346.0,61.7 L347.3,61.6 L348.7,60.9 L350.2,59.9 L351.6,58.5 L352.7,57.0 L353.7,55.6 L354.3,54.4 L354.7,53.5 L354.9,53.0 L354.9,52.9 L354.8,53.2 L354.6,54.0 L354.4,55.1 L354.3,56.4 L354.3,57.7 L354.5,59.0 L354.9,60.0 L355.3,60.7 L355.6,61.1 M338.4,45.7 L338.4,45.6 L338.3,45.7 L338.3,45.8 L338.3,46.0 M337.2,57.1 L337.3,57.0 L337.3,56.8 L337.3,56.8 L337.4,57.0 L337.5,57.6 L337.8,58.6 L338.1,60.0 L338.5,61.8 L338.9,64.0 L339.2,66.6 L339.3,69.3 L339.2,72.0 L338.8,74.6 L338.1,76.8 L337.0,78.4 L335.7,79.4 L334.3,79.8 L332.9,79.6 L331.7,78.8 L330.7,77.6 L330.0,76.0 L329.7,74.2 L329.6,72.3 L330.0,70.3 L330.8,68.2 L332.0,66.2 L333.1,64.6 L333.8,63.6 M311.0,55.2 L310.9,55.1 L310.5,55.1 L309.9,55.2 L308.8,55.4 L307.4,55.8 L305.9,56.3 L304.3,56.8 L303.0,57.4 L302.1,57.9 L301.6,58.3 L301.4,58.6 L301.4,58.8 M306.4,55.1 L306.4,55.0 L306.3,55.0 L306.3,55.1 L306.4,55.5 L306.4,56.2 L306.4,57.1 L306.3,58.3 L306.3,59.6 L306.2,60.8 L306.2,62.0 L306.2,62.9 L306.2,63.5 L306.3,63.6 L306.3,63.2 L306.3,62.8 L306.4,62.3 M296.6,59.5 L296.6,59.2 L296.4,58.7 L295.9,58.1 L295.1,57.7 L293.9,57.4 L292.5,57.4 L291.0,57.6 L289.5,58.1 L288.2,58.9 L287.3,59.8 L286.9,60.8 L287.2,61.7 L288.1,62.5 L289.6,63.0 L291.6,63.2 L293.9,62.9 L296.1,62.3 L298.1,61.4 L299.6,60.3 L300.5,59.1 L300.8,58.1 L300.5,57.1 L299.9,56.3 L299.0,55.8 L298.2,55.5 L297.6,55.4 L297.2,55.3 M274.0,59.6 L274.0,59.5 L274.3,59.5 L275.0,59.4 L276.3,59.4 L278.1,59.3 L280.4,59.2 L282.9,59.1 L285.6,59.0 L288.0,58.9 L290.2,58.8 L291.8,58.7 L292.6,58.7 M293.1,50.0 L293.2,49.3 L293.1,48.1 L292.9,46.7 L292.3,45.4 L291.4,44.3 L290.2,43.6 L288.9,43.1 L287.5,42.9 L286.1,43.3 L284.7,44.1 L283.3,45.5 L282.1,47.3 L281.0,49.6 L280.1,52.2 L279.5,55.0 L279.2,57.8 L279.1,60.6 L279.2,63.2 L279.4,65.4 L279.6,67.0 L279.9,68.1 L280.1,68.5 L280.3,68.5 L280.4,68.4 M247.5,57.3 L247.5,57.3 L247.5,57.3 L247.5,57.5 L247.5,58.0 L247.4,58.7 L247.3,59.7 L247.1,60.9 L247.0,62.2 L246.8,63.4 L246.7,64.4 L246.6,65.1 L246.5,65.6 L246.4,65.6 L246.4,65.2 L246.4,64.4 L246.7,63.3 L247.1,62.0 L247.7,60.5 L248.5,59.1 L249.5,57.9 L250.7,56.8 L252.0,56.0 L253.3,55.6 L254.6,55.6 L255.9,55.9 L257.0,56.5 L258.0,57.4 L258.7,58.5 L259.2,59.8 L259.5,61.2 L259.5,62.5 L259.5,63.7 L259.4,64.7 L259.4,65.4 L259.5,65.8 L259.6,65.9 M225.4,58.8 L225.3,58.8 L225.3,58.7 L225.2,58.9 L225.1,59.3 L225.1,60.1 L225.1,61.2 L225.2,62.5 L225.5,63.8 L226.0,65.0 L226.7,65.9 L227.7,66.4 L228.7,66.3 L229.7,65.7 L230.8,64.7 L231.7,63.4 L232.4,62.0 L232.9,60.6 L233.1,59.5 L233.1,58.7 L233.0,58.2 L232.8,58.2 L232.5,58.6 L232.3,59.4 L232.3,60.7 L232.6,62.0 L233.2,63.4 L234.1,64.6 L235.4,65.4 L236.9,65.7 L238.5,65.6 L240.1,65.0 L241.5,64.0 L242.6,62.7 L243.2,61.3 L243.4,59.8 L243.2,58.6 L242.7,57.6 L242.0,56.9 L241.3,56.6 L240.9,56.5 M219.6,62.8 L219.7,62.3 L219.7,61.5 L219.5,60.4 L218.9,59.4 L217.9,58.5 L216.6,57.9 L215.0,57.6 L213.4,57.6 L211.8,58.0 L210.4,58.7 L209.2,59.7 L208.6,61.0 L208.4,62.3 L208.8,63.6 L209.8,64.7 L211.4,65.4 L213.3,65.7 L215.4,65.6 L217.4,65.0 L219.3,64.2 L220.7,63.2 L221.7,62.2 L222.2,61.1 L222.3,60.2 L222.1,59.4 L221.9,59.0 L221.7,58.8 L221.6,58.8 M196.3,59.6 L196.4,59.6 L196.4,59.7 L196.4,60.1 L196.4,60.8 L196.3,61.7 L196.2,62.8 L196.1,64.0 L196.0,65.0 L196.0,65.8 L196.0,66.2 L196.1,66.2 L196.1,65.8 L196.2,64.9 L196.3,63.7 L196.5,62.2 L196.8,60.6 L197.3,59.1 L198.0,57.8 L199.0,56.7 L200.2,55.9 L201.8,55.5 L203.4,55.6 L205.2,55.9 L206.9,56.5 L208.7,57.3 L210.3,58.3 L211.5,59.0 L212.2,59.5 M178.6,46.2 L178.6,46.2 L178.7,46.3 L178.7,46.8 L178.8,47.8 L178.9,49.3 L178.9,51.3 L178.8,53.6 L178.7,56.1 L178.5,58.6 L178.3,61.0 L178.0,63.1 L177.7,64.7 L177.5,65.9 L177.3,66.5 L177.2,66.6 L177.2,66.2 L177.3,65.5 L177.5,64.4 L177.8,63.0 L178.2,61.6 L178.7,60.1 L179.5,58.7 L180.5,57.4 L181.7,56.4 L183.2,55.7 L184.9,55.4 L186.6,55.6 L188.3,56.1 L189.8,57.0 L191.1,58.2 L192.0,59.5 L192.5,60.9 L192.4,62.2 L192.0,63.5 L191.0,64.5 L189.7,65.4 L188.0,65.9 L186.1,66.2 L184.1,66.2 L182.2,66.1 L180.6,65.8 L179.4,65.5 L178.7,65.2 L178.3,65.0 M146.7,58.9 L146.8,58.6 L146.8,58.2 L146.6,57.9 L145.8,57.9 L144.6,58.2 L143.0,58.8 L141.2,59.6 L139.5,60.5 L138.1,61.4 L137.3,62.3 L137.1,63.0 L137.7,63.6 L139.1,64.1 L141.1,64.5 L143.6,64.8 L146.4,65.1 L149.1,65.4 L151.6,65.7 L153.8,66.0 L155.4,66.3 L156.5,66.6 L157.2,66.8 L157.4,66.9 L157.4,66.9 L157.2,66.9 L157.1,66.8 L157.0,66.8 M139.1,47.5 L139.1,47.4 L139.1,47.5 L139.2,48.0 L139.2,48.9 L139.3,50.3 L139.3,52.1 L139.2,54.2 L139.1,56.4 L139.0,58.7 L138.8,60.9 L138.7,62.9 L138.6,64.4 L138.5,65.4 L138.6,65.9 L138.7,66.0 L138.8,65.9 M130.9,58.5 L130.8,58.2 L130.4,57.9 L129.7,57.5 L128.7,57.4 L127.4,57.5 L125.8,57.9 L124.3,58.6 L122.9,59.5 L121.8,60.6 L121.2,61.9 L121.1,63.2 L121.8,64.4 L123.2,65.4 L125.2,66.1 L127.7,66.4 L130.5,66.3 L133.4,65.9 L136.0,65.0 L137.9,64.2 L139.1,63.5 M118.6,50.6 L118.5,50.3 L118.5,49.9 L118.5,49.6 L118.6,49.5 L118.6,49.6 L118.6,49.8 L118.6,50.0 L118.7,50.1 M117.7,59.4 L117.8,59.2 L117.9,59.0 L118.0,59.0 L118.0,59.3 L117.9,59.9 L117.8,60.8 L117.6,61.9 L117.5,63.1 L117.4,64.2 L117.4,65.0 L117.4,65.6 L117.4,65.9 M102.3,60.8 L102.3,60.8 L102.3,60.8 L102.4,61.1 L102.4,61.6 L102.5,62.5 L102.6,63.6 L102.7,64.8 L102.9,66.0 L103.3,67.2 L103.9,68.1 L104.7,68.7 L105.7,68.9 L106.7,68.6 L107.8,67.9 L108.8,66.8 L109.7,65.4 L110.5,63.9 L111.1,62.4 L111.7,60.9 L112.1,59.6 L112.4,58.6 L112.5,58.0 L112.6,57.7 L112.6,57.8 L112.6,58.4 L112.5,59.3 L112.4,60.6 L112.4,62.0 L112.4,63.5 L112.5,64.7 L112.8,65.7 L113.0,66.3 L113.2,66.4 L113.4,66.2 L113.5,65.9 L113.6,65.6 M96.1,63.9 L96.1,63.5 L96.1,62.7 L96.0,61.8 L95.6,60.9 L95.0,60.0 L94.2,59.2 L93.1,58.6 L91.7,58.2 L90.3,58.2 L88.8,58.4 L87.4,59.0 L86.3,59.9 L85.4,61.1 L84.9,62.4 L84.9,63.8 L85.3,65.1 L86.3,66.1 L87.7,66.8 L89.5,67.1 L91.5,67.0 L93.5,66.4 L95.4,65.5 L96.9,64.3 L98.1,63.0 L98.9,61.7 L99.3,60.5 L99.4,59.6 L99.4,58.9 L99.3,58.6 L99.2,58.7 L99.0,59.2 L98.7,60.2 L98.5,61.5 L98.2,63.2 L98.0,65.1 L97.9,67.2 L97.9,69.4 L97.9,71.5 L98.1,73.6 L98.4,75.4 L98.9,76.9 L99.4,77.9 L99.9,78.5 L100.2,78.7 M56.2,66.7 L56.3,66.7 L56.6,66.6 L57.2,66.5 L58.1,66.2 L59.3,65.7 L60.7,65.1 L62.2,64.3 L63.7,63.4 L64.9,62.5 L65.7,61.5 L66.1,60.7 L66.0,60.0 L65.4,59.5 L64.2,59.3 L62.6,59.5 L60.8,60.0 L58.9,60.8 L57.3,61.9 L56.2,63.1 L55.5,64.4 L55.6,65.7 L56.3,66.9 L57.7,67.9 L59.7,68.6 L62.3,69.0 L65.1,69.1 L67.4,69.1 L69.0,68.9 M41.0,46.0 L41.0,46.2 L41.0,46.5 L41.1,47.3 L41.1,48.5 L41.1,50.1 L41.0,52.1 L40.9,54.4 L40.7,56.9 L40.5,59.5 L40.2,62.1 L39.9,64.4 L39.7,66.4 L39.4,67.9 L39.3,68.8 L39.2,69.1 L39.2,68.9 L39.3,68.2 L39.6,67.1 L40.1,65.7 L40.9,64.1 L42.0,62.5 L43.2,61.0 L44.6,59.8 L46.0,58.8 L47.4,58.1 L48.8,57.9 L50.0,58.1 L51.2,58.8 L52.1,59.9 L52.7,61.2 L53.1,62.7 L53.2,64.2 L53.2,65.6 L53.1,66.8 L53.1,67.6 L53.0,68.0 M18.4,50.3 L18.4,50.1 L18.5,49.7 L19.1,49.4 L20.2,49.3 L21.9,49.3 L24.1,49.4 L26.8,49.4 L29.7,49.4 L32.6,49.4 L35.4,49.3 L37.9,49.1 L39.8,48.8 L41.2,48.4 L42.1,48.1 L42.5,47.8 L42.7,47.6 M30.1,50.0 L30.1,49.8 L30.0,49.8 L29.9,49.9 L29.8,50.4 L29.6,51.5 L29.3,52.9 L28.9,54.8 L28.5,56.9 L28.0,59.2 L27.5,61.6 L26.9,63.9 L26.5,66.1 L26.1,67.8 L25.8,69.1 L25.7,69.9 L25.6,70.2 " stroke="black" stroke-width="1.52" fill="none" stroke-linecap="round"/></svg>