<svg xmlns="http://www.w3.org/2000/svg" viewBox="0 0 1000 120"><rect width="1000" height="120" fill="white"/><path d="M0,0 M276.0,49.3 L275.9,50.2 L275.8,51.8 L275.5,53.8 L275.3,55.8 L275.0,57.7 L274.8,59.6 L274.7,61.5 L274.7,63.2 L274.8,64.6 L274.9,65.5 L275.1,66.0 L275.2,66.2 M274.4,45.0 L275.4,45.1 L277.0,45.3 L279.3,45.5 L281.9,45.6 L284.7,45.7 L287.4,45.6 L289.6,45.6 L290.9,45.6 M295.4,45.6 L295.3,46.6 L295.0,48.3 L294.7,50.4 L294.4,52.7 L294.1,54.9 L293.9,56.9 L293.6,58.8 L293.4,60.4 L293.2,61.5 L293.1,62.2 L293.1,62.3 L293.2,62.0 L293.6,61.1 L294.2,59.8 L294.8,58.7 L295.3,57.9 M305.2,54.6 L306.2,54.7 L307.6,54.9 L309.2,55.3 L310.6,55.8 L311.7,56.6 L312.7,57.4 L313.6,58.4 L314.4,59.4 L315.1,60.4 L315.7,61.1 L316.1,61.5 M323.0,58.9 L323.6,58.6 L324.4,58.1 L325.3,57.3 L326.0,56.5 L326.4,55.7 L326.3,55.0 L325.8,54.4 L324.9,54.0 L323.8,53.9 L322.5,54.1 L321.2,54.7 L320.0,55.5 L319.1,56.5 L318.6,57.7 L318.7,59.0 L319.3,60.3 L320.6,61.4 L322.4,62.4 L324.5,63.0 L326.8,63.3 L329.1,63.3 L331.1,62.9 L332.6,62.5 L333.5,62.2 M368.6,57.3 L368.4,56.9 L367.9,56.2 L367.1,55.4 L366.0,54.6 L364.7,54.0 L363.1,53.6 L361.5,53.6 L359.9,53.9 L358.6,54.4 L357.5,55.2 L356.8,56.2 L356.5,57.4 L356.7,58.5 L357.3,59.5 L358.3,60.2 L359.6,60.7 L361.0,60.9 L362.5,60.7 L364.0,60.3 L365.2,59.7 L366.3,58.9 L367.0,58.1 L367.5,57.4 L367.7,56.9 L367.8,56.6 L367.7,56.8 L367.6,57.3 L367.5,58.3 L367.4,59.8 L367.3,61.7 L367.3,64.0 L367.3,66.4 L367.4,69.0 L367.4,71.4 L367.3,73.6 L367.3,75.5 L367.3,76.9 L367.3,77.7 L367.4,78.1 L367.6,78.1 M375.1,55.3 L374.8,55.7 L374.3,56.4 L373.7,57.3 L373.4,58.5 L373.3,59.7 L373.6,60.8 L374.2,61.8 L374.9,62.5 L375.8,62.9 L376.8,62.9 L377.8,62.5 L378.7,61.7 L379.5,60.7 L380.2,59.4 L380.6,58.1 L380.9,56.9 L381.1,55.8 L381.3,55.1 L381.3,54.7 L381.4,54.7 L381.5,55.1 L381.7,55.9 L381.9,57.0 L382.4,58.2 L383.1,59.4 L384.0,60.5 L385.1,61.2 L386.4,61.7 L387.7,61.7 L389.0,61.3 L390.3,60.5 L391.5,59.4 L392.6,58.1 L393.4,56.7 L394.0,55.4 L394.3,54.3 L394.5,53.4 L394.6,53.0 L394.6,52.9 L394.6,53.2 L394.4,53.8 L394.3,54.8 L394.2,56.0 L394.1,57.2 L394.2,58.5 L394.3,59.6 L394.3,60.4 L394.3,60.8 M393.5,47.8 L393.5,47.6 L393.4,47.3 L393.4,47.2 L393.5,47.3 M407.9,55.1 L407.6,54.9 L406.9,54.6 L405.9,54.3 L404.6,54.2 L403.2,54.3 L401.9,54.7 L400.8,55.4 L400.0,56.2 L399.7,57.1 L399.9,58.1 L400.7,59.1 L402.0,60.1 L403.7,60.9 L405.7,61.5 L407.8,61.9 L409.8,61.9 L411.7,61.5 L413.3,60.7 L414.5,59.8 L415.2,59.2 M416.8,47.2 L416.9,47.5 L417.0,48.0 L417.1,48.9 L417.1,50.2 L417.1,51.9 L417.1,53.6 L417.0,55.5 L416.8,57.2 L416.7,58.7 L416.5,59.8 L416.4,60.5 L416.3,60.8 L416.4,60.7 L416.6,60.2 L417.0,59.4 L417.6,58.3 L418.3,57.1 L419.2,55.8 L420.3,54.6 L421.6,53.6 L423.1,52.8 L424.7,52.2 L426.2,51.8 L427.5,51.6 L428.6,51.4 L429.3,51.3 L429.7,51.3 M420.8,54.5 L421.0,54.9 L421.5,55.5 L422.3,56.4 L423.5,57.4 L424.9,58.5 L426.5,59.5 L427.8,60.3 L428.7,60.8 M464.6,48.3 L464.4,49.3 L464.2,50.9 L463.8,52.8 L463.5,54.8 L463.1,56.7 L462.7,58.2 L462.3,59.5 L462.0,60.4 L461.7,60.8 L461.4,60.8 L461.3,60.3 L461.3,59.4 L461.4,58.3 L461.7,57.0 L462.2,55.6 L462.9,54.3 L463.9,53.1 L465.1,52.2 L466.7,51.5 L468.5,51.2 L470.5,51.2 L472.5,51.5 L474.4,52.2 L476.0,53.2 L477.3,54.4 L478.1,55.7 L478.3,57.0 L478.1,58.2 L477.4,59.2 L476.2,60.1 L474.7,60.6 L472.8,60.7 L470.8,60.5 L468.6,60.0 L466.5,59.2 L464.6,58.2 L463.0,57.2 L461.9,56.1 L461.3,55.2 L461.1,54.7 M484.5,54.3 L484.5,54.7 L484.5,55.4 L484.5,56.4 L484.5,57.4 L484.4,58.4 L484.3,59.4 L484.2,60.2 L484.2,60.8 L484.1,61.1 L484.0,61.0 L483.9,60.5 L483.8,59.7 L483.8,58.6 L483.7,57.4 L483.9,56.1 L484.2,54.9 L484.8,53.9 L485.8,53.0 L487.1,52.4 L488.7,52.1 L490.6,52.0 L492.7,52.1 L494.9,52.3 L497.2,52.6 L499.5,52.9 L501.7,53.2 L503.4,53.4 L504.5,53.6 M508.4,51.6 L507.7,51.5 L506.6,51.4 L505.1,51.4 L503.5,51.8 L502.0,52.4 L500.8,53.3 L499.8,54.3 L499.4,55.5 L499.4,56.6 L499.9,57.8 L500.9,58.8 L502.4,59.6 L504.1,60.1 L505.9,60.2 L507.7,60.0 L509.4,59.3 L510.7,58.4 L511.7,57.3 L512.1,56.1 L512.1,55.1 L511.6,54.1 L511.0,53.5 L510.4,53.0 L510.0,52.8 M515.9,52.7 L515.7,52.9 L515.3,53.3 L514.9,53.9 L514.7,54.8 L514.6,55.9 L514.7,57.1 L515.1,58.2 L515.6,59.1 L516.4,59.8 L517.2,60.1 L518.1,60.0 L519.1,59.5 L520.0,58.8 L520.9,58.0 L521.7,57.2 L522.4,56.5 L523.2,56.1 L524.0,56.1 L524.9,56.3 L525.9,56.9 L527.1,57.7 L528.3,58.7 L529.6,59.6 L530.8,60.3 L532.0,60.7 L533.0,60.7 L533.9,60.4 L534.4,59.5 L534.7,58.2 L534.6,56.6 L534.4,55.1 L534.2,54.2 M540.0,52.9 M539.8,53.2 L539.7,53.5 L539.7,54.2 L539.7,55.0 L539.7,56.0 L539.7,56.9 L539.8,57.7 L539.8,58.3 L539.9,58.7 L539.8,58.8 L539.8,58.6 L539.8,58.0 L539.8,57.3 L540.0,56.3 L540.5,55.3 L541.1,54.3 L542.1,53.4 L543.2,52.8 L544.6,52.4 L546.1,52.3 L547.7,52.5 L549.3,53.0 L550.9,53.8 L552.5,54.7 L554.0,55.8 L555.3,56.9 L556.4,57.9 L557.4,58.8 L558.1,59.5 L558.7,59.9 L559.0,60.1 L559.1,60.2 L559.2,60.2 L559.1,60.1 L559.1,60.0 L559.1,60.0 M594.7,48.3 L594.4,47.8 L593.9,47.0 L593.0,46.2 L592.0,45.5 L590.9,45.1 L589.7,45.0 L588.6,45.4 L587.6,46.3 L586.7,47.6 L585.9,49.2 L585.4,51.2 L585.2,53.4 L585.3,55.8 L585.4,58.1 L585.6,60.3 L585.8,62.1 L586.0,63.5 L586.1,64.3 L586.1,64.6 L586.2,64.6 M585.7,54.6 L586.4,54.4 L587.7,54.3 L589.0,54.3 L590.0,54.3 M597.7,52.3 L597.0,52.4 L595.9,52.7 L594.7,53.3 L593.6,54.1 L592.9,55.1 L592.6,56.2 L592.9,57.4 L593.6,58.4 L594.7,59.2 L596.2,59.7 L597.8,59.9 L599.5,59.7 L601.1,59.1 L602.4,58.3 L603.4,57.2 L604.0,56.0 L604.2,54.9 L604.0,53.9 L603.7,53.2 L603.4,52.7 M608.6,51.8 L608.7,52.1 L608.8,52.8 L609.0,53.8 L609.4,54.9 L609.9,56.1 L610.4,57.3 L610.9,58.2 L611.2,58.8 M610.2,52.9 L610.0,53.1 L609.7,53.7 L609.3,54.5 L608.9,55.5 L608.4,56.7 L607.9,57.9 L607.5,58.9 L607.2,59.5 M647.5,55.5 L647.6,56.2 L647.9,57.6 L648.4,59.3 L649.0,61.3 L649.5,63.4 L650.1,65.5 L650.4,67.7 L650.4,69.7 L650.0,71.5 L649.2,72.8 L647.9,73.6 L646.3,73.8 L644.4,73.5 L642.4,72.5 L640.3,71.1 L638.4,69.3 L636.9,67.1 L635.7,64.8 L634.9,62.8 L634.6,61.5 M646.3,48.4 L646.3,48.6 L646.2,49.0 L646.2,49.4 L646.2,49.8 M654.5,52.6 L654.5,53.2 L654.5,54.2 L654.7,55.4 L655.1,56.7 L655.7,57.9 L656.5,58.8 L657.4,59.5 L658.2,59.9 L659.1,59.8 L659.9,59.3 L660.6,58.5 L661.2,57.4 L661.7,56.2 L662.1,54.9 L662.4,53.8 L662.6,53.0 L662.8,52.4 L662.8,52.3 L662.8,52.5 L662.8,53.1 L662.9,54.1 L663.0,55.3 L663.2,56.6 L663.6,57.8 L664.2,58.9 L664.9,59.8 L665.8,60.4 L666.6,60.6 L667.5,60.4 L668.4,60.0 L669.1,59.4 L669.5,59.0 M670.6,52.5 L670.7,53.0 L670.9,53.8 L671.1,54.9 L671.3,56.0 L671.5,57.0 L671.7,58.0 L671.9,58.7 L672.0,59.1 L672.1,59.3 L672.1,59.0 L672.2,58.4 L672.3,57.6 L672.5,56.5 L673.0,55.2 L673.8,53.9 L674.8,52.7 L676.0,51.7 L677.3,50.9 L678.7,50.5 L680.1,50.5 L681.3,50.7 L682.4,51.4 L683.4,52.3 L684.2,53.4 L684.7,54.7 L685.0,55.9 L685.2,56.9 L685.2,57.7 L685.1,58.3 L685.0,58.4 L684.9,58.2 L684.9,57.7 L685.0,56.9 L685.2,55.9 L685.6,54.8 L686.1,53.7 L686.8,52.8 L687.8,52.0 L688.8,51.5 L690.0,51.3 L691.1,51.3 L692.1,51.7 L693.1,52.2 L693.9,53.0 L694.6,53.8 L695.2,54.7 L695.7,55.7 L696.1,56.6 L696.4,57.6 L696.7,58.4 L696.9,59.1 L697.1,59.5 L697.2,59.8 M701.3,55.6 L701.2,56.0 L701.1,56.8 L700.9,58.1 L700.9,59.7 L700.8,61.4 L700.7,63.1 L700.5,64.8 L700.2,66.2 L699.8,67.3 L699.5,67.9 L699.1,68.1 L698.9,67.7 L698.7,66.9 L698.6,65.7 L698.7,64.2 L699.0,62.6 L699.5,60.9 L700.4,59.2 L701.4,57.6 L702.7,56.2 L704.1,55.2 L705.6,54.5 L707.2,54.2 L708.8,54.3 L710.2,54.8 L711.4,55.6 L712.3,56.5 L712.7,57.5 L712.6,58.5 L712.0,59.3 L710.8,59.9 L709.0,60.2 L706.9,60.2 L704.5,59.9 L702.0,59.5 L699.9,58.8 L698.3,58.1 L697.3,57.4 L696.9,56.8 L696.8,56.4 M723.6,51.3 L723.0,51.2 L721.9,51.1 L720.4,51.0 L718.8,51.2 L717.4,51.5 L716.4,52.0 L716.0,52.6 L716.3,53.2 L717.1,54.0 L718.4,54.8 L720.0,55.7 L721.7,56.6 L723.3,57.4 L724.5,58.2 L725.3,58.9 L725.6,59.5 L725.2,60.0 L724.2,60.3 L722.8,60.6 L720.9,60.6 L718.9,60.5 L717.0,60.3 L715.5,60.0 L714.6,59.9 " stroke="black" stroke-width="1.5" fill="none" stroke-linecap="round"/></svg>