<svg xmlns="http://www.w3.org/2000/svg" viewBox="0 0 1000 120"><rect width="1000" height="120" fill="white"/><path d="M0,0 M383.2,52.3 L383.2,52.6 L383.2,53.3 L383.1,54.6 L383.0,56.5 L382.8,58.9 L382.5,61.6 L382.2,64.3 L382.0,66.8 L381.8,69.0 L381.7,70.8 L381.6,71.9 L381.6,72.4 M377.1,50.5 L377.3,50.4 L377.7,50.3 L378.5,50.2 L379.6,50.0 L381.0,49.9 L382.6,49.5 L384.4,49.0 L386.2,48.4 L387.9,47.7 L389.4,47.1 L390.6,46.6 L391.6,46.2 L392.2,46.1 L392.5,46.3 L392.6,47.2 L392.4,48.7 L392.2,50.8 L391.8,53.4 L391.3,56.3 L390.8,59.2 L390.3,62.0 L389.9,64.4 L389.7,66.5 L389.5,68.0 L389.4,68.9 L389.4,69.3 L389.5,69.2 L389.7,68.5 L390.1,67.2 L390.7,65.5 L391.6,63.4 L392.6,61.4 L393.8,59.5 L395.0,58.1 L396.2,57.1 L397.2,56.6 L398.0,56.8 L398.6,57.7 L399.0,59.2 L399.1,61.0 L399.0,63.1 L398.8,65.1 L398.6,66.9 L398.5,68.3 L398.5,69.3 L398.6,69.8 L398.7,69.8 L398.8,69.7 M401.9,63.5 L402.3,63.4 L403.1,63.2 L404.2,62.7 L405.4,62.1 L406.7,61.1 L407.9,60.0 L408.8,58.7 L409.4,57.5 L409.8,56.4 L409.8,55.5 L409.5,54.9 L408.8,54.6 L407.8,54.8 L406.5,55.5 L405.1,56.9 L403.7,58.8 L402.6,61.0 L401.8,63.3 L401.6,65.3 L401.8,67.0 L402.5,68.1 L403.7,68.8 L405.2,68.9 L406.9,68.5 L408.6,67.7 L410.4,66.6 L411.7,65.6 L412.6,64.8 M425.9,58.2 L426.0,57.9 L425.9,57.4 L425.8,56.9 L425.4,56.4 L424.8,56.3 L424.0,56.4 L422.9,57.0 L421.6,58.1 L420.4,59.8 L419.2,61.8 L418.3,64.0 L417.8,66.1 L417.6,67.9 L417.7,69.1 L418.2,69.8 L419.0,69.9 L420.0,69.4 L421.3,68.4 L422.7,66.7 L424.0,64.8 L425.3,62.6 L426.4,60.6 L427.3,58.9 L427.9,57.5 L428.3,56.5 L428.5,55.8 L428.5,55.6 L428.4,55.8 L428.2,56.6 L427.7,58.0 L427.1,60.0 L426.4,62.4 L425.7,65.0 L425.0,67.8 L424.5,70.5 L424.2,73.0 L424.1,75.3 L424.1,77.2 L424.3,78.7 L424.6,79.5 L424.9,80.0 L425.1,80.0 L425.4,79.9 L425.5,79.7 M432.3,56.6 L432.3,56.6 L432.3,56.5 L432.4,56.5 L432.4,56.7 L432.4,57.1 L432.4,58.0 L432.2,59.4 L432.0,61.3 L431.8,63.3 L431.6,65.3 L431.6,67.1 L431.6,68.3 L431.7,69.1 L431.9,69.4 L432.2,69.2 L432.7,68.6 L433.4,67.4 L434.3,65.6 L435.4,63.4 L436.5,61.2 L437.7,59.2 L438.7,57.6 L439.5,56.5 L440.0,55.8 L440.3,55.5 L440.2,55.8 L440.0,56.7 L439.6,58.1 L439.2,60.0 L438.7,62.2 L438.3,64.4 L438.1,66.4 L438.0,68.0 L438.0,69.2 L438.1,70.0 L438.2,70.2 L438.4,70.1 L438.6,69.5 L438.8,68.8 L439.0,68.2 M444.1,53.1 L444.2,52.9 L444.5,52.7 L444.7,52.5 L444.7,52.8 L444.5,53.5 L444.1,54.8 L443.7,56.6 L443.1,58.7 L442.7,61.0 L442.4,63.2 L442.3,65.2 L442.4,66.9 L442.5,68.3 L442.7,69.3 L442.9,69.9 L443.1,70.1 L443.2,70.0 L443.3,69.6 L443.3,69.1 L443.4,68.8 M445.2,47.6 L445.2,47.4 L445.3,47.2 L445.3,47.1 L445.3,47.1 L445.4,47.3 L445.4,47.6 L445.4,47.8 L445.5,47.9 M452.4,54.4 L452.4,54.2 L452.2,53.9 L451.9,53.6 L451.5,53.6 L450.8,53.9 L450.0,54.8 L449.0,56.2 L448.0,58.0 L447.2,60.2 L446.6,62.5 L446.3,64.6 L446.3,66.5 L446.6,68.0 L447.2,69.0 L448.0,69.5 L448.9,69.6 L449.9,69.1 L450.9,68.2 L451.7,67.1 L452.2,66.3 M457.6,46.9 L457.7,47.0 L457.7,47.2 L457.7,47.9 L457.5,49.1 L457.3,50.9 L457.0,53.1 L456.6,55.6 L456.2,58.3 L455.8,60.9 L455.4,63.3 L455.1,65.3 L454.9,66.9 L454.8,67.9 L454.7,68.4 L454.7,68.7 L454.7,68.7 L454.8,68.4 L455.0,68.0 L455.2,67.4 L455.4,67.0 M462.0,55.4 L461.9,55.3 L461.8,55.2 L461.4,55.3 L460.7,55.6 L459.8,56.1 L458.7,56.7 L457.5,57.5 L456.3,58.2 L455.2,59.0 L454.4,59.8 L453.9,60.6 L453.6,61.3 L453.6,61.9 L453.9,62.6 L454.5,63.3 L455.4,64.0 L456.5,64.7 L457.7,65.2 L459.0,65.5 L460.2,65.6 L461.4,65.6 L462.5,65.4 L463.5,65.0 L464.4,64.6 L465.0,64.2 L465.3,63.8 L465.5,63.5 L465.6,63.3 M479.9,46.3 L479.9,46.3 L479.9,46.4 L479.9,46.7 L479.8,47.5 L479.6,48.6 L479.4,50.2 L479.1,52.1 L478.7,54.4 L478.4,56.8 L478.1,59.3 L478.0,61.7 L477.9,63.7 L477.9,65.2 L478.0,66.2 L478.0,66.7 L478.0,66.9 L478.0,66.6 L477.9,65.9 L477.8,64.7 L477.8,63.0 L478.0,61.0 L478.6,59.0 L479.4,57.1 L480.5,55.4 L481.8,54.0 L483.2,53.1 L484.5,52.6 L485.7,52.7 L486.7,53.2 L487.3,54.3 L487.7,55.7 L487.6,57.4 L487.3,59.3 L486.6,61.2 L485.6,63.0 L484.3,64.6 L482.9,65.9 L481.6,66.9 L480.5,67.5 L479.5,67.7 L478.9,67.5 L478.5,67.0 L478.3,66.4 L478.3,66.0 M490.9,54.0 L491.1,54.0 L491.3,54.1 L491.4,54.5 L491.3,55.3 L491.1,56.7 L490.6,58.6 L490.1,60.9 L489.6,63.2 L489.1,65.4 L488.8,67.0 L488.7,68.1 L488.6,68.5 L488.7,68.4 L488.9,67.6 L489.3,66.2 L489.8,64.2 L490.5,61.8 L491.5,59.4 L492.5,57.3 L493.7,55.7 L494.8,54.5 L495.8,53.7 L496.6,53.3 L497.1,53.1 L497.4,53.0 L497.5,53.1 L497.5,53.2 L497.5,53.3 L497.5,53.3 M502.9,54.6 L502.9,54.4 L502.9,54.0 L502.7,53.7 L502.3,53.5 L501.7,53.5 L500.8,53.9 L499.8,54.9 L498.7,56.4 L497.7,58.3 L496.9,60.6 L496.3,63.0 L496.1,65.1 L496.3,66.9 L496.7,68.2 L497.4,68.7 L498.2,68.7 L499.2,67.9 L500.1,66.5 L501.1,64.6 L502.0,62.3 L502.7,59.9 L503.3,57.8 L503.7,56.0 L504.0,54.7 L504.2,53.8 L504.4,53.2 L504.5,53.1 L504.5,53.3 L504.5,54.1 L504.5,55.4 L504.4,57.2 L504.3,59.3 L504.2,61.5 L504.2,63.6 L504.3,65.4 L504.5,66.8 L504.8,67.5 L505.2,67.7 L505.7,67.3 L506.3,66.3 L507.0,64.6 L507.7,62.6 L508.6,60.6 L509.3,58.9 L510.0,57.6 L510.5,56.9 L510.8,56.6 L511.0,56.9 L511.1,57.8 L511.2,59.3 L511.1,61.3 L511.1,63.5 L511.1,65.6 L511.3,67.3 L511.6,68.5 L511.9,69.2 L512.3,69.2 L512.6,68.8 L513.0,67.7 L513.5,66.1 L514.0,64.2 L514.4,62.2 L514.9,60.3 L515.2,58.6 L515.6,57.2 L516.1,56.0 L516.4,55.2 L516.7,54.8 M521.2,54.7 L521.2,55.0 L521.2,55.7 L521.0,57.0 L520.7,58.7 L520.3,60.8 L519.7,63.1 L519.2,65.2 L518.8,67.0 L518.6,68.3 L518.5,69.1 L518.6,69.4 L518.7,69.2 L518.9,68.3 L519.3,66.7 L519.8,64.5 L520.6,62.1 L521.7,59.7 L522.9,57.7 L524.4,56.0 L525.8,54.9 L527.1,54.3 L528.2,54.4 L529.0,55.0 L529.3,56.3 L529.3,58.0 L529.1,60.0 L528.7,62.2 L528.3,64.2 L528.0,65.9 L527.9,67.1 L527.9,68.0 L528.0,68.3 L528.1,68.3 L528.3,68.1 L528.4,67.9 M544.2,56.2 L544.5,55.5 L544.9,54.3 L545.5,52.7 L546.1,51.0 L546.6,49.3 L547.0,47.8 L547.1,46.5 L547.1,45.5 L546.9,45.0 L546.4,45.0 L545.9,45.6 L545.1,46.9 L544.3,49.0 L543.4,51.9 L542.5,55.2 L541.6,58.8 L540.9,62.5 L540.4,66.0 L540.1,69.3 L540.0,72.2 L540.0,74.5 L540.2,76.1 L540.3,77.0 L540.4,77.4 M538.5,61.2 L538.5,61.2 L538.8,61.0 L539.3,60.7 L540.3,60.3 L541.7,59.6 L543.5,58.7 L545.4,57.7 L547.3,56.7 L549.0,55.7 L550.4,54.9 L551.5,54.3 L552.2,53.9 L552.3,53.7 L552.0,53.8 L551.3,54.3 L550.1,55.4 L548.8,56.9 L547.5,58.9 L546.4,61.1 L545.8,63.3 L545.6,65.2 L545.8,66.6 L546.4,67.4 L547.3,67.7 L548.4,67.4 L549.7,66.6 L550.9,65.2 L552.1,63.5 L553.0,61.6 L553.6,59.6 L553.9,57.8 L553.8,56.3 L553.6,55.3 L553.4,54.5 L553.1,54.1 L553.0,54.0 M559.3,53.2 L559.3,53.2 L559.4,53.3 L559.4,53.7 L559.3,54.3 L559.3,55.3 L559.1,56.6 L558.9,58.0 L558.7,59.7 L558.5,61.4 L558.4,63.2 L558.3,64.8 L558.3,66.1 L558.4,67.1 L558.5,67.6 L558.5,67.9 L558.6,67.9 L558.5,67.7 L558.5,67.4 L558.4,67.1 L558.3,66.9 M556.1,59.1 L556.1,59.1 L556.2,59.1 L556.3,59.1 L556.7,59.1 L557.3,59.1 L558.1,59.0 L559.0,58.7 L560.2,58.3 L561.4,57.8 L562.5,57.3 L563.4,56.9 L563.9,56.6 M573.9,54.8 L573.9,54.9 L573.8,55.4 L573.8,56.1 L573.7,57.3 L573.6,58.7 L573.4,60.6 L573.0,62.8 L572.6,65.2 L572.1,67.9 L571.7,70.7 L571.2,73.6 L570.8,76.2 L570.4,78.6 L570.1,80.6 L569.7,82.2 L569.4,83.4 L569.1,84.2 L568.9,84.4 L568.7,84.3 L568.5,83.7 L568.5,82.5 L568.5,80.9 L568.6,79.3 L568.8,78.2 M573.9,47.1 L573.9,47.1 L573.9,47.1 L573.9,47.2 L573.9,47.2 M577.7,52.9 L577.7,53.0 L577.7,53.2 L577.5,53.6 L577.3,54.3 L576.9,55.4 L576.5,56.9 L576.2,58.8 L575.9,60.8 L575.8,62.8 L576.0,64.5 L576.3,65.7 L576.9,66.3 L577.6,66.2 L578.5,65.5 L579.4,64.2 L580.4,62.4 L581.5,60.3 L582.6,58.1 L583.5,56.2 L584.4,54.8 L584.9,53.8 L585.2,53.4 L585.3,53.5 L585.1,54.2 L584.7,55.6 L584.3,57.6 L583.8,59.9 L583.4,62.2 L583.2,64.1 L583.2,65.5 L583.3,66.3 L583.5,66.7 M589.4,51.9 L589.4,51.9 L589.4,52.1 L589.3,52.6 L589.0,53.8 L588.7,55.5 L588.3,57.6 L587.8,59.8 L587.4,62.0 L587.0,63.8 L586.8,65.0 L586.8,65.6 L586.9,65.7 L587.1,65.1 L587.5,63.8 L588.1,61.8 L589.0,59.5 L589.9,57.1 L591.0,54.9 L592.2,53.1 L593.3,52.0 L594.3,51.5 L595.1,51.6 L595.7,52.5 L595.8,54.0 L595.7,56.0 L595.3,58.4 L594.8,60.9 L594.3,63.1 L593.9,64.9 L593.6,66.0 L593.6,66.5 L593.7,66.3 L594.0,65.4 L594.5,63.8 L595.2,61.6 L596.2,59.2 L597.5,56.9 L598.8,54.9 L600.2,53.5 L601.4,52.7 L602.4,52.3 L603.0,52.6 L603.3,53.4 L603.4,54.8 L603.2,56.7 L602.8,58.9 L602.4,61.2 L602.0,63.2 L601.8,64.9 L601.7,66.1 L601.8,66.8 L601.8,67.1 M607.3,53.1 L607.3,53.4 L607.2,54.1 L607.1,55.4 L606.8,57.3 L606.3,59.6 L605.8,62.4 L605.2,65.4 L604.8,68.4 L604.4,71.4 L604.1,74.0 L603.9,76.2 L603.8,77.7 L603.8,78.6 L603.8,78.9 L603.9,78.6 L603.9,77.8 L604.0,76.2 L604.2,74.0 L604.5,71.4 L604.9,68.6 L605.4,65.7 L606.0,62.8 L606.6,60.2 L607.4,57.8 L608.3,55.8 L609.3,54.3 L610.4,53.3 L611.5,52.8 L612.5,52.8 L613.3,53.3 L613.8,54.4 L614.1,55.9 L613.9,57.7 L613.4,59.6 L612.6,61.4 L611.5,62.9 L610.3,64.2 L608.9,65.1 L607.6,65.6 L606.4,65.8 L605.5,65.6 L605.0,65.2 L604.8,64.7 L604.7,64.4 M622.3,51.9 L622.3,51.7 L622.2,51.4 L621.9,51.2 L621.3,51.1 L620.5,51.2 L619.6,51.6 L618.6,52.2 L617.7,53.2 L617.1,54.3 L617.0,55.6 L617.3,57.0 L618.0,58.3 L619.1,59.5 L620.4,60.7 L621.5,61.8 L622.4,62.8 L622.9,63.8 L622.8,64.7 L622.3,65.5 L621.3,66.1 L620.0,66.6 L618.6,67.0 L617.1,67.2 L615.7,67.3 L614.6,67.3 L613.9,67.2 L613.4,67.1 L613.3,67.0 " stroke="black" stroke-width="1.5" fill="none" stroke-linecap="round"/></svg>