<svg xmlns="http://www.w3.org/2000/svg" viewBox="0 0 1000 120"><rect width="1000" height="120" fill="white"/><path d="M0,0 M359.5,51.6 L359.4,52.0 L359.2,52.9 L359.1,54.3 L359.1,56.1 L359.3,58.2 L359.6,60.6 L359.9,63.0 L360.2,65.4 L360.4,67.4 L360.5,68.8 L360.5,69.7 L360.5,70.0 M351.9,50.5 L352.1,50.5 L352.6,50.4 L353.6,50.3 L355.1,50.3 L357.0,50.2 L359.2,50.0 L361.5,49.8 L363.7,49.5 L365.6,49.2 L367.2,48.7 L368.1,48.3 L368.6,48.1 M369.0,47.6 L368.9,48.2 L368.8,49.3 L368.6,51.1 L368.5,53.2 L368.4,55.7 L368.4,58.3 L368.5,60.8 L368.6,63.0 L368.8,64.7 L369.0,65.7 L369.2,66.0 L369.5,65.6 L369.8,64.7 L370.3,63.3 L370.8,61.7 L371.5,60.2 L372.1,58.9 L372.7,58.1 L373.1,57.8 L373.5,58.0 L373.9,58.7 L374.3,60.0 L374.8,61.5 L375.4,63.1 L376.2,64.5 L377.2,65.5 L378.4,66.0 L379.8,65.9 L381.2,65.2 L382.6,63.9 L383.8,62.4 L384.6,60.7 L384.9,59.2 L384.6,58.0 L384.0,57.4 L383.2,57.3 L382.2,57.9 L381.4,59.0 L380.9,60.7 L380.9,62.6 L381.7,64.5 L383.2,66.3 L384.9,67.5 L386.1,68.1 M408.6,57.9 L408.5,57.7 L408.1,57.4 L407.4,57.2 L406.4,57.3 L405.2,57.8 L404.0,58.8 L403.0,60.0 L402.3,61.5 L402.1,62.8 L402.5,64.0 L403.3,64.7 L404.5,65.0 L405.8,64.8 L407.3,64.0 L408.6,62.8 L409.6,61.4 L410.4,60.0 L410.8,58.8 L411.0,58.0 L411.0,57.5 L410.9,57.6 L410.7,58.2 L410.4,59.5 L410.1,61.5 L409.9,64.0 L409.6,66.8 L409.4,69.8 L409.2,72.6 L409.3,75.0 L409.5,76.8 L409.8,77.8 L410.1,78.2 M416.4,57.4 L416.2,57.8 L416.0,58.5 L415.8,59.7 L415.7,61.1 L415.7,62.7 L415.9,64.0 L416.2,65.0 L416.8,65.4 L417.5,65.2 L418.5,64.4 L419.5,63.1 L420.5,61.5 L421.5,59.8 L422.2,58.4 L422.7,57.3 L423.0,56.7 L423.0,56.6 L423.0,57.1 L422.8,58.1 L422.6,59.4 L422.6,60.9 L422.7,62.3 L423.1,63.4 L423.8,64.0 L424.7,64.1 L425.9,63.5 L427.1,62.4 L428.3,61.0 L429.4,59.6 L430.2,58.4 L430.7,57.6 L430.9,57.3 L430.9,57.4 L430.7,58.1 L430.5,59.3 L430.3,60.7 L430.2,62.1 L430.3,63.2 L430.5,63.8 L430.7,64.1 M431.7,51.8 L431.6,51.6 L431.6,51.5 L431.8,51.4 L432.1,51.4 M440.2,56.2 L439.8,56.1 L439.0,56.1 L438.0,56.3 L436.8,56.9 L435.8,57.8 L435.1,59.0 L434.9,60.3 L435.2,61.5 L436.3,62.4 L437.9,62.9 L439.5,63.1 L440.6,63.0 M446.0,46.2 L445.9,46.3 L445.8,46.8 L445.8,47.8 L445.9,49.4 L446.0,51.4 L446.1,53.7 L446.2,56.1 L446.2,58.4 L446.3,60.6 L446.4,62.3 L446.5,63.5 L446.6,64.0 L446.8,63.9 L447.0,63.3 L447.5,62.1 L448.2,60.5 L449.2,58.7 L450.4,56.9 L451.6,55.3 L452.7,54.0 L453.6,53.2 L454.2,52.7 L454.4,52.5 L454.5,52.5 M446.8,59.1 L447.2,59.8 L448.0,60.7 L449.2,61.9 L450.6,62.9 L452.1,63.8 L453.5,64.4 L454.6,64.7 L455.3,64.9 M472.5,46.5 L472.5,46.9 L472.4,47.7 L472.3,49.0 L472.1,50.7 L471.8,52.8 L471.5,54.9 L471.2,57.1 L471.1,59.1 L471.2,60.8 L471.6,62.1 L472.2,62.8 L473.0,62.9 L474.2,62.6 L475.5,62.0 L476.8,61.1 L478.1,60.3 L479.2,59.5 L480.0,59.1 L480.5,58.9 L480.7,59.2 L480.5,59.9 L480.0,61.0 L479.2,62.3 L478.1,63.7 L476.7,64.9 L475.1,66.0 L473.4,66.7 L471.8,67.0 L470.4,67.0 L469.4,66.6 L468.9,66.1 L468.7,65.7 M483.3,57.3 L483.3,57.7 L483.3,58.6 L483.3,59.8 L483.2,61.2 L483.1,62.7 L483.0,63.9 L482.9,64.8 L482.9,65.3 L482.9,65.2 L483.1,64.6 L483.3,63.4 L483.7,61.9 L484.3,60.3 L484.9,58.8 L485.7,57.5 L486.6,56.7 L487.7,56.3 L488.8,56.2 L489.8,56.3 L490.5,56.5 M496.7,57.3 L496.3,57.5 L495.5,57.8 L494.5,58.5 L493.5,59.5 L492.7,60.8 L492.2,62.2 L492.2,63.5 L492.7,64.5 L493.6,65.2 L494.9,65.3 L496.3,64.8 L497.6,63.8 L498.7,62.4 L499.4,60.7 L499.6,59.0 L499.3,57.5 L498.7,56.4 L497.9,55.7 L497.2,55.4 L496.8,55.4 M503.0,56.7 L503.0,56.6 L502.9,56.5 L502.7,56.8 L502.4,57.5 L502.1,58.7 L502.0,60.1 L502.1,61.6 L502.5,62.8 L503.1,63.5 L503.9,63.7 L505.0,63.3 L506.2,62.4 L507.3,61.2 L508.3,60.0 L509.0,59.0 L509.4,58.4 L509.6,58.3 L509.5,58.7 L509.4,59.5 L509.3,60.8 L509.5,62.2 L510.0,63.5 L510.7,64.5 L511.8,65.0 L513.0,64.9 L514.3,64.3 L515.5,63.1 L516.6,61.6 L517.3,59.8 L517.6,58.2 L517.7,56.9 L517.7,56.1 M521.6,55.7 L521.6,56.2 L521.6,57.1 L521.6,58.5 L521.6,60.0 L521.6,61.4 L521.7,62.7 L521.8,63.5 L522.2,63.7 L522.9,63.3 L523.9,62.4 L525.1,61.0 L526.5,59.4 L527.8,57.9 L529.1,56.7 L530.2,55.9 L531.0,55.7 L531.6,56.0 L531.9,56.9 L532.1,58.2 L532.3,59.9 L532.6,61.6 L533.0,63.2 L533.5,64.4 L533.9,65.0 M552.3,57.8 L552.7,56.9 L553.4,55.3 L554.1,53.2 L554.5,51.0 L554.6,48.9 L554.3,47.1 L553.8,45.7 L553.2,45.0 L552.4,45.0 L551.5,45.8 L550.7,47.5 L549.9,49.9 L549.4,53.0 L549.1,56.4 L549.0,60.0 L549.3,63.4 L549.7,66.4 L550.2,68.6 L550.7,69.9 L551.0,70.5 M546.3,59.1 L546.4,59.0 L547.0,58.9 L548.2,58.9 L550.1,58.9 L552.5,58.8 L555.0,58.7 L557.0,58.6 L558.3,58.5 M563.2,56.3 L562.8,56.3 L562.1,56.4 L561.0,56.8 L559.7,57.5 L558.5,58.6 L557.5,59.9 L556.9,61.3 L556.9,62.6 L557.4,63.7 L558.3,64.3 L559.6,64.4 L561.1,63.9 L562.6,62.9 L563.8,61.4 L564.7,59.8 L565.2,58.2 L565.2,56.8 L564.9,55.8 L564.7,55.3 L564.5,55.1 M572.3,57.0 L572.2,57.4 L572.1,58.1 L571.9,59.2 L571.6,60.4 L571.2,61.7 L570.8,62.9 L570.5,63.8 L570.4,64.3 M570.9,58.9 L571.0,59.1 L571.1,59.6 L571.4,60.3 L571.8,61.2 L572.2,62.1 L572.7,63.0 L573.1,63.6 L573.3,63.9 M591.5,57.4 L591.6,57.7 L591.7,58.3 L591.8,59.4 L591.9,60.9 L591.9,62.9 L591.8,65.3 L591.5,68.0 L591.0,71.0 L590.3,74.1 L589.4,76.9 L588.4,79.3 L587.4,81.1 L586.3,82.2 L585.3,82.6 L584.3,82.2 L583.6,81.1 L583.2,79.2 L583.2,76.8 L583.4,74.6 L583.7,73.1 M591.8,47.8 L591.8,47.8 L591.9,47.8 L592.0,48.0 L592.1,48.2 M596.6,55.4 L596.6,55.8 L596.6,56.6 L596.6,57.8 L596.7,59.1 L596.8,60.5 L596.9,61.7 L597.2,62.6 L597.6,62.9 L598.3,62.7 L599.1,62.0 L600.1,60.7 L601.0,59.2 L601.8,57.7 L602.5,56.3 L603.0,55.3 L603.3,54.8 L603.3,54.7 L603.3,55.2 L603.1,56.1 L602.9,57.4 L602.8,58.9 L602.9,60.3 L603.2,61.4 L603.7,62.0 L604.5,62.0 L605.5,61.5 L606.5,60.5 L607.6,59.2 L608.6,57.8 L609.4,56.5 L610.0,55.6 L610.4,55.1 L610.5,54.9 L610.4,55.2 L610.2,55.9 L609.9,56.9 L609.6,58.1 L609.4,59.4 L609.3,60.5 L609.3,61.2 L609.5,61.5 L609.8,61.3 L610.3,60.6 L611.0,59.5 L611.9,58.1 L612.9,56.7 L613.8,55.4 L614.7,54.5 L615.5,53.9 L616.0,53.7 L616.4,54.1 L616.7,54.8 L616.7,56.0 L616.7,57.3 L616.6,58.7 L616.4,59.9 L616.3,60.8 L616.3,61.3 L616.5,61.3 L616.8,60.8 L617.4,59.8 L618.1,58.5 L619.0,57.1 L619.9,55.8 L620.7,54.8 L621.3,54.1 L621.7,53.7 L621.9,53.8 L622.0,54.3 L622.1,55.2 L622.2,56.3 L622.4,57.6 L622.6,58.8 L623.1,59.7 L623.5,60.3 L623.8,60.6 M628.3,54.8 L628.3,54.8 L628.4,55.1 L628.4,55.7 L628.4,56.7 L628.2,58.3 L628.0,60.4 L627.7,62.8 L627.3,65.4 L626.9,67.9 L626.6,70.2 L626.3,71.9 L626.1,72.9 L625.9,73.2 L625.9,72.7 L626.0,71.5 L626.2,69.6 L626.6,67.3 L627.1,64.8 L627.8,62.3 L628.7,60.0 L629.6,57.9 L630.8,56.1 L632.0,54.8 L633.3,54.1 L634.7,53.9 L635.9,54.2 L636.8,55.0 L637.5,56.1 L637.6,57.4 L637.3,58.7 L636.4,59.9 L635.1,60.8 L633.5,61.5 L631.8,61.8 L630.3,61.8 L629.2,61.6 L628.6,61.2 L628.7,60.7 L629.0,60.3 L629.4,60.0 M646.0,53.1 L645.8,52.8 L645.4,52.5 L644.7,52.2 L643.8,52.1 L642.8,52.3 L642.1,52.8 L641.6,53.5 L641.7,54.3 L642.2,55.2 L643.2,56.2 L644.5,57.2 L645.8,58.1 L647.0,58.9 L647.8,59.6 L648.1,60.1 L647.7,60.5 L646.8,60.8 L645.4,60.9 L644.1,61.0 L643.1,61.1 " stroke="black" stroke-width="1.5" fill="none" stroke-linecap="round"/></svg>