<svg xmlns="http://www.w3.org/2000/svg" viewBox="0 0 1000 120"><path d="M315.5,55.5 L315.4,55.2 L315.1,54.9 L314.5,54.5 L313.8,54.4 L313.0,54.6 L312.3,55.0 L311.8,55.6 L311.7,56.4 L312.1,57.3 L313.0,58.3 L314.3,59.2 L315.8,60.1 L317.2,60.8 L318.4,61.4 L319.1,61.9 L319.2,62.1 L318.5,62.1 L317.3,62.0 L315.5,61.7 L313.4,61.3 L311.2,60.8 L309.0,60.2 L307.4,59.7 L306.5,59.4 M299.3,58.2 L299.3,58.5 L299.4,59.2 L299.4,60.4 L299.4,61.9 L299.3,63.8 L299.3,65.9 L299.2,68.3 L299.0,70.6 L298.8,72.7 L298.7,74.4 L298.5,75.5 L298.3,75.9 L298.2,75.5 L298.1,74.5 L298.1,72.9 L298.1,70.8 L298.3,68.4 L298.5,65.8 L298.9,63.3 L299.3,60.9 L300.0,58.8 L300.7,57.0 L301.6,55.6 L302.7,54.7 L303.8,54.2 L305.0,54.3 L306.2,54.8 L307.2,55.8 L307.9,57.0 L308.3,58.3 L308.3,59.6 L307.8,60.8 L306.9,61.7 L305.7,62.4 L304.3,62.9 L302.8,63.0 L301.4,62.9 L300.4,62.5 L299.7,62.2 L299.4,61.9 M275.5,58.3 L275.6,58.4 L276.0,58.3 L276.7,58.2 L277.7,57.9 L278.8,57.5 L279.9,57.0 L281.0,56.5 L281.9,56.1 L282.6,55.8 L283.1,55.7 L283.2,55.9 L283.2,56.3 L282.9,56.9 L282.5,57.8 L282.1,59.0 L281.7,60.2 L281.4,61.4 L281.3,62.5 L281.4,63.4 L281.7,64.0 L282.1,64.3 L282.7,64.2 L283.4,63.6 L284.1,62.7 L285.0,61.5 L285.8,60.2 L286.6,58.8 L287.4,57.6 L288.0,56.6 L288.5,55.9 L288.9,55.5 L289.0,55.4 L288.9,55.8 L288.8,56.5 L288.6,57.6 L288.4,58.9 L288.3,60.2 L288.3,61.3 L288.6,62.2 L289.1,62.7 L289.9,62.9 L290.8,62.6 L291.8,61.9 L292.8,60.9 L293.7,59.7 L294.4,58.4 L294.9,57.2 L295.2,56.1 L295.4,55.3 L295.4,54.7 L295.3,54.6 L295.2,54.8 L295.0,55.4 L294.8,56.5 L294.6,57.8 L294.6,59.3 L294.8,60.9 L295.3,62.4 L295.8,63.5 L296.3,64.3 M266.1,57.4 L266.3,57.9 L266.7,58.8 L267.2,60.2 L267.7,61.9 L268.0,63.9 L268.2,66.1 L268.2,68.6 L267.9,71.1 L267.4,73.6 L266.7,76.0 L265.9,78.0 L264.8,79.6 L263.8,80.6 L262.8,81.0 L261.9,80.8 L261.3,80.0 L261.0,78.7 L260.9,77.0 L261.2,75.1 L261.8,73.1 L262.6,71.0 L263.7,68.8 L265.0,66.7 L266.4,64.7 L267.8,62.9 L269.1,61.4 L270.4,60.1 L271.5,59.2 L272.4,58.5 L273.0,58.2 L273.2,58.1 L273.2,58.4 L273.1,59.0 L272.9,60.0 L272.7,61.1 L272.5,62.4 L272.5,63.6 L272.6,64.5 L272.9,65.1 L273.3,65.4 L274.0,65.3 L274.7,64.9 L275.6,64.1 L276.5,63.1 L277.4,61.9 L278.1,60.7 L278.7,59.7 L279.1,59.0 L279.2,58.6 L279.2,58.5 L279.2,58.8 L279.0,59.5 L278.9,60.4 L278.8,61.6 L278.8,62.7 L278.9,63.7 L279.4,64.4 L280.0,64.8 L280.6,65.0 L281.0,65.0 M239.4,56.9 L239.7,57.1 L240.3,57.6 L241.0,58.5 L241.9,59.6 L242.9,60.8 L243.8,62.1 L244.7,63.4 L245.6,64.5 L246.4,65.4 L247.0,66.0 L247.3,66.3 M245.6,56.1 L245.4,56.4 L245.1,57.0 L244.5,57.8 L243.6,58.8 L242.4,60.1 L241.1,61.5 L239.8,62.9 L238.6,64.2 L237.7,65.1 L237.1,65.5 L236.7,65.6 L236.6,65.5 M235.3,58.5 L235.0,58.3 L234.5,58.1 L233.7,58.0 L232.7,58.2 L231.5,58.9 L230.4,59.8 L229.4,61.1 L228.9,62.4 L228.8,63.7 L229.2,64.7 L230.1,65.3 L231.4,65.5 L233.0,65.2 L234.5,64.4 L235.9,63.3 L236.9,61.9 L237.5,60.3 L237.5,58.9 L237.1,57.7 L236.3,56.8 L235.3,56.2 L234.3,56.0 L233.5,56.0 L233.0,56.1 M218.9,61.2 L219.0,61.1 L219.3,60.9 L219.9,60.8 L221.0,60.8 L222.4,60.8 L224.2,60.9 L225.7,60.9 L226.7,60.9 M224.9,59.7 L225.3,59.0 L225.9,57.8 L226.6,56.1 L227.3,54.2 L227.8,52.2 L228.1,50.2 L228.2,48.4 L228.0,46.8 L227.7,45.6 L227.1,45.0 L226.4,45.0 L225.6,45.7 L224.7,47.2 L223.9,49.3 L223.1,51.9 L222.5,54.9 L222.1,58.0 L221.9,61.3 L221.8,64.4 L221.9,67.3 L221.9,69.7 L222.0,71.5 L222.1,72.6 L222.2,73.0 M198.2,57.4 L198.2,58.0 L198.2,59.0 L198.1,60.5 L198.0,62.0 L197.8,63.5 L197.7,64.8 L197.6,65.8 L197.7,66.3 L197.8,66.4 L198.0,65.8 L198.3,64.8 L198.8,63.3 L199.4,61.6 L200.2,59.8 L201.2,58.3 L202.4,57.1 L203.7,56.2 L204.9,55.8 L206.1,55.9 L207.0,56.6 L207.6,57.6 L208.0,59.0 L208.0,60.6 L208.0,62.2 L207.9,63.7 L208.0,64.9 L208.2,65.8 L208.4,66.3 M180.5,54.5 L180.4,54.8 L180.1,55.4 L179.8,56.5 L179.3,58.0 L178.9,59.7 L178.7,61.5 L178.7,63.3 L179.1,64.7 L179.8,65.7 L180.8,66.1 L182.0,65.8 L183.3,65.0 L184.5,63.6 L185.5,61.9 L186.3,60.2 L186.8,58.6 L187.1,57.3 L187.1,56.5 L186.9,56.1 L186.7,56.2 L186.3,57.0 L186.0,58.3 L185.7,60.0 L185.6,61.9 L185.7,63.7 L186.2,65.2 L187.0,66.3 L188.0,66.8 L189.3,66.8 L190.5,66.3 L191.7,65.3 L192.7,63.9 L193.5,62.3 L194.0,60.6 L194.2,59.0 L194.2,57.6 L193.9,56.4 L193.6,55.7 L193.3,55.2 L193.2,55.1 M173.5,56.3 L173.2,55.9 L172.7,55.4 L171.8,54.9 L170.6,54.7 L169.2,54.9 L167.7,55.7 L166.3,56.9 L165.2,58.4 L164.6,60.2 L164.5,61.8 L165.1,63.3 L166.1,64.3 L167.6,64.7 L169.3,64.6 L171.1,63.9 L172.7,62.7 L174.0,61.1 L174.8,59.4 L175.1,57.8 L175.0,56.4 L174.7,55.3 L174.2,54.7 L173.8,54.4 L173.6,54.4 L173.7,54.5 L174.1,54.6 L174.6,54.8 L175.0,54.8 M158.6,55.5 L158.6,56.0 L158.5,56.8 L158.5,58.0 L158.4,59.4 L158.3,61.0 L158.3,62.5 L158.2,63.9 L158.3,64.9 L158.3,65.5 L158.4,65.6 L158.5,65.3 L158.5,64.4 L158.4,63.1 L158.5,61.5 L158.6,59.7 L158.8,58.0 L159.2,56.3 L159.8,54.9 L160.7,53.7 L161.8,52.9 L163.1,52.4 L164.4,52.4 L165.6,52.5 L166.3,52.7 M143.7,46.1 L143.7,46.3 L143.8,46.7 L143.8,47.6 L143.8,49.1 L143.6,51.0 L143.4,53.2 L143.2,55.7 L143.0,58.1 L143.0,60.3 L143.1,62.2 L143.4,63.6 L143.7,64.4 L144.1,64.6 L144.6,64.2 L145.2,63.3 L145.9,62.0 L146.7,60.4 L147.7,58.8 L148.7,57.2 L149.8,55.9 L150.9,54.9 L152.0,54.4 L153.0,54.5 L153.9,55.1 L154.6,56.2 L154.9,57.7 L155.0,59.4 L154.7,61.2 L154.1,62.8 L153.1,64.2 L152.0,65.2 L150.7,65.8 L149.4,66.0 L148.1,65.7 L146.9,65.2 L146.1,64.4 L145.6,63.4 L145.6,62.3 L145.8,61.4 L146.1,60.9 M108.7,59.9 L108.5,59.5 L108.0,58.8 L107.2,58.1 L106.2,57.8 L105.0,57.8 L103.9,58.4 L102.9,59.4 L102.1,60.8 L101.8,62.5 L101.8,64.2 L102.4,65.8 L103.4,67.0 L104.7,67.9 L106.4,68.2 L108.2,67.9 L110.1,67.0 L111.8,65.6 L113.3,63.7 L114.5,61.4 L115.4,58.8 L116.1,56.1 L116.5,53.5 L116.8,51.1 L116.9,49.0 L116.9,47.4 L116.8,46.4 L116.6,46.0 L116.3,46.3 L115.9,47.1 L115.5,48.7 L115.1,50.7 L114.7,53.1 L114.5,55.8 L114.3,58.4 L114.3,60.8 L114.3,62.7 L114.3,64.2 L114.5,65.1 L114.7,65.5 L114.9,65.3 L115.2,64.6 L115.6,63.4 L116.1,62.0 L116.9,60.4 L117.7,59.0 L118.6,57.7 L119.6,56.7 L120.5,56.0 L121.3,55.8 L121.9,56.0 L122.2,56.6 L122.2,57.6 L121.7,58.8 L120.9,60.0 L119.8,61.2 L118.6,62.2 L117.5,63.0 L116.5,63.6 L115.9,63.9 L115.6,64.2 L115.7,64.4 L116.2,64.5 L117.0,64.7 L118.2,65.0 L119.6,65.2 L121.2,65.3 L122.9,65.5 L124.6,65.5 L126.2,65.5 L127.7,65.4 L128.7,65.3 L129.3,65.2 M99.5,52.0 L99.4,51.8 L99.3,51.6 L99.2,51.6 L99.1,51.8 M97.4,59.5 L97.4,59.3 L97.5,59.2 L97.5,59.4 L97.4,60.0 L97.4,61.0 L97.3,62.4 L97.3,64.0 L97.4,65.5 L97.6,66.7 L97.7,67.5 L97.9,68.0 M84.2,58.6 L84.1,58.6 L84.1,58.9 L83.9,59.5 L83.8,60.6 L83.7,62.1 L83.6,63.9 L83.7,65.7 L84.0,67.2 L84.6,68.4 L85.4,69.0 L86.4,69.0 L87.4,68.4 L88.5,67.2 L89.4,65.7 L90.2,64.0 L90.9,62.2 L91.3,60.6 L91.6,59.3 L91.7,58.5 L91.8,58.2 L91.8,58.3 L91.7,58.9 L91.7,59.9 L91.6,61.3 L91.6,62.8 L91.7,64.3 L91.9,65.6 L92.3,66.5 L92.9,66.9 L93.7,66.8 L94.3,66.4 L94.7,65.9 M80.1,59.9 L80.0,59.5 L79.8,58.8 L79.4,58.2 L78.7,57.6 L77.8,57.4 L76.7,57.5 L75.6,58.0 L74.4,58.8 L73.3,60.1 L72.5,61.6 L71.9,63.2 L71.8,64.8 L72.0,66.1 L72.6,67.2 L73.5,67.8 L74.6,67.8 L75.8,67.4 L77.0,66.5 L78.1,65.3 L79.0,63.8 L79.7,62.2 L80.2,60.7 L80.4,59.4 L80.5,58.4 L80.5,57.8 L80.4,57.6 L80.3,57.8 L80.1,58.5 L80.0,59.6 L79.8,61.2 L79.7,63.1 L79.6,65.3 L79.5,67.7 L79.6,70.2 L79.6,72.7 L79.8,75.2 L80.0,77.3 L80.3,79.1 L80.5,80.4 L80.7,81.1 L81.0,81.1 L81.3,80.4 L81.6,79.5 L81.8,78.8 M52.2,66.8 L52.3,66.8 L52.5,66.6 L52.9,66.3 L53.6,65.6 L54.4,64.6 L55.2,63.4 L56.0,62.1 L56.6,60.7 L57.0,59.4 L57.1,58.3 L57.0,57.4 L56.7,57.0 L56.2,57.0 L55.6,57.5 L55.0,58.5 L54.5,60.0 L54.2,61.7 L54.2,63.6 L54.6,65.4 L55.3,67.0 L56.4,68.2 L57.9,69.0 L59.2,69.4 L60.1,69.5 M41.2,47.3 L41.3,47.8 L41.4,48.7 L41.5,50.1 L41.6,51.9 L41.6,54.1 L41.5,56.6 L41.4,59.3 L41.2,62.0 L41.1,64.5 L41.0,66.6 L41.0,68.1 L41.0,69.0 L41.0,69.2 L41.1,68.7 L41.3,67.7 L41.6,66.2 L42.1,64.4 L42.9,62.4 L43.8,60.5 L44.9,58.9 L46.1,57.6 L47.1,56.8 L48.1,56.7 L48.8,57.1 L49.4,58.0 L49.7,59.4 L49.8,61.2 L49.7,63.2 L49.6,65.1 L49.4,66.9 L49.3,68.3 L49.2,69.2 L49.3,69.6 L49.5,69.4 L49.7,69.0 L49.9,68.6 M18.6,47.9 L19.0,47.7 L19.7,47.6 L21.0,47.4 L22.7,47.2 L24.8,47.0 L27.1,46.9 L29.6,46.6 L32.2,46.4 L34.7,46.1 L37.0,45.8 L38.8,45.6 L39.8,45.5 M29.2,52.0 L29.2,52.2 L29.2,52.8 L29.2,54.0 L29.2,55.6 L29.3,57.6 L29.3,60.0 L29.3,62.6 L29.3,65.2 L29.4,67.6 L29.5,69.8 L29.6,71.6 L29.7,72.8 L29.7,73.5 L29.7,73.5 L29.7,73.1 L29.6,72.8 " stroke="black" stroke-width="1.56" fill="none" stroke-linecap="round"/></svg>