<svg xmlns="http://www.w3.org/2000/svg" viewBox="0 0 1000 120"><path d="M268.8,54.5 L268.7,54.4 L268.7,54.4 L268.6,54.3 L268.6,54.3 L268.4,54.4 L268.1,54.8 L267.7,55.5 L267.2,56.6 L266.7,58.0 L266.1,59.8 L265.5,61.8 L264.9,63.9 L264.4,66.0 L264.0,68.1 L263.7,70.0 L263.6,71.6 L263.6,72.9 L263.8,73.8 L264.1,74.2 L264.6,74.0 L265.3,73.3 L266.1,71.9 L267.1,70.0 L268.3,67.8 L269.7,65.3 L271.0,62.9 L272.4,60.6 L273.8,58.7 L275.0,57.3 L275.9,56.4 L276.5,56.0 L276.8,56.3 L276.8,57.3 L276.5,58.9 L276.0,61.2 L275.4,63.8 L274.7,66.4 L274.1,68.8 L273.7,70.8 L273.5,72.1 L273.4,72.8 L273.5,72.8 L273.8,72.2 L274.3,70.8 L275.1,68.8 L276.3,66.4 L277.7,63.8 L279.5,61.2 L281.2,59.3 L282.3,58.1 M262.9,57.7 L262.9,57.8 L263.0,57.8 L263.0,57.9 L263.0,58.0 L263.0,58.0 L263.0,58.0 L263.0,58.0 L263.0,58.0 L263.1,58.0 L263.1,58.0 L263.1,58.0 L263.1,58.0 L263.1,58.0 L263.1,58.0 L263.2,58.0 L263.1,58.0 L263.1,58.0 L263.1,58.0 L263.1,58.0 L263.1,57.9 L263.1,57.9 L263.1,57.9 L263.1,57.9 L263.1,57.9 L263.1,57.9 L263.1,57.9 L263.1,57.9 L263.1,57.9 L263.1,57.9 L263.1,57.9 L263.0,57.8 L263.0,57.8 L262.9,57.8 L262.9,57.8 L262.9,57.7 L263.0,57.7 L263.0,57.7 L263.0,57.7 L263.0,57.7 L263.0,57.6 L263.0,57.6 L263.0,57.6 L263.0,57.6 L263.0,57.6 L263.0,57.6 L263.0,57.6 L262.9,57.6 L262.9,57.5 L262.9,57.5 L262.9,57.5 L262.9,57.5 L262.9,57.4 L263.0,57.4 L263.0,57.4 L263.0,57.4 L263.0,57.4 L263.0,57.4 L263.1,57.3 L263.1,57.3 L263.1,57.3 L263.2,57.3 L263.2,57.3 L263.2,57.3 L263.3,57.2 L263.3,57.2 L263.3,57.1 L263.3,57.1 L263.3,57.1 L263.3,57.1 L263.3,57.1 L263.3,57.1 L263.4,57.1 L263.4,57.1 L263.4,57.0 L263.4,57.0 L263.4,57.0 L263.4,57.0 L263.4,57.0 L263.4,57.0 L263.4,57.0 L263.5,57.0 L263.5,56.9 L263.6,56.9 L263.6,56.9 L263.6,56.9 L263.6,56.9 L263.6,56.9 L263.6,56.9 L263.6,56.9 L263.7,56.9 L263.7,56.8 L263.7,56.8 L263.7,56.8 L263.7,56.8 L263.7,56.7 L263.7,56.7 L263.7,56.7 L263.7,56.6 L263.8,56.6 L263.8,56.6 L263.8,56.6 L263.8,56.6 L263.8,56.6 L263.8,56.6 L263.8,56.6 L263.8,56.6 L263.8,56.6 L263.9,56.6 L263.9,56.6 L263.9,56.6 L263.9,56.6 L263.9,56.6 L263.9,56.6 L263.9,56.6 L263.9,56.6 L263.9,56.6 L263.9,56.6 L263.9,56.6 L263.9,56.6 L263.9,56.6 L263.9,56.6 L263.8,56.6 L263.8,56.5 L263.8,56.5 L263.9,56.5 L263.9,56.5 L263.9,56.5 L264.0,56.5 L264.0,56.5 L264.0,56.5 L264.0,56.5 L264.0,56.5 L264.0,56.5 L264.1,56.5 L264.1,56.5 L264.1,56.5 L264.1,56.5 L264.2,56.4 L264.2,56.4 L264.2,56.4 L264.2,56.4 L264.2,56.4 L264.3,56.4 L264.3,56.4 L264.3,56.4 L264.3,56.3 L264.3,56.3 L264.3,56.3 L264.3,56.3 L264.4,56.3 L264.4,56.3 L264.4,56.2 L264.4,56.2 L264.4,56.1 L264.4,56.1 L264.4,56.0 L264.5,56.0 L264.5,56.0 L264.5,56.0 L264.6,56.0 L264.6,56.0 L264.6,56.0 L264.6,56.0 L264.6,55.9 L264.6,55.9 L264.6,55.9 L264.6,55.9 L264.6,55.9 L264.7,55.9 L264.7,55.9 L264.7,55.9 L264.7,55.9 L264.7,55.9 L264.7,55.9 L264.7,55.9 L264.7,55.9 L264.7,55.9 L264.7,55.9 L264.8,55.9 L264.8,55.9 L264.8,55.9 L264.8,55.9 L264.8,55.9 L264.8,55.8 L264.8,55.8 L264.8,55.8 L264.8,55.8 L264.8,55.7 L264.9,55.7 L264.9,55.7 L264.9,55.8 L264.9,55.8 L264.9,55.8 L264.9,55.8 L264.9,55.8 L264.9,55.8 L264.9,55.8 L264.9,55.8 L264.9,55.7 L264.9,55.7 L264.9,55.7 M261.7,58.5 L261.7,58.5 L261.7,58.5 L261.7,58.4 L261.8,58.5 L262.0,58.5 L262.2,58.5 L262.5,58.6 L262.8,58.6 L262.9,58.6 L263.1,58.5 L263.1,58.5 L263.1,58.5 L263.2,58.5 L263.2,58.5 L263.2,58.5 L263.2,58.4 L263.2,58.4 L263.2,58.4 L263.3,58.4 L263.3,58.4 L263.3,58.4 L263.4,58.4 L263.4,58.4 L263.4,58.4 L263.4,58.3 L263.4,58.3 L263.3,58.3 L263.3,58.3 L263.3,58.3 L263.3,58.3 L263.3,58.3 L263.2,58.2 L263.2,58.2 L263.2,58.2 L263.2,58.1 L263.2,58.1 L263.3,58.1 L263.3,58.0 L263.3,58.0 L263.3,58.0 L263.3,57.9 L263.2,57.9 L263.2,57.9 L263.2,57.8 L263.2,57.8 L263.2,57.8 L263.2,57.8 L263.2,57.7 L263.2,57.7 L263.2,57.7 L263.2,57.7 L263.2,57.6 L263.2,57.6 L263.2,57.6 L263.2,57.6 L263.2,57.5 L263.2,57.5 L263.3,57.5 L263.3,57.4 L263.3,57.4 L263.2,57.4 L263.2,57.4 L263.2,57.4 L263.2,57.4 M259.0,61.5 L259.1,61.5 L259.2,61.5 L259.3,61.6 L259.4,61.9 L259.5,62.4 L259.5,63.3 L259.4,64.6 L259.2,66.2 L258.9,68.2 L258.6,70.4 L258.3,72.8 L257.9,75.3 L257.5,77.8 L257.0,80.1 L256.6,82.2 L256.1,84.0 L255.7,85.5 L255.2,86.6 L254.7,87.3 L254.2,87.7 L253.7,87.7 L253.3,87.3 L252.9,86.7 L252.8,86.3 M202.7,61.8 L202.7,61.9 L202.9,62.0 L203.4,62.2 L204.4,62.4 L205.9,62.4 L207.9,62.2 L210.3,61.9 L212.9,61.4 L215.5,60.8 L217.9,60.3 L219.9,59.8 L221.4,59.3 L222.2,59.0 L222.5,58.8 L222.1,58.7 L221.1,58.9 L219.7,59.5 L217.9,60.5 L215.9,62.0 L214.0,64.0 L212.5,66.2 L211.6,68.4 L211.3,70.4 L211.6,72.0 L212.3,73.0 L213.4,73.4 L214.9,73.1 L216.5,72.2 L218.1,70.8 L219.5,68.9 L220.8,66.8 L221.9,64.7 L222.6,62.7 L223.0,61.0 L223.2,59.7 L223.3,58.9 L223.3,58.3 L223.3,58.2 L223.4,58.3 L223.6,58.6 L223.9,59.2 L224.4,59.8 L225.1,60.4 L225.9,60.8 L227.0,61.0 L228.1,60.9 L229.4,60.5 L230.7,60.0 L232.0,59.5 L233.2,58.9 L234.1,58.4 L234.7,58.0 L235.0,57.7 L235.1,57.6 L235.1,57.5 L235.0,57.5 L234.9,57.4 L234.9,57.4 L234.9,57.4 L234.9,57.5 L234.8,57.8 L234.7,58.2 L234.6,58.8 L234.4,59.6 L234.0,60.5 L233.6,61.6 L233.0,62.8 L232.3,64.0 L231.6,65.3 L230.8,66.6 L229.9,67.9 L229.0,69.1 L228.1,70.2 L227.1,71.1 L226.2,71.7 L225.4,72.1 L224.7,72.2 L224.1,72.1 L223.8,72.0 L223.7,71.9 L223.8,71.9 L223.9,71.8 L224.2,71.8 L224.7,71.7 L225.3,71.5 L226.1,71.3 L227.1,71.0 L228.3,70.6 L229.6,70.1 L231.0,69.4 L232.5,68.6 L234.1,67.6 L235.7,66.4 L237.2,65.1 L238.5,63.7 L239.6,62.3 L240.4,60.9 L240.9,59.8 L241.0,58.9 L240.9,58.2 L240.5,57.8 L239.7,57.7 L238.7,58.1 L237.5,59.0 L236.0,60.4 L234.6,62.3 L233.4,64.4 L232.6,66.7 L232.2,68.9 L232.4,70.8 L233.1,72.3 L234.2,73.3 L235.8,73.7 L237.7,73.6 L239.3,73.3 L240.3,72.9 M204.4,63.7 L204.7,63.3 L205.3,62.5 L206.2,61.2 L207.4,59.6 L208.7,57.7 L210.1,55.7 L211.4,53.6 L212.5,51.5 L213.3,49.6 L213.9,48.1 L214.2,46.8 L214.3,46.0 L214.2,45.5 L213.9,45.5 L213.3,46.0 L212.4,47.1 L211.2,48.9 L209.9,51.4 L208.4,54.5 L207.1,58.0 L205.8,61.7 L204.8,65.6 L204.0,69.4 L203.4,72.9 L203.0,76.0 L202.8,78.4 L202.8,80.1 L202.9,80.9 L203.1,80.8 L203.3,79.7 L203.6,78.4 L203.8,77.3 M163.9,54.9 L163.8,54.9 L163.8,55.2 L163.6,55.8 L163.4,57.0 L163.0,58.7 L162.5,60.9 L162.1,63.2 L161.8,65.6 L161.6,67.6 L161.6,69.2 L161.7,70.3 L161.9,70.7 L162.3,70.6 L162.9,69.7 L163.6,68.1 L164.6,66.1 L165.6,64.0 L166.7,62.2 L167.7,60.8 L168.6,60.1 L169.4,59.9 L170.0,60.3 L170.4,61.2 L170.6,62.6 L170.7,64.4 L170.6,66.4 L170.4,68.1 L170.3,69.5 L170.2,70.4 L170.3,70.7 L170.5,70.5 L170.8,69.7 L171.3,68.2 L171.9,66.2 L172.7,63.9 L173.5,61.7 L174.3,59.6 L175.1,57.9 L175.8,56.5 L176.4,55.3 L177.0,54.4 L177.5,53.8 L177.9,53.5 L178.3,53.5 L178.5,53.8 L178.6,54.6 L178.6,55.8 L178.4,57.6 L178.1,59.6 L177.8,61.7 L177.3,63.7 L176.9,65.4 L176.6,66.6 L176.5,67.4 L176.4,67.6 L176.5,67.4 L176.7,66.5 L177.1,65.0 L177.8,63.1 L178.8,61.0 L180.0,59.0 L181.5,57.4 L183.1,56.3 L184.6,55.6 L185.9,55.6 L187.0,56.1 L187.7,57.2 L188.0,58.7 L187.9,60.5 L187.5,62.5 L187.0,64.5 L186.4,66.3 L186.0,67.9 L185.7,69.1 L185.7,69.9 L185.7,70.3 L185.9,70.2 L186.2,69.6 L186.5,69.0 L186.7,68.4 M148.9,56.2 L148.8,56.5 L148.7,57.3 L148.4,58.6 L148.0,60.3 L147.5,62.4 L146.9,64.5 L146.4,66.4 L145.9,68.0 L145.7,69.0 L145.5,69.5 L145.5,69.4 L145.7,68.8 L146.0,67.6 L146.5,65.9 L147.2,63.9 L148.1,61.8 L149.3,59.8 L150.6,58.1 L152.0,56.7 L153.4,55.6 L154.8,55.0 L156.0,54.8 L156.9,54.8 L157.4,55.2 L157.6,55.8 L157.3,56.6 L156.7,57.5 L155.8,58.7 L154.7,60.1 L153.6,61.7 L152.6,63.3 L152.0,64.9 L151.7,66.3 L151.8,67.4 L152.3,68.1 L153.1,68.4 L154.1,68.2 L155.3,67.6 L156.6,66.4 L157.7,64.9 L158.6,63.2 L159.3,61.4 L159.6,59.7 L159.6,58.3 L159.3,57.2 L159.0,56.5 L158.7,56.1 L158.5,55.9 L158.4,55.9 L158.6,56.0 L158.8,56.1 L159.0,56.2 M139.0,46.6 L138.9,46.9 L138.7,47.6 L138.4,48.8 L137.9,50.5 L137.4,52.8 L136.8,55.3 L136.2,58.1 L135.5,60.8 L135.0,63.2 L134.6,65.1 L134.4,66.4 L134.2,67.2 L134.2,67.3 L134.3,66.9 L134.6,65.9 L135.1,64.3 L136.0,62.3 L137.2,60.2 L138.7,58.4 L140.2,57.1 L141.8,56.3 L143.2,56.2 L144.3,56.7 L145.1,57.8 L145.4,59.4 L145.3,61.2 L144.7,63.2 L143.7,65.1 L142.4,66.7 L141.0,68.1 L139.5,69.0 L138.1,69.5 L136.8,69.6 L135.8,69.3 L135.0,68.7 L134.5,68.0 L134.5,67.0 L135.0,65.8 L135.5,64.8 L135.9,64.2 M103.5,54.4 L103.4,54.2 L103.2,53.9 L102.8,53.7 L102.3,53.7 L101.5,54.1 L100.5,54.9 L99.4,56.3 L98.2,58.1 L97.2,60.2 L96.5,62.4 L96.2,64.5 L96.2,66.4 L96.7,68.0 L97.5,69.1 L98.6,69.6 L99.9,69.6 L101.4,69.0 L102.9,67.9 L104.4,66.1 L105.9,64.0 L107.2,61.6 L108.4,59.1 L109.4,56.6 L110.3,54.4 L111.0,52.5 L111.5,51.0 L111.9,49.9 L112.0,49.2 L112.1,48.9 L112.0,49.0 L111.9,49.4 L111.6,50.3 L111.2,51.8 L110.7,53.7 L110.0,55.8 L109.3,58.2 L108.6,60.6 L108.0,63.0 L107.4,65.2 L107.0,67.0 L106.7,68.2 L106.6,69.0 L106.6,69.3 L106.7,69.3 L106.8,68.8 L106.9,67.8 L107.1,66.5 L107.6,64.9 L108.3,63.1 L109.3,61.4 L110.5,59.8 L111.8,58.3 L113.2,57.2 L114.6,56.3 L115.7,55.8 L116.6,55.6 L117.2,55.6 L117.4,55.8 L117.3,56.1 L116.8,56.5 L116.0,57.0 L114.9,57.5 L113.5,58.1 L112.0,58.8 L110.6,59.6 L109.3,60.5 L108.2,61.3 L107.4,62.2 L107.1,63.0 L107.2,63.8 L107.7,64.5 L108.6,65.1 L109.9,65.6 L111.5,65.9 L113.3,66.0 L115.0,66.1 L116.6,66.1 L118.0,66.0 L119.1,65.9 L119.8,65.9 L120.3,65.8 L120.6,65.8 L120.7,65.7 M95.0,49.2 L95.0,49.2 L95.0,49.2 L95.0,49.2 L95.0,49.2 L95.1,49.3 L95.2,49.4 L95.4,49.5 L95.5,49.6 M93.6,55.6 L93.7,55.5 L93.7,55.5 L93.8,55.8 L93.6,56.5 L93.4,57.8 L93.0,59.5 L92.5,61.4 L92.1,63.5 L91.7,65.5 L91.5,67.2 L91.4,68.7 L91.4,69.8 L91.6,70.5 L92.0,70.6 L92.2,70.5 L92.4,70.2 M76.3,54.5 L76.3,54.4 L76.3,54.4 L76.2,54.3 L76.2,54.2 L76.1,54.2 L76.1,54.3 L75.9,54.4 L75.7,54.8 L75.3,55.4 L74.9,56.3 L74.3,57.6 L73.6,59.2 L72.9,61.1 L72.2,63.3 L71.5,65.7 L70.8,68.2 L70.1,70.8 L69.6,73.3 L69.1,75.8 L68.9,78.0 L68.9,79.8 L69.1,81.2 L69.4,82.1 L69.8,82.7 L70.2,82.8 L70.6,82.4 L70.9,81.7 L71.3,80.4 L71.8,78.6 L72.4,76.3 L73.1,73.9 L73.9,71.2 L74.8,68.6 L75.9,66.0 L77.0,63.6 L78.2,61.4 L79.3,59.5 L80.3,58.0 L81.1,56.9 L81.7,56.2 L82.1,55.9 L82.3,55.9 L82.3,56.4 L82.1,57.5 L81.8,59.1 L81.3,61.1 L80.9,63.2 L80.5,65.3 L80.2,67.1 L80.0,68.5 L80.0,69.4 L80.1,69.9 L80.3,69.8 L80.8,69.3 L81.5,68.1 L82.3,66.4 L83.4,64.3 L84.5,62.0 L85.7,59.8 L86.8,58.0 L87.8,56.6 L88.6,55.7 L89.1,55.3 L89.2,55.3 L89.1,55.9 L88.8,57.2 L88.3,59.1 L87.7,61.4 L87.1,63.8 L86.6,66.0 L86.3,67.9 L86.3,69.4 L86.5,70.3 L86.8,70.6 L87.1,70.6 L87.4,70.5 M71.1,57.3 L71.0,57.0 L70.9,56.6 L70.6,56.0 L70.1,55.6 L69.5,55.3 L68.7,55.3 L67.7,55.5 L66.7,56.2 L65.5,57.2 L64.4,58.7 L63.4,60.6 L62.5,62.6 L62.0,64.6 L61.7,66.4 L61.9,67.7 L62.3,68.6 L63.1,69.0 L64.1,68.9 L65.4,68.2 L66.8,67.0 L68.2,65.5 L69.6,63.7 L70.7,61.9 L71.7,60.2 L72.4,58.7 L72.9,57.5 L73.2,56.5 L73.4,56.0 L73.4,55.6 L73.4,55.5 L73.4,55.4 L73.4,55.4 L73.4,55.5 L73.3,55.5 L73.3,55.6 L73.4,55.6 L73.4,55.5 L73.4,55.5 L73.4,55.5 L73.5,55.5 L73.5,55.4 L73.5,55.4 L73.5,55.3 L73.5,55.3 L73.5,55.3 L73.6,55.3 L73.6,55.3 L73.6,55.3 L73.7,55.3 L73.7,55.4 L73.7,55.4 L73.7,55.4 L73.7,55.4 M42.5,63.1 L42.9,63.0 L43.7,62.7 L44.8,62.1 L46.0,61.3 L47.2,60.2 L48.3,59.0 L49.1,57.7 L49.6,56.5 L49.9,55.4 L49.8,54.5 L49.5,53.9 L48.8,53.8 L47.9,54.1 L46.7,55.1 L45.4,56.7 L44.2,58.9 L43.2,61.3 L42.6,63.8 L42.5,66.0 L42.8,67.7 L43.6,68.9 L44.8,69.4 L46.2,69.4 L47.9,68.6 L49.7,67.4 L51.5,65.8 L52.8,64.4 L53.7,63.4 M21.5,49.1 L21.7,49.0 L22.3,48.7 L23.4,48.4 L25.0,47.9 L26.8,47.4 L28.7,46.8 L30.5,46.2 L32.0,45.7 L33.3,45.2 L34.3,45.0 L34.8,45.0 L35.0,45.2 L34.9,45.8 L34.6,46.8 L34.1,48.4 L33.5,50.5 L32.9,53.0 L32.3,55.8 L31.8,58.5 L31.4,61.1 L31.2,63.3 L31.0,65.1 L31.0,66.2 L31.0,66.9 L31.1,67.2 L31.1,67.0 L31.2,66.4 L31.4,65.2 L31.8,63.4 L32.4,61.3 L33.3,59.2 L34.4,57.3 L35.6,55.7 L36.9,54.6 L38.1,54.0 L39.1,53.9 L39.8,54.4 L40.3,55.5 L40.5,57.1 L40.4,59.2 L40.1,61.4 L39.8,63.6 L39.4,65.7 L39.0,67.4 L38.8,68.7 L38.7,69.5 L38.8,69.9 L38.8,70.0 M28.6,52.1 L28.6,52.8 L28.4,54.1 L28.1,56.0 L27.7,58.4 L27.3,61.0 L26.9,63.7 L26.5,66.2 L26.3,68.4 L26.2,70.0 L26.3,71.1 L26.3,71.6 M28.4,50.9 " stroke="black" stroke-width="1.46" fill="none" stroke-linecap="round"/></svg>