<svg xmlns="http://www.w3.org/2000/svg" viewBox="0 0 1000 120"><rect width="1000" height="120" fill="white"/><path d="M0,0 M348.2,53.3 L348.1,53.2 L348.1,53.1 L348.2,53.3 L348.3,53.9 L348.5,54.8 L348.5,56.2 L348.3,57.9 L348.1,60.0 L347.8,62.1 L347.5,64.2 L347.3,66.2 L347.2,67.8 L347.2,69.0 L347.2,69.6 L347.3,69.9 L347.3,69.9 M339.9,50.8 L339.8,50.8 L339.9,50.8 L340.4,50.7 L341.4,50.5 L343.2,50.2 L345.4,49.9 L347.8,49.5 L350.3,49.1 L352.7,48.8 L354.9,48.6 L356.5,48.4 L357.4,48.3 M360.3,50.0 L360.4,50.3 L360.5,50.9 L360.6,51.9 L360.5,53.3 L360.3,55.0 L360.0,57.0 L359.6,59.1 L359.1,61.3 L358.6,63.4 L358.1,65.1 L357.8,66.5 L357.5,67.3 L357.5,67.7 L357.5,67.5 L357.7,66.9 L358.1,65.9 L358.6,64.5 L359.5,62.9 L360.5,61.4 L361.8,59.9 L363.2,58.7 L364.7,57.8 L366.1,57.3 L367.4,57.3 L368.5,57.8 L369.3,58.6 L369.8,59.9 L370.0,61.4 L369.8,63.0 L369.5,64.6 L369.2,66.1 L368.9,67.2 L368.7,67.9 L368.7,68.1 L368.8,68.1 L369.0,68.0 M372.7,65.8 L372.9,65.8 L373.5,65.6 L374.4,65.3 L375.5,64.7 L376.7,63.8 L377.9,62.9 L379.1,61.8 L380.0,60.6 L380.6,59.5 L380.9,58.5 L380.8,57.7 L380.3,57.1 L379.4,57.0 L378.2,57.2 L376.8,57.8 L375.3,58.9 L373.9,60.2 L372.8,61.8 L372.2,63.3 L372.2,64.8 L372.9,66.1 L374.1,67.1 L375.8,67.8 L378.0,68.2 L380.4,68.1 L382.7,67.7 L384.6,67.2 L385.7,66.8 M408.4,61.3 L408.3,61.0 L408.3,60.5 L408.1,59.8 L407.7,59.2 L407.2,58.6 L406.4,58.2 L405.3,57.9 L404.0,57.9 L402.5,58.1 L401.0,58.7 L399.6,59.7 L398.4,60.9 L397.4,62.3 L396.8,63.9 L396.7,65.4 L397.0,66.7 L397.7,67.7 L398.9,68.1 L400.4,68.1 L402.2,67.5 L404.0,66.5 L405.7,65.2 L407.2,63.8 L408.3,62.3 L408.9,61.1 L409.3,60.1 L409.4,59.5 L409.4,59.2 L409.3,59.2 L409.1,59.5 L408.9,60.3 L408.7,61.4 L408.4,63.0 L408.1,64.8 L407.8,66.7 L407.5,68.7 L407.4,70.7 L407.3,72.6 L407.2,74.4 L407.2,75.9 L407.3,77.0 L407.5,77.6 L407.7,77.9 L407.8,77.9 M414.7,58.6 L414.7,58.7 L414.7,58.9 L414.6,59.4 L414.6,60.2 L414.5,61.3 L414.4,62.7 L414.4,64.1 L414.4,65.4 L414.6,66.4 L414.9,67.1 L415.4,67.3 L416.0,67.1 L416.7,66.4 L417.6,65.2 L418.7,63.7 L419.8,62.1 L420.8,60.4 L421.8,58.8 L422.6,57.5 L423.1,56.7 L423.5,56.2 L423.6,56.2 L423.6,56.6 L423.4,57.6 L423.2,58.9 L422.8,60.6 L422.5,62.3 L422.2,63.9 L422.2,65.2 L422.3,66.2 L422.5,66.7 L422.7,67.0 M428.7,57.8 L428.7,57.9 L428.7,58.1 L428.6,58.7 L428.6,59.7 L428.4,61.0 L428.1,62.4 L427.8,64.0 L427.5,65.4 L427.4,66.5 L427.5,67.1 L427.7,67.4 L427.9,67.4 M430.0,50.9 L430.1,50.7 L430.1,50.5 L430.3,50.4 L430.5,50.3 L430.7,50.3 L430.8,50.4 L430.9,50.4 L430.9,50.5 M440.8,58.3 L440.6,58.0 L440.1,57.7 L439.4,57.3 L438.6,57.1 L437.5,57.1 L436.3,57.4 L435.1,58.1 L433.9,58.9 L432.8,60.1 L432.1,61.4 L431.8,62.8 L432.1,64.1 L433.0,65.2 L434.5,66.0 L436.1,66.4 L437.2,66.6 M446.7,48.1 L446.7,48.0 L446.8,47.9 L446.9,48.1 L446.9,48.7 L446.9,49.9 L446.6,51.4 L446.3,53.3 L445.8,55.5 L445.3,57.8 L444.8,60.1 L444.4,62.1 L444.0,63.9 L443.8,65.1 L443.8,65.7 L444.0,65.7 L444.5,65.2 L445.3,64.1 L446.4,62.9 L447.7,61.5 L449.0,60.1 L450.4,58.9 L451.6,57.9 L452.5,57.3 L453.1,56.9 L453.2,56.9 L452.9,57.1 L452.1,57.7 L450.9,58.6 L449.4,59.8 L447.7,61.2 L446.2,62.6 L445.0,64.0 L444.5,65.2 L444.7,66.2 L445.7,66.9 L447.5,67.1 L449.8,67.0 L452.5,66.6 L454.7,66.1 L456.1,65.8 M465.9,50.5 L465.9,50.5 L466.0,50.7 L466.0,51.2 L466.0,52.1 L465.9,53.5 L465.7,55.1 L465.4,57.0 L465.0,59.0 L464.6,60.9 L464.3,62.6 L464.0,63.9 L463.8,64.7 L463.7,65.1 L463.6,64.9 L463.7,64.2 L463.9,63.1 L464.5,61.8 L465.3,60.3 L466.4,58.8 L467.8,57.6 L469.3,56.6 L470.9,56.1 L472.4,56.0 L473.7,56.4 L474.7,57.1 L475.3,58.1 L475.4,59.3 L475.0,60.6 L474.1,61.9 L472.7,63.1 L471.1,64.1 L469.2,64.7 L467.5,65.0 L466.0,64.9 L464.9,64.6 L464.4,64.4 M478.6,57.5 L478.5,57.9 L478.3,58.6 L478.0,59.7 L477.7,61.0 L477.4,62.3 L477.2,63.5 L477.0,64.3 L476.9,64.8 L476.9,64.7 L476.9,64.2 L477.0,63.2 L477.2,61.8 L477.4,60.3 L477.8,58.7 L478.3,57.2 L478.9,55.9 L479.8,54.8 L480.9,53.9 L482.2,53.4 L483.7,53.2 L485.2,53.3 L486.8,53.6 L487.9,54.0 L488.6,54.4 M496.4,56.3 L496.2,56.1 L495.8,55.7 L495.2,55.4 L494.3,55.2 L493.2,55.4 L491.8,55.8 L490.4,56.6 L489.0,57.7 L487.9,59.0 L487.2,60.3 L486.9,61.6 L487.2,62.8 L487.9,63.6 L489.1,64.1 L490.6,64.2 L492.4,63.7 L494.1,62.9 L495.8,61.7 L497.1,60.3 L498.0,58.9 L498.4,57.5 L498.2,56.3 L497.8,55.4 L497.1,54.8 L496.4,54.5 L495.9,54.4 L495.6,54.6 L495.4,54.7 M503.0,55.5 L503.0,55.7 L503.0,56.1 L502.8,56.9 L502.5,57.9 L502.0,59.2 L501.6,60.6 L501.3,62.0 L501.2,63.3 L501.4,64.4 L501.9,65.0 L502.7,65.1 L503.8,64.7 L505.0,63.8 L506.2,62.5 L507.4,61.1 L508.3,59.7 L509.0,58.4 L509.4,57.5 L509.5,56.9 L509.5,56.7 L509.4,56.9 L509.3,57.5 L509.1,58.5 L509.0,59.9 L509.1,61.3 L509.4,62.6 L510.0,63.7 L510.9,64.4 L512.1,64.5 L513.4,64.2 L514.8,63.4 L516.2,62.3 L517.4,60.8 L518.3,59.2 L518.9,57.7 L519.0,56.3 L518.9,55.3 L518.7,54.6 L518.4,54.2 L518.3,54.1 M523.9,54.8 L524.0,54.9 L524.1,55.2 L524.2,55.8 L524.1,56.8 L523.9,58.0 L523.5,59.4 L523.1,60.9 L522.7,62.3 L522.4,63.5 L522.2,64.3 L522.2,64.6 L522.3,64.3 L522.6,63.6 L523.0,62.4 L523.6,60.9 L524.4,59.3 L525.3,57.8 L526.3,56.5 L527.5,55.4 L528.8,54.6 L530.2,54.2 L531.5,54.2 L532.6,54.7 L533.5,55.5 L534.2,56.5 L534.6,57.9 L534.8,59.4 L534.9,60.9 L534.9,62.4 L534.9,63.7 L534.9,64.6 L534.9,65.1 M558.3,49.0 L558.2,48.4 L558.0,47.5 L557.7,46.6 L557.2,45.8 L556.6,45.2 L555.9,45.0 L555.1,45.1 L554.2,45.6 L553.3,46.6 L552.5,48.0 L551.7,49.8 L551.1,51.9 L550.6,54.4 L550.3,57.0 L550.1,59.8 L550.0,62.5 L550.1,65.0 L550.3,67.3 L550.6,69.1 L550.9,70.3 L551.1,70.9 L551.3,70.9 L551.4,70.5 L551.5,70.1 M545.1,57.8 L545.2,57.7 L545.6,57.7 L546.5,57.6 L547.9,57.5 L549.8,57.5 L552.0,57.5 L553.8,57.5 L555.0,57.5 M565.0,56.7 L564.8,56.5 L564.5,56.2 L564.0,55.8 L563.2,55.6 L562.1,55.6 L560.8,55.9 L559.5,56.5 L558.2,57.5 L557.2,58.7 L556.5,60.1 L556.2,61.5 L556.4,62.8 L557.2,63.7 L558.5,64.3 L560.1,64.4 L561.9,64.0 L563.8,63.1 L565.4,61.9 L566.8,60.5 L567.8,59.0 L568.2,57.6 L568.2,56.3 L567.7,55.3 L567.0,54.6 L566.3,54.1 L565.6,53.9 L565.2,53.9 L564.9,54.0 M575.6,54.9 L575.5,55.2 L575.4,55.6 L575.1,56.5 L574.8,57.6 L574.3,58.9 L573.9,60.4 L573.4,61.8 L573.0,63.1 L572.8,64.1 L572.7,64.7 L572.8,65.0 L572.9,65.1 M574.2,57.1 L574.2,57.0 L574.2,57.0 L574.3,57.1 L574.4,57.4 L574.5,57.9 L574.6,58.5 L574.6,59.3 L574.8,60.0 L574.9,60.8 L575.2,61.6 L575.4,62.1 L575.5,62.5 M596.0,57.0 L596.0,57.0 L596.2,57.1 L596.4,57.2 L596.8,57.5 L597.3,58.1 L597.8,58.9 L598.2,60.2 L598.4,61.7 L598.3,63.6 L597.9,65.8 L597.2,68.1 L596.3,70.4 L595.0,72.7 L593.7,74.6 L592.2,76.2 L590.7,77.3 L589.3,77.9 L588.0,77.9 L587.0,77.6 L586.4,77.3 M598.9,49.6 L599.0,49.5 L599.1,49.5 L599.2,49.7 L599.3,49.9 M603.3,56.2 L603.2,56.2 L603.1,56.3 L602.9,56.6 L602.6,57.3 L602.4,58.4 L602.2,59.6 L602.2,60.9 L602.4,62.2 L602.9,63.2 L603.6,63.8 L604.6,64.0 L605.7,63.8 L607.0,63.2 L608.2,62.1 L609.5,60.8 L610.5,59.4 L611.3,58.1 L611.8,56.9 L612.1,56.1 L612.2,55.6 L612.2,55.6 L612.0,56.1 L611.8,57.0 L611.6,58.2 L611.4,59.7 L611.2,61.2 L611.3,62.5 L611.7,63.5 L612.3,64.0 L613.2,64.1 L614.0,63.9 L614.6,63.6 M618.4,56.4 L618.4,56.6 L618.6,57.0 L618.7,57.8 L618.7,58.9 L618.5,60.2 L618.3,61.6 L618.0,62.9 L617.8,64.0 L617.8,64.7 L617.9,65.1 L618.0,64.9 L618.4,64.2 L618.8,63.1 L619.4,61.8 L620.1,60.2 L621.0,58.6 L622.1,57.2 L623.2,56.1 L624.3,55.3 L625.3,54.9 L626.1,55.0 L626.8,55.5 L627.2,56.4 L627.4,57.7 L627.3,59.1 L627.1,60.6 L626.8,62.0 L626.4,63.1 L626.2,63.9 L626.1,64.1 L626.2,63.9 L626.5,63.2 L627.1,62.0 L627.9,60.6 L628.9,59.1 L630.1,57.7 L631.4,56.4 L632.6,55.5 L633.7,55.1 L634.7,55.0 L635.4,55.4 L635.8,56.2 L636.0,57.3 L636.0,58.7 L635.8,60.3 L635.6,61.8 L635.4,62.9 L635.3,63.6 M640.7,56.4 L640.8,56.6 L640.9,57.1 L640.8,58.0 L640.7,59.2 L640.4,60.9 L640.0,62.9 L639.5,65.1 L639.1,67.5 L638.6,69.8 L638.3,71.9 L638.0,73.6 L637.8,74.7 L637.7,75.3 L637.6,75.2 L637.6,74.6 L637.7,73.4 L637.8,71.8 L638.0,69.8 L638.3,67.7 L638.7,65.5 L639.2,63.5 L639.8,61.6 L640.6,59.9 L641.5,58.5 L642.7,57.4 L644.0,56.8 L645.5,56.6 L647.1,56.8 L648.5,57.4 L649.6,58.2 L650.4,59.2 L650.8,60.2 L650.7,61.3 L650.2,62.2 L649.1,63.0 L647.6,63.6 L645.9,64.0 L644.3,64.2 L642.9,64.3 L642.2,64.3 L642.1,64.2 L642.7,64.1 L643.5,63.9 L644.1,63.7 M660.2,56.9 L660.1,56.6 L659.8,56.1 L659.3,55.6 L658.5,55.3 L657.5,55.2 L656.5,55.3 L655.5,55.7 L654.8,56.3 L654.4,57.1 L654.5,58.1 L654.9,59.2 L655.7,60.4 L656.7,61.5 L657.7,62.6 L658.5,63.6 L659.0,64.4 L659.1,65.0 L658.6,65.4 L657.7,65.6 L656.3,65.6 L654.6,65.5 L652.9,65.2 L651.5,64.9 L650.6,64.7 " stroke="black" stroke-width="1.5" fill="none" stroke-linecap="round"/></svg>