<svg xmlns="http://www.w3.org/2000/svg" viewBox="0 0 1000 120"><rect width="1000" height="120" fill="white"/><path d="M0,0 M355.5,52.2 L355.6,52.1 L355.6,52.0 L355.5,52.3 L355.3,53.1 L355.0,54.6 L354.7,56.7 L354.4,59.2 L354.1,62.1 L353.8,64.9 L353.6,67.7 L353.5,70.0 L353.4,71.8 L353.4,72.9 L353.4,73.1 L353.5,72.8 L353.6,72.5 M356.5,48.2 L356.4,48.2 L356.2,48.3 L355.7,48.4 L354.9,48.7 L353.9,48.9 L352.7,49.3 L351.5,49.7 L350.4,50.0 L349.4,50.3 L348.6,50.6 L348.0,50.7 L347.7,50.8 L347.7,50.9 L347.9,50.9 L348.2,50.9 L348.5,50.9 M363.8,48.0 L363.8,48.6 L363.6,49.8 L363.4,51.6 L363.0,53.8 L362.5,56.4 L362.1,59.1 L361.6,61.9 L361.1,64.4 L360.8,66.6 L360.5,68.1 L360.4,69.0 L360.4,69.3 L360.5,69.0 L360.9,68.2 L361.5,66.8 L362.3,65.0 L363.2,62.9 L364.3,60.8 L365.5,59.0 L366.7,57.7 L367.9,56.9 L368.9,56.7 L369.7,57.1 L370.2,58.0 L370.6,59.4 L370.7,61.3 L370.8,63.3 L370.9,65.2 L371.0,66.9 L371.4,68.2 L371.9,69.0 L372.7,69.4 L373.7,69.3 L375.0,68.7 L376.4,67.6 L377.7,66.2 L379.0,64.5 L380.1,62.6 L380.8,60.8 L381.3,59.1 L381.4,57.7 L381.2,56.7 L380.7,56.2 L379.9,56.2 L378.9,56.8 L377.9,58.0 L377.1,59.5 L376.4,61.4 L376.2,63.4 L376.3,65.4 L376.8,67.2 L377.8,68.7 L379.1,69.6 L380.6,70.0 L382.0,70.0 L382.9,69.9 M404.1,57.5 L404.1,57.2 L403.9,56.7 L403.5,56.1 L402.7,55.6 L401.7,55.3 L400.4,55.3 L399.0,55.7 L397.6,56.5 L396.3,57.8 L395.2,59.4 L394.5,61.3 L394.2,63.3 L394.2,65.2 L394.6,66.8 L395.3,67.9 L396.3,68.5 L397.5,68.5 L398.9,67.9 L400.4,66.8 L401.8,65.3 L403.0,63.6 L404.1,61.8 L404.9,60.1 L405.5,58.7 L405.9,57.6 L406.1,56.9 L406.1,56.5 L406.0,56.6 L405.9,57.1 L405.6,58.0 L405.3,59.5 L405.0,61.4 L404.7,63.6 L404.4,66.1 L404.1,68.6 L403.9,71.3 L403.7,73.8 L403.6,76.1 L403.5,78.0 L403.5,79.2 L403.5,79.8 L403.7,79.7 L404.0,79.3 L404.2,78.9 M410.7,57.2 L410.7,57.2 L410.6,57.5 L410.4,58.1 L410.0,59.3 L409.5,61.0 L409.0,63.1 L408.7,65.2 L408.6,67.1 L408.6,68.5 L408.7,69.4 L409.1,69.7 L409.8,69.4 L410.8,68.6 L412.0,67.3 L413.3,65.6 L414.7,63.7 L415.9,61.6 L417.1,59.6 L418.0,57.9 L418.8,56.6 L419.3,55.8 L419.5,55.5 L419.4,55.7 L419.0,56.4 L418.5,57.8 L417.9,59.6 L417.3,61.8 L416.8,63.9 L416.6,65.7 L416.7,67.1 L417.1,68.1 L417.7,68.6 L418.5,68.6 L419.6,68.1 L420.8,67.1 L422.1,65.6 L423.3,64.0 L424.4,62.2 L425.3,60.6 L426.1,59.2 L426.6,58.0 L427.0,57.3 L427.1,56.9 L427.0,57.0 L426.8,57.5 L426.4,58.7 L425.9,60.3 L425.4,62.3 L424.9,64.3 L424.6,66.2 L424.5,67.7 L424.5,68.7 L424.6,69.1 L425.0,69.0 L425.3,68.6 L425.6,68.1 M428.8,49.6 L428.9,49.5 L429.0,49.5 L429.1,49.5 L429.1,49.6 M438.5,57.4 L438.5,57.0 L438.3,56.5 L437.9,56.0 L437.3,55.7 L436.4,55.7 L435.4,56.0 L434.2,56.8 L433.1,58.0 L432.2,59.6 L431.4,61.4 L431.0,63.2 L431.0,65.0 L431.4,66.5 L432.1,67.6 L433.2,68.3 L434.5,68.5 L436.0,68.0 L437.6,66.9 L439.0,65.8 L439.8,65.0 M445.2,50.2 L445.1,50.4 L445.0,50.9 L444.8,52.0 L444.5,53.7 L444.2,55.8 L443.8,58.2 L443.4,60.6 L442.9,62.9 L442.5,64.7 L442.1,66.2 L441.8,67.0 L441.7,67.4 M449.1,55.9 L449.2,55.9 L449.1,56.0 L448.7,56.4 L448.1,57.0 L447.1,57.8 L446.1,58.8 L445.2,59.6 L444.5,60.3 L444.1,60.8 L443.9,61.0 L444.0,61.1 L444.5,61.3 L445.1,61.6 L446.0,62.1 L447.0,62.7 L448.0,63.4 L449.0,64.2 L450.0,65.0 L450.9,65.8 L451.7,66.6 L452.3,67.2 L452.8,67.6 L453.1,67.9 L453.3,68.0 M476.6,49.0 L476.5,49.0 L476.3,49.1 L476.0,49.6 L475.5,50.6 L475.0,52.2 L474.5,54.4 L473.9,57.0 L473.4,59.9 L472.8,62.7 L472.3,65.3 L471.8,67.2 L471.4,68.6 L471.1,69.3 L470.9,69.3 L470.8,68.7 L470.8,67.4 L471.0,65.6 L471.4,63.5 L472.1,61.2 L473.1,59.1 L474.4,57.4 L475.8,56.3 L477.3,55.7 L478.8,55.7 L480.1,56.4 L481.3,57.5 L482.2,59.0 L482.6,60.7 L482.7,62.4 L482.2,63.9 L481.4,65.2 L480.2,66.2 L478.7,66.8 L477.2,67.1 L475.7,67.0 L474.4,66.8 L473.4,66.4 L472.9,65.9 L472.7,65.5 L472.7,65.2 M487.1,57.6 L487.1,57.8 L487.1,58.4 L487.0,59.5 L486.8,61.0 L486.5,62.9 L486.1,64.7 L485.8,66.4 L485.6,67.6 L485.4,68.2 L485.3,68.3 L485.3,67.9 L485.4,66.9 L485.6,65.5 L485.9,63.7 L486.4,62.0 L487.1,60.3 L487.9,59.0 L488.9,58.0 L490.0,57.3 L491.2,57.0 L492.5,56.9 L493.8,57.0 L495.2,57.1 L496.5,57.3 L497.7,57.4 L498.7,57.4 L499.4,57.2 L499.8,57.0 L499.8,56.7 L499.4,56.4 L498.8,56.3 L497.8,56.5 L496.7,57.1 L495.5,58.1 L494.4,59.5 L493.5,61.2 L493.1,63.0 L493.0,64.7 L493.4,66.1 L494.1,67.1 L495.1,67.6 L496.3,67.6 L497.5,67.1 L498.7,66.0 L499.8,64.6 L500.5,63.0 L500.9,61.3 L501.0,59.8 L501.0,58.5 L500.9,57.5 L500.8,56.9 L500.9,56.6 L501.1,56.5 L501.6,56.4 L502.3,56.3 L503.2,56.0 L504.3,55.6 L505.4,55.2 L506.4,54.7 L507.3,54.4 L507.9,54.1 L508.2,54.0 L508.3,54.3 L508.1,55.1 L507.6,56.3 L506.9,58.0 L506.1,60.0 L505.3,62.2 L504.6,64.3 L504.1,66.0 L503.8,67.3 L503.8,68.1 L504.0,68.3 L504.5,68.1 L505.3,67.4 L506.3,66.2 L507.6,64.6 L508.8,62.9 L510.1,61.3 L511.1,60.1 L511.9,59.2 L512.3,58.7 L512.6,58.8 L512.6,59.3 L512.5,60.5 L512.3,62.0 L512.2,63.8 L512.1,65.6 L512.3,67.0 L512.6,68.1 L513.2,68.6 L514.0,68.7 L514.8,68.3 L515.8,67.3 L516.7,65.9 L517.6,64.1 L518.2,62.2 L518.5,60.4 L518.6,58.7 L518.5,57.3 L518.3,56.3 L518.1,55.5 L518.0,55.1 L518.1,54.9 L518.2,54.9 L518.4,55.0 L518.8,55.1 L519.4,55.2 L520.2,55.1 L521.2,54.8 L522.2,54.5 L523.2,54.2 L524.1,54.0 L524.8,53.9 L525.4,53.9 L525.7,54.2 L525.8,54.8 L525.7,55.8 L525.4,57.3 L525.0,59.1 L524.4,61.2 L523.9,63.2 L523.4,64.9 L523.0,66.2 L522.7,67.0 L522.6,67.3 L522.5,67.2 L522.7,66.7 L523.0,65.6 L523.6,64.1 L524.3,62.3 L525.4,60.4 L526.6,58.7 L528.0,57.1 L529.4,56.0 L530.9,55.2 L532.2,54.9 L533.3,55.1 L534.1,55.7 L534.6,56.8 L534.8,58.3 L534.8,60.0 L534.5,61.8 L534.2,63.4 L533.9,64.9 L533.8,65.9 L533.8,66.5 L533.9,66.8 M551.1,57.6 L551.6,57.1 L552.5,56.1 L553.7,54.7 L554.8,53.1 L555.8,51.3 L556.6,49.6 L557.4,48.0 L557.9,46.7 L558.2,45.8 L558.2,45.2 L558.1,45.0 L557.6,45.3 L557.0,46.3 L556.3,48.1 L555.4,50.5 L554.4,53.6 L553.5,57.1 L552.5,60.8 L551.7,64.4 L550.9,67.7 L550.3,70.5 L549.8,72.8 L549.6,74.2 L549.4,74.9 M550.8,61.4 L550.9,61.1 L551.0,60.7 L551.4,60.3 L552.0,60.0 L552.9,59.7 L554.1,59.5 L555.6,59.4 L557.2,59.3 L558.9,59.1 L560.7,58.9 L562.3,58.6 L563.7,58.3 L564.7,57.8 L565.5,57.4 L565.8,56.9 L565.6,56.4 L565.1,56.0 L564.2,55.8 L563.0,56.0 L561.7,56.6 L560.4,57.7 L559.2,59.2 L558.3,61.0 L557.8,62.8 L557.7,64.5 L558.0,65.8 L558.7,66.6 L559.6,66.8 L560.8,66.5 L562.0,65.7 L563.3,64.5 L564.3,63.0 L565.0,61.3 L565.4,59.6 L565.6,58.1 L565.5,56.9 L565.4,56.1 L565.4,55.6 L565.6,55.3 L566.1,55.3 L566.9,55.2 L568.0,55.3 L569.3,55.2 L570.8,55.2 L572.1,55.1 L573.3,54.9 L574.3,54.7 L575.0,54.6 L575.5,54.5 L575.7,54.5 L575.7,54.6 L575.4,54.9 L574.7,55.5 L573.8,56.4 L572.6,57.7 L571.4,59.1 L570.0,60.6 L568.8,62.0 L567.6,63.2 L566.7,64.0 L565.9,64.4 L565.4,64.5 L565.2,64.5 M569.2,58.8 L569.8,59.0 L570.6,59.2 L571.7,59.7 L572.7,60.2 L573.8,60.7 L574.8,61.1 L575.7,61.4 L576.6,61.6 L577.3,61.6 L577.8,61.6 L578.2,61.5 L578.4,61.4 L578.5,61.3 L578.6,61.2 L578.6,61.2 M597.0,56.2 L597.1,56.2 L597.1,56.4 L597.1,56.8 L597.1,57.7 L597.1,59.1 L597.2,61.0 L597.1,63.4 L596.9,66.0 L596.6,68.6 L596.0,71.2 L595.3,73.3 L594.4,75.0 L593.5,76.2 L592.4,76.7 L591.5,76.6 L590.7,75.9 L590.2,74.7 L589.9,73.2 L590.1,71.4 L590.7,69.5 L591.6,67.7 L592.9,66.0 L594.5,64.4 L596.3,62.9 L598.2,61.6 L600.1,60.3 L601.7,59.2 L603.2,58.2 L604.3,57.4 L605.2,56.8 L605.8,56.3 L606.0,56.0 L606.0,56.0 L605.8,56.3 L605.3,56.9 L604.8,57.9 L604.2,59.3 L603.7,60.9 L603.3,62.6 L603.2,64.1 L603.2,65.3 L603.5,66.1 L603.9,66.4 L604.5,66.2 L605.4,65.6 L606.4,64.5 L607.5,63.1 L608.5,61.5 L609.5,59.9 L610.3,58.5 L610.8,57.4 L611.2,56.8 L611.4,56.4 L611.4,56.4 L611.3,56.7 L611.1,57.4 L610.7,58.5 L610.4,59.9 L610.2,61.5 L610.1,62.9 L610.2,64.1 L610.6,64.8 L611.2,65.2 L612.0,65.1 L612.9,64.6 L614.0,63.6 L615.1,62.3 L616.2,60.8 L617.2,59.3 L618.1,57.9 L618.7,56.8 L619.2,56.0 L619.4,55.6 L619.4,55.6 L619.3,56.0 L618.9,57.0 L618.4,58.4 L617.8,60.1 L617.2,61.8 L616.6,63.3 L616.2,64.4 L615.8,65.1 L615.6,65.3 L615.6,65.1 L615.9,64.4 L616.4,63.4 L617.2,61.9 L618.3,60.3 L619.5,58.6 L620.8,57.1 L622.0,56.0 L623.2,55.2 L624.2,54.7 L624.9,54.7 L625.3,55.0 L625.6,55.8 L625.6,57.0 L625.4,58.5 L625.1,60.2 L624.7,61.8 L624.3,63.2 L624.0,64.3 L623.8,65.0 L623.7,65.2 L623.8,65.1 L624.1,64.5 L624.6,63.4 L625.4,62.0 L626.3,60.4 L627.4,58.8 L628.6,57.4 L629.8,56.4 L630.8,55.6 L631.7,55.3 L632.3,55.2 L632.7,55.5 L632.8,56.2 L632.7,57.2 L632.4,58.4 L632.1,59.8 L631.8,61.2 L631.7,62.5 L631.8,63.6 L632.1,64.5 L632.6,65.0 L633.4,65.1 L634.3,64.8 L635.5,64.2 L636.7,63.1 L637.9,61.9 L639.0,60.5 L639.9,59.1 L640.6,57.8 L641.1,56.7 L641.4,55.9 L641.6,55.5 L641.6,55.6 L641.5,56.0 L641.2,57.0 L640.8,58.5 L640.3,60.5 L639.7,62.9 L639.1,65.6 L638.5,68.3 L637.9,71.0 L637.4,73.4 L637.0,75.3 L636.7,76.7 L636.4,77.4 L636.3,77.5 L636.3,77.0 L636.5,75.9 L636.9,74.2 L637.4,72.1 L638.0,69.6 L638.9,67.0 L639.9,64.4 L641.1,62.1 L642.5,60.0 L643.9,58.4 L645.3,57.3 L646.7,56.8 L648.0,56.9 L649.2,57.4 L649.9,58.4 L650.3,59.6 L650.2,60.9 L649.6,62.0 L648.5,62.9 L647.2,63.4 L645.6,63.6 L644.0,63.5 L642.6,63.1 L641.6,62.4 L640.9,61.8 L640.6,61.3 M651.9,55.4 L651.8,55.4 L651.6,55.4 L651.2,55.5 L650.8,55.7 L650.3,56.2 L649.8,56.9 L649.5,57.9 L649.4,58.9 L649.6,60.0 L650.0,61.1 L650.5,62.1 L651.2,63.1 L651.8,64.0 L652.2,64.8 L652.3,65.4 L652.1,65.8 L651.4,66.0 L650.4,65.9 L649.5,65.7 L648.8,65.6 " stroke="black" stroke-width="1.5" fill="none" stroke-linecap="round"/></svg>