<svg xmlns="http://www.w3.org/2000/svg" viewBox="0 0 1000 120"><rect width="1000" height="120" fill="white"/><path d="M0,0 M291.7,49.1 L291.8,49.2 L291.9,49.5 L292.0,50.1 L292.1,50.9 L292.0,52.1 L291.9,53.7 L291.7,55.6 L291.6,57.8 L291.4,60.1 L291.2,62.6 L291.1,65.0 L291.1,67.3 L291.2,69.3 L291.3,71.0 L291.3,72.4 L291.4,73.3 L291.5,73.7 L291.5,73.6 L291.5,73.2 L291.4,72.9 M282.0,46.8 L282.2,46.8 L282.6,46.7 L283.4,46.7 L284.7,46.6 L286.4,46.5 L288.4,46.3 L290.6,46.1 L292.9,45.9 L295.3,45.8 L297.5,45.7 L299.6,45.6 L301.5,45.5 L302.9,45.4 L304.0,45.4 L304.7,45.3 L305.0,45.3 M305.7,48.6 L305.7,48.7 L305.7,48.7 L305.8,48.9 L305.8,49.2 L305.8,49.8 L305.8,50.6 L305.7,51.7 L305.6,53.1 L305.6,54.6 L305.6,56.3 L305.5,58.1 L305.5,60.1 L305.4,62.0 L305.3,64.0 L305.2,65.8 L305.2,67.5 L305.2,69.1 L305.2,70.3 L305.2,71.2 L305.1,71.7 L305.1,71.9 L305.1,71.8 L305.2,71.4 L305.3,70.7 L305.4,69.5 L305.7,68.1 L306.1,66.6 L306.6,64.9 L307.3,63.3 L308.0,61.8 L308.8,60.3 L309.7,59.0 L310.6,58.0 L311.6,57.2 L312.7,56.9 L313.7,56.9 L314.7,57.4 L315.6,58.3 L316.4,59.5 L317.1,61.0 L317.5,62.6 L317.9,64.4 L318.1,66.1 L318.2,67.7 L318.3,69.2 L318.4,70.4 L318.5,71.2 L318.6,71.8 L318.7,72.0 L318.9,71.9 L319.2,71.5 L319.7,70.8 L320.3,69.8 L321.0,68.7 L321.8,67.7 L322.7,66.7 L323.6,65.8 L324.6,64.9 L325.6,64.1 L326.6,63.3 L327.5,62.6 L328.3,61.9 L329.0,61.2 L329.5,60.6 L329.7,59.9 L329.7,59.2 L329.5,58.6 L329.1,58.1 L328.4,57.7 L327.7,57.5 L326.8,57.6 L325.9,57.9 L325.0,58.4 L324.1,59.3 L323.4,60.4 L322.9,61.7 L322.5,63.1 L322.4,64.6 L322.5,66.1 L322.9,67.6 L323.6,68.8 L324.6,69.9 L326.0,70.6 L327.6,71.1 L329.4,71.3 L331.4,71.2 L333.4,70.9 L335.4,70.4 L337.2,70.0 L338.6,69.5 L339.6,69.1 L340.2,68.9 L340.5,68.7 L340.5,68.6 L340.5,68.5 L340.5,68.5 M364.7,61.0 L364.6,60.6 L364.2,60.0 L363.7,59.2 L363.0,58.5 L362.2,58.0 L361.1,57.6 L359.9,57.5 L358.6,57.7 L357.2,58.3 L355.9,59.2 L354.8,60.4 L354.0,61.9 L353.4,63.5 L353.2,65.2 L353.4,66.9 L353.9,68.4 L354.7,69.6 L355.9,70.5 L357.2,71.0 L358.6,71.1 L360.2,70.7 L361.7,69.8 L363.1,68.7 L364.4,67.3 L365.4,65.7 L366.2,64.1 L366.8,62.6 L367.0,61.2 L367.1,60.1 L367.1,59.3 L367.0,58.8 L366.9,58.6 L366.8,58.7 L366.7,59.1 L366.5,60.0 L366.4,61.2 L366.2,62.8 L366.1,64.7 L366.0,66.8 L365.9,69.2 L365.8,71.6 L365.8,74.2 L365.8,76.8 L365.8,79.2 L365.9,81.5 L366.1,83.4 L366.3,84.9 L366.6,85.8 L366.9,86.2 L367.4,85.9 L367.9,85.1 L368.4,83.8 L369.0,81.9 L369.7,79.6 L370.4,77.1 L371.1,74.4 L371.8,71.7 L372.4,69.2 L373.0,66.8 L373.5,64.8 L374.0,63.2 L374.4,62.1 L374.7,61.3 L374.8,60.9 L374.9,60.9 L374.9,61.3 L374.9,62.1 L374.8,63.4 L374.8,64.9 L374.8,66.7 L375.0,68.3 L375.2,69.9 L375.6,71.1 L376.1,72.0 L376.7,72.5 L377.4,72.5 L378.3,72.1 L379.3,71.3 L380.2,70.1 L381.2,68.5 L382.2,66.8 L383.1,65.0 L383.8,63.2 L384.5,61.7 L385.0,60.4 L385.4,59.6 L385.5,59.1 L385.5,58.9 L385.5,59.0 L385.4,59.5 L385.3,60.4 L385.2,61.7 L385.2,63.2 L385.2,64.7 L385.4,66.2 L385.7,67.5 L386.1,68.5 L386.7,69.3 L387.4,69.9 L388.2,70.1 L389.1,70.1 L390.0,69.7 L391.0,69.1 L392.0,68.3 L392.9,67.3 L393.8,66.1 L394.7,64.9 L395.5,63.6 L396.2,62.4 L396.7,61.3 L397.2,60.4 L397.5,59.7 L397.7,59.4 L397.8,59.3 L397.8,59.6 L397.7,60.2 L397.6,61.2 L397.5,62.4 L397.4,63.9 L397.4,65.4 L397.4,66.7 L397.5,67.9 L397.7,68.9 L398.0,69.5 L398.2,69.8 L398.4,69.6 L398.6,69.2 L398.8,68.9 M397.1,50.9 L397.0,50.8 L396.8,50.6 L396.6,50.4 L396.6,50.3 L396.6,50.3 L396.7,50.4 L396.9,50.6 L397.0,50.7 M409.9,58.8 L409.7,58.7 L409.3,58.5 L408.7,58.5 L407.9,58.6 L406.9,59.0 L405.9,59.6 L404.9,60.5 L404.1,61.6 L403.4,62.8 L403.1,64.0 L403.0,65.2 L403.4,66.4 L404.1,67.4 L405.2,68.3 L406.6,68.8 L408.1,69.0 L409.8,68.9 L411.5,68.5 L413.3,67.9 L415.0,67.0 L416.6,65.9 L418.0,64.6 L419.2,63.0 L420.2,61.2 L421.0,59.2 L421.7,57.0 L422.2,54.8 L422.5,52.7 L422.7,50.7 L422.8,48.9 L422.8,47.5 L422.6,46.5 L422.4,45.8 L422.2,45.5 L422.0,45.5 L421.8,46.0 L421.5,46.7 L421.3,47.9 L421.0,49.3 L420.8,51.0 L420.6,52.9 L420.5,54.9 L420.4,57.0 L420.3,59.1 L420.3,61.1 L420.2,62.8 L420.2,64.3 L420.2,65.4 L420.3,66.1 L420.4,66.4 L420.6,66.3 L421.0,65.8 L421.5,64.9 L422.3,63.8 L423.3,62.4 L424.3,61.1 L425.5,59.7 L426.6,58.5 L427.7,57.5 L428.7,56.7 L429.5,56.1 L430.0,55.8 L430.3,55.7 L430.4,55.7 L430.2,55.8 L429.8,56.0 L429.2,56.3 L428.4,56.7 L427.3,57.1 L426.2,57.5 L424.9,57.9 L423.6,58.4 L422.4,58.9 L421.3,59.5 L420.4,60.2 L419.8,61.0 L419.4,61.9 L419.3,62.9 L419.5,63.9 L420.1,64.9 L420.9,65.8 L422.0,66.7 L423.3,67.4 L424.8,67.9 L426.3,68.3 L427.9,68.5 L429.5,68.5 L430.9,68.5 L432.0,68.4 L432.9,68.2 L433.5,68.0 L433.7,67.9 M451.2,45.0 L451.2,45.1 L451.2,45.4 L451.2,46.1 L451.1,47.1 L450.9,48.7 L450.8,50.6 L450.6,52.9 L450.4,55.4 L450.3,58.0 L450.3,60.6 L450.3,63.0 L450.3,65.0 L450.4,66.5 L450.6,67.4 L450.6,67.8 L450.7,67.8 L450.8,67.4 L451.0,66.6 L451.3,65.3 L451.8,63.7 L452.4,62.0 L453.2,60.3 L454.2,58.7 L455.4,57.3 L456.8,56.3 L458.2,55.7 L459.6,55.5 L460.9,55.8 L462.1,56.6 L463.1,57.7 L463.9,59.2 L464.3,60.8 L464.4,62.5 L464.2,64.1 L463.6,65.5 L462.7,66.6 L461.5,67.5 L460.0,68.1 L458.4,68.3 L456.6,68.4 L454.8,68.2 L453.1,67.8 L451.6,67.4 L450.4,66.8 L449.4,66.2 L448.9,65.6 L448.8,64.9 L449.1,64.3 L450.0,63.7 L451.2,63.2 L452.5,62.8 L453.4,62.6 M467.6,59.7 L467.6,59.7 L467.6,59.8 L467.6,60.2 L467.6,60.9 L467.6,61.9 L467.6,63.2 L467.6,64.7 L467.5,66.1 L467.5,67.4 L467.5,68.5 L467.5,69.2 L467.5,69.7 L467.6,69.7 L467.6,69.4 L467.6,68.8 L467.5,67.7 L467.6,66.4 L467.7,64.9 L468.1,63.3 L468.6,61.9 L469.3,60.6 L470.2,59.4 L471.3,58.5 L472.5,57.8 L473.9,57.5 L475.3,57.3 L476.7,57.4 L478.1,57.7 L479.4,58.0 L480.4,58.3 L481.0,58.5 L481.4,58.7 M487.4,59.6 L487.3,59.4 L487.0,59.1 L486.6,58.9 L486.1,58.7 L485.4,58.8 L484.5,59.2 L483.6,59.9 L482.5,61.0 L481.6,62.3 L480.9,63.7 L480.4,65.2 L480.3,66.6 L480.6,67.8 L481.3,68.8 L482.3,69.4 L483.7,69.6 L485.3,69.4 L486.9,68.8 L488.5,67.8 L489.9,66.5 L491.1,65.1 L491.9,63.6 L492.3,62.0 L492.3,60.6 L492.0,59.4 L491.4,58.4 L490.6,57.7 L489.7,57.2 L488.8,57.1 L488.0,57.1 L487.5,57.4 L487.2,57.7 L487.2,58.2 L487.5,58.5 L487.9,58.8 L488.2,58.9 M496.5,58.9 L496.5,59.0 L496.4,59.3 L496.4,59.9 L496.3,60.8 L496.3,62.1 L496.3,63.5 L496.3,65.1 L496.5,66.6 L496.8,67.9 L497.3,68.9 L498.0,69.5 L498.9,69.6 L499.9,69.2 L501.0,68.2 L502.1,66.8 L503.1,65.2 L503.9,63.6 L504.5,62.1 L504.9,61.0 L505.0,60.3 L505.0,59.9 L504.9,60.1 L504.6,60.7 L504.3,61.7 L504.1,63.1 L504.0,64.8 L504.2,66.4 L504.6,67.8 L505.3,68.8 L506.2,69.6 L507.3,69.9 L508.6,69.7 L509.9,69.1 L511.2,68.1 L512.4,66.8 L513.4,65.4 L514.1,63.9 L514.5,62.5 L514.7,61.3 L514.6,60.3 L514.5,59.6 L514.4,59.2 L514.3,59.0 L514.2,59.0 L514.3,59.1 L514.4,59.3 L514.7,59.6 L514.9,59.8 L515.0,59.9 M518.9,58.0 L519.0,58.2 L519.1,58.6 L519.3,59.3 L519.5,60.3 L519.6,61.5 L519.7,62.9 L519.6,64.4 L519.5,65.8 L519.3,67.1 L519.2,68.2 L519.1,69.0 L519.1,69.3 L519.0,69.3 L519.1,68.8 L519.2,68.0 L519.5,66.7 L520.0,65.2 L520.7,63.6 L521.5,61.9 L522.5,60.4 L523.5,59.1 L524.6,58.1 L525.7,57.5 L526.7,57.4 L527.6,57.6 L528.4,58.2 L529.0,59.2 L529.5,60.5 L529.8,62.0 L530.0,63.5 L530.1,65.0 L530.2,66.3 L530.3,67.5 L530.4,68.3 L530.6,68.9 L530.7,69.3 L530.8,69.4 L530.9,69.5 L530.9,69.4 L530.9,69.4 M560.9,54.4 L560.7,53.6 L560.4,52.5 L559.9,51.1 L559.2,49.9 L558.5,48.7 L557.7,47.8 L556.7,47.0 L555.6,46.6 L554.4,46.4 L553.3,46.7 L552.3,47.4 L551.4,48.6 L550.7,50.2 L550.1,52.2 L549.7,54.6 L549.4,57.3 L549.3,60.1 L549.4,62.9 L549.6,65.6 L549.9,68.1 L550.2,70.3 L550.6,72.1 L550.8,73.4 L550.9,74.2 L551.0,74.4 L550.9,74.1 L550.8,73.6 L550.7,73.2 M545.7,62.4 L545.9,62.4 L546.4,62.5 L547.3,62.5 L548.5,62.6 L550.2,62.6 L552.0,62.6 L554.0,62.5 L555.9,62.5 L557.8,62.4 L559.5,62.2 L560.7,62.1 L561.4,62.1 M567.1,60.3 L567.0,60.2 L566.7,60.0 L566.1,59.9 L565.4,60.0 L564.5,60.3 L563.5,60.9 L562.5,61.9 L561.4,63.2 L560.6,64.6 L560.1,66.2 L560.0,67.7 L560.4,69.0 L561.3,70.0 L562.6,70.6 L564.3,70.8 L566.1,70.6 L567.9,69.9 L569.6,68.8 L570.9,67.5 L571.8,66.0 L572.3,64.5 L572.2,63.0 L571.7,61.6 L570.8,60.5 L569.8,59.7 L568.7,59.1 L567.8,58.8 L567.1,58.7 L566.7,58.8 L566.8,59.0 L567.0,59.2 L567.2,59.4 M581.0,58.9 L580.9,59.2 L580.7,59.8 L580.3,60.7 L579.9,61.8 L579.3,63.1 L578.8,64.6 L578.2,66.2 L577.6,67.9 L577.1,69.4 L576.7,70.7 L576.5,71.6 L576.3,72.1 M576.5,61.9 L576.6,62.1 L576.9,62.5 L577.3,63.0 L578.1,63.7 L579.1,64.5 L580.4,65.3 L581.8,66.1 L583.3,66.7 L584.8,67.1 L586.2,67.3 L587.3,67.3 L588.0,67.3 M604.3,59.7 L604.3,59.7 L604.3,59.9 L604.4,60.2 L604.6,60.9 L604.8,62.0 L605.0,63.5 L605.3,65.4 L605.5,67.5 L605.7,69.9 L605.8,72.5 L605.8,75.1 L605.7,77.6 L605.3,79.9 L604.8,81.8 L604.1,83.3 L603.2,84.3 L602.2,84.9 L601.1,84.9 L600.1,84.5 L599.1,83.7 L598.3,82.6 L597.8,81.0 L597.6,79.3 L597.8,77.4 L598.3,75.3 L599.2,73.1 L600.0,71.3 L600.6,70.2 M605.0,48.4 L605.0,48.3 L605.0,48.3 L605.0,48.3 L605.1,48.3 L605.1,48.3 L605.2,48.3 L605.2,48.3 L605.2,48.3 M609.5,58.6 L609.3,59.1 L609.0,60.0 L608.7,61.2 L608.6,62.5 L608.7,64.0 L608.9,65.4 L609.3,66.8 L610.0,67.9 L610.9,68.6 L611.9,69.0 L613.2,68.9 L614.5,68.3 L615.8,67.4 L617.1,66.1 L618.2,64.6 L619.3,63.0 L620.1,61.5 L620.7,60.1 L621.1,59.0 L621.3,58.4 L621.3,58.1 L621.3,58.2 L621.2,58.7 L621.1,59.5 L620.9,60.8 L620.8,62.3 L620.7,63.9 L620.8,65.4 L621.0,66.7 L621.4,67.7 L621.9,68.4 L622.7,68.6 L623.5,68.5 L624.5,68.0 L625.3,67.5 L625.8,67.0 M627.4,58.0 L627.5,58.1 L627.5,58.3 L627.7,58.7 L627.8,59.5 L627.8,60.5 L627.8,61.8 L627.7,63.2 L627.6,64.6 L627.5,65.9 L627.4,67.0 L627.4,67.8 L627.4,68.2 L627.4,68.1 L627.5,67.7 L627.7,66.9 L627.9,65.7 L628.3,64.3 L628.9,62.8 L629.6,61.3 L630.5,60.0 L631.4,58.8 L632.4,57.9 L633.3,57.2 L634.2,56.9 L634.9,56.9 L635.5,57.2 L636.0,57.8 L636.3,58.7 L636.5,59.8 L636.5,61.1 L636.5,62.5 L636.4,63.7 L636.4,64.8 L636.3,65.6 L636.3,66.1 L636.3,66.2 L636.4,65.9 L636.7,65.1 L637.2,64.1 L637.9,62.8 L638.8,61.4 L640.0,60.0 L641.2,58.7 L642.6,57.6 L643.9,56.9 L645.1,56.5 L646.1,56.5 L646.9,56.9 L647.5,57.6 L647.8,58.6 L647.9,59.7 L647.7,61.0 L647.4,62.3 L647.0,63.5 L646.7,64.6 L646.5,65.4 L646.4,65.9 L646.5,65.9 L646.7,65.8 L646.8,65.6 M652.1,58.3 L652.1,58.5 L652.2,59.0 L652.3,59.8 L652.3,61.0 L652.2,62.5 L652.0,64.4 L651.8,66.6 L651.5,68.9 L651.3,71.5 L651.1,73.9 L650.9,76.2 L650.8,78.0 L650.6,79.3 L650.5,80.1 L650.5,80.3 L650.4,80.1 L650.5,79.4 L650.6,78.3 L650.7,76.7 L651.0,74.7 L651.3,72.6 L651.6,70.3 L652.0,68.0 L652.4,65.8 L653.0,63.7 L653.6,61.8 L654.4,60.2 L655.3,58.9 L656.4,58.1 L657.6,57.6 L658.8,57.4 L660.0,57.6 L661.2,58.1 L662.2,58.9 L663.1,59.8 L663.8,61.0 L664.1,62.1 L664.1,63.2 L663.7,64.1 L663.0,64.9 L662.0,65.5 L660.8,65.9 L659.5,66.1 L658.2,66.1 L656.9,66.1 L655.9,65.9 L655.2,65.7 L654.9,65.5 L655.1,65.3 L655.7,65.0 L656.4,64.7 L657.0,64.5 M674.1,58.2 L673.8,57.9 L673.2,57.5 L672.4,57.2 L671.4,57.2 L670.3,57.4 L669.3,57.9 L668.6,58.5 L668.3,59.2 L668.5,60.0 L669.2,60.8 L670.5,61.7 L672.2,62.5 L674.1,63.4 L675.9,64.3 L677.5,65.1 L678.7,65.8 L679.4,66.5 L679.5,67.1 L679.1,67.6 L678.1,68.0 L676.8,68.2 L675.0,68.3 L673.1,68.3 L671.1,68.3 L669.2,68.1 L667.7,67.9 L666.6,67.8 L665.9,67.6 L665.7,67.5 M683.1,52.8 L683.2,52.7 L683.4,52.6 L683.6,52.7 L683.7,52.9 L683.8,53.5 L683.8,54.3 L683.9,55.3 L684.0,56.6 L684.0,58.0 L684.2,59.5 L684.3,61.0 L684.5,62.5 L684.7,63.9 L685.0,65.0 L685.2,65.9 L685.5,66.5 L685.9,66.7 L686.3,66.5 L686.9,65.9 L687.6,65.0 L688.4,63.8 L689.2,62.5 L690.1,61.2 L691.0,60.0 L691.9,59.0 L692.6,58.1 L693.3,57.5 L693.8,57.1 L694.1,56.8 L694.3,56.8 L694.4,56.9 L694.4,57.1 L694.4,57.5 L694.2,58.0 L694.0,58.6 L693.6,59.3 L693.3,60.1 L692.9,61.0 L692.5,62.0 L692.3,63.0 L692.1,64.1 L692.1,65.1 L692.3,66.0 L692.8,66.7 L693.5,67.1 L694.5,67.3 L695.7,67.2 L697.1,66.7 L698.6,66.0 L700.1,65.1 L701.5,64.1 L702.7,62.9 L703.7,61.6 L704.4,60.3 L704.9,59.0 L705.2,57.7 L705.2,56.6 L705.1,55.6 L704.8,54.8 L704.5,54.2 L704.1,53.7 L703.8,53.4 L703.5,53.3 L703.4,53.4 L703.3,53.5 L703.3,53.6 L703.3,53.7 L703.3,53.8 L703.3,53.8 L703.3,53.8 L703.3,53.8 L703.3,53.8 L703.3,53.8 L703.3,53.7 L703.3,53.7 L703.3,53.6 L703.3,53.5 L703.2,53.5 L703.2,53.4 L703.2,53.4 M718.0,63.6 L717.8,63.2 L717.4,62.6 L716.8,61.7 L715.9,60.8 L714.8,59.8 L713.5,59.0 L712.1,58.4 L710.6,58.2 L709.3,58.3 L708.2,58.8 L707.3,59.6 L706.8,60.6 L706.8,61.7 L707.4,62.7 L708.7,63.4 L710.9,63.5 L713.1,63.3 L714.8,62.9 " stroke="black" stroke-width="1.5" fill="none" stroke-linecap="round"/></svg>