<svg xmlns="http://www.w3.org/2000/svg" viewBox="0 0 1000 120"><path d="M390.6,51.1 L390.5,50.9 L390.2,50.7 L389.6,50.6 L388.9,50.7 L387.9,50.9 L386.9,51.4 L385.9,52.1 L385.3,52.9 L385.2,53.7 L385.7,54.5 L386.7,55.3 L388.1,56.0 L389.8,56.6 L391.4,57.2 L392.8,57.7 L393.9,58.2 L394.6,58.5 L394.7,58.8 L394.3,59.0 L393.2,59.1 L391.7,59.1 L389.7,59.1 L387.4,59.0 L385.0,58.8 L382.8,58.5 L380.9,58.2 L379.6,57.8 L378.9,57.6 M369.4,52.7 L369.4,53.0 L369.3,53.5 L369.3,54.3 L369.1,55.5 L368.9,57.1 L368.6,59.1 L368.3,61.4 L367.8,63.8 L367.3,66.3 L366.9,68.6 L366.5,70.6 L366.2,72.1 L366.1,73.0 L366.0,73.3 L366.0,73.0 L366.0,72.0 L366.2,70.5 L366.4,68.6 L366.9,66.4 L367.4,64.1 L368.0,61.8 L368.8,59.5 L369.7,57.5 L370.8,55.6 L372.0,54.1 L373.3,52.8 L374.7,52.0 L376.1,51.6 L377.5,51.7 L378.8,52.2 L379.8,53.1 L380.5,54.2 L380.7,55.4 L380.6,56.5 L380.0,57.5 L379.1,58.4 L377.9,59.0 L376.4,59.4 L374.8,59.6 L373.3,59.6 L371.9,59.3 L370.9,58.9 L370.2,58.6 L369.9,58.3 M330.0,51.9 L329.8,52.6 L329.6,53.9 L329.4,55.4 L329.3,57.1 L329.4,58.6 L329.6,59.9 L330.0,60.8 L330.6,61.3 L331.4,61.4 L332.4,61.0 L333.6,60.2 L334.8,59.0 L336.0,57.5 L337.1,56.0 L338.0,54.6 L338.8,53.4 L339.3,52.5 L339.5,52.0 L339.7,51.8 L339.6,52.1 L339.5,52.8 L339.2,53.9 L339.0,55.4 L338.8,57.0 L338.7,58.6 L338.8,59.9 L339.2,61.0 L339.8,61.6 L340.6,61.7 L341.6,61.4 L342.7,60.6 L343.9,59.5 L345.0,58.1 L345.9,56.7 L346.7,55.3 L347.2,54.1 L347.5,53.2 L347.7,52.7 L347.7,52.5 L347.7,52.7 L347.6,53.3 L347.4,54.3 L347.2,55.6 L347.0,57.1 L346.9,58.6 L347.0,59.9 L347.1,61.0 L347.3,61.6 L347.5,61.9 L347.6,61.7 L347.9,61.0 L348.2,59.9 L348.7,58.5 L349.3,57.0 L350.0,55.5 L350.8,54.2 L351.6,53.1 L352.3,52.2 L353.1,51.8 L353.7,51.7 L354.3,52.1 L354.7,52.9 L354.9,54.1 L354.9,55.5 L354.9,56.9 L354.8,58.3 L354.7,59.4 L354.6,60.2 L354.6,60.5 L354.7,60.5 L355.0,59.9 L355.4,58.9 L356.1,57.6 L356.9,56.1 L357.8,54.6 L358.9,53.3 L359.9,52.2 L360.9,51.4 L361.8,51.0 L362.6,51.0 L363.3,51.4 L363.7,52.2 L363.9,53.4 L363.9,54.8 L363.8,56.3 L363.7,57.8 L363.6,59.1 L363.8,60.0 L364.1,60.6 L364.6,60.6 L365.2,60.3 L365.5,60.0 M325.3,44.7 L325.2,44.7 L325.2,44.7 L325.2,44.9 L325.2,45.1 L325.3,45.2 L325.3,45.3 M323.2,53.8 L323.2,54.1 L323.1,54.7 L322.9,55.6 L322.6,56.8 L322.2,58.4 L321.7,60.1 L321.2,62.0 L320.7,63.9 L320.2,65.9 L319.7,67.7 L319.3,69.2 L319.0,70.3 L318.6,70.9 L318.3,71.0 L318.0,70.8 L317.9,70.6 M306.8,58.5 L306.7,58.5 L306.5,58.5 L306.4,58.5 L306.3,58.5 L306.3,58.4 L306.3,58.3 L306.3,58.0 L306.3,57.6 L306.3,57.1 L306.4,56.4 L306.5,55.7 L306.6,55.3 M305.3,54.8 L305.4,55.1 L305.6,55.7 L305.9,56.6 L306.1,57.7 L306.4,59.0 L306.8,60.3 L307.3,61.6 L307.9,62.8 L308.7,63.7 L309.6,64.2 L310.3,64.4 L310.8,64.4 M295.7,56.5 L295.4,56.3 L294.8,56.1 L293.9,56.0 L292.7,56.3 L291.4,56.9 L290.0,57.9 L288.8,59.1 L287.9,60.4 L287.5,61.8 L287.7,63.0 L288.6,63.9 L290.0,64.4 L291.8,64.5 L293.8,64.2 L295.9,63.5 L297.7,62.4 L299.1,61.1 L300.0,59.7 L300.1,58.4 L299.7,57.1 L298.8,56.0 L297.8,55.2 L296.9,54.7 L296.3,54.5 M274.1,58.2 L274.4,58.2 L275.2,58.2 L276.5,58.2 L278.2,58.3 L280.2,58.4 L282.5,58.5 L284.3,58.5 L285.5,58.5 M288.3,49.4 L288.1,48.8 L287.7,47.9 L287.1,47.0 L286.4,46.2 L285.6,45.8 L284.7,45.8 L283.7,46.1 L282.5,46.8 L281.4,48.0 L280.4,49.6 L279.5,51.5 L278.7,53.8 L278.2,56.2 L277.8,58.6 L277.5,61.0 L277.4,63.3 L277.5,65.2 L277.7,66.7 L277.9,67.7 L278.0,68.3 L278.1,68.3 L278.0,67.8 L277.9,67.1 L277.8,66.6 M248.2,55.5 L248.3,55.8 L248.5,56.3 L248.7,57.1 L248.7,58.3 L248.5,59.6 L248.3,61.1 L247.9,62.5 L247.7,63.7 L247.5,64.6 L247.5,65.1 L247.6,65.0 L248.0,64.5 L248.5,63.5 L249.4,62.1 L250.4,60.6 L251.7,59.0 L253.1,57.5 L254.7,56.4 L256.2,55.6 L257.7,55.2 L259.0,55.3 L260.1,55.9 L260.9,56.9 L261.4,58.3 L261.6,59.9 L261.5,61.5 L261.4,63.0 L261.3,64.2 L261.4,65.1 L261.8,65.6 L262.2,65.8 L262.6,65.7 M228.6,56.2 L228.6,56.3 L228.5,56.7 L228.3,57.4 L228.1,58.5 L227.9,59.9 L227.8,61.4 L227.7,62.9 L227.8,64.3 L228.0,65.3 L228.3,65.9 L228.8,66.0 L229.5,65.6 L230.3,64.6 L231.2,63.1 L232.2,61.4 L233.1,59.7 L233.9,58.2 L234.5,57.0 L234.9,56.3 L235.1,55.9 L235.2,56.0 L235.1,56.6 L234.9,57.6 L234.7,58.9 L234.6,60.4 L234.7,61.9 L235.0,63.2 L235.6,64.2 L236.5,64.8 L237.5,64.9 L238.7,64.5 L240.0,63.7 L241.2,62.6 L242.3,61.2 L243.1,59.7 L243.6,58.3 L243.9,57.1 L244.0,56.0 L244.1,55.3 L244.1,54.9 M219.0,57.3 L218.7,57.1 L218.2,57.0 L217.3,57.0 L216.3,57.3 L215.2,58.0 L214.0,59.0 L213.0,60.4 L212.2,61.9 L211.9,63.5 L212.0,65.0 L212.6,66.1 L213.8,66.7 L215.4,66.9 L217.1,66.6 L219.0,65.8 L220.7,64.6 L222.1,63.1 L223.0,61.5 L223.4,59.9 L223.3,58.4 L222.8,57.3 L222.2,56.5 L221.6,56.0 L221.2,55.8 M199.8,57.9 L199.8,58.2 L199.7,58.8 L199.6,59.7 L199.5,60.8 L199.4,62.0 L199.2,63.3 L199.0,64.4 L198.8,65.4 L198.7,66.1 L198.6,66.5 L198.6,66.5 L198.5,66.1 L198.5,65.3 L198.6,64.1 L198.8,62.6 L199.2,61.1 L199.7,59.7 L200.5,58.4 L201.4,57.2 L202.5,56.3 L203.8,55.7 L205.3,55.4 L206.7,55.3 L208.3,55.4 L209.7,55.8 L211.1,56.2 L212.1,56.6 L212.7,56.8 M183.1,46.1 L183.1,46.2 L183.2,46.5 L183.2,47.2 L183.3,48.4 L183.2,49.9 L183.1,51.9 L183.0,54.1 L182.7,56.3 L182.5,58.6 L182.2,60.6 L182.0,62.3 L181.8,63.7 L181.7,64.5 L181.6,64.9 L181.6,64.9 L181.7,64.6 L182.1,63.8 L182.6,62.7 L183.4,61.4 L184.5,60.0 L185.9,58.6 L187.6,57.5 L189.3,56.7 L191.1,56.4 L192.9,56.4 L194.4,56.9 L195.5,57.7 L196.3,58.9 L196.5,60.2 L196.3,61.5 L195.6,62.9 L194.4,64.0 L192.9,64.9 L191.2,65.4 L189.3,65.5 L187.5,65.3 L185.9,64.7 L184.6,64.0 L183.8,63.3 L183.5,62.8 M150.3,60.5 L150.6,61.0 L151.1,62.0 L151.9,63.2 L153.0,64.4 L154.2,65.6 L155.5,66.6 L156.6,67.4 L157.2,67.9 M146.9,47.6 L147.0,47.7 L147.2,48.2 L147.3,49.0 L147.4,50.2 L147.3,51.8 L147.1,53.8 L146.9,55.8 L146.7,58.0 L146.4,60.1 L146.3,62.0 L146.4,63.6 L146.5,64.8 L146.7,65.6 L147.1,65.9 L147.6,65.7 L148.4,65.0 L149.5,63.9 L150.8,62.5 L152.3,61.0 L153.8,59.5 L155.3,58.2 L156.7,57.0 L158.0,56.1 L159.0,55.5 L159.5,55.3 L159.5,55.4 L159.1,55.7 L158.8,56.0 M139.5,57.1 L138.9,57.1 L138.0,57.0 L136.7,57.2 L135.4,57.7 L133.9,58.4 L132.6,59.5 L131.4,60.8 L130.7,62.1 L130.5,63.5 L130.8,64.7 L131.8,65.7 L133.2,66.4 L135.1,66.7 L137.3,66.6 L139.2,66.2 L140.4,66.0 M125.8,51.6 L125.8,51.3 L125.9,50.9 L126.0,50.6 L126.1,50.4 L126.3,50.4 L126.6,50.6 L126.9,50.7 L127.1,50.9 M124.8,58.3 L124.9,58.3 L124.8,58.5 L124.8,59.0 L124.6,59.8 L124.4,61.0 L124.1,62.3 L123.9,63.6 L123.8,64.8 L123.8,65.8 L123.9,66.3 L124.1,66.6 L124.3,66.6 M108.3,58.4 L108.3,58.4 L108.3,58.5 L108.2,58.9 L108.2,59.6 L108.0,60.7 L107.8,62.1 L107.6,63.6 L107.6,65.1 L107.7,66.4 L108.2,67.3 L108.9,67.9 L109.8,67.9 L110.8,67.4 L112.0,66.5 L113.1,65.2 L114.2,63.6 L115.3,62.0 L116.2,60.4 L117.0,59.0 L117.6,57.8 L117.9,56.9 L118.1,56.4 L118.2,56.3 L118.2,56.5 L118.2,57.2 L118.1,58.1 L117.9,59.4 L117.8,60.8 L117.7,62.3 L117.7,63.6 L117.8,64.8 L118.0,65.7 L118.5,66.2 L119.0,66.3 L119.5,66.1 L119.8,65.9 M103.5,64.4 L103.4,64.1 L103.2,63.5 L102.9,62.8 L102.5,61.9 L101.9,61.0 L101.2,60.1 L100.2,59.2 L99.1,58.5 L97.9,57.9 L96.6,57.5 L95.3,57.4 L94.0,57.6 L92.9,58.1 L91.8,59.0 L91.0,60.2 L90.4,61.5 L90.1,63.0 L90.1,64.4 L90.5,65.6 L91.1,66.6 L92.1,67.2 L93.2,67.5 L94.5,67.3 L96.0,66.6 L97.4,65.7 L98.7,64.5 L99.9,63.2 L100.8,61.9 L101.4,60.7 L101.8,59.7 L102.0,59.0 L102.1,58.6 L102.1,58.5 L102.0,58.7 L101.9,59.4 L101.8,60.5 L101.6,62.1 L101.5,64.0 L101.3,66.2 L101.2,68.5 L101.1,70.8 L101.0,73.1 L101.1,75.2 L101.1,77.1 L101.3,78.5 L101.6,79.5 L101.8,80.0 L102.0,80.2 M57.8,63.3 L58.1,63.1 L58.8,62.7 L59.8,62.1 L60.9,61.2 L62.0,60.2 L63.0,58.9 L63.8,57.7 L64.3,56.6 L64.4,55.7 L64.2,55.0 L63.7,54.8 L62.8,54.9 L61.6,55.5 L60.2,56.5 L58.9,58.0 L57.9,59.7 L57.4,61.4 L57.4,63.1 L58.2,64.5 L59.5,65.7 L61.4,66.4 L63.7,66.7 L66.2,66.7 L68.7,66.3 L71.1,65.8 L72.8,65.2 L73.8,64.8 M40.2,55.6 L40.0,56.6 L39.6,58.2 L39.2,60.2 L38.8,62.1 L38.6,63.7 L38.5,64.8 L38.5,65.5 L38.6,65.7 L38.8,65.3 L39.2,64.4 L39.8,63.1 L40.6,61.4 L41.5,59.7 L42.6,58.1 L43.8,56.7 L45.1,55.6 L46.4,54.9 L47.6,54.6 L48.6,54.8 L49.6,55.4 L50.4,56.4 L51.1,57.8 L51.5,59.4 L51.8,61.2 L52.0,62.8 L52.2,64.2 L52.5,65.3 L52.9,66.1 L53.5,66.4 L54.1,66.4 L54.5,66.3 M20.2,48.0 L20.2,47.9 L20.5,47.8 L21.0,47.6 L22.0,47.5 L23.3,47.4 L24.9,47.3 L26.7,47.1 L28.5,46.9 L30.4,46.7 L32.3,46.5 L34.1,46.2 L35.8,45.9 L37.2,45.7 L38.5,45.4 L39.5,45.2 L40.4,45.0 L41.0,44.9 L41.4,44.9 L41.5,44.9 L41.5,45.0 M28.3,50.5 L28.3,50.5 L28.3,50.4 L28.4,50.3 L28.6,50.3 L28.8,50.6 L29.0,51.4 L29.1,52.5 L29.1,54.0 L29.1,55.8 L29.0,57.8 L29.0,59.8 L29.0,61.8 L29.1,63.6 L29.2,65.3 L29.3,66.6 L29.4,67.6 L29.4,68.1 L29.4,68.3 L29.4,68.1 L29.4,67.9 " stroke="black" stroke-width="1.52" fill="none" stroke-linecap="round"/></svg>