<svg xmlns="http://www.w3.org/2000/svg" viewBox="0 0 1000 120"><rect width="1000" height="120" fill="white"/><path d="M0,0 M361.4,48.1 L361.5,48.4 L361.6,49.0 L361.6,50.2 L361.6,51.9 L361.6,54.0 L361.4,56.5 L361.3,59.2 L361.3,61.8 L361.3,64.4 L361.4,66.6 L361.5,68.5 L361.7,69.8 L361.9,70.5 L362.0,70.5 L362.0,70.2 L362.0,69.8 M353.6,47.7 L353.7,47.7 L353.9,47.7 L354.5,47.7 L355.6,47.8 L357.0,47.8 L358.9,47.8 L360.8,47.8 L362.9,47.6 L364.9,47.4 L366.8,47.2 L368.1,47.0 L368.9,46.9 M370.3,45.9 L370.3,46.2 L370.4,46.9 L370.4,48.1 L370.4,49.8 L370.3,51.8 L370.2,54.1 L370.1,56.6 L370.0,59.2 L369.9,61.6 L369.9,63.7 L369.9,65.3 L370.0,66.3 L370.1,66.6 L370.3,66.3 L370.6,65.3 L371.0,63.8 L371.6,62.1 L372.3,60.2 L373.2,58.4 L374.2,56.9 L375.1,55.8 L376.1,55.3 L376.8,55.4 L377.4,56.1 L377.8,57.4 L378.0,59.1 L378.1,61.2 L378.0,63.3 L377.9,65.3 L377.8,66.8 L377.9,67.9 L377.9,68.4 M380.7,64.5 L381.0,64.5 L381.7,64.3 L382.6,64.0 L383.7,63.4 L384.8,62.5 L386.0,61.4 L387.0,60.2 L387.9,58.9 L388.4,57.6 L388.5,56.5 L388.1,55.7 L387.4,55.4 L386.3,55.6 L385.1,56.3 L384.0,57.6 L383.2,59.4 L382.7,61.3 L382.7,63.3 L383.2,65.2 L384.2,66.8 L385.9,67.9 L387.9,68.5 L389.7,68.7 L390.9,68.7 M411.1,59.0 L411.0,58.5 L410.9,57.8 L410.4,57.1 L409.7,56.5 L408.7,56.2 L407.4,56.3 L405.9,56.8 L404.6,57.8 L403.4,59.1 L402.6,60.7 L402.3,62.3 L402.5,63.8 L403.3,65.0 L404.4,65.7 L405.8,65.8 L407.3,65.4 L408.7,64.4 L409.9,63.0 L410.9,61.5 L411.6,59.9 L412.0,58.5 L412.2,57.4 L412.2,56.8 L412.1,56.7 L412.0,57.2 L411.9,58.3 L411.9,60.0 L411.8,62.2 L411.6,64.9 L411.6,67.9 L411.5,70.9 L411.7,73.9 L411.9,76.4 L412.3,78.3 L412.8,79.4 L413.1,80.0 M417.6,58.2 L417.5,58.2 L417.5,58.5 L417.4,59.1 L417.3,60.1 L417.2,61.5 L417.3,63.1 L417.5,64.6 L417.8,65.9 L418.3,66.8 L418.9,67.2 L419.6,67.1 L420.5,66.4 L421.4,65.2 L422.4,63.6 L423.3,61.8 L424.1,59.9 L424.7,58.2 L425.1,56.8 L425.4,55.8 L425.5,55.3 L425.5,55.2 L425.5,55.8 L425.5,56.8 L425.4,58.2 L425.5,59.9 L425.5,61.7 L425.7,63.3 L425.9,64.7 L426.2,65.6 L426.7,65.9 L427.0,66.0 L427.3,65.9 M430.6,57.6 L430.6,57.5 L430.6,57.5 L430.6,57.8 L430.5,58.6 L430.4,59.8 L430.3,61.4 L430.2,63.0 L430.3,64.4 L430.5,65.5 L430.8,66.0 L431.2,66.1 L431.5,66.0 M430.7,49.3 L430.5,49.1 L430.5,48.9 L430.5,48.8 L430.6,48.9 M442.5,57.3 L442.2,57.0 L441.7,56.6 L440.8,56.4 L439.6,56.4 L438.2,56.9 L436.8,57.9 L435.7,59.2 L434.9,60.6 L434.7,62.1 L435.1,63.5 L436.2,64.6 L437.9,65.2 L440.0,65.2 L442.3,64.7 L444.2,64.0 L445.4,63.4 M448.5,46.7 L448.5,46.8 L448.6,47.0 L448.6,47.5 L448.7,48.6 L448.8,50.2 L448.8,52.1 L448.7,54.3 L448.7,56.6 L448.6,58.9 L448.5,61.0 L448.4,62.7 L448.4,63.9 L448.4,64.4 L448.6,64.3 L448.9,63.9 L449.1,63.5 M453.8,57.3 L453.8,57.1 L453.5,56.9 L452.9,56.9 L451.9,57.3 L450.7,58.0 L449.3,59.0 L448.2,60.2 L447.4,61.3 L447.2,62.4 L447.6,63.3 L448.6,64.0 L450.1,64.4 L452.0,64.6 L454.0,64.6 L456.0,64.4 L457.9,64.0 L459.4,63.5 L460.4,63.1 L460.9,62.8 M471.8,46.8 L471.7,47.2 L471.6,47.9 L471.3,49.1 L471.0,50.7 L470.7,52.8 L470.4,55.1 L470.1,57.6 L469.9,60.0 L469.9,62.2 L470.0,63.9 L470.3,65.0 L470.8,65.5 L471.4,65.4 L472.2,64.7 L473.1,63.6 L474.0,62.2 L474.9,60.6 L475.7,59.0 L476.6,57.6 L477.4,56.5 L478.2,55.8 L479.0,55.7 L479.6,56.0 L480.2,56.8 L480.5,58.1 L480.6,59.6 L480.4,61.3 L479.8,62.8 L479.0,64.2 L477.9,65.1 L476.7,65.8 L475.4,65.9 L474.1,65.7 L473.1,65.3 L472.3,64.8 L471.9,64.4 M483.4,58.5 L483.5,58.6 L483.5,58.8 L483.5,59.2 L483.5,60.0 L483.4,61.0 L483.3,62.3 L483.2,63.5 L483.1,64.7 L483.1,65.5 L483.2,66.0 L483.2,66.0 L483.3,65.5 L483.4,64.5 L483.5,63.2 L483.8,61.6 L484.1,60.0 L484.6,58.4 L485.3,57.1 L486.2,55.9 L487.2,55.1 L488.4,54.7 L489.6,54.6 L490.6,54.7 L491.2,54.8 M497.4,56.9 L497.2,56.6 L496.7,56.2 L496.0,55.9 L494.9,55.9 L493.7,56.3 L492.4,57.1 L491.2,58.4 L490.3,60.0 L489.7,61.7 L489.7,63.4 L490.2,64.7 L491.2,65.6 L492.5,66.0 L494.0,65.7 L495.5,64.8 L496.8,63.5 L497.7,61.8 L498.3,60.0 L498.4,58.4 L498.1,57.1 L497.6,56.2 L497.0,55.6 L496.4,55.4 L496.1,55.4 M501.9,56.2 L501.8,56.4 L501.7,56.9 L501.6,57.7 L501.5,58.9 L501.5,60.3 L501.5,61.8 L501.7,63.2 L502.2,64.4 L502.8,65.2 L503.6,65.4 L504.5,65.1 L505.5,64.2 L506.5,63.0 L507.3,61.6 L508.0,60.1 L508.4,58.9 L508.6,58.0 L508.7,57.5 L508.6,57.4 L508.4,57.8 L508.2,58.8 L508.1,60.1 L508.2,61.6 L508.5,63.1 L509.1,64.4 L510.1,65.3 L511.2,65.8 L512.5,65.7 L513.8,65.1 L515.0,64.1 L516.0,62.7 L516.7,61.1 L517.0,59.5 L517.0,58.0 L516.8,56.9 L516.6,56.3 M521.7,56.5 L521.9,57.0 L522.0,57.9 L522.0,59.2 L521.9,60.7 L521.8,62.2 L521.6,63.5 L521.5,64.5 L521.6,65.0 L521.8,65.0 L522.1,64.4 L522.6,63.3 L523.2,61.8 L524.0,60.2 L524.9,58.6 L525.9,57.1 L526.9,56.0 L527.9,55.2 L528.8,54.9 L529.6,55.1 L530.2,55.7 L530.5,56.7 L530.7,58.1 L530.7,59.6 L530.6,61.2 L530.5,62.7 L530.5,63.8 L530.6,64.5 L530.8,64.8 M548.6,57.5 L548.8,56.7 L549.3,55.5 L549.7,53.8 L549.9,52.0 L549.9,50.1 L549.7,48.4 L549.3,46.9 L548.8,45.8 L548.1,45.1 L547.3,45.0 L546.5,45.6 L545.7,46.9 L544.9,48.9 L544.2,51.4 L543.8,54.3 L543.6,57.4 L543.6,60.5 L543.8,63.4 L544.2,65.9 L544.6,67.8 L545.1,69.0 L545.4,69.5 L545.6,69.5 L545.7,69.3 M539.9,58.4 L540.2,58.4 L540.7,58.5 L541.6,58.7 L543.0,58.8 L544.8,59.0 L546.8,59.0 L548.6,59.1 L549.7,59.0 M555.6,57.5 L555.4,57.3 L554.9,57.1 L554.1,56.9 L553.1,57.1 L552.1,57.5 L551.1,58.4 L550.3,59.5 L549.9,60.8 L549.9,62.1 L550.5,63.1 L551.5,63.8 L552.9,64.1 L554.5,63.9 L556.1,63.2 L557.5,62.2 L558.6,60.9 L559.2,59.5 L559.3,58.1 L559.0,57.0 L558.4,56.1 L557.5,55.6 L556.7,55.4 L556.0,55.5 L555.6,55.6 M564.3,55.1 L564.3,55.2 L564.3,55.4 L564.3,55.9 L564.4,56.6 L564.4,57.7 L564.5,58.9 L564.6,60.2 L564.8,61.4 L565.0,62.5 L565.3,63.4 L565.5,64.0 L565.6,64.2 M566.0,57.2 L566.0,57.1 L565.8,57.2 L565.6,57.3 L565.3,57.6 L564.8,58.2 L564.3,59.0 L563.8,59.6 L563.5,60.1 M589.4,58.7 L589.4,58.3 L589.5,57.8 L589.6,57.2 L589.7,56.7 L589.8,56.5 L589.9,56.7 L589.9,57.4 L589.9,58.6 L589.8,60.4 L589.8,62.7 L589.9,65.4 L589.9,68.5 L589.9,71.8 L589.8,75.3 L589.5,78.8 L588.9,82.0 L588.1,84.7 L587.1,86.8 L586.1,88.2 L585.0,88.7 L584.1,88.4 L583.4,87.2 L583.0,85.9 L582.8,84.9 M588.4,51.2 L588.4,51.2 L588.5,51.3 L588.7,51.5 L588.8,51.7 M594.9,54.5 L594.8,54.3 L594.7,54.1 L594.7,54.1 L594.6,54.4 L594.5,55.1 L594.4,56.2 L594.3,57.7 L594.3,59.3 L594.4,60.8 L594.7,62.0 L595.2,62.8 L596.0,63.1 L596.8,62.8 L597.8,61.9 L598.7,60.7 L599.7,59.2 L600.5,57.5 L601.2,56.0 L601.7,54.8 L602.1,53.9 L602.2,53.5 L602.3,53.6 L602.2,54.1 L602.0,55.1 L601.8,56.4 L601.6,58.0 L601.5,59.5 L601.7,60.9 L602.1,61.9 L602.6,62.4 L603.2,62.5 L603.6,62.5 M606.6,53.9 L606.7,54.2 L606.7,54.8 L606.8,55.8 L606.8,57.0 L606.8,58.4 L606.8,59.7 L606.8,60.8 L606.8,61.6 L606.8,62.0 L607.0,61.9 L607.2,61.3 L607.6,60.3 L608.2,58.9 L608.8,57.3 L609.6,55.7 L610.5,54.4 L611.4,53.3 L612.3,52.7 L613.1,52.5 L613.8,52.8 L614.4,53.5 L614.8,54.5 L615.0,55.9 L615.0,57.4 L614.9,58.9 L614.8,60.1 L614.6,61.0 L614.5,61.5 L614.5,61.6 L614.7,61.1 L615.1,60.2 L615.6,59.0 L616.3,57.6 L617.1,56.2 L618.0,54.9 L618.8,54.0 L619.6,53.5 L620.2,53.4 L620.8,53.8 L621.1,54.6 L621.3,55.8 L621.3,57.3 L621.2,58.9 L621.1,60.4 L621.1,61.5 L621.2,62.2 L621.5,62.5 L621.7,62.6 M625.0,54.3 L625.0,54.3 L625.0,54.5 L625.0,54.9 L625.0,55.7 L624.9,57.0 L624.8,58.6 L624.7,60.6 L624.6,62.9 L624.5,65.3 L624.3,67.8 L624.2,70.1 L624.0,72.0 L623.8,73.4 L623.7,74.3 L623.7,74.6 L623.7,74.2 L623.7,73.2 L623.8,71.7 L623.9,69.7 L624.1,67.4 L624.5,64.9 L624.9,62.5 L625.4,60.2 L626.0,58.2 L626.7,56.4 L627.6,55.1 L628.6,54.2 L629.7,53.8 L630.8,53.9 L631.8,54.4 L632.6,55.3 L633.1,56.4 L633.2,57.8 L632.8,59.1 L632.1,60.2 L631.0,61.1 L629.8,61.7 L628.6,61.9 L627.6,62.0 L627.0,61.9 L626.8,61.7 L626.9,61.6 L627.3,61.4 L627.6,61.3 M642.8,52.7 L642.6,52.3 L642.2,51.8 L641.6,51.3 L640.7,51.0 L639.7,51.0 L638.7,51.3 L638.0,51.8 L637.7,52.5 L637.8,53.3 L638.6,54.2 L639.9,55.1 L641.5,56.0 L643.2,56.8 L644.7,57.7 L645.8,58.4 L646.4,59.1 L646.2,59.7 L645.5,60.2 L644.1,60.5 L642.3,60.8 L640.4,60.8 L638.5,60.8 L637.0,60.7 L636.1,60.7 " stroke="black" stroke-width="1.5" fill="none" stroke-linecap="round"/></svg>