<svg xmlns="http://www.w3.org/2000/svg" viewBox="0 0 1000 120"><rect width="1000" height="120" fill="white"/><path d="M0,0 M314.0,48.6 L314.1,48.7 L314.3,49.1 L314.6,49.9 L314.8,51.0 L314.9,52.5 L314.8,54.3 L314.5,56.3 L314.2,58.4 L313.9,60.5 L313.7,62.3 L313.6,63.9 L313.6,65.0 L313.5,65.6 L313.5,65.7 L313.4,65.6 L313.3,65.4 M305.8,48.6 L306.0,48.5 L306.5,48.3 L307.5,48.1 L308.9,47.9 L310.7,47.8 L312.6,47.7 L314.6,47.7 L316.6,47.6 L318.5,47.6 L320.2,47.5 L321.5,47.4 L322.3,47.4 M326.2,45.6 L326.3,45.9 L326.4,46.6 L326.4,47.8 L326.4,49.2 L326.1,51.0 L325.7,53.0 L325.2,55.0 L324.7,57.1 L324.3,58.9 L324.0,60.5 L323.8,61.6 L323.8,62.3 L323.9,62.6 L324.1,62.4 L324.5,61.8 L325.1,60.8 L326.1,59.5 L327.3,58.1 L328.6,56.7 L330.1,55.6 L331.6,54.8 L333.0,54.3 L334.4,54.3 L335.6,54.7 L336.6,55.6 L337.3,56.8 L337.6,58.3 L337.7,59.9 L337.6,61.6 L337.5,63.0 L337.3,64.1 L337.3,64.9 L337.5,65.3 L337.8,65.2 L338.2,65.0 L338.5,64.8 M343.0,62.6 L343.2,62.7 L343.6,62.7 L344.3,62.5 L345.5,62.2 L346.8,61.6 L348.3,60.8 L349.8,59.8 L351.0,58.8 L351.9,57.8 L352.5,56.8 L352.6,55.9 L352.3,55.3 L351.5,54.9 L350.3,54.9 L348.9,55.2 L347.4,56.1 L345.9,57.3 L344.6,58.9 L343.7,60.5 L343.4,62.1 L343.8,63.6 L344.9,64.8 L346.6,65.7 L348.9,66.2 L351.6,66.3 L354.4,66.1 L356.7,65.7 L358.1,65.4 M388.7,62.2 L388.7,61.8 L388.6,61.2 L388.4,60.4 L388.0,59.6 L387.3,58.8 L386.4,58.2 L385.3,57.7 L384.0,57.4 L382.6,57.4 L381.2,57.7 L379.8,58.5 L378.5,59.6 L377.4,61.0 L376.6,62.5 L376.2,64.1 L376.3,65.5 L376.8,66.5 L377.8,67.2 L379.2,67.3 L380.8,66.9 L382.6,66.0 L384.3,64.8 L385.8,63.4 L387.1,61.8 L388.1,60.4 L388.6,59.3 L389.0,58.5 L389.1,58.0 L389.0,57.9 L388.9,58.1 L388.7,58.9 L388.3,60.1 L387.9,61.8 L387.4,63.8 L387.0,66.0 L386.6,68.3 L386.3,70.5 L386.2,72.6 L386.1,74.4 L386.2,75.9 L386.5,77.0 L386.7,77.7 L386.9,77.9 L387.1,78.0 M393.2,58.4 L393.2,58.7 L393.2,59.3 L393.2,60.2 L393.1,61.4 L393.0,62.7 L393.0,64.0 L393.1,65.1 L393.5,65.9 L394.2,66.3 L395.1,66.2 L396.2,65.6 L397.5,64.6 L398.8,63.1 L400.1,61.5 L401.4,59.7 L402.5,58.1 L403.5,56.8 L404.2,55.8 L404.6,55.2 L404.8,54.9 L404.9,55.1 L404.7,55.8 L404.5,56.9 L404.2,58.4 L403.9,60.0 L403.7,61.5 L403.8,62.9 L404.0,64.0 L404.5,64.7 L405.2,65.0 L406.1,64.8 L407.1,64.1 L408.3,63.1 L409.5,61.8 L410.7,60.4 L411.7,59.0 L412.6,57.8 L413.2,56.9 L413.6,56.2 L413.8,56.0 L413.8,56.1 L413.7,56.6 L413.5,57.5 L413.2,58.8 L412.8,60.2 L412.4,61.6 L412.1,62.9 L411.9,64.0 L411.9,64.6 L412.1,64.8 L412.2,64.7 L412.4,64.5 M415.2,48.6 L415.2,48.5 L415.2,48.3 L415.2,48.2 L415.2,48.3 M426.8,56.4 L426.6,56.2 L426.2,55.9 L425.5,55.8 L424.5,55.8 L423.3,56.1 L421.9,56.8 L420.4,57.8 L419.1,58.9 L418.2,60.2 L417.7,61.5 L417.8,62.7 L418.5,63.7 L419.8,64.3 L421.5,64.6 L423.6,64.4 L426.0,63.8 L428.4,62.7 L430.6,61.3 L432.3,60.1 L433.2,59.3 M437.0,46.0 L437.0,46.2 L437.1,46.6 L437.0,47.4 L436.9,48.6 L436.7,50.1 L436.3,51.8 L435.9,53.6 L435.5,55.4 L435.1,57.2 L434.8,58.8 L434.6,60.2 L434.5,61.4 L434.5,62.2 L434.6,62.7 L434.8,62.8 L435.2,62.6 L435.8,61.9 L436.7,61.0 L437.8,59.9 L439.1,58.7 L440.5,57.6 L441.8,56.6 L443.0,55.8 L443.9,55.1 L444.4,54.7 L444.5,54.6 L444.3,54.6 L444.1,54.6 M437.0,58.9 L437.1,59.2 L437.4,59.7 L437.9,60.4 L438.8,61.2 L439.9,62.0 L441.1,62.7 L442.4,63.4 L443.8,63.9 L445.1,64.2 L446.3,64.2 L447.3,64.2 L447.9,64.0 M466.6,48.9 L466.5,49.5 L466.2,50.5 L465.9,52.0 L465.5,53.7 L465.1,55.6 L464.7,57.4 L464.3,59.2 L463.8,60.6 L463.5,61.8 L463.2,62.6 L463.1,62.9 L463.2,62.9 L463.4,62.4 L463.8,61.6 L464.5,60.5 L465.5,59.2 L466.9,57.9 L468.5,56.8 L470.2,55.9 L472.1,55.2 L474.0,55.0 L475.7,55.1 L477.2,55.6 L478.4,56.4 L479.1,57.5 L479.3,58.7 L479.1,59.9 L478.3,61.2 L477.1,62.2 L475.5,63.1 L473.7,63.7 L471.6,64.1 L469.6,64.1 L467.6,63.8 L465.9,63.3 L464.4,62.6 L463.5,61.7 L463.1,60.8 L463.1,60.1 L463.2,59.7 M481.9,55.4 L481.9,55.8 L481.8,56.6 L481.7,57.7 L481.5,59.1 L481.2,60.4 L480.9,61.7 L480.6,62.8 L480.3,63.6 L480.2,64.0 L480.2,64.0 L480.2,63.5 L480.4,62.6 L480.6,61.3 L481.1,59.8 L481.8,58.2 L482.7,56.7 L483.9,55.3 L485.3,54.2 L486.9,53.4 L488.6,52.9 L490.3,52.9 L492.0,53.2 L493.3,53.5 L494.1,53.8 M502.5,55.8 L502.3,55.5 L501.7,55.2 L500.9,54.9 L499.9,54.9 L498.5,55.3 L497.1,56.0 L495.6,57.1 L494.3,58.4 L493.3,59.8 L492.9,61.2 L493.1,62.3 L493.9,63.1 L495.2,63.6 L497.0,63.5 L498.9,63.1 L501.0,62.2 L502.8,61.0 L504.2,59.7 L505.1,58.3 L505.5,57.0 L505.4,55.9 L504.9,55.0 L504.2,54.3 L503.5,54.0 L502.9,53.9 L502.5,54.0 L502.4,54.3 L502.3,54.5 M511.2,55.8 L510.9,56.1 L510.6,56.8 L510.1,57.8 L509.7,59.0 L509.4,60.3 L509.2,61.6 L509.2,62.6 L509.5,63.5 L510.1,63.9 L510.9,63.9 L512.0,63.4 L513.2,62.5 L514.5,61.3 L515.7,60.1 L516.6,58.9 L517.3,57.9 L517.7,57.3 L517.9,56.9 L518.0,56.9 L518.0,57.3 L517.9,58.1 L517.9,59.2 L517.9,60.4 L518.1,61.6 L518.4,62.7 L519.1,63.4 L520.0,63.8 L521.2,63.8 L522.6,63.3 L524.0,62.4 L525.4,61.3 L526.6,59.9 L527.5,58.5 L528.0,57.1 L528.1,55.9 L528.0,54.9 L527.6,54.2 L527.3,53.7 L527.0,53.6 L526.8,53.6 M532.3,54.4 L532.3,54.6 L532.3,55.1 L532.2,56.0 L532.0,57.2 L531.6,58.5 L531.3,59.9 L531.0,61.1 L530.8,62.2 L530.8,62.8 L530.9,63.1 L531.2,63.0 L531.6,62.4 L532.2,61.3 L533.1,60.0 L534.2,58.5 L535.4,57.0 L536.7,55.7 L538.1,54.6 L539.7,53.8 L541.2,53.3 L542.6,53.3 L543.9,53.7 L545.0,54.5 L545.8,55.6 L546.3,57.0 L546.6,58.6 L546.6,60.2 L546.5,61.7 L546.3,63.0 L546.3,64.0 L546.3,64.6 L546.3,64.9 M577.1,48.1 M576.6,46.7 L576.5,46.4 L576.1,45.9 L575.7,45.4 L575.1,45.1 L574.5,45.0 L573.7,45.2 L572.8,45.7 L571.9,46.5 L570.8,47.7 L569.8,49.3 L568.9,51.1 L568.2,53.1 L567.6,55.1 L567.1,57.2 L566.8,59.2 L566.5,61.2 L566.3,62.9 L566.1,64.5 L566.1,65.6 L566.2,66.4 L566.3,66.7 L566.4,66.7 L566.5,66.5 M562.2,58.9 L562.2,58.9 L562.4,58.8 L563.0,58.8 L564.1,58.6 L565.6,58.5 L567.6,58.3 L569.7,58.1 L571.9,57.9 L574.1,57.7 L576.0,57.6 L577.4,57.5 L578.2,57.4 M583.5,56.5 L583.2,56.4 L582.5,56.3 L581.5,56.3 L580.2,56.5 L578.8,57.0 L577.4,57.7 L576.2,58.6 L575.4,59.6 L575.0,60.7 L575.0,61.7 L575.6,62.4 L576.6,62.9 L577.9,63.0 L579.6,62.7 L581.4,62.1 L583.1,61.1 L584.6,60.0 L585.6,58.8 L586.2,57.6 L586.2,56.5 L585.8,55.6 L585.0,54.9 L584.0,54.5 L582.9,54.4 L581.8,54.6 L581.0,55.1 L580.4,55.5 L580.2,55.9 M595.1,54.8 L595.1,54.8 L595.0,55.0 L594.7,55.5 L594.2,56.4 L593.4,57.4 L592.4,58.7 L591.2,60.1 L590.1,61.4 L589.1,62.5 L588.4,63.2 L587.9,63.6 L587.7,63.7 M590.6,54.7 L590.6,54.7 L590.8,54.9 L591.1,55.3 L591.6,55.9 L592.2,56.7 L592.9,57.7 L593.6,58.7 L594.2,59.7 L594.8,60.7 L595.4,61.5 L595.9,62.1 L596.2,62.5 M616.3,57.1 L616.3,57.1 L616.4,57.2 L616.6,57.6 L616.9,58.2 L617.1,59.3 L617.3,60.7 L617.3,62.5 L617.0,64.6 L616.6,67.0 L615.9,69.5 L615.1,71.9 L614.1,74.1 L613.0,76.0 L611.7,77.4 L610.5,78.3 L609.4,78.6 L608.4,78.3 L607.5,77.6 L607.0,76.8 L606.7,76.3 M617.3,47.0 L617.3,47.0 L617.3,47.2 L617.5,47.4 L617.7,47.7 M624.8,55.0 L624.8,55.1 L624.9,55.1 L624.9,55.3 L624.8,55.7 L624.7,56.3 L624.6,57.2 L624.4,58.3 L624.4,59.5 L624.5,60.7 L624.8,61.7 L625.3,62.5 L626.1,62.9 L627.2,63.0 L628.5,62.6 L630.1,61.8 L631.7,60.7 L633.3,59.4 L634.7,58.0 L635.8,56.8 L636.6,55.7 L637.1,55.0 L637.3,54.7 L637.2,54.7 L637.0,55.1 L636.8,56.0 L636.4,57.1 L636.1,58.5 L636.0,59.8 L636.0,60.9 L636.2,61.9 L636.4,62.4 L636.7,62.7 M642.3,55.2 L642.3,55.2 L642.3,55.2 L642.3,55.6 L642.3,56.2 L642.2,57.2 L642.0,58.4 L641.8,59.6 L641.6,60.8 L641.4,61.7 L641.4,62.3 L641.4,62.6 L641.5,62.5 L641.7,62.0 L642.1,61.0 L642.6,59.8 L643.3,58.3 L644.2,56.9 L645.1,55.6 L646.1,54.5 L647.2,53.7 L648.3,53.2 L649.4,53.1 L650.3,53.4 L651.0,54.0 L651.5,54.9 L651.7,56.0 L651.8,57.2 L651.6,58.4 L651.4,59.5 L651.2,60.3 L651.1,60.8 L651.1,61.0 L651.2,60.7 L651.6,60.1 L652.2,59.1 L653.1,57.9 L654.3,56.6 L655.5,55.5 L656.7,54.6 L657.9,53.9 L659.0,53.6 L660.0,53.7 L660.8,54.1 L661.3,54.7 L661.7,55.6 L661.8,56.7 L661.7,57.8 L661.5,58.8 L661.4,59.8 L661.3,60.5 L661.3,61.0 L661.4,61.2 M666.7,55.8 L666.8,56.1 L666.9,56.7 L667.0,57.6 L666.9,58.9 L666.7,60.3 L666.3,62.0 L665.8,63.8 L665.2,65.8 L664.7,67.7 L664.2,69.4 L663.8,70.9 L663.4,71.9 L663.2,72.6 L663.2,72.7 L663.3,72.4 L663.5,71.5 L663.8,70.1 L664.1,68.4 L664.5,66.5 L665.0,64.5 L665.6,62.5 L666.2,60.5 L667.0,58.7 L667.9,57.0 L669.0,55.6 L670.3,54.5 L671.6,53.8 L673.0,53.4 L674.4,53.3 L675.8,53.6 L677.0,54.2 L678.0,55.1 L678.8,56.0 L679.1,57.0 L679.0,58.0 L678.5,58.9 L677.5,59.7 L676.2,60.3 L674.6,60.7 L673.0,60.9 L671.3,61.0 L669.9,60.9 L669.0,60.7 L668.4,60.6 M688.3,53.6 L688.2,53.4 L687.9,53.1 L687.3,52.9 L686.6,52.8 L685.6,52.8 L684.5,53.1 L683.5,53.4 L682.8,53.9 L682.5,54.4 L682.8,54.9 L683.6,55.5 L684.8,56.1 L686.4,56.8 L688.2,57.4 L690.0,58.1 L691.6,58.8 L692.9,59.4 L693.8,60.0 L694.2,60.5 L694.1,61.0 L693.6,61.4 L692.5,61.9 L691.1,62.2 L689.2,62.5 L687.0,62.7 L684.8,62.7 L683.1,62.7 L682.0,62.7 " stroke="black" stroke-width="1.5" fill="none" stroke-linecap="round"/></svg>