<svg xmlns="http://www.w3.org/2000/svg" viewBox="0 0 1000 120"><path d="M325.9,53.7 L325.8,53.3 L325.3,52.9 L324.6,52.5 L323.7,52.3 L322.6,52.3 L321.6,52.6 L321.0,53.3 L320.8,54.1 L321.2,55.2 L322.1,56.5 L323.3,57.8 L324.6,59.1 L325.7,60.3 L326.4,61.2 L326.5,62.0 L326.0,62.5 L324.8,62.8 L323.2,62.8 L321.4,62.5 L319.7,62.1 L318.3,61.5 L317.5,61.0 L317.1,60.6 M283.4,54.0 L283.4,54.3 L283.3,54.8 L283.3,55.7 L283.3,57.0 L283.3,58.4 L283.2,59.8 L283.2,61.0 L283.3,61.8 L283.6,62.0 L284.0,61.7 L284.7,60.8 L285.6,59.5 L286.6,57.9 L287.6,56.4 L288.6,55.2 L289.3,54.3 L289.9,54.0 L290.2,54.1 L290.2,54.8 L290.1,55.8 L289.9,57.2 L289.6,58.6 L289.4,59.8 L289.5,60.5 L289.9,60.8 L290.5,60.5 L291.5,59.6 L292.7,58.3 L294.0,56.8 L295.3,55.5 L296.5,54.4 L297.4,53.7 L298.0,53.4 L298.3,53.7 L298.3,54.4 L298.1,55.6 L297.9,57.1 L297.7,58.6 L297.7,59.9 L298.1,60.8 L298.7,61.2 L299.8,61.0 L301.1,60.3 L302.4,59.1 L303.8,57.7 L304.9,56.2 L305.8,54.9 L306.4,54.0 L306.7,53.5 L306.7,53.6 L306.5,54.2 L306.2,55.4 L305.8,57.4 L305.3,59.8 L304.9,62.6 L304.5,65.5 L304.1,68.3 L303.7,70.6 L303.4,72.4 L303.2,73.4 L303.0,73.6 L303.0,73.0 L303.1,71.6 L303.3,69.5 L303.7,67.0 L304.3,64.3 L305.1,61.5 L306.1,58.9 L307.3,56.7 L308.8,54.9 L310.4,53.7 L312.2,53.1 L313.8,53.1 L315.3,53.7 L316.4,54.6 L316.9,55.8 L316.8,57.1 L316.1,58.4 L314.8,59.4 L313.0,60.2 L311.1,60.6 L309.4,60.6 L308.1,60.4 L307.4,60.1 L307.4,59.7 L308.2,59.3 L309.1,59.0 L309.9,58.7 M270.9,54.8 L270.8,55.1 L270.6,55.8 L270.4,56.9 L270.2,58.2 L270.3,59.5 L270.4,60.8 L270.8,61.8 L271.2,62.4 L271.8,62.5 L272.6,62.0 L273.5,61.0 L274.4,59.7 L275.4,58.2 L276.3,56.8 L277.0,55.6 L277.4,54.8 L277.5,54.5 L277.5,54.6 L277.3,55.3 L276.9,56.4 L276.6,57.8 L276.4,59.2 L276.5,60.6 L276.9,61.5 L277.7,61.9 L278.7,61.7 L279.6,61.3 L280.2,60.9 M266.7,47.8 L266.8,47.6 L267.0,47.4 L267.2,47.4 M266.2,55.9 L266.3,56.2 L266.4,56.7 L266.6,57.6 L266.7,59.0 L266.8,60.7 L266.7,62.8 L266.6,65.2 L266.4,67.8 L266.0,70.6 L265.4,73.3 L264.7,75.7 L263.8,77.8 L262.7,79.4 L261.6,80.3 L260.4,80.6 L259.4,80.2 L258.5,79.1 L258.0,77.4 L257.7,75.8 L257.6,74.6 M241.1,56.8 L241.2,57.0 L241.3,57.3 L241.4,57.9 L241.6,58.9 L241.8,59.9 L242.0,60.8 L242.2,61.3 M241.9,55.7 L242.0,55.7 L242.0,55.9 L241.9,56.4 L241.8,57.1 L241.5,58.1 L241.0,59.3 L240.6,60.6 L240.1,61.9 L239.7,62.9 L239.4,63.4 L239.3,63.6 L239.2,63.6 M214.8,58.5 L215.2,58.6 L216.1,58.8 L217.5,59.0 L219.4,59.2 L221.6,59.3 L223.9,59.2 L226.1,59.0 L228.1,58.7 L229.7,58.3 L230.7,57.9 L231.1,57.5 L230.8,57.2 L229.9,57.2 L228.7,57.6 L227.3,58.3 L226.2,59.4 L225.5,60.6 L225.4,61.7 L226.0,62.6 L227.2,63.2 L228.8,63.2 L230.6,62.7 L232.4,61.8 L233.8,60.5 L234.7,59.1 L235.0,57.8 L234.7,56.6 L234.0,55.7 L233.1,55.1 L232.1,55.0 L231.3,55.1 L230.9,55.2 M227.6,49.3 L227.2,48.7 L226.6,47.7 L225.7,46.7 L224.6,45.9 L223.5,45.6 L222.4,45.8 L221.3,46.6 L220.3,47.9 L219.5,49.9 L219.1,52.2 L218.9,54.9 L219.0,57.8 L219.4,60.7 L220.0,63.3 L220.7,65.6 L221.3,67.3 L221.8,68.2 L222.1,68.4 L222.1,68.2 L222.1,67.9 M195.6,55.6 L195.6,55.8 L195.6,56.4 L195.3,57.3 L195.0,58.5 L194.6,59.8 L194.3,61.1 L194.1,62.2 L194.1,62.9 L194.4,63.1 L195.1,62.8 L196.0,61.9 L197.3,60.7 L198.8,59.3 L200.4,58.0 L201.9,57.0 L203.3,56.4 L204.3,56.2 L205.1,56.5 L205.7,57.3 L206.0,58.3 L206.2,59.7 L206.4,61.0 L206.7,62.4 L207.3,63.5 L208.1,64.3 L209.2,64.8 L210.2,65.0 L210.9,65.0 M175.1,56.5 L175.0,56.6 L174.9,57.0 L174.8,57.7 L174.6,58.7 L174.5,60.0 L174.6,61.4 L175.0,62.6 L175.6,63.6 L176.6,64.0 L177.7,64.0 L179.0,63.3 L180.1,62.3 L181.1,61.0 L181.8,59.7 L182.1,58.7 L182.2,58.0 L182.1,57.8 L181.9,58.0 L181.7,58.7 L181.6,59.8 L181.7,61.1 L182.1,62.4 L182.9,63.4 L184.0,64.1 L185.3,64.1 L186.8,63.7 L188.2,62.7 L189.3,61.3 L190.1,59.8 L190.6,58.3 L190.6,57.0 L190.4,56.0 L190.0,55.4 L189.7,55.1 L189.5,55.0 L189.4,55.1 M167.6,56.7 L167.3,56.6 L166.7,56.5 L165.7,56.6 L164.5,57.0 L163.2,57.9 L162.0,59.0 L161.2,60.3 L160.9,61.7 L161.2,63.0 L162.1,63.9 L163.5,64.4 L165.3,64.3 L167.2,63.6 L169.0,62.5 L170.5,61.0 L171.4,59.4 L171.8,57.9 L171.5,56.6 L170.8,55.8 L169.9,55.3 L168.8,55.4 L167.9,55.9 L167.2,56.5 L166.9,57.0 M152.5,58.2 L152.4,58.8 L152.3,59.9 L152.1,61.2 L152.0,62.6 L151.8,63.8 L151.7,64.8 L151.6,65.3 L151.6,65.4 L151.6,64.9 L151.8,63.9 L152.1,62.5 L152.6,60.8 L153.3,59.2 L154.2,57.8 L155.3,56.7 L156.5,56.0 L157.9,55.8 L159.3,55.9 L160.4,56.2 L161.2,56.5 M139.3,48.9 L139.3,49.0 L139.3,49.3 L139.4,50.0 L139.4,51.1 L139.2,52.8 L139.0,54.8 L138.7,56.9 L138.5,59.1 L138.3,61.0 L138.4,62.6 L138.5,63.6 L138.9,64.1 L139.5,64.1 L140.2,63.6 L141.2,62.6 L142.4,61.5 L143.7,60.3 L145.0,59.3 L146.4,58.6 L147.8,58.4 L149.1,58.6 L150.1,59.2 L150.8,60.1 L150.9,61.3 L150.5,62.5 L149.5,63.8 L147.9,64.8 L145.9,65.5 L143.6,65.8 L141.4,65.6 L139.6,65.0 L138.3,64.0 L137.8,62.7 L138.1,61.2 L138.6,60.0 L139.1,59.2 M110.2,57.3 L110.0,57.2 L109.5,57.0 L108.7,56.9 L107.7,57.0 L106.5,57.6 L105.4,58.5 L104.6,59.8 L104.1,61.2 L104.2,62.6 L104.8,63.8 L106.1,64.6 L107.8,64.7 L109.9,64.1 L112.1,62.7 L114.3,60.6 L116.3,57.9 L117.8,55.1 L118.9,52.4 L119.5,50.1 L119.7,48.4 L119.5,47.4 L119.2,47.3 L118.7,47.9 L118.2,49.2 L117.7,51.3 L117.4,53.7 L117.2,56.4 L117.2,59.0 L117.4,61.2 L117.5,62.8 L117.7,63.9 L117.9,64.2 L118.2,63.9 L118.5,62.9 L118.9,61.5 L119.4,59.8 L120.1,58.1 L120.8,56.6 L121.4,55.6 L122.0,55.0 L122.4,54.8 L122.7,55.0 L122.7,55.7 L122.4,56.7 L121.8,58.0 L121.1,59.4 L120.5,60.7 L120.0,61.7 L119.9,62.5 L120.1,63.0 L120.5,63.2 L120.9,63.2 M100.4,52.5 L100.4,52.4 L100.4,52.4 L100.5,52.5 L100.6,52.6 M82.3,57.7 L82.2,58.3 L82.0,59.3 L81.8,60.6 L81.9,62.0 L82.2,63.2 L82.7,64.0 L83.4,64.4 L84.4,64.3 L85.5,63.6 L86.6,62.5 L87.7,61.1 L88.6,59.8 L89.3,58.7 L89.6,57.9 L89.8,57.6 L89.7,57.6 L89.6,58.1 L89.4,58.9 L89.4,60.1 L89.5,61.3 L90.0,62.4 L90.7,63.1 L91.7,63.3 L93.0,63.0 L94.3,62.2 L95.8,61.0 L97.2,59.6 L98.4,58.4 L99.3,57.4 L99.9,56.9 L100.2,56.7 L100.2,57.1 L100.0,57.9 L99.7,59.2 L99.4,60.7 L99.2,62.3 L99.2,63.5 L99.4,64.2 L99.7,64.5 L99.9,64.5 M76.0,57.5 L75.7,57.2 L75.3,56.8 L74.6,56.5 L73.5,56.5 L72.3,56.9 L71.1,57.6 L70.0,58.7 L69.2,59.9 L68.9,61.2 L69.2,62.2 L70.0,62.9 L71.2,63.1 L72.6,62.7 L74.1,61.9 L75.5,60.8 L76.6,59.5 L77.3,58.3 L77.7,57.4 L77.9,56.9 L77.8,56.8 L77.6,57.1 L77.4,58.0 L77.0,59.4 L76.7,61.5 L76.3,63.9 L76.1,66.6 L76.0,69.3 L76.1,71.6 L76.4,73.4 L76.9,74.4 L77.3,74.8 L77.7,74.8 M36.1,45.6 L36.1,46.1 L36.1,47.2 L36.1,48.8 L36.0,50.9 L35.9,53.3 L35.9,55.7 L35.9,58.1 L36.0,60.1 L36.2,61.6 L36.6,62.5 L37.0,62.7 L37.7,62.3 L38.4,61.4 L39.3,60.2 L40.2,59.1 L41.1,58.1 L41.8,57.5 L42.4,57.3 L42.8,57.6 L43.1,58.4 L43.3,59.6 L43.5,61.0 L43.9,62.4 L44.6,63.5 L45.6,64.2 L47.0,64.3 L48.5,63.8 L50.1,62.8 L51.6,61.2 L52.7,59.5 L53.3,57.8 L53.4,56.5 L53.0,55.6 L52.2,55.2 L51.2,55.5 L50.2,56.3 L49.4,57.6 L49.1,59.3 L49.3,61.0 L50.4,62.5 L52.3,63.7 L54.7,64.3 L56.9,64.6 L58.4,64.6 M20.3,46.6 L20.4,46.5 L20.7,46.5 L21.5,46.5 L22.9,46.6 L24.9,46.6 L27.2,46.5 L29.2,46.4 L30.5,46.4 M27.2,48.6 L27.0,49.4 L26.8,50.8 L26.6,52.8 L26.5,55.2 L26.4,57.7 L26.4,60.2 L26.4,62.5 L26.5,64.3 L26.6,65.4 L26.7,65.8 L26.7,65.8 L26.7,65.5 " stroke="black" stroke-width="1.49" fill="none" stroke-linecap="round"/></svg>