<svg xmlns="http://www.w3.org/2000/svg" viewBox="0 0 1000 120"><path d="M427.8,50.3 L427.7,50.6 L427.6,51.1 L427.7,51.9 L428.2,52.9 L429.1,53.9 L430.1,55.0 L431.2,56.1 L432.1,57.1 L432.8,57.9 L433.2,58.5 L433.0,59.0 L432.3,59.1 L431.1,59.0 L429.4,58.6 L427.3,57.9 L425.2,57.1 L423.0,56.2 L421.3,55.5 L420.3,55.0 M428.8,50.6 M409.2,53.1 L409.3,53.7 L409.3,54.8 L409.4,56.2 L409.5,57.7 L409.6,59.4 L409.6,61.0 L409.5,62.6 L409.3,64.0 L408.9,65.0 L408.4,65.7 L407.9,66.0 L407.4,65.7 L406.9,65.1 L406.6,64.0 L406.3,62.7 L406.2,61.1 L406.4,59.5 L406.8,57.9 L407.5,56.3 L408.6,54.8 L410.0,53.6 L411.6,52.8 L413.4,52.4 L415.2,52.4 L416.8,52.7 L418.3,53.3 L419.3,54.0 L419.9,54.8 L420.0,55.5 L419.6,56.3 L418.7,56.9 L417.3,57.4 L415.6,57.6 L413.7,57.7 L411.9,57.6 L410.2,57.2 L409.0,56.8 L408.2,56.5 L407.8,56.2 M409.1,52.1 M379.1,51.9 L379.1,52.5 L379.1,53.4 L379.1,54.5 L379.1,55.7 L379.3,56.8 L379.4,57.6 L379.4,58.2 L379.4,58.4 L379.4,58.3 L379.4,57.8 L379.5,57.0 L379.7,55.9 L380.1,54.8 L380.6,53.7 L381.4,52.6 L382.3,51.7 L383.4,50.9 L384.6,50.5 L385.8,50.4 L387.0,50.6 L388.1,51.2 L389.1,52.0 L389.9,52.9 L390.5,53.9 L390.9,54.9 L391.1,55.7 L391.1,56.3 L391.0,56.7 L390.8,56.8 L390.7,56.7 L390.6,56.2 L390.7,55.5 L390.9,54.7 L391.2,53.7 L391.8,52.8 L392.6,51.9 L393.6,51.3 L394.7,50.9 L395.9,50.7 L397.0,50.9 L398.0,51.4 L398.9,52.1 L399.6,52.9 L400.2,53.8 L400.8,54.8 L401.3,55.8 L401.7,56.6 L402.2,57.2 L402.6,57.6 L403.1,57.8 L403.5,57.8 L403.8,57.8 M365.5,51.1 L365.4,51.5 L365.3,52.2 L365.3,53.2 L365.4,54.3 L365.8,55.5 L366.4,56.6 L367.1,57.6 L367.9,58.3 L368.7,58.6 L369.5,58.6 L370.3,58.3 L371.0,57.6 L371.7,56.7 L372.4,55.7 L372.9,54.5 L373.3,53.5 L373.6,52.6 L373.8,51.9 L373.9,51.6 L373.9,51.6 L373.9,52.0 L373.8,52.7 L373.8,53.7 L373.9,54.9 L374.0,56.2 L374.3,57.3 L374.8,58.3 L375.4,59.1 L376.1,59.5 L376.8,59.6 L377.4,59.5 L377.8,59.3 M360.4,44.7 L360.5,44.8 L360.5,45.2 L360.6,45.7 L360.5,46.2 M359.6,53.1 L359.9,53.9 L360.2,55.2 L360.7,57.0 L361.2,58.9 L361.7,61.0 L362.1,63.3 L362.3,65.6 L362.2,67.9 L361.7,69.9 L360.8,71.6 L359.5,72.8 L357.8,73.3 L355.9,73.2 L354.0,72.5 L352.2,71.3 L350.7,69.5 L349.6,67.4 L349.0,65.0 L348.7,63.0 L348.6,61.7 M321.7,53.0 L322.0,53.5 L322.6,54.3 L323.3,55.4 L324.1,56.4 L324.9,57.4 L325.8,58.3 L326.4,58.9 L326.8,59.2 M326.1,51.5 L325.8,52.0 L325.2,52.9 L324.3,54.2 L323.2,55.5 L322.0,56.8 L320.9,57.9 L319.8,58.8 L319.1,59.4 L318.7,59.6 M314.3,52.2 L313.3,52.3 L311.9,52.7 L310.2,53.3 L308.9,54.1 L308.0,55.1 L307.6,56.3 L307.8,57.4 L308.4,58.3 L309.4,59.0 L310.7,59.4 L312.2,59.5 L313.7,59.2 L315.0,58.6 L316.2,57.7 L317.0,56.5 L317.6,55.2 L317.9,54.0 L317.9,53.1 L317.8,52.4 L317.7,52.1 M297.0,53.5 L297.7,53.5 L299.0,53.4 L300.6,53.4 L302.4,53.5 L304.2,53.7 L306.0,53.8 L307.4,54.0 L308.3,54.1 M305.1,45.4 L304.4,45.1 L303.2,45.0 L301.9,45.0 L300.6,45.5 L299.4,46.4 L298.5,47.7 L297.8,49.4 L297.3,51.4 L297.1,53.5 L297.0,55.6 L297.0,57.7 L297.1,59.7 L297.2,61.5 L297.3,63.1 L297.5,64.1 L297.5,64.7 M250.7,51.7 L250.6,52.1 L250.4,52.9 L250.3,53.9 L250.3,54.9 L250.3,55.9 L250.4,56.6 L250.5,57.2 L250.6,57.5 L250.6,57.4 L250.7,57.0 L251.0,56.3 L251.3,55.4 L251.9,54.3 L252.7,53.3 L253.7,52.4 L254.9,51.7 L256.3,51.2 L257.9,51.0 L259.5,51.0 L261.1,51.4 L262.7,52.0 L264.1,52.8 L265.4,53.8 L266.5,54.8 L267.5,55.8 L268.2,56.7 L268.7,57.4 L269.0,58.0 L269.1,58.4 L269.2,58.6 L269.2,58.6 L269.2,58.6 M229.9,50.7 L229.7,50.9 L229.3,51.3 L228.9,52.0 L228.6,53.0 L228.4,54.2 L228.4,55.5 L228.7,56.7 L229.1,57.7 L229.6,58.4 L230.4,58.8 L231.3,58.7 L232.2,58.3 L233.3,57.6 L234.3,56.7 L235.3,55.7 L236.0,54.8 L236.6,54.2 L237.0,53.9 L237.3,53.9 L237.6,54.3 L238.0,55.0 L238.4,55.9 L239.0,56.9 L239.8,57.8 L240.7,58.7 L241.7,59.3 L242.9,59.5 L244.0,59.5 L245.1,59.0 L246.0,58.2 L246.6,57.1 L247.0,55.7 L247.0,54.2 L246.8,52.7 L246.6,51.6 L246.4,51.0 M224.0,51.9 L223.5,51.5 L222.6,51.2 L221.2,51.0 L219.6,51.1 L217.9,51.6 L216.3,52.5 L215.0,53.6 L214.1,54.9 L213.7,56.2 L213.8,57.5 L214.5,58.6 L215.6,59.6 L217.1,60.1 L218.8,60.4 L220.6,60.1 L222.3,59.5 L223.7,58.6 L224.7,57.3 L225.4,55.9 L225.6,54.4 L225.4,53.1 L224.9,52.1 L224.3,51.4 L223.9,51.1 M200.0,53.8 L199.9,54.3 L199.8,55.2 L199.7,56.3 L199.5,57.3 L199.4,58.3 L199.3,59.1 L199.2,59.7 L199.2,60.0 L199.2,59.9 L199.1,59.4 L199.1,58.6 L199.0,57.5 L199.1,56.2 L199.3,54.9 L199.6,53.6 L200.1,52.6 L200.8,51.8 L201.9,51.2 L203.3,51.0 L205.0,50.9 L207.0,51.1 L209.1,51.4 L211.3,51.8 L213.4,52.1 L215.4,52.5 L217.1,52.9 L218.2,53.1 L218.9,53.3 M180.1,48.5 L180.0,49.3 L179.9,50.7 L179.8,52.5 L179.6,54.3 L179.4,56.0 L179.1,57.5 L178.8,58.8 L178.5,59.6 L178.2,60.1 L177.9,60.1 L177.7,59.8 L177.6,59.1 L177.8,58.1 L178.2,57.0 L178.8,55.9 L179.7,54.8 L180.9,53.9 L182.3,53.2 L184.0,52.8 L185.9,52.7 L187.9,53.0 L189.8,53.6 L191.5,54.5 L193.0,55.6 L194.0,56.8 L194.5,58.1 L194.4,59.3 L193.7,60.3 L192.4,61.1 L190.7,61.5 L188.5,61.7 L186.0,61.5 L183.3,60.9 L180.7,60.2 L178.2,59.2 L176.2,58.1 L174.8,56.8 L174.1,55.6 L173.9,54.6 L174.0,54.0 M151.6,55.5 L151.1,55.7 L150.3,56.1 L149.3,56.7 L148.4,57.3 L147.7,58.0 L147.4,58.6 L147.6,59.2 L148.2,59.8 L149.5,60.3 L151.2,60.7 L152.8,61.1 L153.9,61.2 M148.7,48.4 L148.6,49.2 L148.4,50.6 L148.2,52.4 L148.0,54.2 L148.0,56.1 L148.0,57.7 L148.1,59.0 L148.1,59.8 M133.8,54.1 L133.3,54.6 L132.5,55.3 L131.9,56.3 L131.5,57.4 L131.6,58.6 L132.1,59.7 L133.0,60.8 L134.3,61.7 L136.0,62.4 L137.9,62.7 L140.0,62.6 L142.2,62.0 L144.1,61.0 L145.6,59.9 L146.5,59.2 M136.6,54.5 M125.8,48.2 M108.1,54.8 L107.9,55.1 L107.5,55.8 L107.2,56.8 L107.0,58.1 L107.1,59.4 L107.5,60.8 L108.1,61.9 L108.9,62.9 L109.8,63.5 L110.8,63.7 L111.8,63.5 L112.9,62.9 L113.9,61.9 L114.9,60.7 L115.7,59.3 L116.3,57.8 L116.7,56.5 L116.9,55.4 L117.0,54.7 L117.1,54.3 L117.1,54.3 L117.1,54.7 L117.1,55.4 L117.2,56.5 L117.5,57.7 L117.9,59.0 L118.5,60.1 L119.3,60.9 L120.3,61.5 L121.4,61.7 L122.5,61.5 L123.6,61.0 L124.6,60.2 L125.5,59.2 L126.2,58.1 L126.6,57.0 L126.9,56.0 L127.0,55.3 L127.0,54.9 L127.0,54.9 L126.8,55.2 L126.7,55.8 L126.6,56.8 L126.5,57.8 L126.6,59.0 L126.7,60.0 L126.9,60.8 L127.1,61.2 M102.1,54.7 L101.9,54.3 L101.5,53.6 L100.7,52.9 L99.6,52.4 L98.2,52.1 L96.7,52.1 L95.2,52.4 L93.7,53.1 L92.4,54.1 L91.5,55.3 L91.0,56.8 L91.0,58.2 L91.5,59.6 L92.5,60.8 L93.8,61.6 L95.2,62.0 L96.8,62.0 L98.4,61.6 L99.9,60.9 L101.2,59.9 L102.3,58.8 L103.1,57.6 L103.5,56.6 L103.7,55.8 L103.8,55.3 L103.7,55.3 L103.6,55.7 L103.5,56.6 L103.4,58.0 L103.3,59.8 L103.2,62.1 L103.1,64.6 L103.1,67.2 L103.1,69.7 L103.1,72.0 L103.2,73.9 L103.4,75.3 L103.5,76.1 L103.6,76.5 L103.6,76.6 M56.6,57.3 L57.4,57.2 L58.5,57.1 L59.9,56.8 L61.2,56.5 L62.2,56.0 L63.0,55.4 L63.3,54.8 L63.3,54.1 L62.7,53.6 L61.8,53.3 L60.6,53.2 L59.2,53.4 L57.8,53.8 L56.6,54.6 L55.6,55.6 L55.0,56.8 L54.9,58.0 L55.2,59.3 L56.1,60.4 L57.5,61.5 L59.2,62.3 L61.2,62.8 L63.3,63.2 L65.3,63.2 L67.2,63.0 L68.9,62.5 L70.1,62.1 L70.7,61.7 M35.0,48.2 L35.0,49.1 L34.9,50.6 L34.7,52.6 L34.4,54.5 L34.1,56.4 L33.8,58.0 L33.6,59.5 L33.3,60.5 L33.1,61.2 L33.0,61.4 L33.0,61.2 L33.1,60.6 L33.4,59.6 L33.9,58.4 L34.6,57.1 L35.5,55.8 L36.7,54.7 L38.1,53.9 L39.7,53.3 L41.5,53.1 L43.3,53.2 L45.1,53.6 L46.7,54.4 L48.0,55.4 L49.1,56.5 L49.8,57.8 L50.2,59.1 L50.5,60.3 L50.6,61.3 L50.6,62.1 L50.6,62.6 L50.7,62.9 L50.7,62.9 L50.8,62.9 L50.8,62.8 M20.0,45.1 L20.6,45.2 L21.6,45.3 L23.0,45.3 L24.7,45.2 L26.4,45.2 L28.2,45.1 L29.7,45.0 L30.6,44.9 M21.0,50.4 L20.9,51.5 L20.8,53.2 L20.6,55.3 L20.5,57.5 L20.4,59.7 L20.3,61.8 L20.3,63.7 L20.3,65.2 L20.2,66.4 L20.2,67.0 L20.3,67.2 L20.3,67.1 " stroke="black" stroke-width="1.44" fill="none" stroke-linecap="round"/></svg>