<svg xmlns="http://www.w3.org/2000/svg" viewBox="0 0 1000 120"><rect width="1000" height="120" fill="white"/><path d="M0,0 M303.1,47.9 L303.1,47.9 L303.1,47.9 L303.1,48.0 L303.2,48.2 L303.2,48.8 L303.1,49.8 L303.0,51.2 L302.8,53.1 L302.5,55.4 L302.1,58.0 L301.8,60.8 L301.5,63.6 L301.2,66.2 L301.0,68.5 L300.9,70.4 L300.8,71.7 L300.7,72.5 L300.7,72.6 L300.7,72.4 L300.7,72.1 M298.6,45.9 L298.5,45.6 L298.7,45.3 L299.1,45.0 L299.9,45.0 L301.1,45.1 L302.8,45.3 L304.9,45.4 L307.2,45.6 L309.7,45.7 L312.2,45.8 L314.6,45.9 L316.7,46.0 L318.4,46.1 L319.5,46.3 L320.2,46.4 L320.5,46.5 M314.9,58.3 L314.7,59.1 L314.5,60.6 L314.2,62.6 L313.8,64.9 L313.4,67.1 L313.0,69.2 L312.8,71.0 L312.7,72.4 L312.7,73.3 L312.8,73.7 L313.1,73.5 L313.6,72.8 L314.3,71.5 L315.3,70.0 L316.5,68.3 L317.9,66.6 L319.5,65.2 L321.1,64.0 L322.7,63.3 L324.2,63.0 L325.5,63.1 L326.5,63.6 L327.3,64.6 L327.8,65.8 L328.0,67.2 L328.0,68.7 L327.8,70.3 L327.7,71.6 L327.6,72.8 L327.6,73.6 L327.8,74.1 L327.9,74.3 M332.2,71.3 L332.3,71.3 L332.7,71.3 L333.3,71.2 L334.4,71.0 L335.7,70.6 L337.3,70.1 L339.0,69.4 L340.7,68.5 L342.2,67.6 L343.3,66.7 L344.1,65.8 L344.3,65.0 L344.1,64.3 L343.3,63.9 L342.1,63.9 L340.6,64.1 L338.8,64.8 L337.0,65.8 L335.4,67.0 L334.1,68.3 L333.4,69.7 L333.4,71.1 L334.0,72.4 L335.4,73.6 L337.4,74.4 L339.9,74.9 L342.7,75.2 L345.6,75.2 L348.3,74.9 L350.8,74.5 L352.5,74.1 L353.5,73.8 M380.7,70.1 L380.8,69.7 L380.9,69.0 L380.9,68.1 L380.5,67.1 L379.9,66.0 L378.9,65.0 L377.6,64.1 L376.1,63.4 L374.4,63.0 L372.6,63.0 L370.9,63.3 L369.4,64.0 L368.1,65.1 L367.2,66.4 L366.7,67.8 L366.9,69.3 L367.5,70.5 L368.7,71.4 L370.3,71.9 L372.3,72.0 L374.5,71.7 L376.7,71.0 L378.8,70.2 L380.5,69.1 L381.9,68.2 L382.8,67.3 L383.2,66.7 L383.3,66.3 L383.2,66.3 L383.0,66.6 L382.7,67.3 L382.3,68.4 L381.9,69.9 L381.6,71.6 L381.3,73.4 L381.1,75.4 L380.9,77.4 L380.9,79.3 L381.0,81.1 L381.3,82.5 L381.6,83.6 L381.8,84.3 L382.1,84.5 L382.4,84.2 L382.7,83.5 L383.0,82.4 L383.5,80.8 L384.0,79.1 L384.5,77.2 L385.0,75.2 L385.6,73.4 L386.1,71.7 L386.6,70.3 L387.1,69.1 L387.6,68.2 L387.9,67.7 L388.2,67.5 L388.3,67.6 L388.4,68.0 L388.5,68.8 L388.6,69.8 L388.7,71.1 L388.9,72.5 L389.1,73.9 L389.5,75.0 L390.1,75.9 L390.8,76.4 L391.7,76.5 L392.8,76.1 L394.0,75.3 L395.2,74.0 L396.3,72.6 L397.3,71.0 L398.1,69.4 L398.7,68.0 L399.1,67.0 L399.3,66.3 L399.3,66.0 L399.2,66.2 L398.9,66.8 L398.6,67.8 L398.3,69.1 L398.1,70.5 L398.2,71.9 L398.6,73.1 L399.4,73.9 L400.5,74.4 L401.8,74.5 L403.3,74.1 L404.9,73.3 L406.4,72.3 L407.8,71.0 L408.9,69.8 L409.7,68.6 L410.2,67.6 L410.4,67.0 L410.4,66.7 L410.4,66.8 L410.2,67.2 L410.1,68.0 L409.9,69.1 L409.8,70.3 L409.9,71.5 L410.2,72.5 L410.6,73.3 L411.2,73.7 L411.6,73.8 L411.9,73.8 M411.7,60.3 L411.7,59.9 L411.7,59.4 L411.7,59.1 L411.8,59.0 M423.6,68.3 L423.5,68.1 L423.3,67.6 L422.9,67.1 L422.2,66.7 L421.3,66.5 L420.3,66.6 L419.2,67.0 L418.1,67.6 L417.2,68.5 L416.6,69.5 L416.3,70.6 L416.5,71.7 L417.3,72.6 L418.5,73.4 L420.2,73.8 L422.4,73.8 L424.8,73.5 L427.3,72.7 L429.9,71.6 L432.3,70.0 L434.7,68.2 L436.7,66.0 L438.4,63.5 L439.7,61.0 L440.6,58.4 L441.2,56.1 L441.5,54.1 L441.4,52.6 L441.1,51.6 L440.5,51.1 L439.8,51.3 L438.9,52.0 L438.0,53.3 L437.1,55.1 L436.3,57.3 L435.6,59.9 L435.1,62.7 L434.8,65.5 L434.5,68.2 L434.5,70.6 L434.6,72.6 L434.7,74.0 L434.9,74.9 L435.1,75.2 L435.2,75.1 L435.2,74.5 L435.3,73.5 L435.4,72.1 L435.7,70.4 L436.1,68.6 L436.9,66.8 L437.9,65.2 L439.2,63.8 L440.6,62.7 L442.0,62.0 L443.4,61.7 L444.7,61.8 L445.8,62.2 L446.7,62.8 L447.3,63.5 L447.7,64.3 L447.7,65.1 L447.5,65.7 L447.0,66.1 L446.3,66.2 L445.4,66.2 L444.2,66.1 L442.8,65.9 L441.3,65.8 L439.9,65.8 L438.5,65.9 L437.5,66.1 L436.9,66.4 L436.7,66.8 L436.9,67.3 L437.5,67.9 L438.5,68.6 L439.8,69.3 L441.5,70.1 L443.3,70.8 L445.1,71.4 L447.0,71.9 L448.7,72.3 L450.3,72.6 L451.8,72.8 L453.0,72.7 L453.8,72.6 L454.3,72.4 M473.4,51.2 L473.4,51.1 L473.5,51.1 L473.5,51.3 L473.5,51.9 L473.3,53.0 L472.9,54.5 L472.4,56.5 L471.9,58.7 L471.3,61.0 L470.9,63.3 L470.7,65.4 L470.7,67.1 L470.8,68.5 L471.0,69.3 L471.4,69.6 L472.0,69.4 L472.8,68.8 L473.9,67.8 L475.3,66.6 L476.9,65.4 L478.7,64.2 L480.5,63.3 L482.2,62.7 L483.9,62.5 L485.4,62.7 L486.7,63.3 L487.6,64.3 L488.0,65.5 L487.9,66.9 L487.3,68.3 L486.2,69.6 L484.6,70.7 L482.6,71.5 L480.4,71.9 L478.3,72.0 L476.3,71.9 L474.7,71.5 L473.5,70.9 L472.7,70.3 L472.6,69.6 L473.0,68.8 L473.9,68.1 L475.0,67.6 L475.8,67.3 M491.1,64.0 L491.2,64.0 L491.2,64.2 L491.2,64.6 L491.2,65.3 L491.1,66.3 L491.0,67.4 L490.9,68.6 L490.9,69.6 L490.8,70.4 L490.8,70.8 L490.8,70.8 L490.7,70.3 L490.7,69.3 L490.7,68.0 L490.7,66.5 L490.8,64.9 L491.0,63.5 L491.4,62.3 L491.9,61.3 L492.7,60.7 L493.7,60.4 L494.9,60.4 L496.4,60.7 L498.2,61.1 L500.2,61.7 L502.2,62.3 L503.9,62.9 L505.0,63.2 M514.6,65.4 L514.5,64.9 L514.3,64.3 L513.8,63.4 L513.1,62.6 L511.9,62.1 L510.5,61.8 L508.9,61.9 L507.1,62.4 L505.4,63.1 L504.0,64.2 L502.9,65.5 L502.4,66.8 L502.4,68.1 L503.1,69.3 L504.3,70.2 L506.0,70.7 L508.1,70.9 L510.3,70.6 L512.4,69.9 L514.3,68.9 L515.8,67.7 L516.7,66.4 L517.0,65.1 L516.8,64.0 L516.2,63.1 L515.3,62.5 L514.2,62.3 L513.2,62.5 L512.4,62.9 L511.8,63.6 L511.6,64.3 L511.5,64.7 M520.8,63.2 L520.9,63.1 L521.1,63.0 L521.2,63.1 L521.2,63.5 L521.0,64.2 L520.8,65.3 L520.6,66.7 L520.5,68.2 L520.7,69.6 L521.1,70.8 L521.8,71.6 L522.8,71.8 L524.0,71.5 L525.4,70.6 L526.9,69.4 L528.3,67.9 L529.4,66.4 L530.1,65.1 L530.6,64.1 L530.7,63.4 L530.6,63.3 L530.3,63.6 L530.0,64.3 L529.6,65.4 L529.4,66.8 L529.5,68.3 L530.0,69.7 L531.0,70.7 L532.3,71.4 L533.9,71.5 L535.6,71.2 L537.3,70.4 L538.9,69.3 L540.1,67.9 L540.9,66.5 L541.2,65.0 L541.2,63.8 L540.9,62.9 L540.5,62.4 L540.3,62.1 M545.1,62.8 L545.1,62.7 L545.1,62.7 L545.1,62.8 L545.1,63.2 L545.0,63.9 L544.9,64.9 L544.7,66.1 L544.5,67.4 L544.3,68.7 L544.2,69.8 L544.2,70.5 L544.2,70.9 L544.4,70.7 L544.7,70.1 L545.3,69.1 L546.0,67.9 L547.0,66.5 L548.0,65.1 L549.3,63.8 L550.5,62.7 L551.8,61.9 L553.0,61.4 L554.2,61.4 L555.2,61.7 L556.0,62.4 L556.6,63.4 L556.9,64.6 L556.9,66.0 L556.8,67.4 L556.6,68.7 L556.4,69.7 L556.3,70.4 L556.4,70.7 L556.6,70.6 L556.8,70.4 L557.0,70.2 M585.7,54.6 L585.8,53.8 L585.7,52.6 L585.4,51.3 L585.0,50.1 L584.3,49.2 L583.3,48.6 L582.3,48.4 L581.1,48.6 L579.9,49.2 L578.8,50.2 L577.9,51.7 L577.2,53.6 L576.6,55.8 L576.2,58.3 L575.9,60.9 L575.8,63.7 L575.7,66.4 L575.7,68.9 L575.7,71.0 L575.7,72.8 L575.6,73.9 L575.5,74.5 L575.5,74.7 L575.4,74.7 M571.0,65.0 L571.2,65.0 L571.6,65.0 L572.4,65.1 L573.7,65.2 L575.4,65.4 L577.4,65.7 L579.6,65.8 L582.0,65.9 L584.5,65.9 L586.8,65.7 L588.6,65.6 L589.6,65.4 M594.6,64.7 L594.2,64.4 L593.4,64.0 L592.3,63.7 L591.0,63.7 L589.4,63.9 L587.9,64.4 L586.6,65.3 L585.6,66.3 L585.0,67.5 L585.0,68.8 L585.6,69.9 L586.8,70.8 L588.6,71.3 L590.6,71.2 L592.8,70.7 L594.9,69.8 L596.7,68.6 L598.0,67.3 L598.8,65.9 L599.0,64.7 L598.6,63.6 L597.9,62.8 L597.0,62.3 L596.0,62.0 L595.0,61.9 L594.3,61.9 L593.9,62.0 L593.8,62.1 M606.3,62.0 L606.4,62.2 L606.4,62.5 L606.4,63.0 L606.2,63.8 L605.8,64.7 L605.4,65.8 L605.0,67.0 L604.6,68.2 L604.3,69.3 L604.0,70.1 L603.8,70.6 L603.7,70.9 M605.0,64.1 L604.9,64.1 L604.8,64.0 L604.7,63.9 L604.7,63.9 L604.6,64.1 L604.5,64.4 L604.4,64.8 L604.3,65.4 L604.2,66.1 L604.2,66.8 L604.3,67.4 L604.4,68.0 L604.5,68.4 L604.6,68.7 L604.7,68.8 L604.8,68.9 M632.6,62.1 L632.6,62.1 L632.7,62.2 L632.8,62.5 L633.0,63.1 L633.2,64.1 L633.5,65.4 L633.8,67.2 L634.1,69.3 L634.3,71.8 L634.4,74.6 L634.4,77.6 L634.0,80.6 L633.3,83.4 L632.1,85.8 L630.6,87.7 L628.8,88.9 L627.0,89.5 L625.2,89.4 L623.7,88.7 L622.6,87.4 L621.9,85.5 L621.8,83.3 L622.3,80.8 L623.3,78.3 L624.7,75.8 L626.4,73.6 L628.2,71.8 L630.1,70.3 L631.9,69.1 L633.5,68.2 L634.7,67.5 L635.4,67.1 M634.9,52.1 L634.8,52.1 L634.8,52.3 L634.8,52.7 L634.8,53.0 M641.7,63.1 L641.7,62.8 L641.8,62.3 L641.9,61.8 L641.9,61.6 L641.7,61.8 L641.4,62.3 L641.0,63.3 L640.7,64.5 L640.4,66.0 L640.4,67.5 L640.7,68.8 L641.3,69.8 L642.3,70.3 L643.5,70.2 L645.0,69.6 L646.6,68.6 L648.1,67.3 L649.5,65.8 L650.5,64.4 L651.1,63.2 L651.5,62.4 L651.6,62.0 L651.5,61.9 L651.3,62.2 L650.9,62.9 L650.6,64.0 L650.2,65.3 L650.1,66.7 L650.2,68.0 L650.5,68.9 L651.0,69.5 L651.3,69.8 M656.2,61.9 L656.1,61.8 L656.0,61.9 L655.9,62.2 L655.8,62.9 L655.6,64.0 L655.4,65.3 L655.2,66.7 L655.0,67.9 L654.9,68.8 L655.0,69.3 L655.1,69.2 L655.4,68.7 L655.9,67.6 L656.4,66.2 L657.2,64.6 L658.0,62.9 L659.0,61.4 L660.0,60.1 L660.9,59.2 L661.8,58.8 L662.6,58.8 L663.2,59.2 L663.6,60.1 L663.9,61.2 L664.0,62.6 L664.0,64.1 L663.9,65.4 L663.8,66.5 L663.8,67.3 L663.7,67.7 L663.8,67.6 L663.9,67.1 L664.2,66.2 L664.7,65.0 L665.3,63.7 L666.2,62.5 L667.2,61.3 L668.3,60.3 L669.4,59.7 L670.4,59.4 L671.2,59.5 L671.8,59.9 L672.2,60.7 L672.5,61.8 L672.4,63.0 L672.2,64.3 L671.8,65.6 L671.5,66.7 L671.3,67.5 L671.4,67.9 L671.6,68.1 L671.8,68.1 M676.6,62.8 L676.6,62.8 L676.6,62.9 L676.5,63.3 L676.4,64.1 L676.2,65.5 L675.9,67.2 L675.6,69.2 L675.3,71.5 L675.0,73.9 L674.7,76.1 L674.4,78.2 L674.0,79.8 L673.7,80.8 L673.4,81.3 L673.3,81.2 L673.3,80.5 L673.4,79.2 L673.5,77.6 L673.8,75.6 L674.2,73.5 L674.7,71.4 L675.4,69.3 L676.2,67.3 L677.2,65.4 L678.4,63.8 L679.7,62.6 L681.2,61.7 L682.7,61.1 L684.2,61.1 L685.5,61.4 L686.7,62.0 L687.5,62.9 L688.0,64.0 L688.0,65.1 L687.5,66.2 L686.6,67.1 L685.3,67.8 L683.6,68.3 L681.9,68.5 L680.1,68.5 L678.5,68.4 L677.3,68.1 L676.6,67.8 L676.3,67.6 M697.0,60.8 L697.0,60.6 L696.8,60.2 L696.3,59.8 L695.5,59.4 L694.4,59.2 L693.0,59.2 L691.6,59.3 L690.3,59.5 L689.6,59.9 L689.4,60.4 L689.9,61.0 L691.0,61.6 L692.7,62.3 L694.7,63.0 L696.8,63.8 L698.7,64.5 L700.2,65.2 L701.2,65.8 L701.5,66.2 L701.0,66.6 L700.0,66.8 L698.3,66.9 L696.2,66.9 L693.9,66.9 L691.5,66.8 L689.3,66.7 L687.7,66.5 L686.7,66.4 " stroke="black" stroke-width="1.5" fill="none" stroke-linecap="round"/></svg>