<svg xmlns="http://www.w3.org/2000/svg" viewBox="0 0 1000 120"><rect width="1000" height="120" fill="white"/><path d="M0,0 M287.1,47.0 L287.1,47.0 L287.1,46.9 L287.0,47.1 L286.9,47.5 L286.5,48.4 L286.0,49.8 L285.3,51.6 L284.3,53.8 L283.2,56.2 L281.9,58.7 L280.8,61.2 L279.7,63.4 L278.9,65.3 L278.4,66.6 L278.1,67.5 L278.0,67.8 L278.1,67.4 L278.3,66.6 L278.5,65.6 L278.7,64.8 M276.4,48.6 L276.4,48.6 L276.5,48.7 L277.1,48.8 L278.2,48.9 L279.9,48.9 L282.2,48.7 L284.8,48.4 L287.6,47.8 L290.4,47.2 L293.1,46.6 L295.6,46.0 L297.6,45.6 L299.2,45.3 L300.2,45.1 L300.6,45.1 L300.8,45.1 M293.1,60.6 L293.3,60.6 L293.7,60.5 L294.6,60.0 L296.0,59.1 L297.7,57.7 L299.7,56.0 L301.7,54.0 L303.5,51.9 L305.0,49.9 L306.1,48.1 L306.9,46.7 L307.3,45.7 L307.4,45.1 L307.3,45.0 L307.0,45.4 L306.5,46.4 L305.8,48.2 L304.8,50.7 L303.5,53.7 L302.2,56.9 L300.8,60.0 L299.6,62.7 L298.6,64.9 L297.9,66.4 L297.5,67.2 L297.3,67.4 L297.5,67.1 L298.0,66.1 L298.9,64.7 L300.2,63.0 L301.7,61.1 L303.5,59.4 L305.4,57.9 L307.3,56.8 L309.1,56.2 L310.6,56.0 L311.8,56.3 L312.6,57.1 L313.0,58.3 L312.9,59.9 L312.6,61.6 L312.0,63.3 L311.5,64.8 L311.1,66.0 L310.8,66.8 L310.8,67.1 L310.9,67.0 L311.4,66.5 L312.1,65.5 L313.2,64.1 L314.4,62.5 L315.8,60.9 L317.1,59.5 L318.3,58.2 L319.4,57.2 L320.3,56.5 L320.8,56.1 L321.2,56.0 L321.3,56.2 L321.3,56.6 L321.2,57.1 L321.1,57.8 L320.8,58.6 L320.4,59.5 L320.0,60.5 L319.7,61.5 L319.4,62.4 L319.2,63.3 L319.3,64.2 L319.7,64.9 L320.5,65.4 L321.7,65.6 L323.4,65.4 L325.4,64.9 L327.6,64.1 L329.8,63.1 L331.9,61.9 L333.7,60.7 L335.1,59.4 L336.1,58.3 L336.6,57.3 L336.6,56.6 L336.2,56.0 L335.4,55.7 L334.2,55.8 L332.7,56.3 L331.0,57.3 L329.1,58.6 L327.4,60.2 L326.1,61.9 L325.3,63.5 L325.2,65.0 L325.9,66.2 L327.3,67.1 L328.9,67.6 L330.0,67.9 M361.5,63.2 L362.0,62.5 L362.7,61.6 L363.4,60.5 L363.8,59.6 L363.8,58.9 L363.2,58.5 L362.3,58.3 L360.9,58.4 L359.2,59.0 L357.3,60.0 L355.4,61.5 L353.7,63.2 L352.4,65.0 L351.7,66.7 L351.4,68.1 L351.7,69.0 L352.4,69.5 L353.5,69.4 L355.0,68.7 L356.8,67.6 L358.7,66.2 L360.5,64.5 L362.2,62.8 L363.5,61.3 L364.5,60.1 L365.1,59.2 L365.3,58.8 L365.4,58.6 L365.3,58.7 L365.1,59.2 L364.8,60.1 L364.2,61.6 L363.4,63.5 L362.5,65.9 L361.6,68.5 L360.5,71.4 L359.4,74.3 L358.3,77.1 L357.2,79.8 L356.1,82.1 L355.3,83.8 L354.8,85.0 L354.5,85.6 L354.4,85.6 L354.6,85.2 L355.0,84.3 L355.6,82.8 L356.6,80.9 L357.8,78.6 L359.4,76.1 L361.1,73.5 L363.0,71.0 L365.0,68.5 L367.0,66.3 L368.9,64.4 L370.7,62.9 L372.4,61.8 L373.8,61.1 L374.9,60.9 L375.6,61.0 L376.1,61.4 L376.2,62.1 L376.1,63.0 L375.8,64.1 L375.4,65.3 L375.1,66.5 L374.8,67.4 L374.7,68.2 L374.8,68.6 L375.1,68.8 L375.7,68.5 L376.6,67.9 L377.8,67.0 L379.1,65.8 L380.6,64.4 L382.0,63.0 L383.3,61.7 L384.3,60.6 L385.1,59.8 L385.5,59.4 L385.6,59.3 L385.5,59.4 L385.3,59.8 L384.9,60.5 L384.4,61.6 L383.8,62.9 L383.2,64.3 L382.9,65.6 L382.8,66.7 L382.9,67.6 L383.4,68.2 L384.1,68.6 L385.0,68.6 L386.1,68.3 L387.5,67.7 L389.0,66.9 L390.5,65.8 L392.1,64.7 L393.5,63.6 L394.8,62.5 L395.9,61.6 L396.7,60.9 L397.2,60.5 L397.4,60.3 L397.4,60.3 L397.2,60.7 L396.8,61.3 L396.3,62.2 L395.7,63.4 L395.1,64.8 L394.6,66.1 L394.4,67.2 L394.5,68.1 L394.9,68.7 L395.5,68.9 L396.4,68.8 L397.6,68.3 L399.0,67.4 L400.6,66.3 L402.3,65.1 L404.1,63.7 L405.9,62.5 L407.6,61.3 L409.1,60.4 L410.5,59.7 L411.5,59.3 L412.3,59.2 L412.7,59.2 L412.8,59.3 L412.8,59.4 L412.7,59.5 L412.5,59.6 L412.0,59.7 L411.3,59.8 L410.4,60.1 L409.2,60.5 L407.8,61.1 L406.4,62.0 L404.9,63.1 L403.6,64.4 L402.7,65.7 L402.2,67.0 L402.3,68.1 L403.0,68.8 L404.3,69.2 L406.2,69.0 L408.5,68.4 L411.2,67.2 L414.2,65.6 L417.3,63.6 L420.4,61.4 L423.3,58.9 L426.0,56.3 L428.3,53.8 L430.2,51.6 L431.6,49.9 L432.5,48.6 L432.9,47.9 L433.0,47.6 L432.8,47.9 L432.2,48.7 L431.2,50.1 L429.8,52.2 L428.2,54.7 L426.5,57.5 L424.8,60.3 L423.1,62.9 L421.6,65.2 L420.5,66.9 L419.6,68.0 L419.1,68.6 L418.9,68.8 L419.1,68.5 L419.6,67.7 L420.5,66.6 L421.7,65.2 L423.3,63.6 L425.1,62.2 L427.1,60.9 L429.3,59.8 L431.5,59.0 L433.6,58.5 L435.4,58.2 L436.8,58.2 L437.7,58.3 L438.2,58.3 L438.3,58.4 L438.0,58.5 L437.2,58.7 L436.0,58.9 L434.3,59.3 L432.2,59.8 L430.1,60.4 L428.1,61.1 L426.4,62.0 L425.0,63.0 L424.0,64.1 L423.6,65.2 L423.7,66.3 L424.5,67.2 L425.8,67.8 L427.7,68.2 L430.1,68.1 L432.8,67.7 L435.5,67.1 L438.1,66.2 L440.3,65.2 L441.9,64.2 L442.9,63.0 L443.4,62.1 L443.6,61.4 M444.7,53.4 L444.8,53.4 L444.9,53.4 L445.0,53.7 L445.2,54.0 L445.4,54.6 L445.6,55.3 L445.9,56.1 L446.3,57.0 L447.0,57.8 L448.0,58.5 L449.3,59.0 L450.8,59.3 L452.5,59.2 L454.3,58.9 L456.0,58.2 L457.5,57.4 L458.6,56.4 L459.5,55.3 L459.9,54.3 L460.0,53.3 L459.6,52.5 L459.0,52.0 L457.9,51.8 L456.6,52.0 L455.1,52.7 L453.6,53.9 L452.2,55.5 L451.0,57.3 L450.3,59.2 L450.0,61.0 L450.3,62.6 L451.2,63.8 L452.5,64.7 L454.3,65.0 L456.3,64.8 L458.5,64.0 L460.7,62.6 L462.8,60.9 L464.8,58.8 L466.6,56.7 L468.1,54.6 L469.3,52.8 L470.2,51.4 L470.9,50.3 L471.4,49.6 L471.7,49.4 L471.9,49.7 L471.9,50.5 L471.7,51.9 L471.2,53.7 L470.5,55.8 L469.6,58.1 L468.8,60.1 L468.0,61.9 L467.5,63.2 L467.1,63.9 L467.0,64.1 L467.0,63.9 L467.2,63.1 L467.6,61.9 L468.3,60.2 L469.3,58.4 L470.6,56.5 L472.1,54.8 L473.8,53.2 L475.6,51.9 L477.4,51.0 L479.2,50.5 L480.9,50.4 L482.4,50.6 L483.6,51.1 L484.5,51.8 L485.0,52.6 L485.2,53.5 L484.8,54.6 L484.0,55.7 L482.7,56.9 L481.2,58.2 L479.8,59.3 L478.6,60.3 L477.9,61.0 L477.8,61.4 L478.3,61.5 L479.4,61.2 L481.0,60.5 L482.9,59.5 L485.0,58.2 L487.0,56.8 L488.7,55.3 L490.1,53.9 L491.1,52.7 L491.7,51.6 L492.1,50.8 L492.2,50.3 L492.2,50.0 L492.1,50.0 L492.0,50.3 L491.7,51.0 L491.3,52.1 L490.8,53.5 L490.3,55.2 L489.9,56.9 L489.7,58.4 L489.7,59.7 L490.0,60.7 L490.6,61.3 L491.5,61.5 L492.6,61.3 L494.0,60.7 L495.6,59.8 L497.4,58.5 L499.1,57.1 L500.8,55.7 L502.1,54.4 L503.2,53.3 L503.9,52.4 L504.3,51.9 L504.4,51.6 L504.4,51.7 L504.2,52.1 L503.9,52.8 L503.4,54.0 L502.8,55.5 L502.1,57.1 L501.5,58.7 L501.2,59.9 L501.1,60.9 L501.2,61.5 L501.5,61.7 L502.1,61.5 L502.9,60.9 L504.1,59.9 L505.3,58.6 L506.6,57.1 L507.9,55.6 L509.0,54.2 L509.9,53.0 L510.5,52.0 L511.0,51.4 L511.2,51.0 L511.3,50.9 L511.2,51.2 L510.9,51.9 L510.6,52.9 L510.2,54.3 L509.8,55.8 L509.7,57.3 L509.7,58.5 L510.1,59.5 L510.7,60.0 L511.6,60.2 L512.8,59.9 L514.2,59.2 L515.8,58.1 L517.5,56.6 L519.1,55.0 L520.6,53.4 L521.7,52.0 L522.5,50.8 L523.0,49.9 L523.2,49.4 L523.1,49.4 L522.7,49.8 L522.1,50.6 L521.3,52.0 L520.3,53.9 L519.3,56.0 L518.4,58.2 L517.7,60.3 L517.2,62.3 L517.0,64.0 L517.1,65.5 L517.3,66.5 L517.5,67.2 L517.6,67.5 L517.7,67.6 L517.7,67.6 L517.7,67.4 L517.6,67.3 L517.6,67.2 M556.4,57.1 L556.3,56.8 L556.2,56.4 L556.0,55.8 L555.7,55.2 L555.4,54.7 L554.9,54.3 L554.1,54.0 L553.1,54.1 L551.9,54.5 L550.4,55.3 L548.9,56.5 L547.5,58.0 L546.2,59.7 L545.1,61.5 L544.5,63.2 L544.2,64.6 L544.4,65.7 L545.1,66.5 L546.1,66.8 L547.5,66.7 L549.2,66.1 L551.2,65.1 L553.4,63.6 L555.5,61.9 L557.6,60.0 L559.4,58.0 L561.0,55.9 L562.4,53.9 L563.6,52.0 L564.6,50.4 L565.3,49.0 L565.7,48.0 L565.9,47.4 L565.9,47.1 L565.7,47.3 L565.1,47.9 L564.3,49.1 L563.2,50.9 L561.8,53.3 L560.3,56.0 L558.9,58.8 L557.5,61.7 L556.4,64.4 L555.6,66.9 L555.1,69.0 L554.8,70.7 L554.8,71.8 L554.9,72.4 L555.1,72.4 L555.3,72.0 L555.5,71.1 L555.9,69.8 L556.5,68.0 L557.4,66.0 L558.5,63.9 L559.9,61.8 L561.6,59.8 L563.4,58.0 L565.4,56.5 L567.4,55.3 L569.3,54.5 L570.9,54.1 L572.1,54.0 L573.0,54.1 L573.5,54.4 L573.6,54.9 L573.4,55.5 L572.8,56.2 L572.1,57.0 L571.2,57.8 L570.4,58.7 L569.6,59.5 L569.0,60.3 L568.5,61.1 L568.3,61.8 L568.2,62.4 L568.3,62.8 L568.5,63.0 L568.7,63.1 L568.9,63.0 L569.1,62.9 L569.1,62.7 L569.2,62.6 L569.2,62.4 L569.2,62.3 L569.2,62.3 L569.2,62.3 L569.2,62.3 L569.3,62.3 L569.3,62.3 L569.3,62.3 L569.4,62.3 L569.4,62.3 L569.4,62.3 L569.5,62.3 L569.5,62.3 L569.5,62.2 L569.5,62.2 L569.6,62.2 L569.6,62.2 L569.6,62.2 L569.6,62.1 L569.6,62.1 L569.7,62.1 L569.7,62.1 L569.8,62.2 L569.8,62.2 L569.8,62.1 L569.8,62.1 L569.9,62.1 L569.9,62.1 L569.9,62.1 L570.0,62.1 L570.0,62.1 L570.1,62.1 L570.1,62.1 L570.1,62.1 L570.1,62.0 L570.1,62.0 L570.2,62.0 L570.2,62.0 L570.2,62.0 L570.3,62.0 L570.3,62.0 L570.3,62.0 L570.3,61.9 L570.3,61.9 L570.4,61.9 L570.4,61.9 L570.4,61.9 L570.4,61.9 L570.5,61.8 L570.5,61.8 L570.5,61.8 L570.6,61.8 L570.6,61.8 L570.6,61.8 L570.7,61.8 L570.7,61.9 L570.7,61.9 L570.8,61.9 L570.8,61.9 L570.8,61.8 L570.9,61.8 L571.0,61.8 L571.0,61.8 L571.1,61.7 L571.1,61.7 L571.2,61.7 L571.2,61.6 L571.2,61.6 L571.2,61.6 L571.3,61.6 L571.3,61.6 L571.3,61.6 L571.3,61.6 M573.4,59.8 L573.2,60.3 L572.9,61.1 L572.6,62.2 L572.3,63.4 L572.1,64.5 L571.9,65.6 L571.8,66.5 L571.8,67.2 L571.9,67.7 L572.1,67.9 L572.4,67.9 L572.9,67.4 L573.7,66.5 L574.7,65.3 L576.0,63.9 L577.4,62.3 L578.8,60.7 L580.2,59.2 L581.6,57.9 L582.9,56.7 L584.0,55.8 L585.1,55.2 L586.0,55.0 L586.9,55.1 L587.9,55.5 L588.9,56.1 L590.0,56.9 L591.2,57.6 L592.6,58.2 L594.0,58.6 L595.4,58.7 L596.8,58.6 L598.1,58.1 L599.1,57.5 L599.8,56.6 L600.3,55.6 L600.4,54.6 L600.0,53.6 L599.4,52.8 L598.4,52.2 L597.1,52.0 L595.6,52.1 L593.9,52.5 L592.1,53.4 L590.3,54.7 L588.7,56.2 L587.4,58.0 L586.5,59.8 L586.0,61.6 L586.0,63.3 L586.4,64.7 L587.3,65.8 L588.7,66.6 L590.6,66.8 L592.8,66.7 L595.4,66.0 L598.2,65.0 L601.0,63.5 L603.9,61.7 L606.5,59.8 L608.8,57.9 L610.7,56.1 L612.2,54.6 L613.2,53.5 L613.8,52.7 L614.0,52.4 L614.0,52.4 L613.8,52.8 L613.5,53.6 L613.1,55.0 L612.5,56.7 L611.9,58.7 L611.3,60.9 L610.7,63.0 L610.2,64.9 L609.6,66.7 L609.0,68.1 L608.6,69.2 L608.2,69.8 L608.1,70.1 L608.1,69.9 L608.3,69.3 L608.7,68.3 L609.3,66.9 L610.1,65.2 L611.1,63.4 L612.4,61.6 L613.9,59.9 L615.6,58.4 L617.5,57.1 L619.6,56.0 L621.7,55.4 L623.7,55.1 L625.5,55.2 L627.1,55.7 L628.2,56.4 L629.0,57.3 L629.3,58.5 L629.3,59.9 L628.8,61.5 L627.9,63.1 L626.8,64.6 L625.3,65.9 L623.8,67.0 L622.2,67.7 L620.7,68.0 L619.5,67.9 L618.9,67.8 M638.3,51.7 L638.4,51.6 L638.4,51.7 L638.3,52.1 L638.0,52.9 L637.5,54.2 L636.7,55.8 L635.6,57.7 L634.4,59.8 L633.2,62.0 L632.0,64.2 L630.9,66.3 L630.0,67.9 L629.3,69.2 L628.8,69.9 L628.6,70.2 L628.6,70.0 L628.9,69.2 L629.5,67.9 L630.4,66.0 L631.7,63.9 L633.2,61.7 L635.0,59.5 L636.9,57.6 L638.8,55.9 L640.5,54.7 L641.9,53.9 L642.9,53.5 L643.5,53.7 L643.8,54.2 L643.8,55.3 L643.5,56.7 L643.0,58.4 L642.4,60.2 L641.9,61.9 L641.6,63.4 L641.7,64.7 L642.2,65.6 L643.0,66.1 L644.2,66.2 L645.7,65.8 L647.4,65.0 L649.3,63.8 L651.2,62.4 L652.9,60.9 L654.4,59.3 L655.6,57.8 L656.5,56.6 L657.1,55.6 L657.3,54.9 L657.3,54.6 L657.1,54.6 L656.7,55.1 L656.1,56.0 L655.4,57.3 L654.5,58.9 L653.7,60.5 L653.0,62.1 L652.6,63.6 L652.5,64.8 L652.8,65.6 L653.4,66.1 L654.4,66.2 L655.7,65.8 L657.4,65.0 L659.4,63.9 L661.5,62.4 L663.6,60.8 L665.6,59.2 L667.3,57.6 L668.8,56.2 L669.9,55.1 L670.5,54.3 L670.7,53.9 L670.6,54.0 L670.3,54.5 L669.7,55.4 L668.9,56.8 L668.0,58.4 L667.1,60.3 L666.3,62.1 L665.7,63.9 L665.2,65.5 L665.0,67.0 L665.0,68.1 L665.0,69.0 L665.2,69.5 L665.3,69.8 L665.4,69.8 L665.4,69.7 L665.4,69.4 L665.4,68.8 L665.5,67.9 L665.8,66.8 L666.2,65.6 L666.9,64.3 L667.9,62.9 L669.1,61.5 L670.5,60.1 L672.2,58.8 L674.0,57.7 L675.8,56.9 L677.6,56.3 L679.2,56.0 L680.6,56.1 L681.8,56.4 L682.7,57.0 L683.4,57.9 L683.7,58.9 L683.7,60.1 L683.4,61.4 L682.8,62.7 L681.9,63.9 L681.0,65.0 L680.0,65.9 L679.0,66.7 L678.0,67.1 L677.1,67.2 L676.2,67.0 L675.6,66.7 L675.2,66.4 M695.3,56.0 L695.3,56.0 L695.2,56.2 L694.9,56.6 L694.3,57.3 L693.5,58.3 L692.5,59.5 L691.2,61.0 L689.9,62.6 L688.7,64.3 L687.7,65.8 L686.9,67.2 L686.4,68.1 L686.2,68.7 L686.1,69.0 L686.3,68.8 L686.7,68.1 L687.5,67.0 L688.5,65.6 L689.8,63.9 L691.3,62.1 L692.9,60.5 L694.5,58.9 L696.0,57.7 L697.4,56.7 L698.6,56.0 L699.5,55.6 L700.2,55.5 L700.6,55.7 L700.8,56.3 L700.7,57.1 L700.4,58.2 L699.9,59.6 L699.2,61.0 L698.4,62.6 L697.7,64.0 L697.1,65.3 L696.6,66.4 L696.3,67.2 L696.0,67.6 L696.0,67.7 L696.0,67.5 L696.1,67.0 L696.4,66.0 L696.9,64.8 L697.5,63.2 L698.2,61.6 L699.1,59.9 L700.0,58.3 L701.0,56.8 L702.0,55.4 L703.0,54.3 L704.0,53.4 L705.0,52.7 L705.9,52.3 L706.6,52.1 L707.2,52.1 L707.6,52.3 L707.9,52.6 L708.1,53.1 L708.2,53.8 L708.1,54.6 L707.9,55.5 L707.7,56.4 L707.3,57.5 L706.9,58.5 L706.5,59.6 L706.0,60.6 L705.4,61.6 L704.8,62.5 L704.3,63.3 L703.7,63.9 L703.1,64.4 L702.6,64.6 L702.1,64.7 L701.8,64.7 L701.5,64.7 L701.4,64.6 L701.4,64.4 L701.3,64.3 L701.3,64.2 M723.6,52.0 L723.4,51.8 L723.0,51.7 L722.5,51.7 " stroke="black" stroke-width="1.5" fill="none" stroke-linecap="round"/></svg>